<svg width="400" height="290" viewBox="0 0 400 290" fill="none" xmlns="http://www.w3.org/2000/svg">
    <rect width="400" height="290" rx="4" fill="#FEB4C7"/>
    <path d="M173.465 136.001C176.451 136.001 179.22 136.974 181.514 138.63V136.794H189.633V165.493H181.514V163.659C179.22 165.315 176.451 166.288 173.465 166.288C165.562 166.288 159.156 159.508 159.156 151.145C159.156 142.781 165.562 136.001 173.465 136.001ZM259.119 136.001C262.105 136.001 264.874 136.974 267.168 138.63V136.794H275.287V165.493H267.168V163.659C264.874 165.315 262.105 166.288 259.119 166.288C251.217 166.288 244.811 159.508 244.811 151.145C244.811 142.781 251.217 136.001 259.119 136.001ZM283.905 155.317C286.719 155.318 289 157.732 289 160.71C289 163.687 286.719 166.101 283.905 166.102C281.092 166.102 278.811 163.687 278.811 160.71C278.811 157.732 281.092 155.317 283.905 155.317ZM141.474 124C141.474 132.986 138.164 141.345 132.269 147.559L144.707 165.509H133.593L120.074 146.001L123.563 143.236C129.349 138.65 132.667 131.638 132.667 124H141.474ZM119.001 124V165.507H110V124H119.001ZM155.83 165.498H147.33V124.01H155.83V165.498ZM230.383 136.025C236.924 136.025 241.941 140.567 241.941 147.246V165.496H233.832V150.355C233.832 146.17 231.78 143.913 228.212 143.913C224.883 143.913 222.117 146.051 222.117 150.415V165.496H213.934V136.799H222.018V140.031C224.07 137.091 227.14 136.025 230.383 136.025ZM202.192 140.533C203.82 138.291 206.852 136.797 210.149 136.797V145.147C210.117 145.147 210.086 145.145 210.053 145.145C206.84 145.145 202.211 147.574 202.211 152.095V165.494H193.879V136.795H202.192V140.533ZM174.132 143.762C170.069 143.762 166.775 147.068 166.775 151.146C166.776 155.223 170.069 158.529 174.132 158.529C178.195 158.529 181.489 155.223 181.489 151.146C181.489 147.068 178.195 143.762 174.132 143.762ZM259.786 143.762C255.723 143.762 252.43 147.068 252.43 151.146C252.43 155.223 255.723 158.529 259.786 158.529C263.849 158.529 267.142 155.223 267.143 151.146C267.143 147.068 263.849 143.762 259.786 143.762Z" fill="#17120F"/>
</svg>
