<svg width="1248" height="702" viewBox="0 0 1248 702" fill="none" xmlns="http://www.w3.org/2000/svg">
    <rect width="1248" height="702" rx="4" fill="#EA1D25"/>
    <g clip-path="url(#clip0_719_2)">
        <path d="M434.984 347.623C434.768 344.589 433.905 341.556 432.179 338.928L417.505 314.864C416.427 313.044 415.563 311.022 415.132 309L414.484 310.011C410.816 315.875 410.816 323.357 414.484 329.221L426.353 348.432C430.021 354.296 430.021 361.778 426.353 367.642L425.705 368.653C425.274 366.631 424.411 364.609 423.332 362.789L412.542 345.196L405.637 333.872C404.558 332.052 403.695 330.03 403.264 328.008L402.616 329.019C398.948 334.883 398.948 342.163 402.616 348.229L414.484 367.44C418.153 373.304 418.153 380.786 414.484 386.65L413.837 387.661C413.406 385.639 412.542 383.617 411.463 381.797L396.574 357.733C394.632 354.498 393.769 350.858 393.769 347.218C378.017 351.06 367.012 359.351 367.012 368.855C367.012 382.201 388.159 392.918 414.269 392.918C440.379 392.918 461.526 382.201 461.526 368.855C461.741 359.755 450.952 351.465 434.984 347.623ZM479.652 388.672C479.867 385.234 480.299 383.01 481.378 380.179C486.341 382.403 492.814 383.414 497.562 383.414C505.762 383.414 510.509 380.988 510.509 375.933C510.509 371.079 507.056 368.855 498.856 365.417L494.325 363.8C485.909 360.362 480.299 355.913 480.299 347.218C480.299 337.714 487.42 331.648 501.662 331.648C507.488 331.648 512.882 332.457 517.846 334.074C517.63 337.31 516.982 339.939 516.119 342.365C511.372 340.747 505.546 339.939 501.446 339.939C493.678 339.939 490.225 342.77 490.225 347.218C490.225 351.465 493.678 354.094 499.935 356.52L504.683 358.34C515.903 362.789 520.651 367.642 520.651 375.73C520.651 385.234 512.882 391.907 497.778 391.907C490.657 391.907 484.615 390.896 479.652 388.672ZM568.339 348.836V390.492H559.276L558.845 385.437C556.255 389.076 552.587 391.503 546.329 391.503C534.677 391.503 526.693 383.414 526.693 369.462C526.693 354.902 535.108 346.409 551.508 346.409C557.982 346.612 563.376 347.218 568.339 348.836ZM558.629 380.988V354.902C556.687 354.498 554.313 354.498 551.508 354.498C541.366 354.498 536.619 360.362 536.619 369.664C536.619 378.157 540.287 384.223 548.919 384.223C553.019 384.021 556.04 382.808 558.629 380.988ZM618.401 362.586V390.492H608.691V364.204C608.691 357.531 606.317 354.498 596.607 354.498C594.234 354.498 591.644 354.7 588.839 355.105V390.492H579.129V348.836C585.386 347.42 592.291 346.409 596.823 346.409C613.223 346.612 618.401 352.476 618.401 362.586ZM645.59 383.819C648.396 383.819 651.201 383.414 653.143 382.606C652.927 385.032 652.496 387.863 652.064 390.29C649.475 391.301 646.454 391.705 643.864 391.705C634.37 391.705 628.328 387.661 628.328 377.55V333.67C631.349 332.659 635.017 332.255 638.038 332.255V348.027H653.574C653.359 350.858 653.143 353.487 652.711 355.913H638.038V376.337C638.038 381.594 640.843 383.819 645.59 383.819ZM698.026 348.836V390.492H688.963L688.532 385.437C685.942 389.076 682.274 391.503 676.016 391.503C664.364 391.503 656.38 383.414 656.38 369.462C656.38 354.902 664.795 346.409 681.195 346.409C687.668 346.612 692.847 347.218 698.026 348.836ZM688.1 380.988V354.902C686.158 354.498 683.784 354.498 680.979 354.498C670.837 354.498 666.09 360.362 666.09 369.664C666.09 378.157 669.758 384.223 678.39 384.223C682.49 384.021 685.726 382.808 688.1 380.988ZM748.088 362.586V390.492H738.162V364.204C738.162 357.531 735.789 354.498 726.078 354.498C723.705 354.498 721.115 354.7 718.31 355.105V390.492H708.6V348.836C714.857 347.42 721.763 346.409 726.294 346.409C742.694 346.612 748.088 352.476 748.088 362.586ZM797.503 332.255V390.492H788.44L788.009 385.234C785.419 389.076 781.751 391.503 775.277 391.503C763.625 391.503 755.641 383.414 755.641 369.462C755.641 354.902 764.056 346.409 780.456 346.409C783.046 346.409 785.419 346.612 787.793 347.016V333.266C790.814 332.457 794.266 332.255 797.503 332.255ZM787.793 380.988V355.307C785.203 354.902 782.614 354.498 780.025 354.498C770.314 354.498 765.783 360.16 765.783 369.664C765.783 378.157 769.451 384.223 778.082 384.223C781.967 384.021 785.203 382.808 787.793 380.988ZM846.702 372.697H815.413C816.708 380.179 821.24 383.617 830.087 383.617C835.481 383.617 840.876 382.606 845.623 380.381C845.192 382.808 844.76 386.043 844.113 388.672C839.581 390.492 835.05 391.301 829.655 391.301C813.255 391.301 805.487 382.808 805.487 368.653C805.487 356.318 811.529 346.409 827.066 346.409C841.092 346.409 847.134 354.902 847.134 365.417C847.134 368.248 847.134 370.271 846.702 372.697ZM815.413 365.013H837.423C837.423 358.138 833.539 354.094 826.85 354.094C819.729 354.296 816.061 357.936 815.413 365.013ZM881.012 347.016C881.012 349.847 880.58 353.082 880.149 354.902C877.775 354.7 875.617 354.498 872.812 354.498C870.439 354.498 868.065 354.7 865.691 354.902V390.492H855.981V348.836C860.081 347.42 867.202 346.409 872.596 346.409C875.402 346.612 878.854 346.612 881.012 347.016Z" fill="white"/>
    </g>
    <defs>
        <clipPath id="clip0_719_2">
            <rect width="515.288" height="83.9184" fill="white" transform="translate(366 309)"/>
        </clipPath>
    </defs>
</svg>
