<svg width="507" height="155" viewBox="0 0 507 155" fill="none" xmlns="http://www.w3.org/2000/svg">
<path d="M330.176 141.616C329.831 138.125 330.919 134.745 332.106 132.817C332.827 131.641 333.434 131.261 333.614 131.261H333.624C334.453 131.324 335.387 132.451 335.452 134.158C335.5 135.418 335.086 137.92 331.767 140.513C331.277 140.897 330.746 141.265 330.176 141.616ZM286.93 109.773C287.16 107.777 286.525 105.773 285.192 104.275C283.858 102.775 281.944 101.915 279.939 101.915H265.201C256.491 101.915 250.22 98.6599 246.564 92.2375C243.811 87.4015 243.635 82.4772 243.633 82.4273C243.62 81.9688 242.291 36.4958 243.518 18.3277C244.012 11.0267 247.552 5.98738 254.039 3.34973C258.153 1.67699 262.225 1.53696 263.478 1.53696C263.725 1.53696 263.863 1.54269 263.871 1.54269H379.913C387.616 1.54269 393.384 3.49936 397.057 7.35512C401.481 12.0012 401.261 17.8923 401.257 17.9498V17.9959C401.263 18.5195 401.824 70.5474 401.257 87.7563C401.029 94.6411 397.892 99.4329 391.931 102C387.402 103.951 382.853 103.834 382.809 103.832H324.081C322.312 103.832 320.622 104.491 319.32 105.688C313.838 110.736 299.903 123.289 283.979 135.549L286.93 109.773ZM632.738 120.223C598.115 133.826 572.19 139.918 557.763 137.837C541.324 135.466 531.528 130.647 522.054 125.988C511.246 120.672 501.038 115.652 482.434 115.341C463.983 115.031 438.184 125.199 413.229 135.031C390.744 143.887 369.507 152.253 353.731 153.325C342.514 154.089 334.912 151.716 331.75 146.467C331.124 145.43 330.702 144.34 330.444 143.241C331.271 142.765 332.025 142.259 332.709 141.724C336.566 138.71 337.043 135.652 336.981 134.098C336.893 131.745 335.5 129.867 333.74 129.73C332.532 129.64 331.472 130.92 330.802 132.011C329.414 134.267 328.153 138.315 328.742 142.426C325.459 144.119 321.112 145.393 315.763 146.22C303.273 148.154 295.158 145.854 290.55 143.584C286.358 141.518 284.229 139.101 283.653 138.378L283.735 137.668C300.196 125.09 314.724 112.003 320.356 106.818C321.374 105.882 322.697 105.366 324.081 105.366H382.773C383.121 105.378 387.735 105.462 392.488 103.431C397.015 101.493 402.479 97.2116 402.787 87.8062C403.351 70.7028 402.802 19.3271 402.789 18.0016C402.81 17.4952 402.955 11.3432 398.183 6.3154C394.211 2.13161 388.064 0.0080719 379.913 0.0080719H263.921C263.517 -0.00727844 258.626 -0.156891 253.511 1.9091C248.624 3.8811 242.659 8.31427 241.991 18.2242C240.758 36.4651 242.088 82.0149 242.102 82.4714C242.107 82.6844 242.282 87.7794 245.203 92.9453C247.915 97.7372 253.585 103.45 265.201 103.45H279.939C281.507 103.45 283.004 104.123 284.047 105.295C285.093 106.469 285.588 108.036 285.409 109.598L282.288 136.843C281.789 137.223 281.287 137.603 280.784 137.983C269.932 146.166 257.835 146.799 249.6 145.89C240.626 144.9 234.144 141.915 234.081 141.885L234.023 141.858L233.962 141.842C233.302 141.658 167.603 123.364 143.16 118.808C128.315 116.04 112.047 120.106 93.2085 124.818C80.3636 128.029 65.8036 131.668 49.3139 133.763C28.5611 136.398 15.0597 129.351 7.38719 122.974C4.2669 120.383 1.83009 117.687 0 115.326V117.787C1.69609 119.803 3.7979 121.979 6.35162 124.108C11.39 128.307 17.1444 131.432 23.4577 133.396C31.333 135.844 40.0966 136.481 49.5073 135.286C66.0869 133.179 80.6929 129.527 93.5799 126.306C112.244 121.639 128.362 117.609 142.878 120.315C166.939 124.802 231.184 142.662 233.493 143.304C234.209 143.632 240.526 146.425 249.382 147.409C254.799 148.014 260.033 147.803 264.939 146.786C271.086 145.512 276.725 142.963 281.704 139.209C281.846 139.103 281.988 138.996 282.129 138.888L282.225 139.028C282.315 139.161 284.482 142.276 289.767 144.908C294.584 147.306 303.041 149.742 315.997 147.737C321.298 146.916 325.668 145.658 329.056 143.983C329.353 145.098 329.801 146.203 330.438 147.262C332.054 149.943 334.663 151.963 338.191 153.262C341.329 154.419 345.205 155 349.751 155C351.057 155 352.42 154.952 353.835 154.856C369.846 153.768 391.19 145.361 413.788 136.458C438.605 126.682 464.264 116.575 482.41 116.876C500.67 117.181 510.73 122.128 521.381 127.367C530.96 132.078 540.866 136.949 557.545 139.356C565.767 140.542 577.442 139.205 592.247 135.386C604.043 132.341 617.859 127.718 633.309 121.649C647.762 115.969 660.986 110.056 670 105.865V104.173C660.999 108.37 647.513 114.419 632.738 120.223Z" fill="#3F55E9"/>
</svg>
