<svg width="564" height="328" viewBox="0 0 564 328" fill="none" xmlns="http://www.w3.org/2000/svg">
<g clip-path="url(#clip0_585_11852)">
<path fill-rule="evenodd" clip-rule="evenodd" d="M247.144 160.165C247.328 159.984 247.536 159.731 247.62 159.623C249.424 157.304 243.794 149.54 246.061 145.533C248.154 141.833 252.43 139.312 254.232 135.707C255.068 134.029 252.969 131.147 254.858 128.891C257.046 126.275 262.716 124.698 263.986 122.181C264.407 120.514 263.681 119.42 265.309 117.638C267.205 115.566 271.034 113.917 273.724 113.12C274.598 112.86 275.776 112.679 276.396 113.533C277.064 114.448 276.565 115.629 276.007 116.696C277.719 115.894 280.052 114.701 281.441 113.659C280.728 113.894 279.976 114.07 278.732 113.967C276.52 113.78 274.742 112.332 272.883 111.29C271.142 110.318 272.475 108.787 273.283 107.741C270.411 108.29 264.857 112.008 264.704 109.45C264.583 107.436 267.5 105.235 268.92 104.083C271.052 102.356 280.967 100.734 284.084 100.003C284.596 99.8816 285.743 100.213 287.129 100.841C287.792 99.9342 288.449 99.0981 288.952 98.3671C289.89 94.7412 284.991 96.0112 283.063 96.5344C282.706 96.6317 282.332 96.545 282.08 96.261C281.22 95.296 283.171 93.6763 283.776 92.6167C282.566 91.82 281.33 90.997 280.254 90.0425C277.362 87.4737 277.364 86.0406 276.233 83.0511C275.765 82.5094 275.294 81.9704 274.821 81.4314C274.4 81.7811 273.769 81.9283 272.857 81.7811C271.818 81.8153 269.943 84.4788 267.481 83.1221C264.741 81.6128 264.801 76.3646 262.637 74.4951C261.225 73.2751 259.342 72.6204 257.49 72.5441C256.935 72.5231 254.884 72.6309 254.558 73.1804C253.459 75.3312 253.251 78.476 252.99 80.8634C252.825 82.3911 255.326 84.3841 255.257 86.6848C255.176 89.3379 253.645 91.0233 253.277 93.345C252.859 95.9875 252.212 105.551 247.305 102.69C245.222 101.475 243.27 99.4767 242.652 97.0919C242.213 95.4064 243.752 93.842 242.287 92.6535C240.575 91.2652 235.21 90.7761 232.533 89.4562C228.982 87.705 223.993 83.4376 222.634 79.7039C221.505 76.6012 227.262 69.3258 229.474 67.3538C231.018 65.976 233.666 65.9497 235.102 65.4028C234.366 65.0005 233.216 64.5035 232.688 64.0592C231.654 63.1967 232.267 61.5139 233.421 61.1984C235.249 60.6988 239.336 61.9899 240.062 63.9093C240.672 65.529 238.834 68.4081 239.176 68.6842C239.944 69.2995 242.261 67.5694 243.355 67.2722C244.157 67.054 244.948 67.1855 245.64 67.3432C243.996 66.2152 241.327 64.5535 240.591 63.9882C239.723 63.3203 237.256 60.6068 238.634 59.492C240.662 57.8539 243.512 58.6769 245.103 57.8013C245.564 57.5462 245.224 55.6978 245.274 55.2166C245.445 53.589 244.451 52.3322 242.918 52.0719C241.787 52.4084 239.717 57.4411 237.166 57.6172C235.16 57.7566 234.805 53.1131 234.15 52.3006C233.324 52.5478 231.936 56.0527 230.034 54.625C227.962 53.071 226.652 48.8167 225.377 46.7737C224.98 46.4766 224.59 46.2084 224.212 45.9507C223.583 46.7001 223.06 47.3706 222.983 47.6072C223.552 48.8483 227.147 50.4601 225.69 52.9843C224.354 55.2981 218.539 56.3446 216.022 56.6049C213.361 56.881 210.129 57.0282 207.541 56.25C206.452 55.9213 205.645 54.3805 203.488 54.0571C202.768 53.9493 202.152 53.5811 201.555 53.2288C201.913 54.2858 202.341 55.4243 202.121 56.1527C201.663 57.6645 202.66 60.1624 200.319 60.7146C198.239 61.2037 197.332 58.1457 195.672 57.3096C193.497 56.2184 191.309 56.8626 189.192 56.5602C186.183 56.129 187.861 53.6022 187.646 52.9817C187.625 52.958 187.556 52.9317 187.525 52.9185C186.675 52.5662 184.379 53.4365 182.799 53.1578C178.302 52.3664 173.158 50.5127 168.647 50.4732C164.253 50.4338 161.31 58.8004 155.945 58.7531C155.427 58.7478 154.943 58.6138 154.535 58.2851C153.602 57.5383 153.27 55.5216 152.368 54.37C150.48 51.9536 146.383 51.149 143.545 50.7993C138.338 50.1551 132.949 49.716 127.821 48.6195C124.539 47.9175 120.179 46.2636 116.878 46.6475C111.119 47.3127 107.747 50.7257 103.474 53.7205C103.287 54.1044 104.018 54.6723 104.263 54.8222C106.064 55.9318 112.163 57.9853 111.529 60.5726C111.024 62.634 102.856 61.677 100.652 62.4631C101.086 63.5622 103.334 64.6718 104.37 64.7375C106.372 64.8637 111.387 62.4842 111.802 64.7586C112.11 66.4414 110.866 68.4002 109.557 69.3547C108.128 70.3933 104.873 71.4661 103.976 72.6414C103.274 73.5643 104.441 75.3312 105.23 75.8072C107.353 77.085 109.585 78.3787 111.939 79.1727C113.806 79.8012 115.566 79.483 117.238 79.93C118.13 80.1666 118.722 81.2473 118.39 82.1019C117.565 84.2343 114.211 86.2615 112.263 87.8628C115.363 86.4061 120.594 81.9441 121.996 80.4033C123.803 78.4155 122.851 74.8369 125.394 73.4644C129.01 71.5108 128.791 75.0341 128.849 77.1771C130.23 75.8519 131.44 72.999 132.981 73.2067C141.562 74.3636 149.715 77.8975 156.597 83.1194C158.244 84.3684 165.481 90.4475 165.35 92.7744C164.937 99.9999 175.501 100.058 177.639 108.109C178.389 110.928 174.772 111.816 174.183 113.851C172.934 118.161 172.879 124.592 175.243 128.508C177.744 132.654 180.819 138.799 184.627 141.794C185.247 142.28 187.911 148.898 188.414 149.953C189.526 152.293 190.765 154.586 192.151 156.784C192.109 156.705 192.072 156.629 192.032 156.558C190.907 154.346 189.637 151.83 188.895 149.466C187.551 145.18 193.36 146.348 193.889 148.12C195.425 153.252 201.082 159.918 204.288 164.333C205.674 166.242 205.747 168.482 206.862 170.354C207.925 172.134 210.039 173.425 211.754 174.514C220.451 180.038 231.62 178.018 239.449 186.827C240.846 188.399 241.632 192.306 243.565 193.056C246.802 194.315 253.879 192.903 254.639 196.658C256.309 204.909 247.355 216.615 249.982 224.876C251.668 230.177 253.004 236.438 256.501 240.879C258.729 243.708 265.506 247.397 265.935 250.181C268.125 264.475 264.315 274.863 261.569 288.441C259.949 296.463 260.536 304.444 259.407 312.284C259.418 312.324 259.434 312.361 259.455 312.4C260.565 312.016 261.664 311.614 262.758 311.188C264.63 310.457 266.335 307.217 267.434 305.587C268.281 304.333 270.172 303.223 270.584 301.946C270.647 301.756 269.987 300.815 269.864 300.518C269.259 299.038 268.954 296.874 270.169 295.617C271.515 294.231 274.245 294.455 275.192 293.476C276.567 292.049 277.454 290.529 279.392 289.685C280.567 289.172 283.784 289.188 284.207 288.799C284.176 287.539 279.702 284.492 281.264 281.494C283.644 276.93 289.598 281.429 291.045 279.885C293.454 277.314 295.842 273.517 296.752 270.099C297.467 267.414 296.783 264.551 298.524 262.171C300.623 259.297 302.985 257.231 306.077 255.501C307.852 254.507 310.272 253.534 311.753 252.18C312.547 251.451 313.075 250.618 313.436 249.605C314.425 246.808 313.941 242.346 314.212 239.272C314.427 236.848 315.384 232.265 317.791 231.024C319.337 230.227 321.207 226.146 320.034 224.566C319.103 223.314 312.297 222.084 310.456 221.445C308.765 220.859 307.834 219.81 306.448 219.347C304.665 218.75 301.956 220.543 300.247 221.135C298.261 221.826 294.819 220.383 293.23 219.155C291.345 217.698 290.692 214.614 291.808 212.508C292.673 210.87 293.709 209.852 295.216 208.811C295.689 208.482 295.321 206.96 295.134 206.552C294.932 206.142 292.539 205.411 292.089 205.264C289.833 204.525 287.684 203.744 285.669 202.45C282.453 200.386 281.375 193.006 278.014 191.852C274.487 190.642 270.563 189.906 266.934 189.738C266.145 190.156 265.648 193.482 263.894 193.634C261.772 193.818 261.422 190.184 260.599 189.701C260.167 189.448 258.555 191.118 258.3 191.386C257.564 192.162 258.608 194.975 256.081 195.556C254.639 195.888 252.935 194.037 251.61 193.592C250.213 193.124 248.054 193.532 246.484 193.19C244.988 192.864 244.104 192.498 243.105 191.336C241.109 189.02 243.81 182.814 242.158 181.789C240.656 180.911 234.994 181.558 234.132 179.136C233.098 176.233 236.667 169.615 235.52 169.118C233.19 168.108 228.593 176.401 224.959 175.883C220.73 175.279 216.301 167.772 216.038 163.949C215.743 159.623 216.964 154.87 220.409 152.003C223.241 149.648 227.788 151.275 231.149 150.56C233.784 150 236.533 146.737 238.905 147.384C241.314 148.038 244.065 149.19 245.117 151.646C245.782 153.202 246.768 158.845 247.16 160.176L247.144 160.165ZM288.725 101.651C293.514 104.286 299.258 109.392 293.364 112.177C291.971 112.836 290.49 110.023 289.743 109.692C287.484 110.709 284.378 111.304 284.165 107.725C284.057 105.9 284.97 104.025 286.095 102.309C285.32 101.956 284.728 101.743 284.481 101.727C281.869 102.34 271.681 104.12 270.029 105.461C269.456 105.924 267.668 107.328 266.863 108.427C268.757 107.688 271.247 105.792 274.056 105.908C277.277 106.04 274.379 108.963 273.906 109.839C275.376 110.688 277.175 112.061 278.876 112.203C280.523 112.34 284.381 110.352 284.381 112.297C284.381 115.079 277.009 118.3 274.771 119.176C274.416 119.315 274.024 119.278 273.73 119.016C272.675 118.074 274.847 115.816 274.926 114.677C274.698 114.693 274.358 114.782 274.227 114.822C271.884 115.518 268.262 117.036 266.616 118.839C265.369 120.201 266.137 121.837 265.593 122.92C263.87 126.346 258.463 127.343 256.215 130.033C255.065 131.41 256.919 134.295 255.815 136.503C253.885 140.369 249.669 142.756 247.602 146.408C245.795 149.603 251.697 157.278 249.017 160.717C248.464 161.427 247.618 162.361 246.605 162.063C244.875 161.551 244.446 154.607 243.476 152.337C242.679 150.473 240.23 149.579 238.426 149.088C237.437 148.819 233.521 151.859 231.504 152.29C228.693 152.887 223.512 151.712 221.527 153.36C218.534 155.85 217.534 160.081 217.789 163.822C218.018 166.765 221.832 173.643 225.193 174.124C227.652 174.477 232.317 165.802 236.209 167.49C239.891 169.089 234.686 175.452 235.773 178.515C236.372 179.407 241.795 179.488 243.073 180.282C246.09 182.152 243.068 188.602 244.43 190.177C245.167 191.031 245.735 191.215 246.847 191.457C248.509 191.82 250.437 191.331 252.159 191.909C252.988 192.188 255.286 193.816 255.673 193.826C256.536 193.629 255.857 191.373 257.004 190.163C258.029 189.085 259.86 187.219 261.485 188.173C262.742 188.912 263.244 191.547 263.605 191.904C264.457 191.323 264.87 187.897 266.91 187.981C270.8 188.141 274.892 188.909 278.582 190.174C283.018 191.696 283.75 199.114 286.619 200.957C288.504 202.167 290.54 202.895 292.654 203.584C293.854 203.976 296.155 204.564 296.731 205.795C297.341 207.094 297.567 209.326 296.218 210.26C294.95 211.141 294.098 211.948 293.367 213.333C292.657 214.68 293.109 216.823 294.309 217.751C295.374 218.574 298.335 219.923 299.66 219.462C301.99 218.653 304.41 216.799 307.006 217.664C308.557 218.182 309.386 219.197 311.032 219.77C313.596 220.659 319.942 221.477 321.449 223.506C323.314 226.015 321.115 231.295 318.598 232.594C316.926 233.456 316.118 237.763 315.971 239.425C315.674 242.785 316.213 247.05 315.1 250.189C314.645 251.478 313.954 252.558 312.944 253.481C311.284 255.001 308.899 255.942 306.937 257.041C304.065 258.648 301.898 260.541 299.95 263.21C298.64 265 299.061 268.298 298.459 270.548C297.472 274.253 294.945 278.302 292.334 281.092C289.756 283.842 284.51 279.083 282.832 282.307C281.796 284.295 287.526 287.726 285.562 289.864C284.233 291.31 281.743 290.581 280.099 291.299C278.558 291.972 277.593 293.529 276.465 294.699C275.087 296.129 272.333 295.924 271.439 296.847C270.805 297.499 271.195 299.101 271.5 299.842C271.897 300.812 272.673 301.228 272.268 302.487C271.631 304.454 269.927 305.051 268.899 306.576C267.476 308.682 265.872 311.869 263.4 312.834C262.571 313.157 261.737 313.467 260.901 313.765C261.456 314.275 261.945 314.864 261.919 315.555C261.827 317.851 259.279 320.012 259.336 320.932C259.449 322.791 261.514 326.441 263.507 325.273C264.688 324.584 267.318 320.049 268.091 318.776C268.996 317.291 270.65 315.787 271.066 314.104C271.297 313.168 267.521 311.372 268.415 308.932C269.409 306.224 272.249 304.659 273.351 302.135C273.761 301.194 270.868 299.671 272.281 297.436C273.106 296.132 275.205 296.776 276.373 295.98C277.838 294.983 278.274 292.719 280.415 292.02C281.664 291.612 286.024 291.205 286.587 290.403C286.94 289.748 286.519 287.876 286.166 287.195C285.506 285.922 283.158 284.037 284.202 282.662C285.662 280.737 289.062 283.138 291.213 282.917C292.815 282.754 294.217 280.487 295.148 279.365C297.362 276.693 299.116 273.059 299.763 269.66C300.184 267.448 299.048 265.76 300.744 263.641C304.365 259.116 313.572 256.502 315.918 252.316C318.346 247.986 316.615 243.179 317.583 238.638C318.362 234.989 321.094 233.448 322.843 230.527C323.774 228.97 324.068 227.311 324.605 225.62C324.755 225.155 325.254 224.897 325.717 225.045C326.183 225.194 326.441 225.694 326.293 226.157C325.699 228.021 325.399 229.701 324.363 231.434C322.84 233.979 319.955 236.004 319.316 239.007C318.28 243.855 320.245 248.22 317.465 253.181C314.701 258.112 305.759 260.21 302.127 264.748C301.038 266.107 301.833 268.256 301.504 269.991C300.799 273.685 298.916 277.595 296.51 280.495C295.132 282.16 293.78 284.437 291.395 284.681C290.214 284.802 285.793 283.495 285.688 283.448C285.761 283.727 287.402 285.73 287.739 286.382C288.357 287.576 288.883 290.213 288.047 291.407C286.811 293.169 283.013 293.037 280.965 293.705C279.734 294.107 278.698 296.54 277.367 297.447C276.147 298.275 274.145 298.141 273.777 298.385C273.17 299.345 275.923 300.662 274.971 302.842C273.83 305.458 270.916 307.249 270.077 309.542C269.688 310.607 273.348 312.245 272.783 314.53C272.254 316.667 270.684 317.922 269.601 319.699C268.565 321.398 266.056 325.831 264.399 326.801C261.08 328.744 257.764 324.266 257.564 321.043C257.438 319.01 260.067 317.433 260.157 315.589C260.015 315.227 259.507 314.856 258.987 314.422C255.423 315.603 251.789 316.565 248.107 317.322C230.221 320.993 211.599 319.744 193.637 317.285C173.757 314.567 154.088 310.373 134.209 307.533C86.0821 300.66 44.4984 303.171 1.3262 327.884C0.902785 328.126 0.358399 327.979 0.116449 327.556C-0.1255 327.132 0.0217735 326.588 0.445185 326.346C43.9724 301.43 85.9349 298.848 134.459 305.779C154.333 308.616 173.999 312.81 193.879 315.529C211.628 317.958 230.074 319.215 247.752 315.587C251.134 314.893 254.471 314.02 257.753 312.963C257.648 312.7 257.603 312.416 257.648 312.103C258.781 304.152 258.19 296.179 259.828 288.091C262.519 274.784 266.321 264.432 264.178 250.447C263.999 249.287 261.879 247.818 260.998 247.165C258.863 245.593 256.764 244.079 255.105 241.972C251.405 237.274 250.063 230.997 248.288 225.413C245.403 216.334 254.476 204.799 252.901 197.005C252.551 195.285 245.272 195.619 242.921 194.704C239.902 193.532 239.815 189.903 238.124 187.999C230.873 179.841 219.288 181.395 210.804 176.007C208.795 174.729 206.589 173.351 205.342 171.258C204.253 169.428 204.061 167.033 202.857 165.371C199.467 160.699 193.826 154.081 192.308 148.84C192.056 148.588 190.809 148.083 190.47 148.27C190.415 148.407 190.546 148.804 190.589 148.935C191.299 151.196 192.537 153.639 193.613 155.753C194.636 157.764 195.712 159.747 196.777 161.735C197.147 162.426 198.928 164.987 197.831 165.687C197.363 165.986 196.877 165.779 196.545 165.421C192.595 161.204 189.489 156.26 186.988 151.07C186.333 149.708 184.108 143.937 183.533 143.179C179.451 139.972 176.392 133.842 173.723 129.417C171.096 125.06 171.091 118.153 172.479 113.352C173.095 111.227 176.243 109.75 175.927 108.556C173.989 101.262 163.09 101.236 163.588 92.785C163.083 90.7761 156.734 85.4149 155.096 84.2001C148.542 79.341 140.847 76.0491 132.886 74.9368C132.594 75.0946 130.738 78.0132 129.559 78.8835C128.45 79.7039 127.127 78.6206 127.082 77.3375C127.069 76.8905 127.229 74.9947 127.006 74.6976C126.827 74.6686 126.383 74.9342 126.235 75.0131C124.886 75.7414 125.115 79.5908 123.306 81.5812C121.275 83.8188 112.944 90.9313 110.03 90.0031C106.535 88.8882 115.973 83.4192 116.781 81.6312C115.119 81.1895 113.378 81.5181 111.371 80.8424C108.886 80.0063 106.551 78.6653 104.313 77.319C102.582 76.2778 101.165 73.4013 102.564 71.5634C103.889 69.8227 106.743 69.2048 108.51 67.9191C109.149 67.4537 109.977 66.3756 110.067 65.4659C108.941 65.6131 105.93 66.607 104.252 66.5018C102.256 66.3756 98.5872 64.28 98.8108 62.0083C99.0422 59.6655 107.279 60.5884 109.67 59.9258C108.825 58.9582 104.16 56.8442 103.324 56.3262C102.064 55.5505 100.833 53.4497 102.324 52.3927C107.037 49.0508 110.466 45.6037 116.668 44.8858C120.355 44.4599 124.576 46.1138 128.187 46.8868C133.257 47.9727 138.606 48.4039 143.758 49.0429C147.161 49.4636 151.519 50.4154 153.76 53.2788C154.357 54.0413 155.43 56.7364 155.637 56.902C155.722 56.9704 155.853 56.9783 155.958 56.9809C160.269 57.0204 163.23 48.6537 168.661 48.701C173.379 48.7431 178.438 50.5916 183.104 51.4146C184.876 51.7274 186.475 50.5679 188.198 51.2831C190.323 52.1613 188.94 53.9729 189.1 54.7486C189.168 54.7985 189.358 54.7985 189.439 54.8117C191.898 55.1667 193.836 54.4147 196.461 55.732C197.474 56.2421 199.712 59.0397 199.904 58.9924C200.401 58.8741 200.156 56.5024 200.414 55.6557C200.511 55.0404 199.822 53.7705 199.499 52.4716C196.598 52.3795 193.355 53.4392 190.607 52.0482C189.589 51.5329 188.043 49.5714 189.41 48.6222C190.312 47.9964 192.119 47.6966 193.292 47.3653C191.443 46.9341 187.406 46.5213 186.425 46.2689C185.276 45.9718 183.567 44.6045 183.838 43.2793C183.919 42.877 184.9 41.8621 185.623 40.7919C185.439 40.7945 185.252 40.8235 185.058 40.8813C182.615 41.6386 180.435 44.807 177.723 45.6615C175.909 46.2347 173.531 44.8017 172.924 43.1058C172.287 41.3283 175.727 34.0739 179.501 35.7593C181.4 36.0748 186.276 35.5516 187.522 37.1187C188.174 37.9417 188.24 38.8777 187.995 39.8164C188.082 39.869 188.166 39.9216 188.253 39.9742C190.023 39.7034 190.97 41.4677 192.456 41.3309C194.376 41.1548 196.511 39.8822 198.439 40.7498C199.165 41.0759 199.938 42.898 200.343 43.1058C201.792 42.3879 204.424 36.5902 205.71 39.0749C206.423 40.4527 205.934 43.0006 207.23 44.8043C208.424 46.4661 211.883 47.4574 211.217 49.7843C210.486 52.3506 203.333 49.8921 201.553 50.7125C201.387 50.7888 201.276 50.9071 201.211 51.057C202.184 51.4882 202.846 52.1692 203.741 52.3059C205.934 52.6372 206.568 53.5549 208.04 54.554C210.371 55.2561 213.432 55.093 215.828 54.8432C217.558 54.6644 223.236 53.6679 224.141 52.1008C224.73 51.0806 221.269 49.2506 221.221 47.7913C221.2 47.0971 221.813 46.0927 222.71 44.9674C222.507 44.8333 222.305 44.6965 222.105 44.5572C220.619 45.133 218.807 45.3407 217.682 45.5642C215.788 45.9402 213.679 43.9209 213.2 42.196C212.822 40.8366 213.632 39.5193 213.871 38.2309C214.218 36.3641 218.826 35.6042 220.367 36.5955C221.821 37.5315 220.033 39.6718 220.041 40.4028C220.53 40.976 221.403 41.7017 222.363 42.43C222.655 42.196 222.826 41.9225 222.805 41.6044C222.681 39.6692 222.965 37.6367 224.874 36.6691C227.099 35.5411 228.338 36.9636 229.761 36.9268C230.068 36.9031 230.371 37.0135 230.576 37.2502C231.602 38.4334 227.22 42.5142 226.513 43.303C226.31 43.5291 225.868 44.0208 225.364 44.5966C226.079 45.1067 226.597 45.4853 226.684 45.6194C227.851 47.4258 229.561 52.064 230.863 53.1762C231.696 52.8476 232.58 50.2576 234.363 50.5547C236.12 50.8492 236.462 55.0825 237.038 55.8529C238.631 55.7425 240.796 49.9579 243.102 50.326C245.658 50.7362 247.297 52.8449 247.026 55.4033C246.892 56.6891 247.657 58.4113 245.948 59.3526C244.407 60.2019 241.577 59.8338 240.078 60.6462C240.341 61.3246 241.214 62.2423 241.658 62.5841C243.055 63.6569 250.237 67.2275 248.278 68.9997C247.168 70.0042 245.117 68.6264 243.807 68.984C241.919 69.4941 240.054 71.6685 238.058 70.0673C236.099 68.4949 238.85 65.7472 238.392 64.5377C238.019 63.5438 234.805 62.6577 233.811 62.705C234.629 63.386 238.784 64.6692 236.953 66.3362C235.368 67.7797 232.128 67.3538 230.642 68.679C228.953 70.1882 223.601 76.9614 224.285 79.1018C225.477 82.3753 230.176 86.3325 233.303 87.8707C236.314 89.3563 241.103 89.4246 243.391 91.281C245.94 93.3503 243.97 95.1619 244.357 96.6501C244.854 98.5564 246.526 100.192 248.188 101.159C250.779 102.669 251.323 94.2995 251.518 93.0663C251.873 90.8314 253.409 88.8672 253.477 86.6296C253.53 84.8969 250.96 83.0774 251.221 80.6715C251.512 77.9948 251.731 74.7949 252.969 72.3732C254.579 69.2259 261.569 71.2373 263.786 73.1541C266.087 75.1446 266.629 80.6347 268.325 81.5707C269.709 82.3332 271.497 79.7749 273.106 80.0299C273.285 80.0588 273.425 80.0431 273.535 79.9852C269.99 75.9912 266.335 72.0682 262.534 68.3319C260.039 65.8787 254.984 69.1496 252.288 65.6079C250.487 63.2414 257.261 63.1047 258.445 62.8076C258.871 62.5262 258.81 60.2781 260.115 59.5472C261.666 58.6742 263.392 59.7155 264.167 59.5787C265.29 58.2456 259.173 53.823 258.416 52.9948C255.441 49.7475 240.785 50.2234 235.691 48.8772C233.414 48.2751 231.741 45.6957 231.552 43.4344C231.428 41.9804 232.635 40.0005 233.85 39.2643C235.197 38.4518 238.034 38.6648 239.036 40.0163C240.072 41.4177 240.57 44.1812 241.032 45.4117C241.869 43.6448 242.113 37.2896 241.921 36.3194C241.587 35.9854 235.449 36.1274 234.253 35.9513C231.633 35.5647 226.305 33.7084 226.116 30.469C226.097 30.1588 226.095 29.8538 226.105 29.5514C222.534 28.9282 218.531 29.5645 214.681 30.1167C212.58 31.7627 209.487 33.0406 208.085 33.8609C205.226 35.5253 202.1 34.5603 199.514 35.5095C194.949 37.1871 189.045 35.8329 187.882 32.115C187.732 32.1098 187.583 32.1045 187.427 32.094C182.191 31.7601 179.009 26.0675 182.291 25.9439C183.254 25.9071 186.794 25.702 190.139 25.2524C191.275 23.9403 192.7 22.8702 194.349 22.3154C195.472 21.9367 197.95 21.5423 198.405 23.1042C198.999 25.1288 195.199 26.2752 191.133 26.9168C190.849 27.2454 190.623 27.5452 190.478 27.7792C189.878 28.7494 189.573 29.604 189.502 30.3533C190.436 30.3481 191.343 30.3691 192.511 30.6583C193.994 31.0265 196.411 31.881 197.913 31.5602C198.355 31.0738 197.687 28.2393 199.888 28.0579C201.992 27.8844 202.373 30.4086 203.233 30.5295C205.163 30.803 207.87 29.0176 209.755 28.8993C211.125 28.8152 212.522 28.6416 213.929 28.4471C214.694 27.8081 215.16 27.185 215.031 26.6538C214.468 24.3663 201.752 21.9762 205.86 17.9533C208.992 14.8848 219.17 24.5845 222.173 23.4171C224.53 22.4994 226.547 20.956 228.243 19.1102C225.787 19.2285 221.216 19.7386 222.145 16.7017C222.581 15.2766 225.54 12.7366 226.676 11.8584C228.217 10.6673 233.932 14.0487 235.094 15.0057C237.106 16.6544 238.413 20.0988 240.236 21.1611C241.29 21.7764 243.068 21.9236 244.272 21.4871C243.105 20.7325 240.32 19.1365 239.539 18.4923C237.143 16.515 246.489 14.9216 247.255 14.7007C247.875 14.5219 254.187 12.6735 253.566 11.6086C253.13 11.5008 246.95 14.3642 244.08 14.2774C241.24 14.1906 237.364 13.6858 234.889 12.3001C234.118 11.8689 230.963 9.01605 232.793 8.15362C235.912 6.68644 239.928 7.02825 243.073 5.65047C245.948 4.39363 247.618 1.77215 250.855 0.912353C255.925 -0.433882 264.522 -0.428623 269.23 1.86418C271.234 2.83968 279.011 3.26563 279.97 5.2771C281.235 7.92487 271.268 9.86797 269.385 12.0214C268.423 13.1231 269.114 14.9453 269.945 16.8805C272.183 17.7771 274.385 18.7105 276.133 17.7298C274.776 17.0409 271.663 15.6552 273.916 14.3931C278.364 11.9031 283.16 9.77331 288.197 8.83726C290.974 8.3219 294.119 9.34472 296.505 8.73734C296.852 8.10366 296.381 6.60493 297.841 6.18949C300.42 5.45064 307.011 7.54098 308.847 6.78635C309.593 6.48135 306.966 2.48997 310.088 2.04298C314.23 1.44874 318.438 1.1227 322.622 1.06486C324.224 1.04382 326.001 1.73009 326.719 3.25512C326.94 3.72577 327.053 4.84325 327.177 4.98261C330.967 5.1877 340.813 2.26385 342.38 2.83442C343.48 3.23408 343.721 4.12018 344.276 4.50144C344.963 4.61976 345.689 4.66708 346.383 4.71441C347.324 4.78015 350.294 4.64605 350.475 5.95547C350.546 6.48135 350.207 6.86523 349.775 7.09399C347.253 8.43759 340.029 8.4297 336.41 9.50774C335.206 9.86797 331.369 11.4009 329.754 12.7576C331.024 12.5289 332.76 11.8584 333.528 11.5876C336.179 10.6489 338.825 9.76542 341.641 9.4683C343.395 9.28425 345.718 8.77678 347.401 9.37365C348.476 9.7549 349.157 11.0301 350.107 11.0275C350.906 11.0249 351.708 11.0065 352.505 10.9749C355.538 10.8592 358.544 10.57 361.565 10.3413C362.63 10.2624 366.607 9.63132 366.665 11.372C366.791 15.2161 355.632 13.1494 354.428 15.9208C353.647 17.7245 351.432 20.7115 351.987 22.7755C352.295 23.914 356.703 24.1612 356.037 26.4435C355.351 28.7968 351.445 28.1973 350.643 28.6863C351.127 31.0869 356.976 32.1702 355.093 35.3597C353.165 38.628 343.735 35.9854 341.833 37.6498C340.316 38.9777 346.262 47.4179 341.957 48.5722C334.435 50.5889 342.286 56.8179 331.982 54.0571C328.821 53.2104 328.489 57.3175 326.199 59.4657C323.45 62.0451 318.588 63.1967 316.3 65.9681C314.585 68.0453 313.404 70.438 312.494 72.9569C312.137 73.9482 311.495 77.2481 310.109 77.0272C305.599 76.3094 301.028 73.9351 298.992 69.6571C296.084 63.5438 298.695 52.0088 296.86 44.7176C296.399 42.8875 294.101 43.466 292.633 41.8542C290.035 38.9987 288.794 35.2703 286.479 32.4595C283.05 28.2998 274.369 33.2193 270.14 32.4121C268.533 32.1045 264.483 30.3533 266.356 28.2577C267.247 27.2586 269.104 26.9483 270.392 26.4987C268.06 25.9281 262.419 26.1621 263.744 23.9771C264.659 22.4653 269.006 22.5362 269.635 21.8684C269.803 20.8377 269.246 19.5467 268.612 18.1583C267.726 17.8271 266.842 17.5641 265.958 17.4984C263.502 17.6772 257.653 18.7105 254.958 19.9621C256.265 20.6484 258.75 21.7159 257.296 23.0937C255.505 24.787 249.708 25.418 247.941 26.3409C248.244 26.5749 248.659 26.8405 248.825 26.9457C249.716 27.5215 252.38 29.441 249.906 30.1667C246.389 31.1974 239.26 31.1842 236.233 28.9703C235.47 28.4129 234.429 27.511 234.8 26.4408C235.233 25.1814 237.011 25.0946 238.445 24.971C236.901 24.2085 234.568 23.3435 233.658 22.8702C232.827 22.7282 230.913 24.0087 230.323 24.5293C229.151 25.5679 228.375 26.8615 228.051 28.3103C230.197 29.3778 232.212 31.9152 233.861 32.1203C236.898 32.4963 239.925 32.4042 242.978 32.3911C244.388 32.3832 248.038 32.1466 248.493 33.9582C249.082 36.3115 245.406 38.6569 245.803 39.6508C247.118 42.948 254.221 38.9014 257.924 42.0882C259.768 43.6711 260.704 45.154 263.089 46.1979C265.243 47.1392 269.538 47.6651 271.053 49.0166C272.423 50.2366 270.758 52.2717 270.861 52.9554C273.53 54.9879 280.11 55.6741 281.304 58.4113C282.356 60.8303 278.9 63.0574 276.612 62.8023C274.571 62.5736 273.622 60.8487 272.036 60.2124C271.539 60.0152 270.763 60.3255 270.524 60.5595C270.577 61.0959 274.879 65.6552 275.623 67.2302C276.283 68.6237 275.179 70.1856 273.585 70.0857C273.051 70.0515 272.123 69.8096 271.187 69.5519C272.483 70.4459 273.79 71.4608 273.824 72.2102C274.082 73.4513 275.607 77.1245 275.526 79.5593C276.21 80.3349 276.891 81.1106 277.569 81.8915C277.824 82.1886 278.314 84.0713 278.519 84.5787C279.166 86.18 280.133 87.5736 281.427 88.72C282.569 89.7323 283.928 90.5973 285.201 91.4414C286.214 92.1118 285.477 93.3345 284.678 94.3889C288.028 93.884 291.818 94.3547 290.664 98.8141C290.621 98.9771 289.627 100.384 288.733 101.656L288.725 101.651ZM226.347 27.7923C226.794 25.9307 227.838 24.2769 229.385 22.9911C230.402 22.1471 233.001 20.5511 234.373 21.2557C235.678 21.8815 241.253 23.8036 241.364 25.2445C241.5 27.0298 237.882 26.4829 236.635 27.0009C236.832 27.206 237.145 27.4453 237.269 27.5373C239.536 29.1938 245.056 29.32 248.33 28.7126C247.057 27.9001 245.048 26.7879 246.187 25.4706C247.628 23.8062 253.167 23.4749 255.468 22.2233C254.179 21.5213 251.257 20.225 253.167 18.9261C255.105 17.6088 263.657 15.5527 265.974 15.7262C266.537 15.7683 267.113 15.8918 267.694 16.0654C267.002 14.2511 266.69 12.4106 268.047 10.8592C269.919 8.71631 276.341 7.01248 278.04 5.87133C276.233 4.9642 270.143 4.28057 268.449 3.45495C264.141 1.35672 255.957 1.38564 251.305 2.62144C248.559 3.3524 246.513 6.07642 243.781 7.27016C240.843 8.55328 237.169 8.41393 234.321 9.43412C234.694 9.97314 235.312 10.5043 235.752 10.7514C237.942 11.9767 241.606 12.4263 244.128 12.5026C247.355 12.5999 252.909 9.02394 254.513 10.1178C254.692 10.2387 254.839 10.3965 254.955 10.5779C257.614 14.777 245.95 16.7096 241.84 17.9138C243.641 19.0155 246.468 20.5695 246.46 21.566C246.455 22.2733 245.871 22.694 245.301 22.9727C243.602 23.8062 240.951 23.6274 239.341 22.6887C236.911 21.2741 236.088 18.111 233.968 16.373C232.761 15.3817 229.027 13.3072 227.757 13.2598C226.918 13.9093 224.196 16.1758 223.801 17.2433C224.133 17.5641 225.963 17.4773 226.418 17.4616C227.175 17.4353 232.338 16.9252 230.547 19.147C228.48 21.7106 225.913 23.8641 222.818 25.0683C219.002 26.5539 208.685 17.6693 207.102 19.2206C205.532 20.7588 215.949 22.9648 216.751 26.2358C216.911 26.8826 216.803 27.4979 216.509 28.0842C219.825 27.6214 223.162 27.2533 226.35 27.7976L226.347 27.7923ZM187.698 30.3323C187.772 29.3989 188.101 28.3682 188.74 27.2375C186.22 27.5268 183.914 27.6477 182.851 27.6924C183.37 29.0886 186.299 30.2455 187.54 30.3218C187.593 30.327 187.646 30.3297 187.696 30.3323H187.698ZM220.393 43.253C219.825 42.7666 219.262 42.2144 218.694 41.5465C217.771 40.4606 218.92 38.9566 219.128 37.9627C218.152 37.705 216.02 38.1704 215.615 38.5517C215.478 39.2958 214.736 41.089 214.91 41.7175C215.141 42.551 216.435 44.0024 217.34 43.8209C217.837 43.721 219.168 43.5659 220.393 43.2504V43.253ZM186.383 39.0855C186.418 38.7752 186.357 38.4886 186.165 38.2493C185.137 37.4132 179.99 37.8917 178.928 37.4211C176.874 36.5139 174.617 41.3178 174.591 42.5063C174.87 43.2846 176.287 44.2522 177.189 43.9682C179.598 43.2083 181.773 40.0399 184.535 39.1854C185.247 38.9645 185.849 38.9645 186.383 39.0855ZM199.409 50.6941C199.556 50.0552 199.967 49.4925 200.816 49.1007C202.778 48.1962 208.606 49.6949 209.521 49.2953C209.645 48.8614 206.434 46.7159 205.797 45.8324C204.49 44.0182 204.669 42.4142 204.416 40.9234C203.538 42.1013 202.783 43.8709 201.134 44.686C199.338 45.5747 198.402 43.1005 197.718 42.359C196.64 41.8752 193.936 42.969 192.624 43.09C190.641 43.274 189.313 41.6018 188.527 41.7227C188.203 41.77 187.811 41.565 187.359 41.3336C186.87 42.2091 186.223 43.0243 185.676 43.679C185.902 44.1049 186.454 44.4441 186.867 44.5493C188.869 45.0646 194.444 45.1461 195.583 46.5949C197.213 48.6642 192.44 49.2953 190.815 49.8869C190.999 50.1235 191.272 50.3917 191.409 50.4627C193.458 51.5013 196.992 50.6704 199.409 50.6941ZM223.912 43.5606C225.555 41.7253 227.533 39.7901 228.543 38.457C227.602 38.1704 226.605 37.7734 225.679 38.2414C224.511 38.833 224.504 40.3502 224.577 41.4861C224.63 42.338 224.338 42.9953 223.833 43.5054C223.859 43.5238 223.885 43.5422 223.912 43.5606ZM273.493 77.2796C273.059 75.702 272.365 73.801 272.218 72.5573C271.281 71.616 265.906 68.9892 267.255 67.4984C268.265 66.3861 272.094 68.2136 273.685 68.3161C273.888 68.3293 274.093 68.2215 274.014 67.9874C272.954 65.7525 267.631 61.5981 269.022 59.6944C269.803 58.6243 271.431 58.0642 272.686 58.5664C273.964 59.0765 275.634 60.9092 276.804 61.0406C277.838 61.1563 280.068 60.0205 279.673 59.1186C279.06 57.7119 271.862 55.9449 269.785 54.3647C268.246 53.1946 269.985 51.0386 269.869 50.3365C268.92 49.4899 264.049 48.5512 262.374 47.8176C259.697 46.6475 258.797 45.1751 256.764 43.4265C253.666 40.763 246.15 45.3197 244.151 40.3029C243.205 37.9285 247.081 35.6331 246.831 34.5051C246.329 34.0739 235.431 34.0976 233.637 33.8741C231.47 33.6059 229.653 31.3367 227.878 30.214C227.878 30.2639 227.883 30.3139 227.886 30.3639C228.007 32.4437 232.877 33.9556 234.513 34.1975C236.659 34.513 242.395 33.6795 243.428 35.3912C244.267 36.7795 243.667 46.5634 241.385 47.46C239.168 48.3329 238.842 42.7298 237.611 41.0706C237.151 40.4501 235.341 40.479 234.765 40.7788C233.945 41.2731 233.361 42.4274 233.314 43.2846C233.44 44.7859 234.605 46.7553 236.138 47.1629C241.942 48.6984 255.975 47.7124 259.715 51.7984C261.332 53.5627 268.104 57.6514 265.517 60.7172C264.483 61.9452 261.935 60.5516 260.977 61.088C260.491 61.3641 260.641 64.0802 258.874 64.5246C258.127 64.7112 255.815 64.9742 254.461 65.195C256.728 66.4335 260.97 64.3116 263.77 67.0672C267.113 70.3539 270.345 73.7826 273.488 77.2796H273.493ZM210.505 30.6189C210.292 30.6373 210.079 30.6531 209.866 30.6662C207.817 30.7951 205.637 32.6567 202.986 32.2807C201.182 32.0256 200.756 29.746 200.03 29.8091C199.588 30.3612 200.264 32.8618 198.281 33.2851C196.337 33.7005 193.978 32.8433 192.088 32.3753C191.251 32.1676 190.536 32.1176 189.834 32.1098C191.128 34.5261 195.777 34.9915 198.907 33.8425C201.35 32.9459 204.911 33.6585 207.196 32.3254C207.696 32.0361 209.056 31.3972 210.505 30.6189ZM193.629 24.645C194.854 24.3663 195.848 24.0324 196.385 23.6432C195.601 23.5065 194.596 23.9666 193.629 24.645ZM270.845 19.0602C271.258 20.1646 271.529 21.2321 271.379 22.1497C271.137 23.6301 268.912 23.9798 267.179 24.3058C269.238 24.482 271.884 24.553 272.775 25.9649C274.022 27.937 268.783 28.4655 267.739 29.3778C268.115 29.9405 269.909 30.5611 270.474 30.6689C274.879 31.5129 283.413 25.9492 287.847 31.3315C290.156 34.1344 291.429 37.897 293.946 40.6604C295.258 42.1013 297.798 41.189 298.579 44.2863C300.352 51.3225 297.993 63.436 300.594 68.8998C302.293 72.4705 306.119 74.4767 309.878 75.1919C310.246 74.3242 310.84 72.3127 311.077 71.6948C312.021 69.2285 313.246 66.891 314.935 64.848C317.546 61.6848 322.191 60.8066 324.989 58.1799C327.577 55.753 327.645 51.0675 332.442 52.3532C332.8 52.4505 336.053 53.2735 336.339 52.8686C336.421 52.7503 336.6 50.865 336.755 50.4022C337.449 48.3277 339.54 47.3943 341.499 46.8658C343.201 46.4109 338.007 38.6516 340.671 36.322C343.161 34.1423 352.442 36.3772 353.57 34.463C354.212 33.3745 349.478 31.86 348.91 29.0413C348.368 26.3514 354.025 27.0298 354.38 26.2147C353.747 25.4285 350.835 25.2997 350.28 23.2409C349.497 20.3328 351.732 17.6956 352.805 15.2214C354.031 12.3974 360.116 12.4421 363.183 12.0109C359.459 12.1581 352.014 12.7971 350.115 12.8023C348.137 12.8076 347.898 11.4324 346.812 11.0486C345.578 10.6094 343.164 11.0959 341.831 11.2352C339.169 11.5166 336.634 12.3738 334.125 13.2625C332.605 13.8015 329.907 14.8874 328.308 14.5456C327.958 14.472 327.656 14.2774 327.482 13.9593C326.109 11.4482 334.477 8.24302 335.908 7.81969C338.07 7.1755 342.204 6.84683 345.339 6.38932C344.789 6.35251 344.303 6.31044 343.977 6.25522C342.988 6.08431 342.43 4.74334 341.778 4.50669C341.099 4.28057 333.72 6.10535 332.502 6.31833C330.74 6.62859 328.873 6.85472 327.08 6.76006C325.154 6.65751 325.583 5.01416 325.115 4.02026C324.71 3.15783 323.519 2.83442 322.646 2.84494C318.535 2.90015 314.438 3.17886 310.238 3.79414C309.988 4.61187 311.945 7.43581 309.517 8.43233C306.943 9.48934 300.683 7.22283 298.48 7.78814C298.132 8.41919 298.603 9.92318 297.144 10.336C294.245 11.1564 291.332 10.0625 288.523 10.5832C283.989 11.4272 279.642 13.294 275.594 15.4948C276.957 16.1627 279.513 17.1802 277.948 18.5975C275.621 20.7036 273.241 20.0252 270.85 19.0629L270.845 19.0602ZM287.708 103.11C287.547 103.347 287.426 103.531 287.363 103.642C286.771 104.659 285.861 106.41 285.932 107.62C286.045 109.526 287.923 108.569 289.015 108.077C290.511 107.402 291.881 109.684 292.912 110.415C296.15 108.559 291.321 105.054 287.708 103.11Z" fill="#3E4EEC"/>
<path fill-rule="evenodd" clip-rule="evenodd" d="M298.035 215.676C297.64 215.944 297.296 216.168 297.059 216.302C296.373 216.689 295.047 217.022 294.445 216.294C292.848 214.369 297.319 211.288 298.15 209.021C298.75 207.391 297.401 205.064 296.349 203.897C293.956 201.241 289.75 202.261 287.039 199.014C281.511 192.385 279 183.966 275.781 176.125C275.328 175.226 270.281 175.213 266.187 175.06C261.711 176.446 253.111 177.95 252.117 176.199C251.533 175.171 250.854 174.19 250.147 173.246C248.869 171.545 247.472 169.97 246.115 168.342C244.895 168.324 243.52 168.661 242.939 167.533C239.599 161.027 233.424 153.208 232.432 146.016C231.83 141.652 239.372 145.811 242.828 143.079C245.603 140.884 249.642 137.624 251.152 134.376C252.325 131.855 251.073 129.031 252.275 126.599C253.25 124.624 255.239 124.187 255.935 123.212C256.238 122.492 253.979 120.493 253.918 118.813C252.54 118.037 248.693 117.63 247.401 117.782C246.983 118.321 247.42 121.151 245.142 120.551C243.146 120.028 242.939 116.859 242.036 115.908C240.556 117.488 237.8 125.507 235.804 123.343C233.963 121.348 235.896 114.814 235.556 112.432C234.307 112.074 233.045 111.869 231.748 111.735C230.959 111.653 228.543 111.567 229.397 110.084C230.823 107.612 236.011 104.993 238.481 106.915C240.364 108.38 240.914 110.799 243.244 111.964C245.066 112.873 251.615 115.106 253.763 114.661C253.642 110.854 245.952 105.414 243.412 103.389C241.8 102.101 240.722 99.7186 240.175 97.7545C239.917 96.8263 239.822 94.92 239.083 94.3127C237.95 93.3819 235.528 93.2819 234.073 92.7903C231.038 91.7648 227.401 90.2214 224.974 88.0995C222.21 85.6831 217.292 79.3437 219.022 75.3444C220.824 71.1874 225.831 66.7306 228.282 62.6498C229.439 60.7199 230.965 58.8215 233.24 58.2167C234.455 57.8907 236.148 58.8346 236.845 58.5454C238.607 57.8144 240.522 55.7557 241.997 54.5041C245.455 51.5671 248.829 48.5275 252.185 45.4748C256.709 41.3573 261.19 37.1766 265.787 33.1405C268.32 30.9161 272.406 27.2192 275.412 25.7651C279.286 23.893 284.517 25.397 288.078 27.3191C293.858 30.4401 298.224 35.7751 300.975 41.6675C302.668 45.2987 302.803 51.1227 302.921 55.1141C303.008 58.0458 302.811 68.5817 305.501 70.2987C305.961 70.5932 306.79 71.0691 307.365 70.8561C308.344 70.4932 311.089 64.6192 311.981 63.344C314.127 60.2729 318.661 59.0213 321.48 56.5786C323.776 54.5882 326.161 50.0342 328.823 49.2427C333.959 47.7177 339.411 52.2165 342.803 55.5427C345.002 57.6988 347.003 60.0363 348.968 62.4053C349.462 62.9996 351.619 65.7367 352.166 66.0496C354.553 67.0803 356.179 66.4677 358.435 65.5395C358.682 65.437 358.953 65.3134 359.24 65.1688C356.039 64.5141 353.028 65.4028 350.361 63.5675C346.385 60.833 358.903 59.5656 359.516 59.4473C361.128 59.137 364.426 56.7338 365.155 58.8057C365.967 61.1169 364.784 63.1784 363.038 64.7402C363.427 64.9689 363.819 65.2345 364.213 65.5343C376.539 74.9711 388.021 85.4964 401.163 93.7263C403.159 92.9112 405.223 92.1434 407.354 92.2618C409.082 92.359 410.82 94.2495 412.061 93.8814C413.757 93.3792 415.049 92.3275 417.024 91.9147C418.468 91.6149 422.105 91.5466 423.054 90.8261C424.958 89.3826 423.272 86.6454 424.895 85.1178C425.86 84.208 428.582 86.0012 429.153 85.5201C430.481 83.7926 427.315 80.0221 429.723 78.8415C431.651 77.9002 434.381 78.9966 436.348 78.7153C436.803 78.6495 438.618 78.1394 438.336 77.3664C437.503 75.0788 426.021 78.3156 425.337 75.9965C425.021 74.9185 424.661 73.8562 424.306 72.7913C423.078 69.126 435.386 64.0224 428.853 61.3325C428.201 61.4956 426.092 63.1126 425.526 63.5544C424.448 64.3984 423.83 66.6675 422.607 67.8534C422.018 68.4239 418.686 70.5248 418.607 70.8167C418.076 72.744 419.835 76.1385 419.622 78.7468C419.307 82.6225 416.858 87.4369 413.142 89.0539C411.464 89.7849 409.715 88.8856 408.826 87.3922C407.651 85.4149 407.719 80.8056 405.918 79.6303C404.495 79.3384 399.54 83.6611 397.957 81.8521C396.532 80.2271 395.922 76.2515 396.837 74.4031C397.778 72.4994 399.527 70.2829 401.513 69.4021C403.028 68.7289 405.037 69.3731 406.097 68.253C407.414 66.8621 406.77 62.2528 408.903 60.2361C413.1 56.2684 417.513 52.4874 421.981 48.8273C422.515 48.3908 426.223 48.893 426.092 48.1042C425.479 44.452 417.339 38.7831 415.777 31.9783C415.664 31.4787 415.664 30.9476 415.746 30.3954C415.43 29.8906 415.122 29.3779 414.828 28.8651C414.076 27.5531 414.565 24.7817 414.102 23.7668C413.402 22.3943 406.636 24.5241 406.93 20.8614C407.32 16.0128 428.756 14.5561 432.779 14.2485C433.747 14.1749 435.738 14.0198 436.075 15.2556C436.577 17.104 431.827 18.7395 430.649 19.1786C429.221 19.7123 421.09 20.7325 420.953 21.9841C420.74 23.943 418.312 27.6109 417.637 30.0641C418.397 31.2421 419.209 32.3938 420.048 33.5139C421.794 35.8461 430.378 45.9297 432.787 46.8842C437.145 47.3049 441.624 48.5091 445.753 49.9474C448.835 51.0202 451.857 52.2796 454.87 53.5312C456.748 54.3121 460.498 58.6111 456.98 59.8653C454.479 60.7593 449.119 59.4131 446.221 59.4C445.91 59.4 445.379 59.5314 445.09 59.7733C446.352 62.8234 448.401 66.0654 451.796 66.9068C453.821 67.409 455.254 62.7682 457.748 61.3194C459.428 60.3439 461.306 59.6366 463.176 59.0818C463.047 57.3201 461.695 53.8126 464.456 53.1578C467.323 52.4795 467.489 56.108 467.93 57.9249C468.617 57.7882 469.503 57.6015 469.785 57.4569C471.307 56.392 473.627 55.3718 475.347 54.2543C477.111 53.1105 482.994 55.1667 484.094 54.2648C484.846 53.6469 483.96 51.1175 483.925 48.8851C482.053 47.2891 477.098 46.5266 476.998 43.6264C476.919 41.3625 480.146 39.9427 481.24 38.2704C482.332 36.5981 483.857 32.3333 485.787 31.9073C489.025 31.1921 492.488 30.0931 495.726 29.2438C498.048 28.6364 500.381 28.0316 502.721 27.511C503.589 27.3165 506.913 26.2542 506.984 27.9002C507.089 30.3954 500.402 32.0651 498.634 32.5568C495.497 33.4271 492.267 33.6217 489.619 35.7567C487.828 37.2029 486.15 38.8094 484.58 40.4896C484.146 40.9523 483.568 42.196 483.818 42.8481C484.365 44.2627 487.168 45.9639 485.998 47.3654C485.827 47.5704 485.732 47.8439 485.69 48.1699C487.184 49.9973 488.044 53.2499 490.087 53.2446C490.887 53.242 493.356 50.8992 494.671 50.4522C499.176 48.9219 505.443 53.8914 506.048 53.2788C507.237 52.0745 502.713 50.3497 502.545 47.3969C502.366 44.2995 506.08 40.7972 508.515 39.3037C510.808 37.8996 513.904 40.5606 513.088 43.7605C512.286 46.9184 513.775 52.5294 512.194 55.7925C511.118 58.009 509.654 58.3719 507.494 58.8715C507.416 58.8899 507.276 58.9267 507.139 58.9766C507.821 59.6892 508.667 60.194 509.706 60.1414C512.047 60.0205 514.763 55.966 516.007 54.2569C518.987 50.1683 522.109 57.7382 523.226 57.775C525.144 57.1466 520.61 53.008 520.071 52.5557C518.761 51.4593 517.049 51.2358 515.76 49.9763C514.027 48.283 513.441 46.2005 514.051 43.8736C514.343 42.764 515.971 42.2881 516.967 42.7797C517.872 43.2241 520.355 45.1488 521.677 45.9797C521.33 45.3013 520.815 44.4468 520.754 43.6632C520.631 42.1329 522.764 41.494 523.96 41.8858C526.995 42.8797 528.618 45.1988 530.948 47.084C531 47.1261 531.227 47.2996 531.19 47.389C531.232 47.3207 531.263 47.2497 531.282 47.1682C531.8 44.9516 523.09 38.9277 527.426 37.5999C529.754 36.8873 534.785 38.6411 536.697 38.0548C536.584 37.2449 535.355 35.9565 535.91 34.5682C536.357 33.4481 538.325 33.6401 539.306 33.385C543.379 32.3228 547.445 31.2158 551.655 30.8135C554.767 30.5164 559.117 30.9844 561.962 29.9669C563.164 29.5383 563.332 27.4926 563.766 26.6723C563.432 26.2279 559.111 24.6345 557.454 22.8124C557.315 22.6572 557.215 22.4758 557.149 22.276C556.692 22.1603 556.237 22.0078 555.774 21.8395C553.06 20.8561 545.851 19.2811 545.115 16.21C544.76 14.7349 549.678 10.1493 551.989 10.9434C554.025 11.6428 553.641 14.9584 554.988 16.0417C555.416 16.3862 557.623 15.1215 558.99 16.1522C560.197 17.0646 559.214 19.3284 558.861 20.7246C559.093 20.7194 559.327 20.6931 559.561 20.6405C561.305 20.2356 565.397 18.0716 566.68 18.6159C569.486 19.8017 568.416 22.5783 567.372 24.6266C568.947 25.6652 570.036 28.5812 570.78 28.5312C572.45 28.4234 586.054 27.6925 582.948 32.0887C581.226 34.5314 573.081 38.0416 570.996 39.8506C573.347 39.7744 579.261 36.7638 582.144 37.0057C585.184 37.2633 588.058 37.1292 591.127 37.6761C593.081 38.0259 594.144 39.1276 596.224 39.1565C599.391 39.2012 602.139 37.3001 605.81 37.5289C611.038 37.8576 606.354 40.0452 608.429 43.0953C609.571 44.7754 611.775 47.0919 614.015 46.9157C614.636 46.8684 616.009 45.2619 617.287 44.92C620.159 44.1549 624.19 45.701 626.694 44.8832C629.19 44.0655 627.959 40.8366 632.385 40.9024C633.608 40.9208 634.72 41.2915 635.906 41.4992C640.511 42.3012 645.343 44.7044 650.295 45.6773C653.879 46.382 657.8 45.8798 661.487 46.3478C663.394 46.5897 662.631 49.6187 664.367 50.2813C666.34 51.0359 670.779 50.0946 673.261 50.3918C675.449 50.6547 678.842 52.5215 679.739 52.5583C682.434 52.6714 678.795 47.2391 683.862 48.1515C690.116 49.2795 698.813 51.1779 704.241 54.4121C706.435 55.7188 706.148 58.7952 707.111 59.208C707.779 59.4946 708.115 57.8486 709.404 57.4384C711.074 56.9073 713.788 58.1747 714.771 59.5577C716.165 61.5166 712.681 62.5105 711.742 63.5307C711.166 64.1538 712.173 66.3231 708.728 66.1206C706.522 65.9891 700.515 60.8514 698.953 60.9276C698.545 61.2878 698.905 63.5544 697.372 64.4773C695.926 65.3449 693.02 63.9777 692.225 64.2064C691.034 65.5842 698.521 68.3319 696.278 71.4635C695.155 73.0358 691.121 71.8447 689.141 72.581C686.043 73.7379 684.901 76.5013 680.796 77.0062C677.814 77.3743 671.594 76.6907 669.348 78.4471C666.847 80.4007 668.835 83.6164 667.886 86.7059C666.579 90.9576 662.361 98.7247 657.829 99.8711C655.468 100.468 656.062 96.8658 655.746 95.5747C654.752 91.5176 654.245 88.6648 656.622 84.8469C658.86 81.2552 663.115 79.0597 666.279 76.3594C667.72 75.1288 669.272 73.2173 670.095 71.332C668.664 72.6335 666.816 74.8107 665.035 75.4154C663.157 76.0544 663.512 73.3724 663.273 73.1542C663.118 73.0779 662.957 73.028 662.784 73.0174C661.553 72.9201 659.42 74.8501 658.521 75.589C656.246 77.4584 654.011 79.1596 651.16 80.0694C646.213 81.6496 640.472 78.192 635.838 79.4567C630.786 80.8372 624.701 85.6042 622.515 90.4606C622.42 90.6736 622.055 91.536 622.155 91.7753C623.291 92.8008 631.759 89.3116 630.797 98.6537C629.945 106.92 626.055 113.604 620.111 119.268C619.104 120.228 616.929 118.779 615.354 119.628C612.848 120.98 608.682 125.216 608.343 128.097C608.232 129.033 610.021 132.691 610.226 134.437C610.368 135.652 610.665 136.858 610.959 138.065C614.473 137.613 617.981 136.666 620.969 134.86C623.507 133.322 626.229 130.963 627.286 128.103C628.177 125.686 627.373 122.754 628.238 120.264C628.835 118.545 631.002 113.475 633.534 114.348C634.939 114.832 638.365 116.176 639.018 117.501C640.306 120.125 632.432 122.371 631.778 124.308C631.538 125.016 633.363 126.572 633.106 129.244C632.782 132.594 631.512 136.895 629.482 139.575C628.02 141.504 626.063 139.951 624.627 140.663C622.523 141.707 618.583 141.749 616.929 143.337C615.199 144.999 614.218 150.181 611.314 147.941C609.581 146.605 610.094 143.96 609.915 142.004C609.852 141.331 609.739 140.663 609.6 139.99C608.727 140.069 607.856 140.124 606.996 140.156C606.665 140.169 606.341 140.103 606.047 139.948C604.237 139.007 604.138 132.336 603.107 129.888C601.747 126.651 599.004 129.58 597.978 127.855C597.747 127.466 596.776 125.899 596.435 125.768C595.177 125.952 591.114 129.118 590.807 130.372C590.854 130.798 591.585 131.318 591.956 131.455C593.423 131.999 597.055 132.104 597.571 133.527C598.386 135.772 595.462 136.701 594.225 137.744C593.657 138.749 597.894 147.052 597.163 150.61C595.99 156.308 591.22 162.497 586.154 165.24C584.563 166.102 582.828 166.728 581.097 167.251C578.896 167.919 569.744 169.476 569.657 172.273C569.615 173.596 575.438 179.012 575.898 183.067C576.242 186.096 574.165 193.463 570.296 193.608C567.593 193.708 565.31 187.794 563.214 186.793C562.238 186.327 561.163 186.23 560.266 186.911C559.145 187.76 558.822 189.364 559.072 190.684C559.84 194.733 564.395 198.559 565.678 202.974C566.02 204.146 566.691 208.714 564.965 208.982C562.464 209.374 558.875 200.092 557.936 198.244C557.157 196.716 553.026 200.421 553.533 201.804C556.471 209.831 561.394 215.266 567.148 221.361C567.014 221.13 566.864 220.909 566.691 220.706C564.639 218.332 554.738 206.602 555.208 203.883C555.884 199.979 564.742 211.969 565.165 212.526C566.588 214.417 568.755 216.081 569.741 218.211C570.451 219.746 570.154 221.356 569.489 222.468C569.928 223.654 570.336 224.779 570.988 225.271C573.444 227.13 578.16 227.001 580.708 227.306C581.081 226.975 582.417 223.951 583.693 220.956C583.235 220.669 582.82 220.414 582.462 220.217C581.226 219.544 579.522 219.586 578.344 218.663C576.145 216.941 574.299 214.611 574.641 211.664C575.059 208.096 584.008 202.44 587.109 200.431C589.039 199.18 591.58 199.868 591.514 202.621C591.493 203.481 589.999 204.969 590.033 205.572C590.291 206.794 592.684 207.717 592.09 209.786C591.409 212.161 588.824 213.573 587.837 215.716C587.146 217.22 586.494 218.742 585.855 220.267C588.474 221.931 592.064 224.014 593.384 222.891C593.342 222.463 592.548 220.79 592.382 219.967C592.014 218.119 591.17 212.198 592.861 211.051C594.536 209.915 598.381 208.842 600.295 209.542C600.724 209.697 601.071 210.01 601.097 210.499C601.184 212.048 597.029 212.397 595.759 213.299C596.963 213.436 599.17 212.871 600.011 214.264C600.99 215.889 597.986 216.386 596.792 216.899C597.505 218.366 598.286 220.044 599.188 221.316C599.604 221.905 599.959 222.536 600.258 223.191C601.061 224.939 601.513 226.877 601.778 228.773C601.849 229.286 601.889 229.975 601.944 230.619C602.796 229.609 603.956 228.063 604.734 227.377C607.772 224.692 610.931 224.748 613.697 227.569C613.879 227.577 618.889 225.06 619.822 224.761C621.171 224.332 625.429 224.742 625.858 224.684C625.213 223.651 618.089 221.101 616.385 219.752C615.267 218.871 615.783 217.719 615.441 216.757C615.159 215.96 613.797 213.886 614.654 213.168C614.938 212.929 615.315 212.894 615.651 213.028C616.803 213.489 617.75 213.452 618.718 214.496C619.307 215.132 620.353 217.275 620.95 217.459C621.642 217.651 624.232 216.378 625.571 216.618C630.62 217.519 634.834 219.373 639.139 222.144C642.713 224.448 642.886 229.806 645.695 231.132C648.104 232.27 644.706 234.81 641.626 232.767C639.812 231.56 639.152 228.807 636.877 228.337C635.317 228.013 633.074 230.929 630.873 230.461C629.124 230.09 628.201 228.941 627.233 228.508C624.848 230.735 622.689 233.832 620.945 236.548C620.059 237.929 615.585 234.984 612.529 240.587C611.925 241.807 612.243 244.909 609.884 245.015C608.324 245.086 605.213 242.417 604.303 243.082C600.4 245.927 598.41 251.896 593.842 254.612C591.945 255.737 583.722 259.003 583.837 261.269C584.071 262.676 584.981 263.707 584.995 265.566C585.002 266.715 583.914 267.404 584 267.78C584.624 270.454 586.362 272.723 586.935 275.607C587.241 277.14 587.653 283.824 588.929 284.463C590.954 285.481 593.721 282.336 595.916 281.452C601.455 279.228 608.161 275.965 614.292 277.253C616.019 277.616 618.026 278.976 619.194 280.261C619.62 280.732 620.427 282.215 620.864 282.883C621.666 281.726 622.51 278.876 624.054 279.422C628.364 280.948 628.532 289.951 631.062 291.381C634.836 293.511 641.682 291.433 643.962 288.036C646.497 284.261 648.922 278.042 649.84 272.292C648.493 271.661 647.128 270.94 645.734 270.091C642.26 267.972 639.722 265.208 638.271 261.388C637.729 259.96 637.074 256.376 636.456 255.403C635.743 254.278 628.795 252.695 627.278 252.203C625.413 251.601 623.475 250.831 621.868 249.695C619.209 247.815 617.66 243.947 618.689 240.795C618.794 240.471 619.057 240.227 619.399 240.169C620.493 239.977 621.408 243.287 621.965 244.176C622.331 244.76 622.841 245.401 623.467 245.714C624.422 246.19 627.657 248.412 628.598 248.241C629.658 248.049 629.658 245.974 629.895 245.278C630.681 242.964 631.304 236.94 632.99 235.607C636.225 233.048 639.125 248.136 639.633 249.845C640.835 252.924 644.888 257.591 647.22 260.126C648.619 261.645 651.155 261.553 651.667 264.128C652.083 266.223 652.083 268.663 651.775 271.224C656.861 273.425 661.821 274.469 667.386 276.462C676.373 279.678 681.74 285.052 686.203 292.727C686.929 291.199 687.681 289.893 688.425 289.398C691.026 287.668 692.993 291.397 692.946 293.632C692.87 297.118 688.875 301.683 686.674 297.326C686.569 297.116 686.463 296.91 686.358 296.705C685.753 298.059 685.198 299.277 684.82 299.879C684.178 300.897 683.478 301.877 682.753 302.832C681.898 303.954 677.469 308.932 676.173 310.699C677.517 311.135 679.045 311.206 680.225 311.262C680.354 311.077 680.849 308.551 681.03 308.027C681.735 306.021 683.705 301.822 685.851 301.236C689.498 300.239 697.249 303.11 700.738 304.333C709.464 307.386 718.017 310.602 726.872 313.31C753.533 321.463 780.2 324.897 808.019 321.445C808.503 321.385 808.945 321.729 809.008 322.215C809.069 322.699 808.724 323.141 808.238 323.204C780.171 326.688 753.255 323.23 726.353 315.006C717.475 312.29 708.899 309.066 700.155 306.005C697.199 304.972 689.385 302.106 686.319 302.945C684.996 303.308 683.166 307.299 682.703 308.614C682.227 309.968 682.29 312.876 680.486 312.923C678.55 312.973 676.433 312.842 674.655 312.003C672.917 311.18 675.694 308.482 676.317 307.764C678.029 305.787 679.755 303.841 681.34 301.759C682.037 300.844 682.708 299.905 683.321 298.932C683.912 297.994 684.586 296.377 685.301 294.728C680.925 286.824 675.791 281.352 666.789 278.129C661.311 276.17 656.48 275.121 651.51 273.036C650.502 278.907 648.057 285.112 645.432 289.025C642.628 293.206 634.763 295.506 630.192 292.924C626.973 291.107 626.678 282.867 623.804 281.25C622.973 282.296 622.118 285.428 620.493 284.865C619.317 284.46 618.749 282.412 617.881 281.455C616.969 280.451 615.278 279.273 613.926 278.989C608.308 277.808 601.658 281.058 596.574 283.101C593.71 284.25 591.411 287.7 588.129 286.051C585.673 284.818 585.699 278.497 585.194 275.954C584.647 273.196 582.901 270.89 582.273 268.185C581.926 266.691 583.222 266.042 583.219 265.584C583.209 264.059 582.125 262.537 582.068 261.396C581.87 257.533 590.036 254.814 592.932 253.095C597.055 250.644 599.338 244.515 603.257 241.657C605.544 239.99 608.453 243.313 609.802 243.256C610.247 243.235 610.731 240.19 610.97 239.751C612.167 237.558 613.929 235.904 616.414 235.357C617.826 235.047 618.552 235.283 619.67 235.262C621.529 232.396 623.785 229.236 626.3 226.967C627.493 225.891 629.621 228.397 631.238 228.739C632.427 228.991 634.839 226.115 637.237 226.612C640.514 227.293 640.696 230.033 642.607 231.303C642.789 231.423 643.07 231.539 643.381 231.621C641.174 229.338 640.872 225.381 638.179 223.646C634.073 221.001 630.079 219.231 625.261 218.374C624.227 218.19 621.91 219.618 620.432 219.165C618.794 218.663 618.436 216.812 617.418 215.713C617.229 215.508 616.982 215.358 616.708 215.24C616.863 215.566 617.011 215.889 617.113 216.178C617.242 216.544 617.361 218.279 617.484 218.374C619.286 219.796 627.599 222.242 627.591 224.506C627.58 227.416 622.263 225.857 620.364 226.462C618.478 227.061 613.979 230.277 612.608 228.915C606.281 222.639 602.838 235.683 600.598 232.783C600.087 232.12 600.061 225.623 597.744 222.347C596.669 220.827 595.782 218.845 594.949 217.167C594.391 216.044 595.551 215.471 596.729 215.058C595.554 215.079 594.215 215.058 593.823 214.057C593.536 213.323 593.755 212.747 594.244 212.279C594.123 212.345 594.018 212.408 593.923 212.471C593.25 213.394 593.87 218.358 594.123 219.633C594.386 220.943 595.793 222.902 594.72 223.911C592.353 226.136 588.271 223.854 585.176 221.908C584.821 222.76 584.466 223.609 584.106 224.461C583.672 225.481 582.428 229.078 580.995 228.981C577.515 228.747 572.839 228.905 569.923 226.699C568.934 225.952 568.484 224.884 568.108 223.798C567.627 223.993 567.143 223.94 566.77 223.546C560.434 216.852 555.064 211.135 551.876 202.427C550.69 199.185 557.544 193.563 559.522 197.455C560.092 198.575 562.935 204.88 564.313 206.744C564.326 205.666 564.132 203.989 563.984 203.481C562.706 199.09 558.204 195.598 557.336 191.026C556.957 189.035 557.533 186.777 559.201 185.512C560.637 184.424 562.399 184.45 563.984 185.207C565.938 186.141 569.197 191.886 570.238 191.849C572.771 191.754 574.367 185.223 574.146 183.28C573.694 179.291 567.811 174.866 567.895 172.229C567.911 171.779 568.003 171.345 568.184 170.935C569.791 167.277 580.997 166.036 585.321 163.694C589.926 161.196 594.37 155.448 595.438 150.26C596.214 146.484 590.704 138.433 593.068 136.427C593.526 136.038 596.106 134.666 596.011 134.29C595.701 134.042 592.208 133.443 591.354 133.125C590.249 132.715 588.776 131.376 589.084 130.056C589.552 128.068 594.554 123.882 596.492 124.009C597.692 124.088 598.723 125.655 599.348 126.691C599.909 126.677 600.708 126.459 601.431 126.528C603.078 126.685 604.124 127.729 604.748 129.207C605.587 131.203 605.86 133.311 606.139 135.439C606.194 135.862 606.47 138.173 606.936 138.386C607.683 138.36 608.44 138.315 609.203 138.249C608.911 137.05 608.614 135.849 608.472 134.642C608.216 132.462 606.373 129.691 606.586 127.884C607.001 124.385 611.48 119.704 614.515 118.066C616.579 116.951 617.689 118.022 618.894 117.982C624.53 112.616 628.23 106.313 629.04 98.4697C629.187 97.0446 629.227 94.92 627.759 94.1181C625.366 92.8087 618.323 95.4696 620.908 89.7297C623.312 84.3868 629.821 79.2648 635.381 77.745C640.362 76.3856 646.242 79.7775 650.629 78.3761C653.237 77.5452 655.323 75.9281 657.403 74.2164C658.836 73.0385 660.951 71.0927 662.931 71.2479C663.331 71.2794 663.712 71.3872 664.073 71.5687C665.017 72.0393 665.059 72.7124 665.119 73.4092C665.877 72.928 666.766 72.1129 667.263 71.6581C668.081 70.9139 670.587 68.0453 671.823 68.8078C672.515 69.2364 672.378 70.0962 672.191 70.7509C671.473 73.3014 669.424 76.0096 667.441 77.703C664.533 80.1877 660.154 82.5462 658.14 85.7804C656.046 89.1381 656.609 91.5939 657.482 95.1514C657.629 95.7588 657.656 97.3364 657.742 98.0516C661.424 96.7632 665.138 89.6639 666.208 86.1853C667.228 82.8723 664.741 79.8143 668.275 77.0509C671.186 74.7765 676.972 75.6968 680.596 75.2498C683.989 74.8317 685.572 72.0288 688.538 70.9218C690.03 70.3644 694.513 70.672 694.855 70.4328C695.755 69.1759 688.191 66.1837 690.9 63.0495C692.083 61.6796 695.55 63.3861 696.475 62.9575C697.256 62.4868 696.541 59.4026 698.827 59.1581C701.204 58.903 707.119 64.2485 708.849 64.351C709.017 64.3616 709.63 64.3852 709.78 64.2774C710.027 63.8567 709.714 63.1337 710.456 62.3291C710.977 61.7638 712.681 60.8303 713.201 60.4123C712.528 59.6997 710.793 58.8609 709.954 59.1265C709.204 59.3658 708.686 61.8058 706.427 60.8356C704.262 59.9048 704.98 56.9021 703.35 55.9318C698.143 52.8318 689.569 50.9755 683.565 49.8948C683.429 49.8711 682.813 49.7844 682.69 49.8895C682.214 50.3681 683.728 54.4962 679.681 54.3253C678.182 54.2622 675.447 52.4321 673.067 52.1455C670.229 51.8064 666.329 52.9159 663.752 51.9326C661.311 50.9991 661.861 49.014 661.282 48.1016C657.54 47.6283 653.663 48.1384 649.971 47.4127C645.032 46.4425 640.167 44.034 635.622 43.2425C634.563 43.0585 633.448 42.6903 632.375 42.6746C629.177 42.6246 630.652 45.4591 627.262 46.566C624.303 47.5336 620.443 45.9166 617.763 46.6318C616.485 46.9736 615.785 48.5565 614.173 48.6827C611.199 48.9167 608.532 46.3662 606.986 44.0918C605.418 41.7885 606.005 41.1837 606.565 39.3747C606.26 39.33 605.881 39.3064 605.721 39.2985C602.333 39.0855 599.488 40.9734 596.219 40.9287C593.663 40.8919 592.903 39.7902 590.836 39.4194C587.837 38.883 584.989 39.0224 582.015 38.77C578.87 38.5044 572.821 42.3354 569.975 41.494C569.47 41.3441 569.023 41.0444 568.879 40.5106C568.161 37.8549 579.54 33.6453 581.528 31.0344C580.305 29.9747 572.45 30.1956 570.914 30.2955C568.637 30.4428 567.188 26.1148 566.32 26.0307C564.032 26.575 566.341 22.8781 566.507 22.3811C566.772 21.5739 566.951 20.6379 566.075 20.2592C565.623 20.204 561.157 22.0893 559.982 22.3601C559.903 22.3785 559.827 22.3943 559.748 22.4101C562.049 23.9509 566.136 25.1078 565.418 27.0299C564.758 28.802 564.742 30.8608 562.58 31.6312C559.395 32.7698 555.243 32.2465 551.845 32.5699C547.74 32.9617 543.75 34.0555 539.774 35.0915C539.229 35.2335 537.754 35.2913 537.578 35.2177C537.357 35.8514 539.808 38.7305 537.494 39.6508C535.085 40.6105 530.272 38.7463 528.036 39.2774C528.631 41.0496 534.711 45.1619 532.71 48.3277C532.097 49.2979 530.664 49.1034 529.856 48.4513C527.779 46.7685 526.075 44.4257 523.434 43.5607C523.221 43.4923 522.643 43.5738 522.545 43.516C522.629 44.5677 525.188 47.5599 522.745 48.0937C521.243 48.4224 517.783 45.133 516.21 44.36C516.049 44.2811 515.813 44.3705 515.789 44.3153C515.339 46.0296 515.744 47.4548 517.023 48.7037C518.08 49.737 519.926 50.0973 521.233 51.1911C522.892 52.5794 528.289 57.9827 523.802 59.4525C520.783 60.4412 519.005 53.1815 517.467 55.2955C515.76 57.6357 513.017 61.7427 509.825 61.9057C507.994 62.0004 506.503 61.0275 505.398 59.6313C504.402 58.3719 506.082 57.3806 507.124 57.1387C508.704 56.7758 509.83 56.6575 510.624 55.0142C511.881 52.4269 510.65 46.2505 511.397 43.3214C511.784 41.8016 510.556 40.2319 509.464 40.8104C507.686 41.9015 504.204 44.991 504.339 47.2917C504.47 49.5609 510.224 51.5881 507.337 54.5172C504.957 56.9336 499.849 50.5679 495.268 52.1245C493.551 52.7082 492.083 55.0063 490.121 55.0115C487.944 55.0168 486.997 53.6469 486.113 52.0693C486.266 53.4786 486.208 54.838 485.246 55.6268C483.292 57.2334 477.438 55.0957 476.338 55.7346C474.521 56.9126 472.543 57.8066 470.829 58.903C470.258 59.3 468.351 59.6366 467.633 59.7917C465.616 60.2335 466.363 54.5277 464.89 54.8748C463.57 55.1851 466.09 60.0967 464.217 60.6252C462.324 61.159 460.375 61.8532 458.665 62.8418C456.004 64.3852 455.186 69.5546 451.396 68.6159C447.252 67.5904 444.809 63.7962 443.325 60.0626C442.755 58.6243 445.114 57.6146 446.255 57.6199C448.674 57.6304 454.536 58.8583 456.412 58.1904C457.548 57.7829 454.597 55.3271 454.216 55.1588C451.236 53.9204 448.246 52.6714 445.195 51.6091C441.206 50.2208 436.861 49.0429 432.643 48.638C430.089 48.3934 420.435 36.9163 418.696 34.6208C421.429 39.798 427.222 43.963 427.864 47.7992C428.338 50.6284 424.627 50.2761 422.928 50.3497C418.562 53.9335 414.252 57.6304 410.149 61.5087C408.592 62.9785 409.195 67.572 407.412 69.4573C405.613 71.3583 403.945 70.2566 402.26 71.0086C400.679 71.7106 399.198 73.6669 398.465 75.1525C397.933 76.5224 398.278 79.4857 399.088 80.5322C400.498 80.6663 404.929 76.8616 406.841 78.0974C409.734 79.9668 408.997 84.1528 410.378 86.4719C410.799 87.1818 411.622 87.7813 412.466 87.4132C415.562 86.067 417.623 81.7969 417.886 78.5891C418.11 75.8282 416.182 73.049 416.929 70.3328C417.329 68.8736 420.201 67.7298 421.403 66.565C422.633 65.3712 422.957 63.323 424.464 62.145C425.282 61.5034 428.064 59.1817 429.184 59.6261C438.152 63.1862 425.868 70.4854 426.015 72.2128C426.341 73.1857 426.668 74.1559 426.962 75.1367C429.589 75.6757 438.668 73.0017 440.027 76.7432C440.803 78.8783 438.344 80.2035 436.627 80.4506C435.123 80.6689 431.656 79.8459 430.56 80.3797C430.231 81.3157 432.34 84.2948 430.583 86.5823C429.368 88.1626 427.333 86.8689 425.994 86.6165C425.631 87.5973 426.491 90.4449 424.151 92.2197C422.607 93.3898 419.378 93.2241 417.41 93.6343C415.593 94.0129 414.244 95.0752 412.59 95.5642C410.247 96.2558 408.897 94.1023 407.28 94.0129C405.941 93.9393 404.49 94.3416 403.072 94.8648C405.384 96.2558 407.748 97.5731 410.181 98.7957C425.421 106.468 450.195 97.3022 463.439 105.85C468.293 108.985 471.894 119.281 473.338 124.824C473.871 126.872 472.751 131.053 473.461 131.939C473.885 132.365 476.443 133.498 478.205 133.869C477.361 132.701 476.546 131.513 475.77 130.309C473.453 126.709 473.856 124.65 473.43 120.798C473.285 119.494 472.667 118.303 472.562 116.857C472.385 114.498 473.456 112.595 475.06 110.941C476.009 109.96 479.284 110.483 479.31 112.487C479.334 114.383 477.043 116.951 477.585 118.945C478.645 122.857 482.39 130.282 481.632 133.987C481.556 134.366 481.401 134.671 481.185 134.91C481.964 135.933 482.76 136.94 483.565 137.934C486.156 141.128 496.922 153.628 499.941 155.459C507.247 156.284 511.189 156.395 514.543 164.296C515.6 166.786 518.732 179.146 520.021 181.752C520.883 180.343 521.788 178.728 522.743 177.461C523.976 175.826 525.872 174.048 527.284 172.536C529.459 170.209 531.177 167.675 533.804 165.768C536.833 163.567 541.891 159.623 545.709 161.874C548.481 163.51 551.187 167.191 552.458 170.133C553.091 171.598 553.07 172.673 553.333 173.848C553.949 173.68 554.48 173.43 555.316 173.567C560.303 174.377 560.339 178.526 557.457 182.01C555.853 183.948 555.308 178.618 554.193 177.774C553.399 177.742 551.608 180.335 550.225 179.115C547.853 177.025 549.346 175.481 548.965 173.388C548.486 170.754 546.383 168.34 544.452 166.607C543.164 165.45 539.377 167.364 538.091 168.022C535.937 169.126 534.125 170.806 532.605 172.67C531.574 173.932 531.027 175.258 529.767 176.441C528.557 177.577 526.054 179.183 525.401 180.635C524.242 183.217 524.494 185.838 524.042 188.531C523.834 189.764 522.971 195.735 520.852 195.246C518.508 194.707 517.656 190.668 516.941 188.696C515.384 184.413 513.904 180.34 512.867 175.881C512.27 173.315 512.11 169.636 511.203 167.136C510.679 168.216 510.038 169.468 508.339 168.716C506.992 168.119 506.127 165.219 504.959 164.043C503.673 162.75 500.986 160.812 499.15 160.441C496.062 159.821 492.764 160.212 489.682 159.597C486.897 159.042 484.252 156.913 481.758 156.481C477.356 155.721 476.998 153.034 474.208 150.889C473.503 150.347 470.134 148.228 470.379 150.565C470.51 151.801 473.006 154.77 473.714 156.189C474.592 157.956 475.436 161.585 477.351 162.368C478.492 162.837 482.05 158.648 484.265 159.637C485.956 160.391 490.753 163.428 490.495 165.7C490.261 167.769 486.918 171.658 485.524 173.094C481.956 176.77 477.527 179.764 472.67 181.445C469.658 182.486 467.612 186.364 463.98 184.905C461.361 183.85 461.827 177.677 460.091 175.423C458.944 173.932 457.929 172.339 457.003 170.701C454.565 166.397 451.183 156.999 448.327 153.847C447.707 153.16 445.261 152.692 445.437 154.38C445.492 154.909 449.374 162.589 449.805 163.573C451.523 167.485 451.373 171.816 453.516 175.613C455.352 178.865 459.034 180.842 460.541 184.061C465.088 193.776 476.53 186.109 475.289 190.279C473.721 195.546 471.51 200.996 468.044 205.317C464.057 210.286 457.366 215.461 455.441 221.513C453.521 227.553 458.473 234.284 457.072 240.637C456.927 241.291 456.196 242.811 456.209 243.25C456.998 243.884 459.178 244.557 460.207 245.054C460.877 245.378 461.5 245.743 462.058 246.166C462.592 246.077 463.12 245.935 463.633 245.735C464.875 245.251 466.029 244.318 466.976 243.398C468.196 242.212 469.264 240.86 470.266 239.49C470.723 238.862 471.731 236.953 472.751 237.46C473.006 237.587 473.182 237.823 473.24 238.102C473.992 241.744 473.227 246.847 472.483 250.468C472.036 252.64 469.201 265.14 466.192 265.037C463.036 264.929 461.471 261.585 461.416 258.824C461.366 256.381 463.475 252.124 462.86 250.179C462.566 249.248 462.113 248.559 461.558 248.017C460.054 248.157 458.521 247.996 457.03 247.673C456.227 247.499 454.068 246.75 453.195 246.592C451.483 248.388 448.369 251.259 447.657 253.381C446.91 255.6 449.014 257.586 448.262 260.21C447.462 262.997 445.337 264.364 444.361 266.736C442.352 271.616 439.53 279.848 434.534 282.339C429.724 284.734 425.85 286.212 420.495 284.46C417.786 283.574 417.629 277.908 416.577 275.371C412.635 265.837 409.203 257.283 407.151 247.058C406.026 241.441 410.536 236.451 410.212 231.137C409.936 226.572 404.889 221.379 403.251 216.852C401.713 212.595 404.666 206.563 402.775 203.381C402.341 202.648 399.301 203.621 397.986 203.237C395.732 202.582 393.765 200.255 391.372 200.715C385.82 201.783 379.764 204.438 374.065 203.323C371.432 202.808 368.321 201.441 366.598 199.322C364.839 197.158 364.621 194.465 363.229 192.214C361.841 189.966 358.154 185.62 357.431 183.488C356.455 180.606 358.54 177.616 358.73 175.189C359.066 170.874 357.183 167.677 359.469 163.215C362.546 157.21 369.465 151.493 371.327 145.228C372.134 142.506 373.554 140.45 376.095 139.025C378.512 137.671 382.199 138.297 384.984 137.537C389.894 136.196 395.772 133.453 400.861 133.748C408.719 134.203 402.546 141.883 408.153 143.671C411.367 144.697 417.134 148.93 420.311 148.622C421.802 148.478 421.805 143.403 425.027 143.668C428.99 143.997 431.564 145.935 435.125 146.584C436.964 146.921 443.336 147.473 444.74 147.068C446.089 145.046 450.176 137.758 448.077 135.578C446.481 133.919 438.352 135.765 435.215 134.353C433.084 133.396 433.771 129.383 435.217 127.827C437.792 125.058 441.908 122.789 445.732 122.747C447.068 122.733 448.414 122.946 449.711 123.246C450.831 123.501 457.145 125.628 457.866 125.058C460.427 123.038 455.46 119.313 454.081 117.464C452.767 115.703 453.411 114.227 453.527 112.721C452.793 111.327 450.063 111.39 448.898 112.255C448.522 112.847 449.34 114.977 447.654 115.86C445.5 116.983 444.214 109.963 441.916 112.592C440.08 114.69 437.39 117.335 436.469 119.988C435.956 121.469 437.532 123.53 435.893 125.174C434.044 127.027 431.262 126.496 429.003 127.101C427.588 127.479 429.545 130.94 426.886 131.844C425.81 132.21 423.693 130.511 423.264 129.628C421.168 125.305 414.925 116.021 410.481 113.83C409.792 114.262 408.918 115.34 409.021 116.115C409.302 118.221 414.402 122.334 415.851 124.232C417.755 126.727 415.848 128.571 414.057 127.792C410.139 126.091 407.204 120.64 402.812 118.792C400.795 117.943 397.697 119.815 395.677 120.141C391.638 120.793 388.213 128.297 385.786 131.405C383.753 134.008 381.647 134.418 378.609 134.847C376.871 135.091 371.892 133.435 371.324 131.849C370.488 129.509 371.477 122.552 371.813 119.87C372.276 116.199 382.775 119.965 384.555 118.116C387.964 114.577 378.864 109.881 381.602 106.902C383.895 104.407 386.564 104.549 389.181 103.063C389.197 102.269 388.839 101.199 388.308 100.092C387.182 100.463 384.495 104.012 382.173 101.833C381.207 100.928 381.867 99.8422 381.654 99.2296C381.165 98.354 379.572 99.0639 378.651 98.2804C378.233 97.9254 377.773 97.4337 377.331 96.8973C376.902 96.9131 376.468 96.9709 376.055 97.105C374.48 97.6204 371.306 100.515 369.975 99.4426C368.821 98.5118 369.902 93.9524 370.759 92.9875C371.632 92.0067 372.989 88.8778 374.659 89.5167C377.462 90.5869 376.324 92.0645 377.242 93.6921C377.481 94.1181 377.812 94.615 378.175 95.1067C378.606 95.1777 379.032 95.3065 379.543 95.4591C381.234 94.7018 382.083 93.6842 382.38 92.5825C379.498 89.5877 375.666 85.1309 377.155 83.8005C378.746 82.378 384.505 87.3685 384.345 91.9778C385.294 92.9769 386.073 93.7684 386.394 94.0865C387.682 95.3775 388.76 96.9341 389.563 98.5933C389.628 98.6353 389.694 98.6827 389.76 98.7353C390.146 99.0429 392.161 100.547 392.766 100.284C395.033 97.8991 395.335 95.9271 398.788 94.6597C398.909 94.615 399.033 94.5703 399.154 94.523C386.407 86.3641 375.203 76.149 363.145 66.9226C362.59 66.4992 362.041 66.1627 361.496 65.8997C360.697 66.4177 359.871 66.8437 359.116 67.1539C356.387 68.2793 354.351 68.8972 351.471 67.6535C350.564 67.2617 343.079 58.2641 341.572 56.789C338.745 54.0176 333.667 49.6371 329.336 50.9203C327.595 51.4382 324.457 56.3289 322.648 57.896C320.086 60.1178 315.213 61.7979 313.44 64.3379C311.021 67.8034 309.73 75.0762 304.554 71.7711C299.321 68.4292 302.592 49.2874 299.376 42.3985C296.788 36.8558 292.685 31.7969 287.244 28.8573C284.236 27.2349 279.494 25.7441 276.191 27.3401C273.379 28.6995 269.337 32.3675 266.963 34.4525C262.373 38.4807 257.9 42.6535 253.384 46.7632C250.016 49.8291 246.623 52.8844 243.149 55.8319C241.445 57.2781 239.599 59.3 237.529 60.1598C236.011 60.7883 234.528 59.6839 233.7 59.9048C231.932 60.3755 230.699 62.053 229.805 63.5386C227.435 67.4879 222.339 72.134 220.653 76.0254C219.325 79.0913 224.064 84.9232 226.144 86.7401C228.377 88.6937 231.854 90.1451 234.647 91.0891C236.514 91.7175 238.599 91.5965 240.214 92.9217C241.582 94.0445 241.461 95.7194 241.887 97.2549C242.326 98.8299 243.233 100.952 244.524 101.98C247.899 104.67 256.07 110.312 255.515 115.227C255.381 116.405 253.832 116.61 251.838 116.352C254.087 116.739 256.143 117.483 255.686 118.755C255.596 119.61 258.397 121.9 257.574 123.869C257.087 125.037 254.607 125.857 253.866 127.359C252.911 129.288 254.06 132.304 252.761 135.097C251.099 138.673 246.983 142.025 243.93 144.441C240.327 147.292 235.186 144.994 234.149 145.577C234.136 145.627 234.184 145.698 234.189 145.748C235.12 152.485 241.35 160.531 244.374 166.56C244.482 166.596 244.611 166.612 244.761 166.62C244.043 165.6 243.446 164.333 244.538 163.678C246.26 162.647 254.565 167.036 256.193 168.214C256.914 168.737 258.481 169.799 257.937 170.88C257.193 172.355 252.204 170.554 249.2 169.336C251.007 171.637 252.929 174.114 253.395 175.039C254.444 175.45 257.895 175.087 261.174 174.464C259.483 173.677 261.116 171.603 262.5 171.235C262.86 171.137 263.228 171.066 263.596 171.016C264.916 170.838 269.206 170.827 269.303 172.836C269.314 173.02 269.279 173.194 269.216 173.351C272.927 173.404 276.688 173.643 277.422 175.429C280.554 183.056 283.029 191.41 288.404 197.854C290.655 200.555 294.889 199.606 297.669 202.687C299.21 204.394 300.672 207.278 299.818 209.608C299.323 210.949 296.943 213.638 296.125 214.769C296.149 214.756 296.173 214.745 296.194 214.732C297.23 214.146 300.515 211.459 301.601 211.861C303.292 212.489 301.109 214.74 299.878 216.157C300.288 216.139 300.699 216.081 301.088 215.979C302.924 215.495 305.969 212.589 307.352 213.728C308.694 214.835 310.132 215.831 311.618 216.736C313.551 217.911 316.504 217.356 318.645 218.353C320.71 219.313 327.121 222.904 326.377 225.883C326.259 226.357 325.777 226.646 325.301 226.528C324.828 226.409 324.539 225.928 324.657 225.452C325.028 223.893 318.987 220.462 317.898 219.957C315.781 218.973 313.117 219.718 310.698 218.245C309.141 217.299 307.634 216.252 306.469 215.185C306.045 215.227 302.945 217.32 301.543 217.69C300.491 217.966 299.365 217.993 298.29 217.848C297.054 217.685 297.338 216.715 298.04 215.645L298.035 215.676ZM361.281 63.9119C362.722 62.8181 363.916 61.3536 363.592 59.7654C362.746 60.0573 360.899 60.9907 359.858 61.1906C358.843 61.3851 354.272 62.0556 352.242 62.5815C354.659 63.5701 357.799 62.642 361.281 63.9119ZM479.933 133.28C480.196 130.067 476.725 122.634 475.857 119.431C475.068 116.523 477.545 114.246 477.522 112.529C477.364 112.284 476.388 112.232 476.315 112.195C472.867 115.755 474.771 116.988 475.173 120.625C475.562 124.132 475.147 126.112 477.246 129.373C478.098 130.698 479 131.999 479.933 133.277V133.28ZM463.52 247.662C463.949 248.243 464.293 248.903 464.535 249.666C465.432 252.503 463.12 256.076 463.173 258.808C463.21 260.578 464.115 263.212 466.055 263.32C467.731 262.355 470.326 252.111 470.734 250.131C471.297 247.397 471.909 243.59 471.736 240.455C471.581 240.679 471.439 240.884 471.32 241.044C470.366 242.325 469.34 243.574 468.193 244.689C467.068 245.782 465.737 246.829 464.264 247.407C464.017 247.505 463.767 247.589 463.52 247.662ZM387.477 98.5696C386.672 97.2128 385.757 95.9797 385.136 95.3618C384.947 95.1698 384.461 94.7044 383.814 94.0629C383.235 95.1961 382.146 96.2295 380.368 97.0472C381.297 97.1234 382.367 96.8999 383.198 98.3882C383.672 99.2348 383.243 100.192 383.382 100.56C384.34 101.457 385.836 99.3374 387.477 98.567V98.5696ZM416.448 28.1237C417.424 25.8098 419.02 23.4487 419.199 21.8053C419.548 18.5843 427.504 18.4792 430.034 17.5326C430.573 17.3301 432.369 16.6202 433.497 15.9944C433.255 16.0023 433.037 16.0154 432.919 16.0233C430.015 16.2442 408.926 18.182 408.705 21.1322C409.279 21.9 414.449 20.5406 415.685 22.9701C416.295 24.1691 415.909 27.1508 416.369 27.9922C416.393 28.0369 416.419 28.0816 416.445 28.1237H416.448ZM484.202 47.0156C484.267 46.8447 484.346 46.6817 484.441 46.5292C483.999 45.8088 482.668 44.7886 482.171 43.5028C481.658 42.1776 482.363 40.2897 483.292 39.2958C484.922 37.5526 486.658 35.8908 488.515 34.3947C491.502 31.9836 494.676 31.8337 498.169 30.8635C498.829 30.6794 501.314 29.9563 503.155 29.1938C500.63 29.7565 497.246 30.6952 496.183 30.9713C492.92 31.8258 489.44 32.9301 486.177 33.6506C485.461 33.8084 483.273 38.4176 482.726 39.2511C482.014 40.3476 478.742 42.7061 478.773 43.5791C478.808 44.573 482.169 45.8561 484.199 47.0156H484.202ZM557.199 20.4722C557.47 19.2864 558.012 18.0795 557.92 17.5825C557.394 17.1855 555.23 18.5265 553.878 17.4406C552.489 16.3231 551.932 12.8155 551.414 12.6367C550.401 12.2896 547.637 14.9742 546.935 16.0549C547.905 17.7982 554.675 19.5756 556.381 20.1935C556.65 20.2908 556.923 20.3881 557.199 20.4722ZM611.349 139.816C611.491 140.495 611.606 141.176 611.669 141.862C611.772 142.972 611.491 145.872 612.385 146.561C612.445 146.605 612.585 146.729 612.664 146.74C612.842 146.65 614.794 142.945 615.696 142.08C617.963 139.906 621.369 140.319 623.833 139.099C625.445 138.299 627.483 139.293 628.062 138.528C629.889 136.117 631.044 132.107 631.336 129.094C631.599 126.375 629.369 125.899 630.092 123.762C630.91 121.345 636.866 119.226 637.424 118.306C637.024 117.622 633.766 116.323 632.966 116.042C631.925 116.021 630.181 120.059 629.902 120.861C629.098 123.18 629.921 126.07 628.937 128.734C627.733 131.994 624.782 134.631 621.876 136.39C618.712 138.305 615.046 139.322 611.349 139.816ZM568.353 220.017C568.332 219.628 568.253 219.26 568.124 218.984C567.29 217.18 565.007 215.3 563.74 213.62C563.04 212.689 560.671 209.736 558.664 207.494C561.428 211.645 566.688 218.032 568.021 219.576C568.137 219.71 568.247 219.857 568.35 220.015L568.353 220.017ZM584.374 219.352C585.226 217.33 585.957 215.571 586.217 215.003C587.159 212.957 589.886 211.041 590.378 209.329C590.538 208.766 588.558 207.228 588.292 205.969C587.987 204.533 589.35 203.502 589.734 202.611C589.763 201.407 588.863 201.43 588.064 201.948C585.62 203.534 576.692 209.326 576.392 211.903C576.127 214.177 577.754 215.994 579.424 217.301C580.153 217.872 582.244 218.119 583.301 218.695C583.567 218.837 583.932 219.068 584.377 219.352H584.374ZM650.068 270.467C650.292 268.303 650.266 266.255 649.916 264.493C649.653 263.165 647.055 262.595 645.903 261.343C643.389 258.608 639.273 253.849 637.968 250.507C637.166 248.449 635.42 239.241 633.845 237.313C633.011 238.799 632.038 244.452 631.575 245.801C631.244 247.447 630.986 249.621 628.898 250C627.049 250.334 624.296 248.128 622.662 247.318C621.818 246.9 621.226 246.321 620.764 245.661C621.253 246.713 621.994 247.644 622.873 248.267C626.578 250.889 636.44 252.117 637.934 254.472C638.781 255.808 639.254 259.055 639.912 260.778C641.221 264.225 643.504 266.683 646.642 268.597C647.799 269.305 648.938 269.917 650.066 270.467H650.068ZM687.263 294.67C687.592 295.283 687.918 295.906 688.239 296.545C689.475 298.996 691.132 294.749 691.158 293.611C691.174 292.861 690.408 290.213 689.391 290.892C688.896 291.22 688.091 292.853 687.263 294.67ZM401.003 95.7088C400.445 95.9376 399.909 96.1611 399.396 96.3478C396.574 97.3811 395.987 99.4872 394.086 101.483C393.255 102.519 391.877 102.159 390.662 101.507C390.964 102.614 391.151 103.955 390.423 104.407C388.011 105.9 384.808 106.05 382.906 108.119C381.983 109.124 390.104 114.924 385.828 119.365C383.545 121.737 374.675 119.179 373.568 120.112C373.286 122.342 372.316 129.396 372.855 131.045C373.82 132.041 376.91 133.319 378.354 133.117C380.897 132.757 382.675 132.528 384.384 130.338C387.29 126.614 390.338 119.231 395.388 118.413C398.007 117.99 400.59 115.958 403.49 117.18C408.14 119.136 411.167 124.632 414.649 126.154C414.704 126.165 414.828 126.16 414.923 126.144C414.841 125.886 414.541 125.465 414.439 125.329C412.558 122.865 407.667 119.428 407.262 116.373C407.022 114.58 409.429 111.482 410.833 112.071C415.78 114.151 422.489 124.001 424.761 128.728C425.019 129.047 426.084 130.09 426.31 130.19C427.272 129.864 425.553 126.212 428.54 125.415C430.213 124.968 433.426 125.16 434.634 123.948C435.265 123.315 434.278 120.909 434.791 119.434C435.827 116.444 438.52 113.804 440.577 111.453C443.554 108.051 445.587 112.074 447.004 113.812C447.057 113.031 446.891 111.577 447.809 110.893C449.858 109.361 453.821 109.51 455.094 111.924C455.531 112.752 454.423 114.99 455.502 116.436C457.464 119.068 463.134 123.191 458.963 126.478C456.995 128.029 449.316 124.508 445.75 124.545C442.423 124.579 438.752 126.651 436.514 129.06C435.738 129.893 435.146 131.965 435.941 132.764C439.154 134.211 446.784 131.705 449.353 134.376C452.367 137.51 448.151 145.172 446.213 148.078C445.206 149.587 436.393 148.643 434.807 148.354C431.304 147.715 428.593 145.767 424.879 145.462C423.309 145.333 423.396 150.131 420.479 150.413C416.432 150.805 411.367 146.584 407.614 145.388C400.406 143.087 406.772 135.893 400.758 135.546C396.064 135.273 390.031 138.023 385.447 139.275C383.022 139.937 378.785 139.577 376.96 140.6C374.825 141.796 373.699 143.484 373.023 145.761C371.022 152.503 364.226 157.843 361.044 164.051C359.093 167.859 360.802 171.427 360.497 175.355C360.345 177.314 358.419 180.911 359.108 182.949C359.705 184.71 363.516 189.333 364.736 191.31C366.07 193.471 366.433 196.335 367.971 198.228C369.418 200.008 372.197 201.175 374.404 201.609C379.622 202.632 385.875 199.992 391.033 199.001C394.388 198.354 395.806 200.783 398.478 201.562C400.119 202.038 402.933 200.213 404.293 202.5C406.72 206.584 403.427 212.174 404.911 216.273C406.673 221.151 411.654 225.749 411.974 231.055C412.303 236.469 407.906 241.886 408.879 246.737C410.907 256.842 414.31 265.298 418.205 274.719C418.854 276.291 419.764 282.386 421.037 282.804C425.894 284.395 429.374 282.951 433.731 280.779C438.11 278.6 440.945 270.38 442.71 266.089C443.67 263.757 445.86 262.137 446.547 259.75C447.128 257.725 444.987 255.753 445.963 252.845C446.86 250.176 450.197 247.239 452.122 245.162C452.893 244.334 455.865 245.606 456.88 245.853C457.187 245.927 457.498 245.995 457.811 246.059C456.824 245.683 455.862 245.291 455.081 244.662C453.955 243.755 454.955 241.315 455.323 240.287C456.651 234.274 451.599 227.727 453.734 221.009C455.815 214.461 462.408 209.518 466.642 204.241C469.787 200.321 471.854 195.38 473.335 190.584C471.931 190.692 469.309 191.221 467.765 191.113C463.594 190.821 460.68 188.61 458.915 184.842C457.585 181.999 453.779 179.749 451.951 176.512C449.669 172.47 449.905 168.285 448.162 164.314C447.536 162.886 443.77 155.7 443.654 154.593C443.286 151.102 447.804 150.684 449.619 152.685C452.73 156.121 455.941 165.295 458.523 169.857C459.407 171.419 460.377 172.946 461.474 174.372C462.936 176.273 463.594 182.878 464.619 183.288C466.978 184.234 469.508 180.685 472.07 179.799C476.662 178.21 480.856 175.368 484.23 171.889C485.254 170.838 488.544 167.02 488.712 165.603C488.478 164.185 484.73 161.822 483.523 161.283C482.613 160.875 478.965 164.982 476.659 164.038C473.9 162.91 473.306 159.418 472.107 157.01C471.163 155.111 468.809 152.779 468.598 150.784C468.125 146.293 473.046 147.81 475.268 149.516C477.743 151.417 478.44 154.146 482.04 154.767C484.751 155.235 487.294 157.352 490.008 157.891C493.062 158.498 496.36 158.106 499.479 158.737C501.688 159.182 504.646 161.269 506.195 162.829C506.979 163.617 508.681 166.928 509.164 167.167C509.491 167.057 510.987 162.434 512.539 165.81C513.798 168.553 513.875 172.51 514.572 175.513C515.592 179.901 517.054 183.911 518.585 188.126C518.932 189.08 519.86 192.567 520.912 193.392C521.507 192.322 522.135 189.099 522.274 188.273C522.769 185.333 522.472 182.822 523.766 179.943C524.644 177.987 526.998 176.625 528.534 175.184C529.654 174.132 530.254 172.757 531.211 171.584C532.889 169.531 534.885 167.698 537.262 166.481C539.427 165.371 543.469 163.397 545.615 165.324C547.868 167.346 550.13 170.041 550.688 173.104C551.003 174.837 549.909 176.528 550.993 177.698C552.013 177.429 553.486 175.126 555.164 176.359C556.3 177.193 556.647 178.408 556.992 179.599C558.086 177.677 557.97 175.828 555.011 175.347C554.456 175.255 553.467 175.71 552.81 175.768C551.482 175.881 551.337 172.084 550.811 170.867C549.694 168.279 547.227 164.869 544.789 163.431C541.935 161.748 537.102 165.579 534.824 167.233C532.35 169.029 530.619 171.571 528.557 173.777C524.523 178.092 524.289 178.31 521.207 183.193C520.954 183.593 520.581 183.9 520.089 183.927C517.775 184.048 515.821 174.6 515.358 172.902C514.658 170.338 513.925 167.459 512.888 165.021C509.827 157.807 506.348 158.001 499.721 157.252C497.627 157.015 483.849 141.16 482.166 139.08C481.261 137.963 480.367 136.829 479.494 135.675C476.93 135.949 472.911 134.148 472.073 133.101C470.5 131.134 472.254 127.808 471.602 125.305C470.297 120.299 466.81 110.186 462.455 107.373C449.976 99.3163 424.85 108.209 409.363 100.41C406.486 98.964 403.703 97.389 400.995 95.7194L401.003 95.7088ZM376.113 95.2645C375.956 95.0226 375.816 94.7938 375.698 94.5835C374.851 93.0821 375.635 91.8069 374.359 91.2021C373.825 91.4624 372.608 93.5948 372.084 94.1838C371.721 94.5914 371.28 96.6896 371.237 97.7834C372.292 97.2549 374.562 95.7509 375.506 95.4433C375.724 95.3723 375.924 95.3118 376.116 95.2645H376.113ZM382.004 89.4694C381.328 87.9312 380.092 86.556 379.061 85.8303C379.695 86.8006 380.818 88.1415 382.004 89.4694ZM251.068 116.257C247.68 115.668 243.438 114.038 242.457 113.549C239.564 112.103 239.341 109.823 237.4 108.314C236.182 107.37 233.25 108.685 231.719 110.063C233.158 110.286 234.817 110.336 236.485 110.859C238.334 111.44 236.335 118.842 236.821 121.435C238.286 119.328 240.464 113.128 242.528 114.099C244.275 114.924 244.664 118.072 245.424 118.729C245.668 117.877 245.466 116.313 247.054 116.079C247.662 115.989 249.345 116.023 251.068 116.255V116.257ZM247.083 166.66C247.349 166.704 247.62 166.778 247.888 166.891C248.937 167.33 252.356 168.676 254.684 169.363C252.885 168.242 248.356 165.981 246.144 165.424C246.384 165.75 246.705 166.173 247.083 166.662V166.66ZM265.892 173.338C266.318 173.201 266.692 173.065 267.002 172.931C265.845 172.612 263.765 172.752 262.955 172.97C262.891 172.986 262.799 173.036 262.702 173.099C263.528 173.257 264.643 173.315 265.892 173.338Z" fill="#3E4EEC"/>
</g>
<defs>
<clipPath id="clip0_585_11852">
<rect width="809" height="328" fill="white"/>
</clipPath>
</defs>
</svg>
