<svg width="572" height="424" viewBox="0 0 572 424" fill="none" xmlns="http://www.w3.org/2000/svg">
<g filter="url(#filter0_d_1406_1156)">
<path d="M783 409.942C722.536 410.456 574.285 422.174 528.36 408.085C473.184 391.158 506.626 359.779 526.652 365.786C539.722 369.708 546.094 385.582 521.913 398.433C489.498 415.663 428.79 366.258 448.641 343.044C456.381 333.991 469.791 338.933 476.954 346.131C484.916 354.13 487.863 372.084 456.459 363.822C450.996 362.385 434.842 358.548 420.153 353.856C378.48 340.54 343.019 297.203 319.934 261.891C274.476 192.352 271.675 183.574 277.025 185.885C282.378 188.196 266.094 198.742 257.775 197.199C249.456 195.654 238.7 184.712 238.7 184.712C238.7 184.712 247.132 184.642 257.985 177.611C268.841 170.58 273.627 164.592 275.864 165.066C278.099 165.546 286.048 181.966 281.941 180.389C277.837 178.812 279.557 146.691 275.844 132.342C272.131 117.993 271.105 114.035 271.105 114.035C271.105 114.035 298.31 104.887 320.314 126.647C342.315 148.406 352.499 165.306 341.703 164.403C330.907 163.499 304.427 155.04 289.689 157.269C274.95 159.498 262.851 165.795 248.66 174.217C234.468 182.638 220.469 214.239 220.094 229.119C219.72 243.998 189.347 214.374 190.955 183.866C192.565 153.358 192.403 148.648 195.499 148.376C198.597 148.104 227.6 176.5 219.278 174.955C210.956 173.413 176.117 128.576 172.913 116.209C169.713 103.839 237.879 69.3127 244.091 70.8726C250.305 72.4351 183.053 112.53 176.491 113.7C169.927 114.871 158.994 97.1073 152.59 72.3702C146.186 47.6305 147.454 5.5966 154.859 1.57067C162.267 -2.45526 198.128 15.7201 216.581 27.8403C235.032 39.9605 256.644 74.4917 261.57 85.3615C274.978 114.956 267.026 117.242 252.842 89.4648C231.487 47.648 285.936 97.327 269.717 112.682L256.447 122.536C238.221 134.586 210.779 149.684 204.829 149.889C198.88 150.093 172.294 116.962 187.04 119.818C201.786 122.671 210.317 150.47 224.988 163.344C239.659 176.221 259.398 195.786 266.384 207.315C273.37 218.844 317.293 303.501 317.997 331.992C318.701 360.48 296.979 369.713 292.031 358.321C287.082 346.932 316.424 331.063 326.256 345.859C336.088 360.652 320.588 380.662 286.83 389.395C253.071 398.126 256.732 347.838 274.623 352.546C292.517 357.253 288.38 387.663 255.735 398.106C223.085 408.552 5 402.854 5 402.854" stroke="#3F55E9" stroke-width="2" stroke-linecap="round" stroke-linejoin="round" shape-rendering="crispEdges"/>
</g>
<defs>
<filter id="filter0_d_1406_1156" x="0" y="-0.00012207" width="788" height="424" filterUnits="userSpaceOnUse" color-interpolation-filters="sRGB">
<feFlood flood-opacity="0" result="BackgroundImageFix"/>
<feColorMatrix in="SourceAlpha" type="matrix" values="0 0 0 0 0 0 0 0 0 0 0 0 0 0 0 0 0 0 127 0" result="hardAlpha"/>
<feOffset dy="4"/>
<feGaussianBlur stdDeviation="2"/>
<feComposite in2="hardAlpha" operator="out"/>
<feColorMatrix type="matrix" values="0 0 0 0 0 0 0 0 0 0 0 0 0 0 0 0 0 0 0.25 0"/>
<feBlend mode="normal" in2="BackgroundImageFix" result="effect1_dropShadow_1406_1156"/>
<feBlend mode="normal" in="SourceGraphic" in2="effect1_dropShadow_1406_1156" result="shape"/>
</filter>
</defs>
</svg>
