<svg width="293" height="49" viewBox="0 0 293 49" fill="none" xmlns="http://www.w3.org/2000/svg">
<g clip-path="url(#clip0_1565_1344)">
<path d="M38.6828 22.324C38.56 20.5708 38.0688 18.8176 37.0864 17.2982L28.7358 3.38951C28.1218 2.33759 27.6306 1.1688 27.385 0L27.0166 0.584399C24.9289 3.97391 24.9289 8.29846 27.0166 11.688L33.7707 22.7915C35.8583 26.1811 35.8583 30.5056 33.7707 33.8951L33.4023 34.4795C33.1567 33.3107 32.6655 32.1419 32.0515 31.09L25.9113 20.9215L21.9817 14.3762C21.3676 13.3243 20.8764 12.1555 20.6308 10.9867L20.2624 11.5711C18.1748 14.9606 18.1748 19.1683 20.2624 22.6747L27.0166 33.7782C29.1042 37.1678 29.1042 41.4923 27.0166 44.8818L26.6481 45.4662C26.4025 44.2974 25.9113 43.1286 25.2973 42.0767L16.8239 28.168C15.7187 26.2979 15.2275 24.1941 15.2275 22.0903C6.26293 24.311 0 29.1031 0 34.5964C0 42.3105 12.0346 48.5051 26.8938 48.5051C41.7529 48.5051 53.7875 42.3105 53.7875 34.5964C53.9103 29.3368 47.7702 24.5447 38.6828 22.324ZM64.1029 46.0506C64.2257 44.0637 64.4713 42.778 65.0853 41.1417C67.9098 42.4273 71.5939 43.0117 74.2955 43.0117C78.962 43.0117 81.6637 41.6092 81.6637 38.6872C81.6637 35.8821 79.6988 34.5964 75.0323 32.6094L72.4535 31.6744C67.6642 29.6875 64.4713 27.1161 64.4713 22.0903C64.4713 16.5969 68.5238 13.0905 76.6288 13.0905C79.9445 13.0905 83.0145 13.5581 85.839 14.4931C85.7162 16.3632 85.3478 17.8826 84.8565 19.2852C82.1549 18.3501 78.8392 17.8826 76.506 17.8826C72.0851 17.8826 70.1202 19.5189 70.1202 22.0903C70.1202 24.5447 72.0851 26.0642 75.6464 27.4667L78.348 28.5187C84.7337 31.09 87.4354 33.8951 87.4354 38.5703C87.4354 44.0637 83.0145 47.9207 74.4183 47.9207C70.3659 47.9207 66.9274 47.3363 64.1029 46.0506ZM114.575 23.0253V47.1025H109.417L109.171 44.1805C107.698 46.2844 105.61 47.6869 102.049 47.6869C95.4176 47.6869 90.8739 43.0117 90.8739 34.947C90.8739 26.5317 95.6632 21.6228 104.996 21.6228C108.68 21.7396 111.75 22.0903 114.575 23.0253ZM109.049 41.6092V26.5317C107.943 26.2979 106.593 26.2979 104.996 26.2979C99.2244 26.2979 96.5228 29.6875 96.5228 35.0639C96.5228 39.9729 98.6104 43.4793 103.523 43.4793C105.856 43.3624 107.575 42.6611 109.049 41.6092ZM143.065 30.9731V47.1025H137.539V31.9082C137.539 28.0511 136.188 26.2979 130.662 26.2979C129.311 26.2979 127.837 26.4148 126.241 26.6486V47.1025H120.715V23.0253C124.276 22.2072 128.206 21.6228 130.785 21.6228C140.118 21.7396 143.065 25.1291 143.065 30.9731ZM158.538 43.2455C160.135 43.2455 161.731 43.0117 162.836 42.5442C162.713 43.9468 162.468 45.5831 162.222 46.9856C160.749 47.57 159.029 47.8038 157.556 47.8038C152.152 47.8038 148.714 45.4662 148.714 39.6222V14.2593C150.433 13.6749 152.521 13.4412 154.24 13.4412V22.5578H163.082C162.959 24.1941 162.836 25.7135 162.591 27.1161H154.24V38.921C154.24 41.9598 155.836 43.2455 158.538 43.2455ZM188.379 23.0253V47.1025H183.221L182.976 44.1805C181.502 46.2844 179.414 47.6869 175.853 47.6869C169.222 47.6869 164.678 43.0117 164.678 34.947C164.678 26.5317 169.467 21.6228 178.8 21.6228C182.485 21.7396 185.432 22.0903 188.379 23.0253ZM182.73 41.6092V26.5317C181.625 26.2979 180.274 26.2979 178.678 26.2979C172.906 26.2979 170.204 29.6875 170.204 35.0639C170.204 39.9729 172.292 43.4793 177.204 43.4793C179.537 43.3624 181.379 42.6611 182.73 41.6092ZM216.869 30.9731V47.1025H211.22V31.9082C211.22 28.0511 209.87 26.2979 204.343 26.2979C202.993 26.2979 201.519 26.4148 199.923 26.6486V47.1025H194.396V23.0253C197.958 22.2072 201.887 21.6228 204.466 21.6228C213.799 21.7396 216.869 25.1291 216.869 30.9731ZM244.991 13.4412V47.1025H239.833L239.588 44.0637C238.114 46.2844 236.026 47.6869 232.342 47.6869C225.711 47.6869 221.167 43.0117 221.167 34.947C221.167 26.5317 225.957 21.6228 235.29 21.6228C236.763 21.6228 238.114 21.7396 239.465 21.9734V14.0256C241.184 13.558 243.149 13.4412 244.991 13.4412ZM239.465 41.6092V26.7655C237.991 26.5317 236.518 26.2979 235.044 26.2979C229.518 26.2979 226.939 29.5706 226.939 35.0639C226.939 39.9729 229.027 43.4793 233.939 43.4793C236.149 43.3624 237.991 42.6611 239.465 41.6092ZM272.99 36.8171H255.184C255.92 41.1417 258.499 43.1286 263.534 43.1286C266.604 43.1286 269.674 42.5442 272.376 41.2585C272.13 42.6611 271.885 44.5312 271.516 46.0506C268.938 47.1025 266.359 47.57 263.289 47.57C253.956 47.57 249.535 42.6611 249.535 34.4795C249.535 27.3499 252.973 21.6228 261.815 21.6228C269.797 21.6228 273.236 26.5317 273.236 32.6094C273.236 34.2458 273.236 35.4146 272.99 36.8171ZM255.184 32.3757H267.71C267.71 28.4018 265.499 26.0642 261.692 26.0642C257.64 26.1811 255.552 28.2849 255.184 32.3757ZM292.516 21.9734C292.516 23.6097 292.27 25.4798 292.024 26.5317C290.674 26.4148 289.446 26.2979 287.849 26.2979C286.498 26.2979 285.147 26.4148 283.797 26.5317V47.1025H278.271V23.0253C280.604 22.2072 284.656 21.6228 287.726 21.6228C289.323 21.7396 291.288 21.7396 292.516 21.9734Z" fill="#EA1D25"/>
</g>
<defs>
<clipPath id="clip0_1565_1344">
<rect width="292.516" height="48.5051" fill="white"/>
</clipPath>
</defs>
</svg>
