<svg width="145" height="30" viewBox="0 0 145 30" fill="none" xmlns="http://www.w3.org/2000/svg">
<rect width="144.738" height="29.0645" rx="5" fill="#FED182"/>
<path d="M12.5625 20.0323V8.39163H17.6094C18.4948 8.39163 19.2396 8.51142 19.8438 8.75101C20.4479 8.99059 20.9036 9.32913 21.2109 9.76663C21.5182 10.1989 21.6719 10.7093 21.6719 11.2979C21.6719 11.725 21.5781 12.1156 21.3906 12.4698C21.2031 12.8239 20.9401 13.1208 20.6016 13.3604C20.2682 13.5948 19.875 13.7562 19.4219 13.8448V13.9698C19.9219 13.9854 20.375 14.1104 20.7812 14.3448C21.1927 14.5739 21.5182 14.8942 21.7578 15.3057C22.0026 15.7119 22.125 16.1885 22.125 16.7354C22.125 17.3708 21.9609 17.9385 21.6328 18.4385C21.3047 18.9333 20.8359 19.3239 20.2266 19.6104C19.6172 19.8916 18.8906 20.0323 18.0469 20.0323H12.5625ZM15.7188 17.5166H17.2031C17.7292 17.5166 18.125 17.4151 18.3906 17.2119C18.6615 17.0088 18.7969 16.7145 18.7969 16.3291C18.7969 16.0531 18.7344 15.8213 18.6094 15.6338C18.4844 15.4411 18.3047 15.2953 18.0703 15.1963C17.8411 15.0974 17.5677 15.0479 17.25 15.0479H15.7188V17.5166ZM15.7188 13.0948H17.0156C17.2917 13.0948 17.5339 13.0531 17.7422 12.9698C17.9557 12.8812 18.1224 12.7562 18.2422 12.5948C18.362 12.4281 18.4219 12.225 18.4219 11.9854C18.4219 11.6312 18.2917 11.3578 18.0312 11.1651C17.776 10.9724 17.4531 10.876 17.0625 10.876H15.7188V13.0948ZM27.1094 20.1885C26.1771 20.1885 25.3724 20.0114 24.6953 19.6573C24.0234 19.2979 23.5078 18.7823 23.1484 18.1104C22.7891 17.4385 22.6094 16.6312 22.6094 15.6885C22.6094 14.7875 22.7891 14.001 23.1484 13.3291C23.513 12.652 24.026 12.126 24.6875 11.751C25.349 11.376 26.1302 11.1885 27.0312 11.1885C27.6927 11.1885 28.2891 11.2927 28.8203 11.501C29.3568 11.7041 29.8151 12.001 30.1953 12.3916C30.5755 12.777 30.8672 13.2458 31.0703 13.7979C31.2734 14.35 31.375 14.975 31.375 15.6729V16.3916H23.5781V14.6729H29.9062L28.4375 15.0323C28.4375 14.6781 28.3854 14.3812 28.2812 14.1416C28.1771 13.8968 28.0234 13.7119 27.8203 13.5869C27.6172 13.4567 27.3646 13.3916 27.0625 13.3916C26.7604 13.3916 26.5078 13.4567 26.3047 13.5869C26.1016 13.7119 25.9479 13.8968 25.8438 14.1416C25.7396 14.3812 25.6875 14.6781 25.6875 15.0323V16.2823C25.6875 16.626 25.7474 16.9255 25.8672 17.1807C25.9922 17.4359 26.1667 17.6338 26.3906 17.7744C26.6146 17.9151 26.875 17.9854 27.1719 17.9854C27.3854 17.9854 27.5781 17.9567 27.75 17.8994C27.9271 17.8369 28.0781 17.7484 28.2031 17.6338C28.3281 17.5192 28.4219 17.3812 28.4844 17.2198H31.3438C31.2448 17.8239 31.013 18.35 30.6484 18.7979C30.2891 19.2406 29.8099 19.5843 29.2109 19.8291C28.6172 20.0687 27.9167 20.1885 27.1094 20.1885ZM40.2188 14.1416H37.3438C37.3229 13.876 37.1953 13.6677 36.9609 13.5166C36.7318 13.3604 36.4635 13.2823 36.1562 13.2823C35.8854 13.2823 35.6562 13.3317 35.4688 13.4307C35.2812 13.5244 35.1875 13.6625 35.1875 13.8448C35.1875 13.975 35.2422 14.0974 35.3516 14.2119C35.4661 14.3265 35.6875 14.4125 36.0156 14.4698L37.7969 14.7823C38.6875 14.9385 39.3516 15.2093 39.7891 15.5948C40.2318 15.9802 40.4531 16.4958 40.4531 17.1416C40.4531 17.7666 40.2708 18.3083 39.9062 18.7666C39.5417 19.2198 39.0417 19.5713 38.4062 19.8213C37.776 20.0661 37.0573 20.1885 36.25 20.1885C34.9167 20.1885 33.8724 19.9177 33.1172 19.376C32.3672 18.8291 31.9479 18.1104 31.8594 17.2198H34.9688C35.0156 17.4958 35.1562 17.7093 35.3906 17.8604C35.625 18.0062 35.9167 18.0791 36.2656 18.0791C36.5573 18.0791 36.7969 18.0297 36.9844 17.9307C37.1719 17.8317 37.2656 17.6937 37.2656 17.5166C37.2656 17.2093 36.9323 16.9958 36.2656 16.876L34.7188 16.5948C33.8333 16.4333 33.1693 16.139 32.7266 15.7119C32.2839 15.2797 32.0625 14.7198 32.0625 14.0323C32.0625 13.4229 32.224 12.9073 32.5469 12.4854C32.875 12.0635 33.3385 11.7432 33.9375 11.5244C34.5417 11.3005 35.2604 11.1885 36.0938 11.1885C37.3542 11.1885 38.3464 11.4515 39.0703 11.9776C39.7995 12.4984 40.1823 13.2198 40.2188 14.1416ZM46.4844 11.2979V13.5791H40.7344V11.2979H46.4844ZM41.8438 9.21976H44.9844V17.2198C44.9844 17.402 45.0312 17.5401 45.125 17.6338C45.2188 17.7224 45.3698 17.7666 45.5781 17.7666C45.6719 17.7666 45.7812 17.7562 45.9062 17.7354C46.0365 17.7145 46.1302 17.6937 46.1875 17.6729L46.6406 19.8916C46.2812 19.9906 45.9557 20.0609 45.6641 20.1026C45.3724 20.1442 45.0859 20.1651 44.8047 20.1651C43.8255 20.1651 43.0859 19.9411 42.5859 19.4932C42.0911 19.0453 41.8438 18.3864 41.8438 17.5166V9.21976ZM54.4062 20.1885C53.4583 20.1885 52.6458 20.001 51.9688 19.626C51.2969 19.2458 50.7812 18.7198 50.4219 18.0479C50.0677 17.3708 49.8906 16.5843 49.8906 15.6885C49.8906 14.7927 50.0677 14.0088 50.4219 13.3369C50.7812 12.6599 51.2969 12.1338 51.9688 11.7588C52.6458 11.3786 53.4583 11.1885 54.4062 11.1885C55.2656 11.1885 56.0078 11.3448 56.6328 11.6573C57.2578 11.9645 57.7422 12.3994 58.0859 12.9619C58.4297 13.5192 58.6042 14.1781 58.6094 14.9385H55.7031C55.6771 14.6312 55.6094 14.3734 55.5 14.1651C55.3906 13.9567 55.2474 13.8005 55.0703 13.6963C54.8932 13.5869 54.6875 13.5323 54.4531 13.5323C54.1771 13.5323 53.9375 13.6104 53.7344 13.7666C53.5312 13.9229 53.3724 14.1599 53.2578 14.4776C53.1484 14.7953 53.0938 15.1937 53.0938 15.6729C53.0938 16.1468 53.1484 16.5453 53.2578 16.8682C53.3724 17.1911 53.5312 17.4359 53.7344 17.6026C53.9375 17.764 54.1771 17.8448 54.4531 17.8448C54.7969 17.8448 55.0807 17.7172 55.3047 17.4619C55.5339 17.2067 55.6667 16.85 55.7031 16.3916H58.6094C58.599 17.1625 58.4219 17.8343 58.0781 18.4073C57.7396 18.975 57.2578 19.4151 56.6328 19.7276C56.013 20.0349 55.2708 20.1885 54.4062 20.1885ZM62.6406 15.126V20.0323H59.5V8.39163H62.5156V12.9698H62.6094C62.8073 12.4125 63.1354 11.9776 63.5938 11.6651C64.0521 11.3474 64.6042 11.1885 65.25 11.1885C65.8646 11.1885 66.3984 11.3291 66.8516 11.6104C67.3099 11.8916 67.6641 12.2797 67.9141 12.7744C68.1693 13.264 68.2969 13.8291 68.2969 14.4698V20.0323H65.1562V15.126C65.1562 14.6937 65.0469 14.3552 64.8281 14.1104C64.6146 13.8604 64.3073 13.7354 63.9062 13.7354C63.651 13.7354 63.4271 13.7927 63.2344 13.9073C63.0469 14.0166 62.901 14.1755 62.7969 14.3838C62.6927 14.5869 62.6406 14.8343 62.6406 15.126ZM73.7188 20.1885C72.7708 20.1885 71.9583 20.001 71.2812 19.626C70.6094 19.2458 70.0938 18.7198 69.7344 18.0479C69.3802 17.3708 69.2031 16.5843 69.2031 15.6885C69.2031 14.7927 69.3802 14.0088 69.7344 13.3369C70.0938 12.6599 70.6094 12.1338 71.2812 11.7588C71.9583 11.3786 72.7708 11.1885 73.7188 11.1885C74.6667 11.1885 75.4766 11.3786 76.1484 11.7588C76.8255 12.1338 77.3411 12.6599 77.6953 13.3369C78.0547 14.0088 78.2344 14.7927 78.2344 15.6885C78.2344 16.5843 78.0547 17.3708 77.6953 18.0479C77.3411 18.7198 76.8255 19.2458 76.1484 19.626C75.4766 20.001 74.6667 20.1885 73.7188 20.1885ZM73.7344 17.8448C74.0052 17.8448 74.237 17.7588 74.4297 17.5869C74.6224 17.4151 74.7708 17.1677 74.875 16.8448C74.9792 16.5166 75.0312 16.126 75.0312 15.6729C75.0312 15.2145 74.9792 14.8265 74.875 14.5088C74.7708 14.1911 74.6224 13.9489 74.4297 13.7823C74.237 13.6156 74.0052 13.5323 73.7344 13.5323C73.4583 13.5323 73.2188 13.6156 73.0156 13.7823C72.8177 13.9489 72.6667 14.1911 72.5625 14.5088C72.4583 14.8265 72.4062 15.2145 72.4062 15.6729C72.4062 16.126 72.4583 16.5166 72.5625 16.8448C72.6667 17.1677 72.8177 17.4151 73.0156 17.5869C73.2188 17.7588 73.4583 17.8448 73.7344 17.8448ZM79.1406 20.0323V11.2979H82.2812V20.0323H79.1406ZM80.7031 10.4073C80.276 10.4073 79.9115 10.2666 79.6094 9.98538C79.3073 9.70413 79.1562 9.36559 79.1562 8.96976C79.1562 8.56872 79.3073 8.23017 79.6094 7.95413C79.9115 7.67288 80.276 7.53226 80.7031 7.53226C81.1302 7.53226 81.4948 7.67288 81.7969 7.95413C82.099 8.23017 82.25 8.56611 82.25 8.96194C82.25 9.36299 82.099 9.70413 81.7969 9.98538C81.4948 10.2666 81.1302 10.4073 80.7031 10.4073ZM87.7031 20.1885C86.7552 20.1885 85.9427 20.001 85.2656 19.626C84.5938 19.2458 84.0781 18.7198 83.7188 18.0479C83.3646 17.3708 83.1875 16.5843 83.1875 15.6885C83.1875 14.7927 83.3646 14.0088 83.7188 13.3369C84.0781 12.6599 84.5938 12.1338 85.2656 11.7588C85.9427 11.3786 86.7552 11.1885 87.7031 11.1885C88.5625 11.1885 89.3047 11.3448 89.9297 11.6573C90.5547 11.9645 91.0391 12.3994 91.3828 12.9619C91.7266 13.5192 91.901 14.1781 91.9062 14.9385H89C88.974 14.6312 88.9062 14.3734 88.7969 14.1651C88.6875 13.9567 88.5443 13.8005 88.3672 13.6963C88.1901 13.5869 87.9844 13.5323 87.75 13.5323C87.474 13.5323 87.2344 13.6104 87.0312 13.7666C86.8281 13.9229 86.6693 14.1599 86.5547 14.4776C86.4453 14.7953 86.3906 15.1937 86.3906 15.6729C86.3906 16.1468 86.4453 16.5453 86.5547 16.8682C86.6693 17.1911 86.8281 17.4359 87.0312 17.6026C87.2344 17.764 87.474 17.8448 87.75 17.8448C88.0938 17.8448 88.3776 17.7172 88.6016 17.4619C88.8307 17.2067 88.9635 16.85 89 16.3916H91.9062C91.8958 17.1625 91.7188 17.8343 91.375 18.4073C91.0365 18.975 90.5547 19.4151 89.9297 19.7276C89.3099 20.0349 88.5677 20.1885 87.7031 20.1885ZM96.9844 20.1885C96.0521 20.1885 95.2474 20.0114 94.5703 19.6573C93.8984 19.2979 93.3828 18.7823 93.0234 18.1104C92.6641 17.4385 92.4844 16.6312 92.4844 15.6885C92.4844 14.7875 92.6641 14.001 93.0234 13.3291C93.388 12.652 93.901 12.126 94.5625 11.751C95.224 11.376 96.0052 11.1885 96.9062 11.1885C97.5677 11.1885 98.1641 11.2927 98.6953 11.501C99.2318 11.7041 99.6901 12.001 100.07 12.3916C100.451 12.777 100.742 13.2458 100.945 13.7979C101.148 14.35 101.25 14.975 101.25 15.6729V16.3916H93.4531V14.6729H99.7812L98.3125 15.0323C98.3125 14.6781 98.2604 14.3812 98.1562 14.1416C98.0521 13.8968 97.8984 13.7119 97.6953 13.5869C97.4922 13.4567 97.2396 13.3916 96.9375 13.3916C96.6354 13.3916 96.3828 13.4567 96.1797 13.5869C95.9766 13.7119 95.8229 13.8968 95.7188 14.1416C95.6146 14.3812 95.5625 14.6781 95.5625 15.0323V16.2823C95.5625 16.626 95.6224 16.9255 95.7422 17.1807C95.8672 17.4359 96.0417 17.6338 96.2656 17.7744C96.4896 17.9151 96.75 17.9854 97.0469 17.9854C97.2604 17.9854 97.4531 17.9567 97.625 17.8994C97.8021 17.8369 97.9531 17.7484 98.0781 17.6338C98.2031 17.5192 98.2969 17.3812 98.3594 17.2198H101.219C101.12 17.8239 100.888 18.35 100.523 18.7979C100.164 19.2406 99.6849 19.5843 99.0859 19.8291C98.4922 20.0687 97.7917 20.1885 96.9844 20.1885Z" fill="#3E4EEC"/>
<g clip-path="url(#clip0_1565_1347)">
<path d="M115.985 23.6777C116.096 23.7624 116.221 23.7949 116.361 23.7754C116.501 23.7559 116.662 23.681 116.844 23.5508L122.362 19.5176L127.889 23.5508C128.072 23.681 128.233 23.7559 128.373 23.7754C128.513 23.7949 128.641 23.7624 128.758 23.6777C128.869 23.5996 128.939 23.4905 128.968 23.3506C128.998 23.2106 128.976 23.0267 128.905 22.7988L126.776 16.3145L132.323 12.3105C132.512 12.1738 132.634 12.0404 132.689 11.9102C132.744 11.7799 132.753 11.6497 132.713 11.5195C132.668 11.3893 132.583 11.2868 132.46 11.2119C132.336 11.137 132.157 11.1029 131.923 11.1094L125.096 11.1289L123.007 4.625C122.928 4.39714 122.836 4.236 122.728 4.1416C122.621 4.0472 122.499 4 122.362 4C122.232 4 122.113 4.0472 122.005 4.1416C121.898 4.236 121.809 4.39714 121.737 4.625L119.637 11.1289L112.821 11.1094C112.58 11.1029 112.398 11.137 112.274 11.2119C112.15 11.2868 112.069 11.3893 112.03 11.5195C111.984 11.6497 111.991 11.7799 112.049 11.9102C112.108 12.0404 112.232 12.1738 112.421 12.3105L117.958 16.3145L115.829 22.7988C115.757 23.0267 115.736 23.2106 115.765 23.3506C115.795 23.4905 115.868 23.5996 115.985 23.6777Z" fill="#FFF1D9"/>
</g>
<defs>
<clipPath id="clip0_1565_1347">
<rect width="20.7377" height="21.0645" fill="white" transform="translate(112 4)"/>
</clipPath>
</defs>
</svg>
