<svg width="266" height="155" viewBox="0 0 266 155" fill="none" xmlns="http://www.w3.org/2000/svg">
<path d="M1 153.997C19.2876 153.997 21.0725 139.444 33.7468 142.058C47.2451 144.842 53.439 147.324 61.2327 149.712C69.0264 152.101 72.5328 149.122 76.7821 148.85C80.1997 148.635 86.5686 150.747 88.7313 153.586C82.4461 153.82 58.8621 152.575 54.4455 152.255C51.8544 152.068 51.6338 140.904 50.11 138.78C49.101 137.375 81.8173 136.911 84.5048 137.076C85.131 133.407 85.595 132.003 87.996 128.697C111.618 96.1779 88.3915 20.7404 88.3915 20.7404C88.3915 20.7404 89.9888 50.9798 78.3996 80.6107C67.1883 109.273 48.282 132.753 48.282 132.753C48.282 132.753 77.8926 111.035 99.8336 123.709C114.61 100.972 101.613 30.9478 79.9209 1C139.646 35.5115 164.252 109.56 146.908 128.197C138.828 103.315 99.4001 128.849 96.7836 127.038C94.2254 125.269 111.255 129.485 112.252 132.994C112.685 128.552 97.4453 129.675 95.7567 129.467C93.7614 129.221 88.6805 129.427 87.2126 131.022C86.097 132.233 86.5737 135.337 86.3277 137.018C97.8611 136.523 119.402 133.851 123.324 132.847C124.29 131.43 123.707 132.218 124.693 130.618C129.429 128.851 141.218 128.699 146.416 129.528C140.103 135.154 123.62 151.107 118.925 152.26C109.98 154.456 103.241 154.266 96.1193 153.366C73.8208 145.924 95.1584 141.515 100.308 142.152C111.818 143.572 116.99 150.237 125.712 152.108C134.289 153.951 164.417 143.977 180.309 146.581C221.673 153.363 245.868 157.075 265 148.052" stroke="black" stroke-width="2" stroke-linecap="round" stroke-linejoin="round"/>
</svg>
