<svg width="224" height="102" viewBox="0 0 224 102" fill="none" xmlns="http://www.w3.org/2000/svg">
<path id="Vector" d="M1 8.94906C5.33941 18.6129 15.4289 24.7221 25.7944 26.7995C36.16 28.8769 46.8781 27.4766 57.305 25.7223C67.7318 23.9681 78.2201 21.8291 88.7696 22.4446C97.1877 22.937 105.391 25.153 113.518 27.3535C138.849 34.2167 164.18 41.0953 189.511 47.9585C159.381 36.0017 136.212 8.11809 104.364 2.08586C79.5234 -2.62296 52.4136 8.28735 37.6933 28.9077C32.2652 36.5095 28.4778 45.1732 23.5557 53.1135C18.6337 61.0539 12.1629 68.5634 3.46871 71.9488C33.1852 77.0116 62.3344 85.3367 90.2569 96.7548C81.6548 92.5692 73.482 87.1525 67.3639 79.7661C61.2611 72.3797 57.3817 62.839 58.0717 53.2674C58.7617 43.6959 64.5272 34.309 73.344 30.6158C82.1608 26.9226 93.6763 30.0003 98.4757 38.2946C99.5031 40.0642 100.806 42.3417 102.815 42.0032C104.655 41.6954 105.315 39.1102 104.333 37.5098C103.352 35.9094 101.435 35.2169 99.6105 34.863C89.7969 32.9856 79.0787 39.3102 75.9354 48.8202C72.792 58.3302 77.6067 69.8253 86.5922 74.2263C95.5777 78.612 107.569 75.3343 113.089 66.9784C115.665 63.0698 116.876 57.9762 115.205 53.606C113.533 49.2357 108.489 46.0965 104.026 47.4968C99.5644 48.8971 97.4177 55.4526 100.76 58.7149C103.659 61.5463 108.933 60.5153 111.387 57.2992C113.84 54.083 113.84 49.4973 112.429 45.7118C111.019 41.9262 108.366 38.7255 105.775 35.6324C112.046 33.7396 118.869 37.956 122.089 43.6805C125.31 49.405 125.724 56.2374 125.877 62.8082C126.076 71.5641 125.862 80.674 121.921 88.4759C117.98 96.2778 109.271 102.325 100.76 100.433C115.557 102.649 131.228 98.2937 142.79 88.7683C151.269 81.782 157.663 72.1643 167.186 66.7014C174.806 62.3311 183.731 61.0231 192.425 59.7921C202.622 58.3456 212.803 56.9145 223 55.468" stroke="#010F22" stroke-width="2" stroke-linecap="round" stroke-linejoin="round"/>
</svg>
