<?xml version="1.0" encoding="UTF-8"?>
<svg id="Layer_2" data-name="Layer 2" xmlns="http://www.w3.org/2000/svg" viewBox="0 0 483.99 500.04">
  <defs>
    <style>
      .cls-1 {
        fill: #000;
        stroke-width: 0px;
      }
    </style>
  </defs>
  <g id="Layer_1-2">
    <path class="cls-1" d="M58.44,6.43c13.3,2.33,34.64,5.88,55.89,9.83,56.21,10.46,112.21,9.45,168.29-1.51,27.91-5.45,56.03-10.04,84.22-13.75,23.09-3.04,45.85,1.19,68.05,7.68,12.45,3.64,24.64,8.15,36.92,12.32,1.24.42,2.48,1.05,3.5,1.86.48.38.78,1.56.54,2.11-.25.56-1.24,1.05-1.93,1.08-.77.03-1.57-.46-2.34-.77-26.68-10.85-54.11-19.53-83.01-20.38-17.5-.51-35.24,1.39-52.62,3.97-29.63,4.41-58.97,10.75-88.59,15.29-47.8,7.32-95.28,3.35-142.55-5.55-15.53-2.92-31.16-5.31-46.81-7.56-18.51-2.66-35.71,1.81-51.97,10.57-1.03.55-2,1.38-3.09,1.59-.92.17-1.97-.37-2.96-.59.3-.86.51-1.77.94-2.57.2-.39.78-.6,1.21-.85,14.94-8.38,30.74-13.53,56.29-12.76Z"/>
    <path class="cls-1" d="M323.73,357.22c15.03-.89,22.16-13.07,24.35-23.49,1.5-7.16,2.34-14.46,3.26-21.73.53-4.19.63-8.42.98-13.34,2.05,1.27,3.46,2.06,4.79,2.97,40.05,27.36,80.07,54.76,120.17,82.04,1.86,1.27,4.46,1.46,6.71,2.15-1.43-1.77-2.54-4-4.34-5.23-41.22-28.31-82.49-56.53-123.82-84.67-3.12-2.12-4.77-4.49-5.46-8.29-1.5-8.35-2.8-16.9-5.74-24.79-3.1-8.3-6.59-17.31-12.53-23.46-5.85-6.06-5.72-11.76-4.64-18.35.58-3.53,2.33-6.92,3.82-10.24,5.29-11.73,8.78-23.75,6.72-36.81-1.58-10.01-4.63-13.33-14.43-15.24-.63-11.01-5.93-18.92-16.11-23.79-21.96-10.52-45.13-2.09-55.02,20.15-1.2,2.7-2.7,5.44-4.69,7.59-5.74,6.2-8.59,13.66-8.84,21.79-.22,7.42.83,14.88,1.47,22.31.29,3.34.95,6.65,1.63,11.26-44.73-30.57-88.28-60.34-131.84-90.1,4.24-1.55,8.28-2,12.33-2.41,33.79-3.44,67.5-7.69,101.55-8.11,20.14-.25,40.34-.76,60.38-2.57,12.99-1.17,25.84-4.54,38.57-7.66,5.07-1.24,10.73-4.15,10.56-10.51-.17-6.55-5.97-9.09-11.33-10.36-8.23-1.95-16.64-3.41-25.05-4.32-11.58-1.25-23.24-1.64-34.84-2.74-3.43-.33-6.74-1.82-10.11-2.78.02-.57.05-1.15.07-1.72,2.6-.89,5.14-2.18,7.81-2.58,5.75-.87,11.56-1.44,17.37-1.85,16.6-1.16,33.27-1.7,49.8-3.5,5.99-.65,12.14-3.44,17.36-6.65,4.67-2.87,4.13-8.59-.53-11.66-3.42-2.26-7.32-4.32-11.28-5.11-9.44-1.88-19.02-4-28.58-4.17-41.82-.75-83.66-.84-125.49-1.17-3.33-.03-6.67.09-10-.06-37.78-1.67-75.55-3.34-113.33.41-13.08,1.3-26.27,1.41-39.4,2.25-1.54.1-3.01,1.39-4.51,2.13,1.49.68,3.01,2.01,4.46,1.95,13.47-.59,26.93-1.62,40.4-2.15,22.62-.88,45.25-2.03,67.88-2.05,23.81-.02,47.62,1.39,71.44,1.73,37.49.54,74.99.26,112.46,1.34,10.42.3,20.77,4.04,31.05,6.58,1.73.43,4.34,3.05,4.13,4.24-.33,1.88-2.39,4.17-4.26,4.92-4.28,1.72-8.83,3.35-13.38,3.71-17.59,1.41-35.25,2.02-52.83,3.53-7.2.62-14.34,2.55-21.36,4.41-1.66.44-3.8,2.97-3.84,4.58-.03,1.54,2.12,4.04,3.78,4.54,5.85,1.74,11.85,3.36,17.9,4.01,12.74,1.36,25.6,1.68,38.31,3.24,6.33.78,12.69,2.77,18.56,5.3,4.62,1.99,4.58,5.75.16,8.23-4.16,2.34-8.74,4.6-13.37,5.28-17.27,2.54-34.61,5.85-51.98,6.25-47.5,1.09-94.87,3.22-142,9.44-5.1.67-10.86,2.45-15.26.84-.89-.33-1.78-.71-2.66-1.11,2.07,5.49,6.13,10.04,12.33,10.25-.83.38-1.64.79-2.45,1.21,44.79,30.04,130.39,89.75,131.35,92.45-2.17.67-4.42,1.16-6.5,2.03-8.03,3.36-12.42,9.82-14.52,17.95-3.34,12.94-2.24,26.09-1.88,39.25.32,11.44-.37,22.92-.69,34.37-.02.89-.58,1.76-1.13,3.31-8.51-9.44-16.64-18.41-24.73-27.43-38.18-42.57-76.37-85.12-114.42-127.8-.19.33-.38.66-.57,1-.5.89-.99,1.84-1.49,2.8.31.45.62.9.99,1.3,43.06,48.02,86.13,96.03,129.25,143.99,6.08,6.76,12.08,12.82,11.97,23.41-.1,8.83,7.49,17.14,19.49,10.6.35-.19.9-.02,2.08-.02-2.31,10.06-4.4,19.95-6.87,29.74-6.8,26.89-8.59,53.9-2.48,81.15.34,1.51,1.78,2.77,2.71,4.14.42-1.55.91-3.09,1.21-4.66.12-.61-.26-1.3-.32-1.96-1.07-13.25-3.23-26.52-2.95-39.74.5-23.64,7.78-46.26,13.01-69.13,5.2-22.73,7.54-45.57,6.87-68.86-.34-11.72-1.82-23.38,3.13-35.12,4.28-10.15,5.65-21.52,8.3-32.37,1.66,2.81,3.77,6.14,5.64,9.61,2.53,4.69,4.47,9.74,7.35,14.19,8.36,12.88,21.16,12.86,29.83.15,1.75-2.56,3.19-5.33,5.6-9.38,1.36,15.17,8.8,27.49,7.64,41.86-1.12,13.89-.94,27.88-1.33,41.83.5.17,1,.33,1.5.5.66-1.73,1.81-3.45,1.89-5.2.6-13.95.94-27.91,1.55-41.87.07-1.64,1.43-4.67,1.9-4.61,2.54.3,5.27.95,7.36,2.33,1.26.84,1.68,3.18,2.17,4.93,3.27,11.53,6.81,23,9.56,34.66,2.42,10.27,2.97,20.79.52,31.21-2.58,10.94-9.58,17.93-19.09,19.38-5.99.91-8.99-.77-9.09-6.67-.08-5.33,1.53-10.68,2.22-16.05.16-1.21-.45-2.53-.7-3.79-.98.72-2.49,1.24-2.85,2.19-1.23,3.25-2.98,6.69-2.83,9.98.23,5.3,1.04,10.87,3.15,15.65,1.06,2.4,1.85,3.95,1.14,6.54-5.74,20.8-10.21,41.89-8.31,63.59,1.36,15.56,3.99,31.02,6.2,46.5.17,1.18,1.45,2.2,2.21,3.29.56-1.34,1.63-2.71,1.56-4.02-.12-2.47-.99-4.89-1.37-7.35-1.38-8.94-2.69-17.9-4.03-26.85.57-.29,1.13-.58,1.7-.86.83,1.17,1.57,2.43,2.52,3.49,17.34,19.37,34.67,38.75,52.14,58.01,1.42,1.57,3.82,2.26,5.76,3.36-.97-2.05-1.54-4.47-2.99-6.1-18.83-21.17-37.8-42.21-56.65-63.37-1.46-1.64-3.03-3.89-3.14-5.93-1.18-22.06,2.73-43.47,8.9-64.53.36-1.22,2.09-2.82,3.26-2.89ZM242.98,338.3c-1.15,5.17-8.17,11-13.22,9.93-2.2-.47-5.22-2.7-5.67-4.65-1.29-5.57-2.56-11.53-1.86-17.09,2.3-18.3,1.52-36.53.96-54.85-.28-9.34,1.23-18.91,3.26-28.08,1.58-7.16,6.96-11.84,15.53-13.54-.31,2.84-.41,5.05-.8,7.2-3.85,21.29-7.78,42.56-11.54,63.87-.19,1.06.93,2.34,1.43,3.52.9-1.23,2.36-2.35,2.62-3.7,2.55-13.24,4.92-26.51,7.29-39.79.43-2.43.64-4.9.95-7.35.67-.14,1.34-.28,2-.42.95,2.59,2.65,5.16,2.74,7.79.87,25.81,1.99,51.65-3.7,77.16ZM255.8,227.85c-2.18,8.09-4.66,16.11-7.15,24.63-4.3-2.94-5.92-5.73-4.65-9.93,3.48-11.46,2.77-23.02.61-34.59-1.91-10.19-3.55-20.42-.36-30.62,1.06-3.37,2.78-6.54,4.19-9.8.45.12.91.23,1.36.35.29,6.51.18,13.07,1,19.52.8,6.22,2.01,12.5,4.06,18.41,2.56,7.4,2.92,14.65.93,22.04ZM303.21,233.55c-1.44,2.53-3.55,4.9-5.87,6.67-5.42,4.14-11.27,3.58-15.41-1.81-3.11-4.04-5.12-8.91-7.95-13.19-4.37-6.6-9.14-12.92-13.49-19.53-1.79-2.71-3.66-5.71-4.24-8.81-1.3-7.01-1.82-14.17-2.66-21.26-.54-14.92,3.86-27.31,16.73-35.89,11.98-7.99,32.39-6.19,42.78,3.84,4.74,4.58,6.83,10.38,6.38,16.73-.84,11.93-1.99,23.84-3.41,35.71-1.6,13.38-6.22,25.86-12.86,37.54ZM325.32,256.35c-1.11-1.15-2.7-2.1-3.25-3.47-5.42-13.57-9.3-27.21-5.14-42.16,2.16-7.77,2.68-16.01,3.66-24.08.75-6.11.91-12.29,1.67-18.39.21-1.72,2.06-4.79,2.41-4.69,2.38.7,5.77,1.55,6.55,3.34,1.8,4.17,3.58,9.05,3.07,13.38-1.03,8.82-2.09,18.17-5.82,26.02-6.35,13.37-6.88,26.5-3.52,40.35.69,2.86,1.21,5.76,1.81,8.63-.48.35-.96.7-1.44,1.06ZM338.86,269.99c-1.66-4.71-5.1-8.77-6.94-13.44-1.85-4.69-2.73-9.76-3.28-14.89,13.36,15.78,15.96,35.25,18.16,54.85-2.6-8.85-4.87-17.82-7.93-26.51Z"/>
    <path class="cls-1" d="M281.79,212.8c.81-5.42.31-9.74,5.33-10.84,3.85-.85,7.6,1.86,8.58,7.17.76,4.1.9,8.66-.12,12.64-1.28,4.98-6.64,5.72-9.48,1.37-2.26-3.48-3.28-7.76-4.32-10.34ZM290.76,221.44c3.83-5.54,2.37-13.04-2.96-15.28-2.93,5.39-1.72,11.62,2.96,15.28Z"/>
  </g>
</svg>