<svg width="179" height="156" viewBox="0 0 179 156" fill="none" xmlns="http://www.w3.org/2000/svg">
    <mask id="path-1-outside-1_118_3887" maskUnits="userSpaceOnUse" x="72.8506" y="11.7783" width="106" height="144" fill="black">
        <rect fill="white" x="72.8506" y="11.7783" width="106" height="144"/>
        <path d="M119.164 154.997C118.121 154.997 117.082 154.933 116.045 154.806C109.573 154.007 103.638 151.441 98.4038 147.181C93.9475 143.555 89.9578 138.669 86.5438 132.659C79.5856 120.41 76.9046 106.929 76.0747 101.701C74.8864 94.2164 73.0913 82.906 74.196 70.4454C74.8014 63.6116 76.2305 57.1036 78.442 51.1029C81.0359 44.065 84.7862 37.5005 89.5896 31.5917C94.4297 25.6362 99.7946 21.0373 105.534 17.9228C110.532 15.2104 115.947 13.5528 121.63 12.9961C132.144 11.9652 141.909 14.79 149.242 17.3668C153.137 18.7353 157.111 20.9652 160.734 23.8168C164.777 26.9984 168.238 30.8017 171.019 35.1201C174.147 39.9762 176.299 45.3283 177.415 51.0273C178.667 57.4209 178.6 64.2235 177.216 71.2452C177.161 71.5214 176.892 71.7016 176.615 71.6472C176.338 71.5928 176.158 71.325 176.212 71.048C177.571 64.1564 177.638 57.4866 176.412 51.2231C175.321 45.6512 173.218 40.4192 170.159 35.672C167.438 31.4489 164.054 27.7297 160.1 24.618C156.563 21.8357 152.691 19.6609 148.901 18.3291C141.668 15.7876 132.043 13.0003 121.729 14.0121C116.183 14.5554 110.898 16.1734 106.022 18.8201C100.401 21.871 95.1385 26.3844 90.3834 32.2353C85.6516 38.0573 81.9565 44.5243 79.4015 51.4562C77.2212 57.3728 75.812 63.7918 75.2143 70.5365C74.1209 82.8721 75.904 94.1076 77.0845 101.543C77.9052 106.715 80.5572 120.053 87.4333 132.157C90.7842 138.056 94.6924 142.845 99.0496 146.392C104.132 150.529 109.893 153.019 116.17 153.795C122.377 154.56 128.743 152.927 135.095 148.939C140.435 145.587 145.802 140.556 151.047 133.987C161.753 120.578 168.445 105.257 169.677 102.322C172.162 96.4053 173.39 90.3509 173.231 84.8137C173.154 82.1599 172.758 79.7075 172.053 77.5242C171.344 75.3325 170.34 73.4602 169.067 71.9595C163.874 65.8358 151.426 66.4548 144.889 67.7859C138.579 69.0711 137.213 77.036 137.213 78.9388C137.213 79.239 137.467 79.8869 138.027 80.7171C140.773 79.1217 145.68 76.4581 150.93 76.0341C157.544 75.5 163.039 78.589 167.263 85.215C167.38 85.3994 167.367 85.6382 167.229 85.8085C167.1 85.9689 164.376 89.2006 155.69 89.2006C154.217 89.2006 152.572 89.1074 150.738 88.8912C145.549 88.2779 141.991 86.0459 139.919 84.2824C139.051 83.5426 138.326 82.7817 137.753 82.0617C135.862 83.2084 133.494 85.6135 132.705 90.5932C132.141 94.1592 132.563 98.2155 133.863 101.722C135.597 106.396 135.828 110.098 134.514 112.146C133.863 113.162 132.84 113.752 131.558 113.853C131.359 113.868 131.167 113.875 130.985 113.875C129.309 113.875 128.34 113.253 127.811 112.7C127.553 112.43 127.356 112.138 127.209 111.838C126.484 111.851 125.732 111.844 124.982 111.831C124.467 111.821 123.891 111.811 123.682 111.831C123.47 112.037 122.931 112.929 122.336 114.369C121.714 115.875 121.31 117.301 121.255 118.182C121.219 118.749 121.338 118.878 121.339 118.879C121.57 119.068 121.634 119.063 122.203 118.808C122.98 118.459 124.28 117.875 126.923 118.428C129.266 118.918 131.44 121.765 132.851 124.068C133.933 125.832 134.666 127.428 135.007 128.222C135.884 130.266 135.782 130.642 135.743 130.784C135.616 131.247 134.639 132.003 133.841 132.556C132.945 133.178 131.459 134.097 129.466 134.954C126.222 136.348 121.226 137.727 115.845 136.385C112.157 135.465 108.633 133.523 105.654 130.768C103.209 128.506 101.629 126.16 101.02 124.839C100.647 124.031 100.69 123.731 100.792 123.527C101.128 122.858 103.381 121.493 104.334 120.937C105.624 120.185 108.26 118.737 111.428 117.489C117.031 115.283 118.497 117.746 118.557 117.852L117.667 118.352L117.672 118.362C117.661 118.344 117.394 117.931 116.58 117.715C115.778 117.503 114.298 117.456 111.804 118.438C106.689 120.453 102.382 123.235 101.758 123.924C101.891 124.512 103.058 126.684 105.406 129.1C107.531 131.286 111.11 134.153 116.094 135.397C121.092 136.644 125.766 135.394 128.806 134.126C132.159 132.728 134.35 130.996 134.739 130.513C134.649 129.924 133.683 127.452 132.159 124.9C130.254 121.707 128.32 119.764 126.715 119.429C124.398 118.944 123.372 119.404 122.624 119.74C122.037 120.004 121.43 120.276 120.69 119.668C120.192 119.259 120.098 118.43 120.393 117.057C120.629 115.96 121.125 114.528 121.721 113.223C122.725 111.029 123.176 110.906 123.369 110.853C123.602 110.79 124.038 110.795 125.001 110.812C125.512 110.821 126.175 110.833 126.887 110.824C126.834 110.49 126.831 110.174 126.865 109.903C127.036 108.54 129.122 107.509 130.735 107.567C132.003 107.612 132.797 108.318 132.858 109.457C132.882 109.902 132.727 110.312 132.407 110.642C131.679 111.394 130.172 111.693 128.38 111.797C128.433 111.865 128.489 111.932 128.551 111.997C129.182 112.657 130.168 112.94 131.479 112.837C132.443 112.761 133.175 112.344 133.654 111.597C134.774 109.85 134.501 106.38 132.905 102.077C131.546 98.4119 131.105 94.1684 131.696 90.435C132.018 88.4022 132.63 86.5928 133.515 85.056C134.45 83.4331 135.671 82.1486 137.15 81.2357C136.519 80.2876 136.191 79.4658 136.191 78.9395C136.191 78.1382 136.469 75.4618 137.742 72.7381C139.274 69.4576 141.675 67.4001 144.685 66.7869C146.686 66.3792 151.962 65.4953 157.719 66.081C160.279 66.3417 162.561 66.8653 164.5 67.6368C166.744 68.5299 168.544 69.7628 169.848 71.301C171.208 72.9041 172.277 74.8931 173.026 77.212C173.761 79.487 174.174 82.0355 174.254 84.7854C174.417 90.4668 173.161 96.6681 170.621 102.718C169.379 105.674 162.638 121.11 151.847 134.625C146.531 141.283 141.078 146.391 135.641 149.804C130.138 153.258 124.609 155 119.164 155L119.164 154.997ZM130.603 108.583C129.357 108.583 127.957 109.409 127.879 110.028C127.853 110.242 127.86 110.51 127.922 110.796C129.513 110.726 131.107 110.514 131.672 109.931C131.795 109.803 131.846 109.673 131.837 109.51C131.825 109.291 131.789 108.623 130.699 108.585C130.667 108.583 130.635 108.583 130.603 108.583V108.583ZM138.642 81.5388C139.142 82.1528 139.785 82.8241 140.584 83.5045C142.547 85.1768 145.924 87.293 150.859 87.8766C157.143 88.6199 161.051 87.837 163.222 87.0499C164.854 86.4585 165.771 85.7767 166.178 85.4171C164.059 82.1931 161.608 79.8679 158.886 78.5028C156.506 77.3088 153.858 76.8198 151.013 77.0494C146.048 77.4501 141.337 79.9788 138.642 81.5396V81.5388Z"/>
    </mask>
    <path d="M119.164 154.997C118.121 154.997 117.082 154.933 116.045 154.806C109.573 154.007 103.638 151.441 98.4038 147.181C93.9475 143.555 89.9578 138.669 86.5438 132.659C79.5856 120.41 76.9046 106.929 76.0747 101.701C74.8864 94.2164 73.0913 82.906 74.196 70.4454C74.8014 63.6116 76.2305 57.1036 78.442 51.1029C81.0359 44.065 84.7862 37.5005 89.5896 31.5917C94.4297 25.6362 99.7946 21.0373 105.534 17.9228C110.532 15.2104 115.947 13.5528 121.63 12.9961C132.144 11.9652 141.909 14.79 149.242 17.3668C153.137 18.7353 157.111 20.9652 160.734 23.8168C164.777 26.9984 168.238 30.8017 171.019 35.1201C174.147 39.9762 176.299 45.3283 177.415 51.0273C178.667 57.4209 178.6 64.2235 177.216 71.2452C177.161 71.5214 176.892 71.7016 176.615 71.6472C176.338 71.5928 176.158 71.325 176.212 71.048C177.571 64.1564 177.638 57.4866 176.412 51.2231C175.321 45.6512 173.218 40.4192 170.159 35.672C167.438 31.4489 164.054 27.7297 160.1 24.618C156.563 21.8357 152.691 19.6609 148.901 18.3291C141.668 15.7876 132.043 13.0003 121.729 14.0121C116.183 14.5554 110.898 16.1734 106.022 18.8201C100.401 21.871 95.1385 26.3844 90.3834 32.2353C85.6516 38.0573 81.9565 44.5243 79.4015 51.4562C77.2212 57.3728 75.812 63.7918 75.2143 70.5365C74.1209 82.8721 75.904 94.1076 77.0845 101.543C77.9052 106.715 80.5572 120.053 87.4333 132.157C90.7842 138.056 94.6924 142.845 99.0496 146.392C104.132 150.529 109.893 153.019 116.17 153.795C122.377 154.56 128.743 152.927 135.095 148.939C140.435 145.587 145.802 140.556 151.047 133.987C161.753 120.578 168.445 105.257 169.677 102.322C172.162 96.4053 173.39 90.3509 173.231 84.8137C173.154 82.1599 172.758 79.7075 172.053 77.5242C171.344 75.3325 170.34 73.4602 169.067 71.9595C163.874 65.8358 151.426 66.4548 144.889 67.7859C138.579 69.0711 137.213 77.036 137.213 78.9388C137.213 79.239 137.467 79.8869 138.027 80.7171C140.773 79.1217 145.68 76.4581 150.93 76.0341C157.544 75.5 163.039 78.589 167.263 85.215C167.38 85.3994 167.367 85.6382 167.229 85.8085C167.1 85.9689 164.376 89.2006 155.69 89.2006C154.217 89.2006 152.572 89.1074 150.738 88.8912C145.549 88.2779 141.991 86.0459 139.919 84.2824C139.051 83.5426 138.326 82.7817 137.753 82.0617C135.862 83.2084 133.494 85.6135 132.705 90.5932C132.141 94.1592 132.563 98.2155 133.863 101.722C135.597 106.396 135.828 110.098 134.514 112.146C133.863 113.162 132.84 113.752 131.558 113.853C131.359 113.868 131.167 113.875 130.985 113.875C129.309 113.875 128.34 113.253 127.811 112.7C127.553 112.43 127.356 112.138 127.209 111.838C126.484 111.851 125.732 111.844 124.982 111.831C124.467 111.821 123.891 111.811 123.682 111.831C123.47 112.037 122.931 112.929 122.336 114.369C121.714 115.875 121.31 117.301 121.255 118.182C121.219 118.749 121.338 118.878 121.339 118.879C121.57 119.068 121.634 119.063 122.203 118.808C122.98 118.459 124.28 117.875 126.923 118.428C129.266 118.918 131.44 121.765 132.851 124.068C133.933 125.832 134.666 127.428 135.007 128.222C135.884 130.266 135.782 130.642 135.743 130.784C135.616 131.247 134.639 132.003 133.841 132.556C132.945 133.178 131.459 134.097 129.466 134.954C126.222 136.348 121.226 137.727 115.845 136.385C112.157 135.465 108.633 133.523 105.654 130.768C103.209 128.506 101.629 126.16 101.02 124.839C100.647 124.031 100.69 123.731 100.792 123.527C101.128 122.858 103.381 121.493 104.334 120.937C105.624 120.185 108.26 118.737 111.428 117.489C117.031 115.283 118.497 117.746 118.557 117.852L117.667 118.352L117.672 118.362C117.661 118.344 117.394 117.931 116.58 117.715C115.778 117.503 114.298 117.456 111.804 118.438C106.689 120.453 102.382 123.235 101.758 123.924C101.891 124.512 103.058 126.684 105.406 129.1C107.531 131.286 111.11 134.153 116.094 135.397C121.092 136.644 125.766 135.394 128.806 134.126C132.159 132.728 134.35 130.996 134.739 130.513C134.649 129.924 133.683 127.452 132.159 124.9C130.254 121.707 128.32 119.764 126.715 119.429C124.398 118.944 123.372 119.404 122.624 119.74C122.037 120.004 121.43 120.276 120.69 119.668C120.192 119.259 120.098 118.43 120.393 117.057C120.629 115.96 121.125 114.528 121.721 113.223C122.725 111.029 123.176 110.906 123.369 110.853C123.602 110.79 124.038 110.795 125.001 110.812C125.512 110.821 126.175 110.833 126.887 110.824C126.834 110.49 126.831 110.174 126.865 109.903C127.036 108.54 129.122 107.509 130.735 107.567C132.003 107.612 132.797 108.318 132.858 109.457C132.882 109.902 132.727 110.312 132.407 110.642C131.679 111.394 130.172 111.693 128.38 111.797C128.433 111.865 128.489 111.932 128.551 111.997C129.182 112.657 130.168 112.94 131.479 112.837C132.443 112.761 133.175 112.344 133.654 111.597C134.774 109.85 134.501 106.38 132.905 102.077C131.546 98.4119 131.105 94.1684 131.696 90.435C132.018 88.4022 132.63 86.5928 133.515 85.056C134.45 83.4331 135.671 82.1486 137.15 81.2357C136.519 80.2876 136.191 79.4658 136.191 78.9395C136.191 78.1382 136.469 75.4618 137.742 72.7381C139.274 69.4576 141.675 67.4001 144.685 66.7869C146.686 66.3792 151.962 65.4953 157.719 66.081C160.279 66.3417 162.561 66.8653 164.5 67.6368C166.744 68.5299 168.544 69.7628 169.848 71.301C171.208 72.9041 172.277 74.8931 173.026 77.212C173.761 79.487 174.174 82.0355 174.254 84.7854C174.417 90.4668 173.161 96.6681 170.621 102.718C169.379 105.674 162.638 121.11 151.847 134.625C146.531 141.283 141.078 146.391 135.641 149.804C130.138 153.258 124.609 155 119.164 155L119.164 154.997ZM130.603 108.583C129.357 108.583 127.957 109.409 127.879 110.028C127.853 110.242 127.86 110.51 127.922 110.796C129.513 110.726 131.107 110.514 131.672 109.931C131.795 109.803 131.846 109.673 131.837 109.51C131.825 109.291 131.789 108.623 130.699 108.585C130.667 108.583 130.635 108.583 130.603 108.583V108.583ZM138.642 81.5388C139.142 82.1528 139.785 82.8241 140.584 83.5045C142.547 85.1768 145.924 87.293 150.859 87.8766C157.143 88.6199 161.051 87.837 163.222 87.0499C164.854 86.4585 165.771 85.7767 166.178 85.4171C164.059 82.1931 161.608 79.8679 158.886 78.5028C156.506 77.3088 153.858 76.8198 151.013 77.0494C146.048 77.4501 141.337 79.9788 138.642 81.5396V81.5388Z" fill="white"/>
    <path d="M119.164 154.997C118.121 154.997 117.082 154.933 116.045 154.806C109.573 154.007 103.638 151.441 98.4038 147.181C93.9475 143.555 89.9578 138.669 86.5438 132.659C79.5856 120.41 76.9046 106.929 76.0747 101.701C74.8864 94.2164 73.0913 82.906 74.196 70.4454C74.8014 63.6116 76.2305 57.1036 78.442 51.1029C81.0359 44.065 84.7862 37.5005 89.5896 31.5917C94.4297 25.6362 99.7946 21.0373 105.534 17.9228C110.532 15.2104 115.947 13.5528 121.63 12.9961C132.144 11.9652 141.909 14.79 149.242 17.3668C153.137 18.7353 157.111 20.9652 160.734 23.8168C164.777 26.9984 168.238 30.8017 171.019 35.1201C174.147 39.9762 176.299 45.3283 177.415 51.0273C178.667 57.4209 178.6 64.2235 177.216 71.2452C177.161 71.5214 176.892 71.7016 176.615 71.6472C176.338 71.5928 176.158 71.325 176.212 71.048C177.571 64.1564 177.638 57.4866 176.412 51.2231C175.321 45.6512 173.218 40.4192 170.159 35.672C167.438 31.4489 164.054 27.7297 160.1 24.618C156.563 21.8357 152.691 19.6609 148.901 18.3291C141.668 15.7876 132.043 13.0003 121.729 14.0121C116.183 14.5554 110.898 16.1734 106.022 18.8201C100.401 21.871 95.1385 26.3844 90.3834 32.2353C85.6516 38.0573 81.9565 44.5243 79.4015 51.4562C77.2212 57.3728 75.812 63.7918 75.2143 70.5365C74.1209 82.8721 75.904 94.1076 77.0845 101.543C77.9052 106.715 80.5572 120.053 87.4333 132.157C90.7842 138.056 94.6924 142.845 99.0496 146.392C104.132 150.529 109.893 153.019 116.17 153.795C122.377 154.56 128.743 152.927 135.095 148.939C140.435 145.587 145.802 140.556 151.047 133.987C161.753 120.578 168.445 105.257 169.677 102.322C172.162 96.4053 173.39 90.3509 173.231 84.8137C173.154 82.1599 172.758 79.7075 172.053 77.5242C171.344 75.3325 170.34 73.4602 169.067 71.9595C163.874 65.8358 151.426 66.4548 144.889 67.7859C138.579 69.0711 137.213 77.036 137.213 78.9388C137.213 79.239 137.467 79.8869 138.027 80.7171C140.773 79.1217 145.68 76.4581 150.93 76.0341C157.544 75.5 163.039 78.589 167.263 85.215C167.38 85.3994 167.367 85.6382 167.229 85.8085C167.1 85.9689 164.376 89.2006 155.69 89.2006C154.217 89.2006 152.572 89.1074 150.738 88.8912C145.549 88.2779 141.991 86.0459 139.919 84.2824C139.051 83.5426 138.326 82.7817 137.753 82.0617C135.862 83.2084 133.494 85.6135 132.705 90.5932C132.141 94.1592 132.563 98.2155 133.863 101.722C135.597 106.396 135.828 110.098 134.514 112.146C133.863 113.162 132.84 113.752 131.558 113.853C131.359 113.868 131.167 113.875 130.985 113.875C129.309 113.875 128.34 113.253 127.811 112.7C127.553 112.43 127.356 112.138 127.209 111.838C126.484 111.851 125.732 111.844 124.982 111.831C124.467 111.821 123.891 111.811 123.682 111.831C123.47 112.037 122.931 112.929 122.336 114.369C121.714 115.875 121.31 117.301 121.255 118.182C121.219 118.749 121.338 118.878 121.339 118.879C121.57 119.068 121.634 119.063 122.203 118.808C122.98 118.459 124.28 117.875 126.923 118.428C129.266 118.918 131.44 121.765 132.851 124.068C133.933 125.832 134.666 127.428 135.007 128.222C135.884 130.266 135.782 130.642 135.743 130.784C135.616 131.247 134.639 132.003 133.841 132.556C132.945 133.178 131.459 134.097 129.466 134.954C126.222 136.348 121.226 137.727 115.845 136.385C112.157 135.465 108.633 133.523 105.654 130.768C103.209 128.506 101.629 126.16 101.02 124.839C100.647 124.031 100.69 123.731 100.792 123.527C101.128 122.858 103.381 121.493 104.334 120.937C105.624 120.185 108.26 118.737 111.428 117.489C117.031 115.283 118.497 117.746 118.557 117.852L117.667 118.352L117.672 118.362C117.661 118.344 117.394 117.931 116.58 117.715C115.778 117.503 114.298 117.456 111.804 118.438C106.689 120.453 102.382 123.235 101.758 123.924C101.891 124.512 103.058 126.684 105.406 129.1C107.531 131.286 111.11 134.153 116.094 135.397C121.092 136.644 125.766 135.394 128.806 134.126C132.159 132.728 134.35 130.996 134.739 130.513C134.649 129.924 133.683 127.452 132.159 124.9C130.254 121.707 128.32 119.764 126.715 119.429C124.398 118.944 123.372 119.404 122.624 119.74C122.037 120.004 121.43 120.276 120.69 119.668C120.192 119.259 120.098 118.43 120.393 117.057C120.629 115.96 121.125 114.528 121.721 113.223C122.725 111.029 123.176 110.906 123.369 110.853C123.602 110.79 124.038 110.795 125.001 110.812C125.512 110.821 126.175 110.833 126.887 110.824C126.834 110.49 126.831 110.174 126.865 109.903C127.036 108.54 129.122 107.509 130.735 107.567C132.003 107.612 132.797 108.318 132.858 109.457C132.882 109.902 132.727 110.312 132.407 110.642C131.679 111.394 130.172 111.693 128.38 111.797C128.433 111.865 128.489 111.932 128.551 111.997C129.182 112.657 130.168 112.94 131.479 112.837C132.443 112.761 133.175 112.344 133.654 111.597C134.774 109.85 134.501 106.38 132.905 102.077C131.546 98.4119 131.105 94.1684 131.696 90.435C132.018 88.4022 132.63 86.5928 133.515 85.056C134.45 83.4331 135.671 82.1486 137.15 81.2357C136.519 80.2876 136.191 79.4658 136.191 78.9395C136.191 78.1382 136.469 75.4618 137.742 72.7381C139.274 69.4576 141.675 67.4001 144.685 66.7869C146.686 66.3792 151.962 65.4953 157.719 66.081C160.279 66.3417 162.561 66.8653 164.5 67.6368C166.744 68.5299 168.544 69.7628 169.848 71.301C171.208 72.9041 172.277 74.8931 173.026 77.212C173.761 79.487 174.174 82.0355 174.254 84.7854C174.417 90.4668 173.161 96.6681 170.621 102.718C169.379 105.674 162.638 121.11 151.847 134.625C146.531 141.283 141.078 146.391 135.641 149.804C130.138 153.258 124.609 155 119.164 155L119.164 154.997ZM130.603 108.583C129.357 108.583 127.957 109.409 127.879 110.028C127.853 110.242 127.86 110.51 127.922 110.796C129.513 110.726 131.107 110.514 131.672 109.931C131.795 109.803 131.846 109.673 131.837 109.51C131.825 109.291 131.789 108.623 130.699 108.585C130.667 108.583 130.635 108.583 130.603 108.583V108.583ZM138.642 81.5388C139.142 82.1528 139.785 82.8241 140.584 83.5045C142.547 85.1768 145.924 87.293 150.859 87.8766C157.143 88.6199 161.051 87.837 163.222 87.0499C164.854 86.4585 165.771 85.7767 166.178 85.4171C164.059 82.1931 161.608 79.8679 158.886 78.5028C156.506 77.3088 153.858 76.8198 151.013 77.0494C146.048 77.4501 141.337 79.9788 138.642 81.5396V81.5388Z" stroke="white" stroke-width="0.5" mask="url(#path-1-outside-1_118_3887)"/>
    <path d="M120.511 63.7817L120.511 63.7816C120.16 63.7711 119.884 63.4774 119.895 63.1272L119.895 63.1271L119.937 61.7804L120.062 61.7843L119.937 61.7804C119.952 61.3227 119.79 60.8828 119.48 60.5405C118.054 58.9626 115.988 57.5915 113.898 56.4753C111.81 55.36 109.707 54.5036 108.216 53.9522L108.26 53.835L108.216 53.9522C103.433 52.183 99.7552 51.6178 96.6335 52.1551L96.6335 52.1551C93.7817 52.6456 91.2512 54.0659 88.4228 56.7789C88.1697 57.0217 87.7672 57.0136 87.5234 56.7615L87.5232 56.7613C87.2797 56.5087 87.2879 56.1066 87.5407 55.8632L87.5409 55.863C90.5493 52.977 93.2881 51.4414 96.4169 50.9033C99.7857 50.3236 103.678 50.9196 108.658 52.7611C115.841 55.4171 119.109 58.2352 120.424 59.6897L120.331 59.7735L120.424 59.6897C120.954 60.276 121.233 61.033 121.208 61.82V61.8201L121.166 63.1666C121.155 63.5108 120.873 63.7813 120.531 63.7817H120.531H120.531H120.531H120.531H120.531H120.531H120.531H120.531H120.531H120.531H120.531H120.531H120.531H120.531H120.531H120.531H120.531H120.531H120.531H120.531H120.511ZM120.511 63.7817H120.515M120.511 63.7817H120.515M120.515 63.7817H120.515M120.515 63.7817H120.515M120.515 63.7817H120.515M120.515 63.7817H120.515M120.515 63.7817H120.515M120.515 63.7817H120.515M120.515 63.7817H120.515M120.515 63.7817H120.515M120.515 63.7817H120.515M120.515 63.7817H120.515M120.515 63.7817H120.515M120.515 63.7817H120.515M120.515 63.7817H120.515M120.515 63.7817H120.515M120.515 63.7817H120.515M120.515 63.7817H120.515M120.515 63.7817H120.515M120.515 63.7817H120.515M120.515 63.7817H120.515M120.515 63.7817H120.515M120.515 63.7817H120.515M120.515 63.7817H120.515M120.515 63.7817H120.515M120.515 63.7817H120.515M120.515 63.7817H120.515M120.515 63.7817H120.515M120.515 63.7817H120.515M120.515 63.7817H120.515M120.515 63.7817H120.515M120.515 63.7817H120.515M120.515 63.7817H120.515M120.515 63.7817H120.515M120.515 63.7817H120.515M120.515 63.7817H120.515M120.515 63.7817H120.515M120.515 63.7817H120.515M120.515 63.7817H120.516M120.515 63.7817H120.516M120.516 63.7817H120.516M120.516 63.7817H120.516M120.516 63.7817H120.516M120.516 63.7817H120.516M120.516 63.7817H120.516M120.516 63.7817H120.516M120.516 63.7817H120.516M120.516 63.7817H120.516M120.516 63.7817H120.516M120.516 63.7817H120.516M120.516 63.7817H120.516M120.516 63.7817H120.516M120.516 63.7817H120.516M120.516 63.7817H120.516M120.516 63.7817H120.516M120.516 63.7817H120.516M120.516 63.7817H120.516M120.516 63.7817H120.516M120.516 63.7817H120.516M120.516 63.7817H120.516M120.516 63.7817H120.516M120.516 63.7817H120.516M120.516 63.7817H120.516M120.516 63.7817H120.516M120.516 63.7817H120.516M120.516 63.7817H120.516M120.516 63.7817H120.516M120.516 63.7817H120.516M120.516 63.7817H120.516M120.516 63.7817H120.516M120.516 63.7817H120.516M120.516 63.7817H120.516M120.516 63.7817H120.516M120.516 63.7817H120.516M120.516 63.7817H120.516M120.516 63.7817H120.516M120.516 63.7817H120.516M120.516 63.7817H120.516M120.516 63.7817H120.516M120.516 63.7817H120.516M120.516 63.7817H120.516M120.516 63.7817H120.516M120.516 63.7817H120.516M120.516 63.7817H120.516M120.516 63.7817H120.516M120.516 63.7817H120.516M120.516 63.7817H120.516M120.516 63.7817H120.516M120.516 63.7817H120.516M120.516 63.7817H120.516M120.516 63.7817H120.516M120.516 63.7817H120.516M120.516 63.7817H120.516M120.516 63.7817H120.516M120.516 63.7817H120.516M120.516 63.7817H120.516M120.516 63.7817H120.516M120.516 63.7817H120.516M120.516 63.7817H120.517M120.516 63.7817H120.517M120.517 63.7817H120.517M120.517 63.7817H120.517M120.517 63.7817H120.517M120.517 63.7817H120.517M120.517 63.7817H120.517M120.517 63.7817H120.517M120.517 63.7817H120.517M120.517 63.7817H120.517M120.517 63.7817H120.517M120.517 63.7817H120.517M120.517 63.7817H120.517M120.517 63.7817H120.517M120.517 63.7817H120.517M120.517 63.7817H120.517M120.517 63.7817H120.517M120.517 63.7817H120.517M120.517 63.7817H120.517M120.517 63.7817H120.517M120.517 63.7817H120.517M120.517 63.7817H120.517M120.517 63.7817H120.517M120.517 63.7817H120.517M120.517 63.7817H120.517M120.517 63.7817H120.517M120.517 63.7817H120.517M120.517 63.7817H120.517M120.517 63.7817H120.517M120.517 63.7817H120.517M120.517 63.7817H120.517M120.517 63.7817H120.517M120.517 63.7817H120.517M120.517 63.7817H120.517M120.517 63.7817H120.517M120.517 63.7817H120.517M120.517 63.7817H120.517M120.517 63.7817H120.517M120.517 63.7817H120.517M120.517 63.7817H120.517M120.517 63.7817H120.517M120.517 63.7817H120.517M120.517 63.7817H120.517M120.517 63.7817H120.517M120.517 63.7817H120.517M120.517 63.7817H120.517M120.517 63.7817H120.517M120.517 63.7817H120.517M120.517 63.7817H120.517M120.517 63.7817H120.517M120.517 63.7817H120.517M120.517 63.7817H120.517M120.517 63.7817H120.517M120.517 63.7817H120.517M120.517 63.7817H120.517M120.517 63.7817H120.517M120.517 63.7817H120.517M120.517 63.7817H120.517M120.517 63.7817H120.517M120.517 63.7817H120.517M120.517 63.7817H120.517M120.517 63.7817H120.517M120.517 63.7817H120.518M120.517 63.7817H120.518M120.518 63.7817H120.518M120.518 63.7817H120.518M120.518 63.7817H120.518M120.518 63.7817H120.518M120.518 63.7817H120.518M120.518 63.7817H120.518M120.518 63.7817H120.518M120.518 63.7817H120.518M120.518 63.7817H120.518M120.518 63.7817H120.518M120.518 63.7817H120.518M120.518 63.7817H120.518M120.518 63.7817H120.518M120.518 63.7817H120.518M120.518 63.7817H120.518M120.518 63.7817H120.518M120.518 63.7817H120.518M120.518 63.7817H120.518M120.518 63.7817H120.518M120.518 63.7817H120.518M120.518 63.7817H120.518M120.518 63.7817H120.518M120.518 63.7817H120.518M120.518 63.7817H120.518M120.518 63.7817H120.518M120.518 63.7817H120.518M120.518 63.7817H120.518M120.518 63.7817H120.518M120.518 63.7817H120.518M120.518 63.7817H120.518M120.518 63.7817H120.518M120.518 63.7817H120.518M120.518 63.7817H120.518M120.518 63.7817H120.518M120.518 63.7817H120.518M120.518 63.7817H120.518M120.518 63.7817H120.518M120.518 63.7817H120.518M120.518 63.7817H120.518M120.518 63.7817H120.518M120.518 63.7817H120.518M120.518 63.7817H120.518M120.518 63.7817H120.518M120.518 63.7817H120.518M120.518 63.7817H120.518M120.518 63.7817H120.518M120.518 63.7817H120.518M120.518 63.7817H120.518M120.518 63.7817H120.518M120.518 63.7817H120.518M120.518 63.7817H120.518M120.518 63.7817H120.518M120.518 63.7817H120.518M120.518 63.7817H120.518M120.518 63.7817H120.518M120.518 63.7817H120.518M120.518 63.7817H120.518M120.518 63.7817H120.518M120.518 63.7817H120.518M120.518 63.7817H120.518M120.518 63.7817H120.518M120.518 63.7817H120.518M120.518 63.7817H120.519M120.518 63.7817H120.519M120.519 63.7817H120.519M120.519 63.7817H120.519M120.519 63.7817H120.519M120.519 63.7817H120.519M120.519 63.7817H120.519M120.519 63.7817H120.519M120.519 63.7817H120.519M120.519 63.7817H120.519M120.519 63.7817H120.519M120.519 63.7817H120.519M120.519 63.7817H120.519M120.519 63.7817H120.519M120.519 63.7817H120.519M120.519 63.7817H120.519M120.519 63.7817H120.519M120.519 63.7817H120.519M120.519 63.7817H120.519M120.519 63.7817H120.519M120.519 63.7817H120.519M120.519 63.7817H120.519M120.519 63.7817H120.519M120.519 63.7817H120.519M120.519 63.7817H120.519M120.519 63.7817H120.519M120.519 63.7817H120.519M120.519 63.7817H120.519M120.519 63.7817H120.519M120.519 63.7817H120.519M120.519 63.7817H120.519M120.519 63.7817H120.519M120.519 63.7817H120.519M120.519 63.7817H120.519M120.519 63.7817H120.519M120.519 63.7817H120.519M120.519 63.7817H120.519M120.519 63.7817H120.519M120.519 63.7817H120.519M120.519 63.7817H120.519M120.519 63.7817H120.519M120.519 63.7817H120.519M120.519 63.7817H120.519M120.519 63.7817H120.519M120.519 63.7817H120.519M120.519 63.7817H120.519M120.519 63.7817H120.519M120.519 63.7817H120.519M120.519 63.7817H120.519M120.519 63.7817H120.519M120.519 63.7817H120.519M120.519 63.7817H120.519M120.519 63.7817H120.519M120.519 63.7817H120.519M120.519 63.7817H120.519M120.519 63.7817H120.519M120.519 63.7817H120.519M120.519 63.7817H120.519M120.519 63.7817H120.519M120.519 63.7817H120.519M120.519 63.7817H120.519M120.519 63.7817H120.519M120.519 63.7817H120.52M120.519 63.7817H120.52M120.52 63.7817H120.52M120.52 63.7817H120.52M120.52 63.7817H120.52M120.52 63.7817H120.52M120.52 63.7817H120.52M120.52 63.7817H120.52M120.52 63.7817H120.52M120.52 63.7817H120.52M120.52 63.7817H120.52M120.52 63.7817H120.52M120.52 63.7817H120.52M120.52 63.7817H120.52M120.52 63.7817H120.52M120.52 63.7817H120.52M120.52 63.7817H120.52M120.52 63.7817H120.52M120.52 63.7817H120.52M120.52 63.7817H120.52M120.52 63.7817H120.52M120.52 63.7817H120.52M120.52 63.7817H120.52M120.52 63.7817H120.52M120.52 63.7817H120.52M120.52 63.7817H120.52M120.52 63.7817H120.52M120.52 63.7817H120.52M120.52 63.7817H120.52M120.52 63.7817H120.52M120.52 63.7817H120.52M120.52 63.7817H120.52M120.52 63.7817H120.52M120.52 63.7817H120.52M120.52 63.7817H120.52M120.52 63.7817H120.52M120.52 63.7817H120.52M120.52 63.7817H120.52M120.52 63.7817H120.52M120.52 63.7817H120.52M120.52 63.7817H120.52M120.52 63.7817H120.52M120.52 63.7817H120.52M120.52 63.7817H120.52M120.52 63.7817H120.52M120.52 63.7817H120.52M120.52 63.7817H120.52M120.52 63.7817H120.52M120.52 63.7817H120.52M120.52 63.7817H120.52M120.52 63.7817H120.52M120.52 63.7817H120.52M120.52 63.7817H120.52M120.52 63.7817H120.52M120.52 63.7817H120.52M120.52 63.7817H120.52M120.52 63.7817H120.52M120.52 63.7817H120.52M120.52 63.7817H120.52M120.52 63.7817H120.52M120.52 63.7817H120.52M120.52 63.7817H120.52M120.52 63.7817H120.52M120.52 63.7817H120.52M120.52 63.7817H120.521M120.52 63.7817H120.521M120.521 63.7817H120.521M120.521 63.7817H120.521M120.521 63.7817H120.521M120.521 63.7817H120.521M120.521 63.7817H120.521M120.521 63.7817H120.521M120.521 63.7817H120.521M120.521 63.7817H120.521M120.521 63.7817H120.521M120.521 63.7817H120.521M120.521 63.7817H120.521M120.521 63.7817H120.521M120.521 63.7817H120.521M120.521 63.7817H120.521M120.521 63.7817H120.521M120.521 63.7817H120.521M120.521 63.7817H120.521M120.521 63.7817H120.521M120.521 63.7817H120.521M120.521 63.7817H120.521M120.521 63.7817H120.521M120.521 63.7817H120.521M120.521 63.7817H120.521M120.521 63.7817H120.521M120.521 63.7817H120.521M120.521 63.7817H120.521M120.521 63.7817H120.521M120.521 63.7817H120.521M120.521 63.7817H120.521M120.521 63.7817H120.521M120.521 63.7817H120.521M120.521 63.7817H120.521M120.521 63.7817H120.521M120.521 63.7817H120.521M120.521 63.7817H120.521M120.521 63.7817H120.521M120.521 63.7817H120.521M120.521 63.7817H120.521M120.521 63.7817H120.521M120.521 63.7817H120.521M120.521 63.7817H120.521M120.521 63.7817H120.521M120.521 63.7817H120.521M120.521 63.7817H120.521M120.521 63.7817H120.521M120.521 63.7817H120.521M120.521 63.7817H120.521M120.521 63.7817H120.521M120.521 63.7817H120.521M120.521 63.7817H120.521M120.521 63.7817H120.521M120.521 63.7817H120.521M120.521 63.7817H120.521M120.521 63.7817H120.521M120.521 63.7817H120.521M120.521 63.7817H120.521M120.521 63.7817H120.521M120.521 63.7817H120.521M120.521 63.7817H120.521M120.521 63.7817H120.521M120.521 63.7817H120.521M120.521 63.7817H120.521M120.521 63.7817H120.522M120.521 63.7817H120.522M120.522 63.7817H120.522M120.522 63.7817H120.522M120.522 63.7817H120.522M120.522 63.7817H120.522M120.522 63.7817H120.522M120.522 63.7817H120.522M120.522 63.7817H120.522M120.522 63.7817H120.522M120.522 63.7817H120.522M120.522 63.7817H120.522M120.522 63.7817H120.522M120.522 63.7817H120.522M120.522 63.7817H120.522M120.522 63.7817H120.522M120.522 63.7817H120.522M120.522 63.7817H120.522M120.522 63.7817H120.522M120.522 63.7817H120.522M120.522 63.7817H120.522M120.522 63.7817H120.522M120.522 63.7817H120.522M120.522 63.7817H120.522M120.522 63.7817H120.522M120.522 63.7817H120.522M120.522 63.7817H120.522M120.522 63.7817H120.522M120.522 63.7817H120.522M120.522 63.7817H120.522M120.522 63.7817H120.522M120.522 63.7817H120.522M120.522 63.7817H120.522M120.522 63.7817H120.522M120.522 63.7817H120.522M120.522 63.7817H120.522M120.522 63.7817H120.522M120.522 63.7817H120.522M120.522 63.7817H120.522M120.522 63.7817H120.522M120.522 63.7817H120.522M120.522 63.7817H120.522M120.522 63.7817H120.522M120.522 63.7817H120.522M120.522 63.7817H120.522M120.522 63.7817H120.522M120.522 63.7817H120.522M120.522 63.7817H120.522M120.522 63.7817H120.522M120.522 63.7817H120.522M120.522 63.7817H120.522M120.522 63.7817H120.522M120.522 63.7817H120.522M120.522 63.7817H120.522M120.522 63.7817H120.522M120.522 63.7817H120.522M120.522 63.7817H120.522M120.522 63.7817H120.522M120.522 63.7817H120.522M120.522 63.7817H120.522M120.522 63.7817H120.522M120.522 63.7817H120.522M120.522 63.7817H120.522M120.522 63.7817H120.522M120.522 63.7817H120.523M120.522 63.7817H120.523M120.523 63.7817H120.523M120.523 63.7817H120.523M120.523 63.7817H120.523M120.523 63.7817H120.523M120.523 63.7817H120.523M120.523 63.7817H120.523M120.523 63.7817H120.523M120.523 63.7817H120.523M120.523 63.7817H120.523M120.523 63.7817H120.523M120.523 63.7817H120.523M120.523 63.7817H120.523M120.523 63.7817H120.523M120.523 63.7817H120.523M120.523 63.7817H120.523M120.523 63.7817H120.523M120.523 63.7817H120.523M120.523 63.7817H120.523M120.523 63.7817H120.523M120.523 63.7817H120.523M120.523 63.7817H120.523M120.523 63.7817H120.523M120.523 63.7817H120.523M120.523 63.7817H120.523M120.523 63.7817H120.523M120.523 63.7817H120.523M120.523 63.7817H120.523M120.523 63.7817H120.523M120.523 63.7817H120.523M120.523 63.7817H120.523M120.523 63.7817H120.523M120.523 63.7817H120.523M120.523 63.7817H120.523M120.523 63.7817H120.523M120.523 63.7817H120.523M120.523 63.7817H120.523M120.523 63.7817H120.523M120.523 63.7817H120.523M120.523 63.7817H120.523M120.523 63.7817H120.523M120.523 63.7817H120.523M120.523 63.7817H120.523M120.523 63.7817H120.523M120.523 63.7817H120.523M120.523 63.7817H120.523M120.523 63.7817H120.523M120.523 63.7817H120.523M120.523 63.7817H120.523M120.523 63.7817H120.523M120.523 63.7817H120.523M120.523 63.7817H120.523M120.523 63.7817H120.523M120.523 63.7817H120.523M120.523 63.7817H120.523M120.523 63.7817H120.523M120.523 63.7817H120.523M120.523 63.7817H120.523M120.523 63.7817H120.523M120.523 63.7817H120.523M120.523 63.7817H120.523M120.523 63.7817H120.523M120.523 63.7817H120.523M120.523 63.7817H120.524M120.523 63.7817H120.524M120.524 63.7817H120.524M120.524 63.7817H120.524M120.524 63.7817H120.524M120.524 63.7817H120.524M120.524 63.7817H120.524M120.524 63.7817H120.524M120.524 63.7817H120.524M120.524 63.7817H120.524M120.524 63.7817H120.524M120.524 63.7817H120.524M120.524 63.7817H120.524M120.524 63.7817H120.524M120.524 63.7817H120.524M120.524 63.7817H120.524M120.524 63.7817H120.524M120.524 63.7817H120.524M120.524 63.7817H120.524M120.524 63.7817H120.524M120.524 63.7817H120.524M120.524 63.7817H120.524M120.524 63.7817H120.524M120.524 63.7817H120.524M120.524 63.7817H120.524M120.524 63.7817H120.524M120.524 63.7817H120.524M120.524 63.7817H120.524M120.524 63.7817H120.524M120.524 63.7817H120.524M120.524 63.7817H120.524M120.524 63.7817H120.524M120.524 63.7817H120.524M120.524 63.7817H120.524M120.524 63.7817H120.524M120.524 63.7817H120.524M120.524 63.7817H120.524M120.524 63.7817H120.524M120.524 63.7817H120.524M120.524 63.7817H120.524M120.524 63.7817H120.524M120.524 63.7817H120.524M120.524 63.7817H120.524M120.524 63.7817H120.524M120.524 63.7817H120.524M120.524 63.7817H120.524M120.524 63.7817H120.524M120.524 63.7817H120.524M120.524 63.7817H120.524M120.524 63.7817H120.524M120.524 63.7817H120.524M120.524 63.7817H120.524M120.524 63.7817H120.524M120.524 63.7817H120.524M120.524 63.7817H120.524M120.524 63.7817H120.524M120.524 63.7817H120.524M120.524 63.7817H120.524M120.524 63.7817H120.524M120.524 63.7817H120.524M120.524 63.7817H120.524M120.524 63.7817H120.524M120.524 63.7817H120.524M120.524 63.7817H120.524M120.524 63.7817H120.524M120.524 63.7817H120.524M120.524 63.7817H120.525M120.524 63.7817H120.525M120.525 63.7817H120.525M120.525 63.7817H120.525M120.525 63.7817H120.525M120.525 63.7817H120.525M120.525 63.7817H120.525M120.525 63.7817H120.525M120.525 63.7817H120.525M120.525 63.7817H120.525M120.525 63.7817H120.525M120.525 63.7817H120.525M120.525 63.7817H120.525M120.525 63.7817H120.525M120.525 63.7817H120.525M120.525 63.7817H120.525M120.525 63.7817H120.525M120.525 63.7817H120.525M120.525 63.7817H120.525M120.525 63.7817H120.525M120.525 63.7817H120.525M120.525 63.7817H120.525M120.525 63.7817H120.525M120.525 63.7817H120.525M120.525 63.7817H120.525M120.525 63.7817H120.525M120.525 63.7817H120.525M120.525 63.7817H120.525M120.525 63.7817H120.525M120.525 63.7817H120.525M120.525 63.7817H120.525M120.525 63.7817H120.525M120.525 63.7817H120.525M120.525 63.7817H120.525M120.525 63.7817H120.525M120.525 63.7817H120.525M120.525 63.7817H120.525M120.525 63.7817H120.525M120.525 63.7817H120.525M120.525 63.7817H120.525M120.525 63.7817H120.525M120.525 63.7817H120.525M120.525 63.7817H120.525M120.525 63.7817H120.525M120.525 63.7817H120.525M120.525 63.7817H120.525M120.525 63.7817H120.525M120.525 63.7817H120.525M120.525 63.7817H120.525M120.525 63.7817H120.525M120.525 63.7817H120.525M120.525 63.7817H120.525M120.525 63.7817H120.525M120.525 63.7817H120.525M120.525 63.7817H120.525M120.525 63.7817H120.525M120.525 63.7817H120.525M120.525 63.7817H120.525M120.525 63.7817H120.525M120.525 63.7817H120.525M120.525 63.7817H120.525M120.525 63.7817H120.525M120.525 63.7817H120.525M120.525 63.7817H120.525M120.525 63.7817H120.526M120.525 63.7817H120.526M120.526 63.7817H120.526M120.526 63.7817H120.526M120.526 63.7817H120.526M120.526 63.7817H120.526M120.526 63.7817H120.526M120.526 63.7817H120.526M120.526 63.7817H120.526M120.526 63.7817H120.526M120.526 63.7817H120.526M120.526 63.7817H120.526M120.526 63.7817H120.526M120.526 63.7817H120.526M120.526 63.7817H120.526M120.526 63.7817H120.526M120.526 63.7817H120.526M120.526 63.7817H120.526M120.526 63.7817H120.526M120.526 63.7817H120.526M120.526 63.7817H120.526M120.526 63.7817H120.526M120.526 63.7817H120.526M120.526 63.7817H120.526M120.526 63.7817H120.526M120.526 63.7817H120.526M120.526 63.7817H120.526M120.526 63.7817H120.526M120.526 63.7817H120.526M120.526 63.7817H120.526M120.526 63.7817H120.526M120.526 63.7817H120.526M120.526 63.7817H120.526M120.526 63.7817H120.526M120.526 63.7817H120.526M120.526 63.7817H120.526M120.526 63.7817H120.526M120.526 63.7817H120.526M120.526 63.7817H120.526M120.526 63.7817H120.526M120.526 63.7817H120.526M120.526 63.7817H120.526M120.526 63.7817H120.526M120.526 63.7817H120.526M120.526 63.7817H120.526M120.526 63.7817H120.526M120.526 63.7817H120.526M120.526 63.7817H120.526M120.526 63.7817H120.526M120.526 63.7817H120.526M120.526 63.7817H120.526M120.526 63.7817H120.526M120.526 63.7817H120.526M120.526 63.7817H120.526M120.526 63.7817H120.526M120.526 63.7817H120.526M120.526 63.7817H120.526M120.526 63.7817H120.526M120.526 63.7817H120.526M120.526 63.7817H120.526M120.526 63.7817H120.526M120.526 63.7817H120.526M120.526 63.7817H120.527M120.526 63.7817H120.527M120.527 63.7817H120.527M120.527 63.7817H120.527M120.527 63.7817H120.527M120.527 63.7817H120.527M120.527 63.7817H120.527M120.527 63.7817H120.527M120.527 63.7817H120.527M120.527 63.7817H120.527M120.527 63.7817H120.527M120.527 63.7817H120.527M120.527 63.7817H120.527M120.527 63.7817H120.527M120.527 63.7817H120.527M120.527 63.7817H120.527M120.527 63.7817H120.527M120.527 63.7817H120.527M120.527 63.7817H120.527M120.527 63.7817H120.527M120.527 63.7817H120.527M120.527 63.7817H120.527M120.527 63.7817H120.527M120.527 63.7817H120.527M120.527 63.7817H120.527M120.527 63.7817H120.527M120.527 63.7817H120.527M120.527 63.7817H120.527M120.527 63.7817H120.527M120.527 63.7817H120.527M120.527 63.7817H120.527M120.527 63.7817H120.527M120.527 63.7817H120.527M120.527 63.7817H120.527M120.527 63.7817H120.527M120.527 63.7817H120.527M120.527 63.7817H120.527M120.527 63.7817H120.527M120.527 63.7817H120.527M120.527 63.7817H120.527M120.527 63.7817H120.527M120.527 63.7817H120.527M120.527 63.7817H120.527M120.527 63.7817H120.527M120.527 63.7817H120.527M120.527 63.7817H120.527M120.527 63.7817H120.527M120.527 63.7817H120.527M120.527 63.7817H120.527M120.527 63.7817H120.527M120.527 63.7817H120.527M120.527 63.7817H120.527M120.527 63.7817H120.527M120.527 63.7817H120.527M120.527 63.7817H120.527M120.527 63.7817H120.527M120.527 63.7817H120.527M120.527 63.7817H120.527M120.527 63.7817H120.527M120.527 63.7817H120.527M120.527 63.7817H120.527M120.527 63.7817H120.527M120.527 63.7817H120.527M120.527 63.7817H120.527M120.527 63.7817H120.528M120.527 63.7817H120.528M120.528 63.7817H120.528M120.528 63.7817H120.528M120.528 63.7817H120.528M120.528 63.7817H120.528M120.528 63.7817H120.528M120.528 63.7817H120.528M120.528 63.7817H120.528M120.528 63.7817H120.528M120.528 63.7817H120.528M120.528 63.7817H120.528M120.528 63.7817H120.528M120.528 63.7817H120.528M120.528 63.7817H120.528M120.528 63.7817H120.528M120.528 63.7817H120.528M120.528 63.7817H120.528M120.528 63.7817H120.528M120.528 63.7817H120.528M120.528 63.7817H120.528M120.528 63.7817H120.528M120.528 63.7817H120.528M120.528 63.7817H120.528M120.528 63.7817H120.528M120.528 63.7817H120.528M120.528 63.7817H120.528M120.528 63.7817H120.528M120.528 63.7817H120.528M120.528 63.7817H120.528M120.528 63.7817H120.528M120.528 63.7817H120.528M120.528 63.7817H120.528M120.528 63.7817H120.528M120.528 63.7817H120.528M120.528 63.7817H120.528M120.528 63.7817H120.528M120.528 63.7817H120.528M120.528 63.7817H120.528M120.528 63.7817H120.528M120.528 63.7817H120.528M120.528 63.7817H120.528M120.528 63.7817H120.528M120.528 63.7817H120.528M120.528 63.7817H120.528M120.528 63.7817H120.528M120.528 63.7817H120.528M120.528 63.7817H120.528M120.528 63.7817H120.528M120.528 63.7817H120.528M120.528 63.7817H120.528M120.528 63.7817H120.528M120.528 63.7817H120.528M120.528 63.7817H120.528M120.528 63.7817H120.528M120.528 63.7817H120.528M120.528 63.7817H120.528M120.528 63.7817H120.528M120.528 63.7817H120.528M120.528 63.7817H120.528M120.528 63.7817H120.528M120.528 63.7817H120.528M120.528 63.7817H120.529M120.528 63.7817H120.529M120.529 63.7817H120.529M120.529 63.7817H120.529M120.529 63.7817H120.529M120.529 63.7817H120.529M120.529 63.7817H120.529M120.529 63.7817H120.529M120.529 63.7817H120.529M120.529 63.7817H120.529M120.529 63.7817H120.529M120.529 63.7817H120.529M120.529 63.7817H120.529M120.529 63.7817H120.529M120.529 63.7817H120.529M120.529 63.7817H120.529M120.529 63.7817H120.529M120.529 63.7817H120.529M120.529 63.7817H120.529M120.529 63.7817H120.529M120.529 63.7817H120.529M120.529 63.7817H120.529M120.529 63.7817H120.529M120.529 63.7817H120.529M120.529 63.7817H120.529M120.529 63.7817H120.529M120.529 63.7817H120.529M120.529 63.7817H120.529M120.529 63.7817H120.529M120.529 63.7817H120.529M120.529 63.7817H120.529M120.529 63.7817H120.529M120.529 63.7817H120.529M120.529 63.7817H120.529M120.529 63.7817H120.529M120.529 63.7817H120.529M120.529 63.7817H120.529M120.529 63.7817H120.529M120.529 63.7817H120.529M120.529 63.7817H120.529M120.529 63.7817H120.529M120.529 63.7817H120.529M120.529 63.7817H120.529M120.529 63.7817H120.529M120.529 63.7817H120.529M120.529 63.7817H120.529M120.529 63.7817H120.529M120.529 63.7817H120.529M120.529 63.7817H120.529M120.529 63.7817H120.529M120.529 63.7817H120.529M120.529 63.7817H120.529M120.529 63.7817H120.529M120.529 63.7817H120.529M120.529 63.7817H120.529M120.529 63.7817H120.529M120.529 63.7817H120.529M120.529 63.7817H120.529M120.529 63.7817H120.529M120.529 63.7817H120.529M120.529 63.7817H120.529M120.529 63.7817H120.529M120.529 63.7817H120.53M120.529 63.7817H120.53M120.53 63.7817H120.53M120.53 63.7817H120.53M120.53 63.7817H120.53M120.53 63.7817H120.53M120.53 63.7817H120.53M120.53 63.7817H120.53M120.53 63.7817H120.53M120.53 63.7817H120.53M120.53 63.7817H120.53M120.53 63.7817H120.53M120.53 63.7817H120.53M120.53 63.7817H120.53M120.53 63.7817H120.53M120.53 63.7817H120.53M120.53 63.7817H120.53M120.53 63.7817H120.53M120.53 63.7817H120.53M120.53 63.7817H120.53M120.53 63.7817H120.53M120.53 63.7817H120.53M120.53 63.7817H120.53M120.53 63.7817H120.53M120.53 63.7817H120.53M120.53 63.7817H120.53M120.53 63.7817H120.53M120.53 63.7817H120.53M120.53 63.7817H120.53M120.53 63.7817H120.53M120.53 63.7817H120.53M120.53 63.7817H120.53M120.53 63.7817H120.53M120.53 63.7817H120.53M120.53 63.7817H120.53M120.53 63.7817H120.53M120.53 63.7817H120.53M120.53 63.7817H120.53M120.53 63.7817H120.53M120.53 63.7817H120.53M120.53 63.7817H120.53M120.53 63.7817H120.53M120.53 63.7817H120.53M120.53 63.7817H120.53M120.53 63.7817H120.53M120.53 63.7817H120.53M120.53 63.7817H120.53M120.53 63.7817H120.53M120.53 63.7817H120.53M120.53 63.7817H120.53M120.53 63.7817H120.53M120.53 63.7817H120.53M120.53 63.7817H120.53M120.53 63.7817H120.53M120.53 63.7817H120.53M120.53 63.7817H120.53M120.53 63.7817H120.53M120.53 63.7817H120.53M120.53 63.7817H120.53H120.53Z" fill="white" stroke="white" stroke-width="0.25"/>
    <mask id="path-3-outside-2_118_3887" maskUnits="userSpaceOnUse" x="0" y="0" width="129" height="132" fill="black">
        <rect fill="white" width="129" height="132"/>
        <path d="M66.7906 130.892C66.547 130.892 66.3049 130.889 66.0634 130.884C58.5217 130.708 53.5611 130.45 48.2812 128.346C43.2003 126.321 37.8758 122.678 28.636 114.905C20.9144 108.41 15.2996 102.212 11.9472 96.4833C9.16705 91.7325 8.39376 88.1891 8.00357 85.3495C7.88248 84.4678 7.70899 83.013 7.48875 81.1717C6.46832 72.6317 4.34461 54.862 1.73511 46.8251C0.25509 42.2678 1.03192 34.4584 3.86661 25.4005C6.46974 17.083 10.3234 9.28061 13.9243 5.03709C16.8759 1.56018 23.8624 0.320188 34.6913 1.35175C42.9362 2.13672 50.7597 3.99847 52.9613 4.55028C53.4365 4.66969 53.7984 5.03992 53.9067 5.51754C54.2169 6.88542 54.7728 10.3277 53.2382 12.742C52.603 13.7417 50.4255 13.8025 45.9585 12.9469C42.3952 12.2644 37.8638 11.0774 33.8656 10.0303C28.966 8.74646 23.8985 7.41957 22.6076 7.5962C21.4696 7.75235 19.7035 8.22715 17.5111 10.5425C15.17 13.0154 12.6943 17.2123 10.1528 23.0159C10.1464 23.0307 10.1507 23.0244 10.1471 23.0293C10.1259 23.0929 10.0331 23.4525 10.3574 24.0594C10.7774 24.8451 11.9267 26.0957 15.0163 27.5879C18.5924 29.3147 23.8999 30.9497 30.7909 32.4461C30.9743 32.4779 34.083 33.0093 38.0323 33.0573C41.5447 33.0997 46.4231 32.7584 50.2102 30.9532C49.4653 30.2502 47.9406 28.8781 45.9522 27.4452C43.3448 25.5665 39.3827 23.1932 35.3123 22.5566C30.2576 21.7667 27.2431 24.0086 24.8212 25.811C22.8738 27.2601 21.192 28.5114 19.115 27.7038C18.9288 27.6395 17.5146 27.111 17.2937 25.7495C17.06 24.306 18.3035 22.5764 20.9916 20.608C24.9728 17.692 33.8359 16.0719 41.7748 18.4071C46.7722 19.8774 53.4486 23.514 56.8774 32.49C56.9199 32.5973 57.9637 35.2893 58.0855 39.595C58.157 42.1159 57.8943 44.6701 57.3058 47.1861C56.5707 50.3274 55.3216 53.4179 53.593 56.3719C51.6187 59.7464 50.3632 62.3656 49.7542 64.3792C49.1671 66.3208 49.1693 67.7212 49.7598 68.6595C50.6089 70.0097 52.7985 70.5968 56.7449 70.4979C54.9116 69.6698 53.8911 68.6362 53.525 67.7261C53.2375 67.0132 53.3161 66.3243 53.7446 65.7867C54.4208 64.9388 55.8088 64.6307 57.6535 64.919C59.9712 65.2815 61.311 66.0622 61.6361 67.24C61.9817 68.4913 61.0781 69.7758 60.3664 70.5516C60.7948 70.6378 61.2459 70.7141 61.7196 70.7777C63.3264 70.9946 64.5997 71.7421 65.504 72.9991C67.952 76.4018 66.8317 82.3665 66.7829 82.6187C66.7411 82.8363 66.5626 83.0017 66.3424 83.0285C66.2425 83.0405 63.8696 83.3055 60.8607 81.7327C58.0451 80.261 53.9527 81.4798 52.0818 82.9254C50.4836 84.1597 44.5253 88.541 41.6367 90.662C45.9408 90.1406 56.4319 89.0165 64.0947 89.3903C68.6127 89.6107 72.8311 90.0064 76.2932 90.5327C80.0109 91.0987 82.5199 91.7586 83.7513 92.4962C84.1783 92.7513 84.1118 93.1067 84.0813 93.2098C83.9461 93.6677 83.4043 93.7659 82.1623 93.8238C81.304 93.8641 80.0754 93.8726 78.4077 93.8507C75.2982 93.809 71.0629 93.6642 66.5789 93.5108C57.167 93.1887 45.6668 92.7958 41.5277 93.3088C43.1663 94.6703 46.8033 97.6413 48.5022 98.6298C52.9302 101.207 58.6739 102.413 65.5755 102.215C70.383 102.077 73.9075 101.751 76.6657 101.19C79.2815 100.659 81.2941 99.8931 83.0014 98.781C86.3481 96.5999 88.8195 93.8719 89.1254 92.8742C89.0596 92.6757 88.6595 91.979 87.3848 90.5829C86.1909 89.2751 84.6755 87.8408 83.1183 86.545C80.7205 84.549 76.1679 81.1795 72.6172 81.0318C72.608 81.0318 72.5995 81.0311 72.5903 81.0297C72.5577 81.0269 69.2748 80.7513 68.3351 82.8024C68.2175 83.0589 67.9145 83.1712 67.6574 83.054C67.4004 82.9367 67.2878 82.6343 67.4053 82.3778C68.6233 79.7198 72.3694 79.9861 72.6725 80.0123C78.5387 80.2673 86.9805 88.2096 89.3534 91.3297C90.1508 92.3782 90.2011 92.7753 90.1366 93.0488C89.7889 94.5219 86.7779 97.5375 83.5608 99.6338C81.7423 100.819 79.6165 101.63 76.8703 102.189C74.0526 102.762 70.473 103.093 65.6052 103.233C65.1088 103.247 64.6174 103.254 64.133 103.254C57.6868 103.254 52.2617 101.996 47.9874 99.5094C45.6902 98.1726 40.2658 93.585 40.0364 93.39C39.8919 93.2678 39.8274 93.0763 39.8678 92.8919C39.9082 92.7075 40.0477 92.5605 40.2297 92.5097C43.1862 91.688 55.6332 92.114 66.6143 92.4892C70.8447 92.634 74.8408 92.7704 77.8794 92.8205C79.8686 92.853 81.139 92.8417 81.947 92.8114C78.7738 91.724 71.9813 90.7956 64.0445 90.4077C54.3238 89.9329 39.9585 91.9006 39.8147 91.9204C39.5824 91.9522 39.3587 91.8236 39.2709 91.6074C39.183 91.3912 39.2531 91.1425 39.4422 91.0047C39.5414 90.9327 49.3435 83.7499 51.4566 82.1178C52.6384 81.2049 54.3167 80.509 56.0623 80.2087C57.4651 79.967 59.5187 79.8787 61.3358 80.8283C63.3788 81.8959 65.1067 82.0295 65.8424 82.0295H65.8439C66.0428 80.6757 66.5293 76.1694 64.6726 73.5919C63.9283 72.5582 62.9178 71.9682 61.583 71.7881C60.7771 71.6793 60.0378 71.5394 59.3622 71.3754C59.3559 71.3762 59.3488 71.3769 59.3424 71.3776C53.2786 71.8545 50.1536 71.203 48.8945 69.2014C47.4449 66.8966 48.5857 62.9061 52.7107 55.8569C54.3819 53.001 55.59 50.0158 56.3031 46.9848C56.8731 44.5599 57.1295 42.099 57.065 39.6706C56.9546 35.5295 55.9341 32.8835 55.9242 32.8574C54.5398 29.2342 52.4876 26.2179 49.8229 23.887C47.4782 21.8374 44.674 20.3225 41.4866 19.3849C36.8972 18.0347 32.6596 18.1916 29.9121 18.5611C26.4882 19.0218 23.4573 20.0667 21.5971 21.4297C18.5173 23.685 18.2114 24.9984 18.3028 25.5806C18.4302 26.391 19.4393 26.7358 19.45 26.7394C19.4585 26.7422 19.4691 26.7457 19.4776 26.7493C21.0305 27.359 22.3647 26.3663 24.2108 24.9928C25.4755 24.0517 26.9095 22.9848 28.7195 22.2514C30.827 21.3979 33.0357 21.1675 35.471 21.5484C37.8312 21.9172 41.6729 23.0985 46.5668 26.6292C49.4801 28.7304 51.3659 30.648 51.4445 30.7285C51.5564 30.843 51.6081 31.0034 51.584 31.1616C51.5599 31.3199 51.4629 31.4577 51.322 31.534C48.0631 33.2912 43.5827 34.1475 38.0026 34.0776C33.8699 34.026 30.7335 33.4728 30.6025 33.4487C30.5961 33.4473 30.5905 33.4466 30.5841 33.4452C15.0446 30.0707 10.4799 26.6673 9.38799 24.4056C8.90858 23.413 9.15501 22.7439 9.21733 22.6054C11.8417 16.611 14.3117 12.436 16.7682 9.84161C19.1823 7.29168 21.1778 6.76177 22.4695 6.58514C23.89 6.39013 27.8245 7.39201 34.1262 9.04321C38.1088 10.0861 42.6225 11.2688 46.1519 11.945C48.0497 12.3089 49.4943 12.4975 50.5692 12.523C52.0684 12.559 52.3368 12.2566 52.375 12.1958C53.741 10.0458 53.1299 6.71302 52.9097 5.74293C52.887 5.6426 52.8112 5.56418 52.7121 5.53945C50.5282 4.99187 42.7669 3.14567 34.5943 2.36705C29.9043 1.92052 25.9018 1.9085 22.6982 2.33243C18.858 2.84044 16.1692 3.97233 14.7054 5.69701C11.1867 9.84302 7.40803 17.5091 4.84314 25.7043C2.07006 34.5658 1.29181 42.1499 2.70809 46.5114C5.34804 54.643 7.47955 72.4798 8.50423 81.0516C8.72375 82.8879 8.89725 84.3385 9.01692 85.2117C9.39295 87.9524 10.1407 91.3735 12.8303 95.9696C16.1238 101.597 21.6629 107.706 29.2953 114.126C38.443 121.821 43.6918 125.418 48.6608 127.399C53.7814 129.439 58.6605 129.692 66.0875 129.865C70.8547 129.976 75.9604 128.954 81.2629 126.829C85.834 124.997 90.575 122.339 95.3549 118.927C105.95 111.367 113.136 102.789 115.085 100.34C118.195 96.4324 121.29 85.5014 124.034 68.7287C126.115 56.0074 127.266 44.3232 127.278 44.2066C127.306 43.9261 127.557 43.7212 127.837 43.7488C128.118 43.7763 128.323 44.0257 128.296 44.3062C128.284 44.4228 127.129 56.1402 125.043 68.8941C123.817 76.3912 122.513 82.777 121.167 87.874C119.473 94.2944 117.696 98.7025 115.886 100.976C113.915 103.451 106.653 112.122 95.9498 119.758C91.104 123.216 86.2907 125.914 81.6439 127.776C76.4794 129.846 71.4863 130.894 66.7906 130.894V130.892ZM56.4079 65.8354C55.3988 65.8354 54.794 66.1096 54.5448 66.4218C54.3493 66.667 54.3252 66.9779 54.4739 67.346C54.8818 68.3578 56.4702 69.5363 59.2015 70.2775C59.8417 69.6783 60.9081 68.4383 60.6511 67.5099C60.4443 66.7645 59.3537 66.2169 57.4963 65.9266C57.0919 65.8637 56.7294 65.8354 56.4086 65.8354H56.4079Z"/>
    </mask>
    <path d="M66.7906 130.892C66.547 130.892 66.3049 130.889 66.0634 130.884C58.5217 130.708 53.5611 130.45 48.2812 128.346C43.2003 126.321 37.8758 122.678 28.636 114.905C20.9144 108.41 15.2996 102.212 11.9472 96.4833C9.16705 91.7325 8.39376 88.1891 8.00357 85.3495C7.88248 84.4678 7.70899 83.013 7.48875 81.1717C6.46832 72.6317 4.34461 54.862 1.73511 46.8251C0.25509 42.2678 1.03192 34.4584 3.86661 25.4005C6.46974 17.083 10.3234 9.28061 13.9243 5.03709C16.8759 1.56018 23.8624 0.320188 34.6913 1.35175C42.9362 2.13672 50.7597 3.99847 52.9613 4.55028C53.4365 4.66969 53.7984 5.03992 53.9067 5.51754C54.2169 6.88542 54.7728 10.3277 53.2382 12.742C52.603 13.7417 50.4255 13.8025 45.9585 12.9469C42.3952 12.2644 37.8638 11.0774 33.8656 10.0303C28.966 8.74646 23.8985 7.41957 22.6076 7.5962C21.4696 7.75235 19.7035 8.22715 17.5111 10.5425C15.17 13.0154 12.6943 17.2123 10.1528 23.0159C10.1464 23.0307 10.1507 23.0244 10.1471 23.0293C10.1259 23.0929 10.0331 23.4525 10.3574 24.0594C10.7774 24.8451 11.9267 26.0957 15.0163 27.5879C18.5924 29.3147 23.8999 30.9497 30.7909 32.4461C30.9743 32.4779 34.083 33.0093 38.0323 33.0573C41.5447 33.0997 46.4231 32.7584 50.2102 30.9532C49.4653 30.2502 47.9406 28.8781 45.9522 27.4452C43.3448 25.5665 39.3827 23.1932 35.3123 22.5566C30.2576 21.7667 27.2431 24.0086 24.8212 25.811C22.8738 27.2601 21.192 28.5114 19.115 27.7038C18.9288 27.6395 17.5146 27.111 17.2937 25.7495C17.06 24.306 18.3035 22.5764 20.9916 20.608C24.9728 17.692 33.8359 16.0719 41.7748 18.4071C46.7722 19.8774 53.4486 23.514 56.8774 32.49C56.9199 32.5973 57.9637 35.2893 58.0855 39.595C58.157 42.1159 57.8943 44.6701 57.3058 47.1861C56.5707 50.3274 55.3216 53.4179 53.593 56.3719C51.6187 59.7464 50.3632 62.3656 49.7542 64.3792C49.1671 66.3208 49.1693 67.7212 49.7598 68.6595C50.6089 70.0097 52.7985 70.5968 56.7449 70.4979C54.9116 69.6698 53.8911 68.6362 53.525 67.7261C53.2375 67.0132 53.3161 66.3243 53.7446 65.7867C54.4208 64.9388 55.8088 64.6307 57.6535 64.919C59.9712 65.2815 61.311 66.0622 61.6361 67.24C61.9817 68.4913 61.0781 69.7758 60.3664 70.5516C60.7948 70.6378 61.2459 70.7141 61.7196 70.7777C63.3264 70.9946 64.5997 71.7421 65.504 72.9991C67.952 76.4018 66.8317 82.3665 66.7829 82.6187C66.7411 82.8363 66.5626 83.0017 66.3424 83.0285C66.2425 83.0405 63.8696 83.3055 60.8607 81.7327C58.0451 80.261 53.9527 81.4798 52.0818 82.9254C50.4836 84.1597 44.5253 88.541 41.6367 90.662C45.9408 90.1406 56.4319 89.0165 64.0947 89.3903C68.6127 89.6107 72.8311 90.0064 76.2932 90.5327C80.0109 91.0987 82.5199 91.7586 83.7513 92.4962C84.1783 92.7513 84.1118 93.1067 84.0813 93.2098C83.9461 93.6677 83.4043 93.7659 82.1623 93.8238C81.304 93.8641 80.0754 93.8726 78.4077 93.8507C75.2982 93.809 71.0629 93.6642 66.5789 93.5108C57.167 93.1887 45.6668 92.7958 41.5277 93.3088C43.1663 94.6703 46.8033 97.6413 48.5022 98.6298C52.9302 101.207 58.6739 102.413 65.5755 102.215C70.383 102.077 73.9075 101.751 76.6657 101.19C79.2815 100.659 81.2941 99.8931 83.0014 98.781C86.3481 96.5999 88.8195 93.8719 89.1254 92.8742C89.0596 92.6757 88.6595 91.979 87.3848 90.5829C86.1909 89.2751 84.6755 87.8408 83.1183 86.545C80.7205 84.549 76.1679 81.1795 72.6172 81.0318C72.608 81.0318 72.5995 81.0311 72.5903 81.0297C72.5577 81.0269 69.2748 80.7513 68.3351 82.8024C68.2175 83.0589 67.9145 83.1712 67.6574 83.054C67.4004 82.9367 67.2878 82.6343 67.4053 82.3778C68.6233 79.7198 72.3694 79.9861 72.6725 80.0123C78.5387 80.2673 86.9805 88.2096 89.3534 91.3297C90.1508 92.3782 90.2011 92.7753 90.1366 93.0488C89.7889 94.5219 86.7779 97.5375 83.5608 99.6338C81.7423 100.819 79.6165 101.63 76.8703 102.189C74.0526 102.762 70.473 103.093 65.6052 103.233C65.1088 103.247 64.6174 103.254 64.133 103.254C57.6868 103.254 52.2617 101.996 47.9874 99.5094C45.6902 98.1726 40.2658 93.585 40.0364 93.39C39.8919 93.2678 39.8274 93.0763 39.8678 92.8919C39.9082 92.7075 40.0477 92.5605 40.2297 92.5097C43.1862 91.688 55.6332 92.114 66.6143 92.4892C70.8447 92.634 74.8408 92.7704 77.8794 92.8205C79.8686 92.853 81.139 92.8417 81.947 92.8114C78.7738 91.724 71.9813 90.7956 64.0445 90.4077C54.3238 89.9329 39.9585 91.9006 39.8147 91.9204C39.5824 91.9522 39.3587 91.8236 39.2709 91.6074C39.183 91.3912 39.2531 91.1425 39.4422 91.0047C39.5414 90.9327 49.3435 83.7499 51.4566 82.1178C52.6384 81.2049 54.3167 80.509 56.0623 80.2087C57.4651 79.967 59.5187 79.8787 61.3358 80.8283C63.3788 81.8959 65.1067 82.0295 65.8424 82.0295H65.8439C66.0428 80.6757 66.5293 76.1694 64.6726 73.5919C63.9283 72.5582 62.9178 71.9682 61.583 71.7881C60.7771 71.6793 60.0378 71.5394 59.3622 71.3754C59.3559 71.3762 59.3488 71.3769 59.3424 71.3776C53.2786 71.8545 50.1536 71.203 48.8945 69.2014C47.4449 66.8966 48.5857 62.9061 52.7107 55.8569C54.3819 53.001 55.59 50.0158 56.3031 46.9848C56.8731 44.5599 57.1295 42.099 57.065 39.6706C56.9546 35.5295 55.9341 32.8835 55.9242 32.8574C54.5398 29.2342 52.4876 26.2179 49.8229 23.887C47.4782 21.8374 44.674 20.3225 41.4866 19.3849C36.8972 18.0347 32.6596 18.1916 29.9121 18.5611C26.4882 19.0218 23.4573 20.0667 21.5971 21.4297C18.5173 23.685 18.2114 24.9984 18.3028 25.5806C18.4302 26.391 19.4393 26.7358 19.45 26.7394C19.4585 26.7422 19.4691 26.7457 19.4776 26.7493C21.0305 27.359 22.3647 26.3663 24.2108 24.9928C25.4755 24.0517 26.9095 22.9848 28.7195 22.2514C30.827 21.3979 33.0357 21.1675 35.471 21.5484C37.8312 21.9172 41.6729 23.0985 46.5668 26.6292C49.4801 28.7304 51.3659 30.648 51.4445 30.7285C51.5564 30.843 51.6081 31.0034 51.584 31.1616C51.5599 31.3199 51.4629 31.4577 51.322 31.534C48.0631 33.2912 43.5827 34.1475 38.0026 34.0776C33.8699 34.026 30.7335 33.4728 30.6025 33.4487C30.5961 33.4473 30.5905 33.4466 30.5841 33.4452C15.0446 30.0707 10.4799 26.6673 9.38799 24.4056C8.90858 23.413 9.15501 22.7439 9.21733 22.6054C11.8417 16.611 14.3117 12.436 16.7682 9.84161C19.1823 7.29168 21.1778 6.76177 22.4695 6.58514C23.89 6.39013 27.8245 7.39201 34.1262 9.04321C38.1088 10.0861 42.6225 11.2688 46.1519 11.945C48.0497 12.3089 49.4943 12.4975 50.5692 12.523C52.0684 12.559 52.3368 12.2566 52.375 12.1958C53.741 10.0458 53.1299 6.71302 52.9097 5.74293C52.887 5.6426 52.8112 5.56418 52.7121 5.53945C50.5282 4.99187 42.7669 3.14567 34.5943 2.36705C29.9043 1.92052 25.9018 1.9085 22.6982 2.33243C18.858 2.84044 16.1692 3.97233 14.7054 5.69701C11.1867 9.84302 7.40803 17.5091 4.84314 25.7043C2.07006 34.5658 1.29181 42.1499 2.70809 46.5114C5.34804 54.643 7.47955 72.4798 8.50423 81.0516C8.72375 82.8879 8.89725 84.3385 9.01692 85.2117C9.39295 87.9524 10.1407 91.3735 12.8303 95.9696C16.1238 101.597 21.6629 107.706 29.2953 114.126C38.443 121.821 43.6918 125.418 48.6608 127.399C53.7814 129.439 58.6605 129.692 66.0875 129.865C70.8547 129.976 75.9604 128.954 81.2629 126.829C85.834 124.997 90.575 122.339 95.3549 118.927C105.95 111.367 113.136 102.789 115.085 100.34C118.195 96.4324 121.29 85.5014 124.034 68.7287C126.115 56.0074 127.266 44.3232 127.278 44.2066C127.306 43.9261 127.557 43.7212 127.837 43.7488C128.118 43.7763 128.323 44.0257 128.296 44.3062C128.284 44.4228 127.129 56.1402 125.043 68.8941C123.817 76.3912 122.513 82.777 121.167 87.874C119.473 94.2944 117.696 98.7025 115.886 100.976C113.915 103.451 106.653 112.122 95.9498 119.758C91.104 123.216 86.2907 125.914 81.6439 127.776C76.4794 129.846 71.4863 130.894 66.7906 130.894V130.892ZM56.4079 65.8354C55.3988 65.8354 54.794 66.1096 54.5448 66.4218C54.3493 66.667 54.3252 66.9779 54.4739 67.346C54.8818 68.3578 56.4702 69.5363 59.2015 70.2775C59.8417 69.6783 60.9081 68.4383 60.6511 67.5099C60.4443 66.7645 59.3537 66.2169 57.4963 65.9266C57.0919 65.8637 56.7294 65.8354 56.4086 65.8354H56.4079Z" fill="white"/>
    <path d="M66.7906 130.892C66.547 130.892 66.3049 130.889 66.0634 130.884C58.5217 130.708 53.5611 130.45 48.2812 128.346C43.2003 126.321 37.8758 122.678 28.636 114.905C20.9144 108.41 15.2996 102.212 11.9472 96.4833C9.16705 91.7325 8.39376 88.1891 8.00357 85.3495C7.88248 84.4678 7.70899 83.013 7.48875 81.1717C6.46832 72.6317 4.34461 54.862 1.73511 46.8251C0.25509 42.2678 1.03192 34.4584 3.86661 25.4005C6.46974 17.083 10.3234 9.28061 13.9243 5.03709C16.8759 1.56018 23.8624 0.320188 34.6913 1.35175C42.9362 2.13672 50.7597 3.99847 52.9613 4.55028C53.4365 4.66969 53.7984 5.03992 53.9067 5.51754C54.2169 6.88542 54.7728 10.3277 53.2382 12.742C52.603 13.7417 50.4255 13.8025 45.9585 12.9469C42.3952 12.2644 37.8638 11.0774 33.8656 10.0303C28.966 8.74646 23.8985 7.41957 22.6076 7.5962C21.4696 7.75235 19.7035 8.22715 17.5111 10.5425C15.17 13.0154 12.6943 17.2123 10.1528 23.0159C10.1464 23.0307 10.1507 23.0244 10.1471 23.0293C10.1259 23.0929 10.0331 23.4525 10.3574 24.0594C10.7774 24.8451 11.9267 26.0957 15.0163 27.5879C18.5924 29.3147 23.8999 30.9497 30.7909 32.4461C30.9743 32.4779 34.083 33.0093 38.0323 33.0573C41.5447 33.0997 46.4231 32.7584 50.2102 30.9532C49.4653 30.2502 47.9406 28.8781 45.9522 27.4452C43.3448 25.5665 39.3827 23.1932 35.3123 22.5566C30.2576 21.7667 27.2431 24.0086 24.8212 25.811C22.8738 27.2601 21.192 28.5114 19.115 27.7038C18.9288 27.6395 17.5146 27.111 17.2937 25.7495C17.06 24.306 18.3035 22.5764 20.9916 20.608C24.9728 17.692 33.8359 16.0719 41.7748 18.4071C46.7722 19.8774 53.4486 23.514 56.8774 32.49C56.9199 32.5973 57.9637 35.2893 58.0855 39.595C58.157 42.1159 57.8943 44.6701 57.3058 47.1861C56.5707 50.3274 55.3216 53.4179 53.593 56.3719C51.6187 59.7464 50.3632 62.3656 49.7542 64.3792C49.1671 66.3208 49.1693 67.7212 49.7598 68.6595C50.6089 70.0097 52.7985 70.5968 56.7449 70.4979C54.9116 69.6698 53.8911 68.6362 53.525 67.7261C53.2375 67.0132 53.3161 66.3243 53.7446 65.7867C54.4208 64.9388 55.8088 64.6307 57.6535 64.919C59.9712 65.2815 61.311 66.0622 61.6361 67.24C61.9817 68.4913 61.0781 69.7758 60.3664 70.5516C60.7948 70.6378 61.2459 70.7141 61.7196 70.7777C63.3264 70.9946 64.5997 71.7421 65.504 72.9991C67.952 76.4018 66.8317 82.3665 66.7829 82.6187C66.7411 82.8363 66.5626 83.0017 66.3424 83.0285C66.2425 83.0405 63.8696 83.3055 60.8607 81.7327C58.0451 80.261 53.9527 81.4798 52.0818 82.9254C50.4836 84.1597 44.5253 88.541 41.6367 90.662C45.9408 90.1406 56.4319 89.0165 64.0947 89.3903C68.6127 89.6107 72.8311 90.0064 76.2932 90.5327C80.0109 91.0987 82.5199 91.7586 83.7513 92.4962C84.1783 92.7513 84.1118 93.1067 84.0813 93.2098C83.9461 93.6677 83.4043 93.7659 82.1623 93.8238C81.304 93.8641 80.0754 93.8726 78.4077 93.8507C75.2982 93.809 71.0629 93.6642 66.5789 93.5108C57.167 93.1887 45.6668 92.7958 41.5277 93.3088C43.1663 94.6703 46.8033 97.6413 48.5022 98.6298C52.9302 101.207 58.6739 102.413 65.5755 102.215C70.383 102.077 73.9075 101.751 76.6657 101.19C79.2815 100.659 81.2941 99.8931 83.0014 98.781C86.3481 96.5999 88.8195 93.8719 89.1254 92.8742C89.0596 92.6757 88.6595 91.979 87.3848 90.5829C86.1909 89.2751 84.6755 87.8408 83.1183 86.545C80.7205 84.549 76.1679 81.1795 72.6172 81.0318C72.608 81.0318 72.5995 81.0311 72.5903 81.0297C72.5577 81.0269 69.2748 80.7513 68.3351 82.8024C68.2175 83.0589 67.9145 83.1712 67.6574 83.054C67.4004 82.9367 67.2878 82.6343 67.4053 82.3778C68.6233 79.7198 72.3694 79.9861 72.6725 80.0123C78.5387 80.2673 86.9805 88.2096 89.3534 91.3297C90.1508 92.3782 90.2011 92.7753 90.1366 93.0488C89.7889 94.5219 86.7779 97.5375 83.5608 99.6338C81.7423 100.819 79.6165 101.63 76.8703 102.189C74.0526 102.762 70.473 103.093 65.6052 103.233C65.1088 103.247 64.6174 103.254 64.133 103.254C57.6868 103.254 52.2617 101.996 47.9874 99.5094C45.6902 98.1726 40.2658 93.585 40.0364 93.39C39.8919 93.2678 39.8274 93.0763 39.8678 92.8919C39.9082 92.7075 40.0477 92.5605 40.2297 92.5097C43.1862 91.688 55.6332 92.114 66.6143 92.4892C70.8447 92.634 74.8408 92.7704 77.8794 92.8205C79.8686 92.853 81.139 92.8417 81.947 92.8114C78.7738 91.724 71.9813 90.7956 64.0445 90.4077C54.3238 89.9329 39.9585 91.9006 39.8147 91.9204C39.5824 91.9522 39.3587 91.8236 39.2709 91.6074C39.183 91.3912 39.2531 91.1425 39.4422 91.0047C39.5414 90.9327 49.3435 83.7499 51.4566 82.1178C52.6384 81.2049 54.3167 80.509 56.0623 80.2087C57.4651 79.967 59.5187 79.8787 61.3358 80.8283C63.3788 81.8959 65.1067 82.0295 65.8424 82.0295H65.8439C66.0428 80.6757 66.5293 76.1694 64.6726 73.5919C63.9283 72.5582 62.9178 71.9682 61.583 71.7881C60.7771 71.6793 60.0378 71.5394 59.3622 71.3754C59.3559 71.3762 59.3488 71.3769 59.3424 71.3776C53.2786 71.8545 50.1536 71.203 48.8945 69.2014C47.4449 66.8966 48.5857 62.9061 52.7107 55.8569C54.3819 53.001 55.59 50.0158 56.3031 46.9848C56.8731 44.5599 57.1295 42.099 57.065 39.6706C56.9546 35.5295 55.9341 32.8835 55.9242 32.8574C54.5398 29.2342 52.4876 26.2179 49.8229 23.887C47.4782 21.8374 44.674 20.3225 41.4866 19.3849C36.8972 18.0347 32.6596 18.1916 29.9121 18.5611C26.4882 19.0218 23.4573 20.0667 21.5971 21.4297C18.5173 23.685 18.2114 24.9984 18.3028 25.5806C18.4302 26.391 19.4393 26.7358 19.45 26.7394C19.4585 26.7422 19.4691 26.7457 19.4776 26.7493C21.0305 27.359 22.3647 26.3663 24.2108 24.9928C25.4755 24.0517 26.9095 22.9848 28.7195 22.2514C30.827 21.3979 33.0357 21.1675 35.471 21.5484C37.8312 21.9172 41.6729 23.0985 46.5668 26.6292C49.4801 28.7304 51.3659 30.648 51.4445 30.7285C51.5564 30.843 51.6081 31.0034 51.584 31.1616C51.5599 31.3199 51.4629 31.4577 51.322 31.534C48.0631 33.2912 43.5827 34.1475 38.0026 34.0776C33.8699 34.026 30.7335 33.4728 30.6025 33.4487C30.5961 33.4473 30.5905 33.4466 30.5841 33.4452C15.0446 30.0707 10.4799 26.6673 9.38799 24.4056C8.90858 23.413 9.15501 22.7439 9.21733 22.6054C11.8417 16.611 14.3117 12.436 16.7682 9.84161C19.1823 7.29168 21.1778 6.76177 22.4695 6.58514C23.89 6.39013 27.8245 7.39201 34.1262 9.04321C38.1088 10.0861 42.6225 11.2688 46.1519 11.945C48.0497 12.3089 49.4943 12.4975 50.5692 12.523C52.0684 12.559 52.3368 12.2566 52.375 12.1958C53.741 10.0458 53.1299 6.71302 52.9097 5.74293C52.887 5.6426 52.8112 5.56418 52.7121 5.53945C50.5282 4.99187 42.7669 3.14567 34.5943 2.36705C29.9043 1.92052 25.9018 1.9085 22.6982 2.33243C18.858 2.84044 16.1692 3.97233 14.7054 5.69701C11.1867 9.84302 7.40803 17.5091 4.84314 25.7043C2.07006 34.5658 1.29181 42.1499 2.70809 46.5114C5.34804 54.643 7.47955 72.4798 8.50423 81.0516C8.72375 82.8879 8.89725 84.3385 9.01692 85.2117C9.39295 87.9524 10.1407 91.3735 12.8303 95.9696C16.1238 101.597 21.6629 107.706 29.2953 114.126C38.443 121.821 43.6918 125.418 48.6608 127.399C53.7814 129.439 58.6605 129.692 66.0875 129.865C70.8547 129.976 75.9604 128.954 81.2629 126.829C85.834 124.997 90.575 122.339 95.3549 118.927C105.95 111.367 113.136 102.789 115.085 100.34C118.195 96.4324 121.29 85.5014 124.034 68.7287C126.115 56.0074 127.266 44.3232 127.278 44.2066C127.306 43.9261 127.557 43.7212 127.837 43.7488C128.118 43.7763 128.323 44.0257 128.296 44.3062C128.284 44.4228 127.129 56.1402 125.043 68.8941C123.817 76.3912 122.513 82.777 121.167 87.874C119.473 94.2944 117.696 98.7025 115.886 100.976C113.915 103.451 106.653 112.122 95.9498 119.758C91.104 123.216 86.2907 125.914 81.6439 127.776C76.4794 129.846 71.4863 130.894 66.7906 130.894V130.892ZM56.4079 65.8354C55.3988 65.8354 54.794 66.1096 54.5448 66.4218C54.3493 66.667 54.3252 66.9779 54.4739 67.346C54.8818 68.3578 56.4702 69.5363 59.2015 70.2775C59.8417 69.6783 60.9081 68.4383 60.6511 67.5099C60.4443 66.7645 59.3537 66.2169 57.4963 65.9266C57.0919 65.8637 56.7294 65.8354 56.4086 65.8354H56.4079Z" stroke="white" stroke-width="0.5" mask="url(#path-3-outside-2_118_3887)"/>
</svg>