<?xml version="1.0" encoding="UTF-8" standalone="no"?>
<svg
   xmlns:dc="http://purl.org/dc/elements/1.1/"
   xmlns:cc="http://creativecommons.org/ns#"
   xmlns:rdf="http://www.w3.org/1999/02/22-rdf-syntax-ns#"
   xmlns:svg="http://www.w3.org/2000/svg"
   xmlns="http://www.w3.org/2000/svg"
   xmlns:sodipodi="http://sodipodi.sourceforge.net/DTD/sodipodi-0.dtd"
   xmlns:inkscape="http://www.inkscape.org/namespaces/inkscape"
   width="18"
   height="18"
   fill="none"
   version="1.1"
   id="svg10"
   sodipodi:docname="checkbox.svg"
   inkscape:version="0.92.5 (2060ec1f9f, 2020-04-08)">
  <metadata
     id="metadata16">
    <rdf:RDF>
      <cc:Work
         rdf:about="">
        <dc:format>image/svg+xml</dc:format>
        <dc:type
           rdf:resource="http://purl.org/dc/dcmitype/StillImage" />
      </cc:Work>
    </rdf:RDF>
  </metadata>
  <defs
     id="defs14" />
  <sodipodi:namedview
     pagecolor="#ffffff"
     bordercolor="#666666"
     borderopacity="1"
     objecttolerance="10"
     gridtolerance="10"
     guidetolerance="10"
     inkscape:pageopacity="0"
     inkscape:pageshadow="2"
     inkscape:window-width="3758"
     inkscape:window-height="2089"
     id="namedview12"
     showgrid="false"
     inkscape:zoom="13.111111"
     inkscape:cx="9"
     inkscape:cy="9"
     inkscape:window-x="82"
     inkscape:window-y="34"
     inkscape:window-maximized="1"
     inkscape:current-layer="svg10" />
  <g
     style="stroke-width:.97994334"
     id="g4">
    <rect
       width="16.305"
       height="17.02"
       x=".49"
       y=".147"
       rx="1.812"
       ry="1.891"
       style="fill:#07cfd3;stroke:#ff0aff;stroke-width:.68;stroke-linecap:round;stroke-linejoin:miter;stroke-miterlimit:4;stroke-dasharray:none;stroke-dashoffset:0;stroke-opacity:1"
       transform="matrix(1.04135 0 0 1 0 .343)"
       id="rect2" />
  </g>
  <g
     clipPath="url(#clip0_236_1591)"
     id="g8"
     transform="scale(1.0353001,1)"
     style="stroke-width:0.98280388">
    <path
       d="m 7.60742,13.624 c 0.13672,0 0.25716,-0.0619 0.36133,-0.1855 L 13.0859,5.49902 c 0.0195,-0.03906 0.0391,-0.083 0.0586,-0.13184 0.0195,-0.04882 0.0293,-0.09277 0.0293,-0.13183 0,-0.09766 -0.0374,-0.18067 -0.1123,-0.24903 -0.0749,-0.06835 -0.1579,-0.10253 -0.249,-0.10253 -0.1237,0 -0.2343,0.06836 -0.332,0.20507 L 7.59766,12.6963 4.90234,9.55175 C 4.85677,9.48665 4.80631,9.44108 4.75098,9.41504 4.69564,9.389 4.63542,9.37597 4.57031,9.37597 c -0.09765,0 -0.18229,0.03418 -0.2539,0.10254 -0.07162,0.06836 -0.10743,0.15463 -0.10743,0.25879 0,0.09115 0.03906,0.19206 0.11719,0.3027 l 2.91016,3.3985 c 0.05208,0.0651 0.10742,0.1123 0.16601,0.1416 0.05859,0.0292 0.12695,0.0439 0.20508,0.0439 z"
       id="path6"
       inkscape:connector-curvature="0"
       style="fill:#3f55e9;stroke-width:0.96590346"
       sodipodi:nodetypes="scccscsccccscscccs" />
  </g>
</svg>
