<svg width="129" height="154" viewBox="0 0 129 154" fill="none" xmlns="http://www.w3.org/2000/svg">
<path id="Vector" d="M12.2162 54.3434C13.9194 57.2988 13.303 60.989 13.5869 64.3935C13.8708 67.7979 16.0607 71.7576 19.4428 71.4637C22.2816 71.2106 24.0172 67.7 23.1575 64.965C22.2978 62.23 19.5969 60.4339 16.8231 59.7889C9.50722 58.0907 1.41275 64.222 1.01533 71.7657C0.617905 79.3094 8.01485 86.2735 15.4686 85.3672C17.9667 85.0652 20.4404 84.0202 22.9223 84.4447C26.7749 85.0897 29.2324 88.9921 30.3355 92.7558C32.8741 101.385 30.9681 110.603 30.376 119.583C29.7839 128.564 31.106 138.712 38.0812 144.345C42.3798 147.815 48.0654 148.909 53.5158 149.742C64.1895 151.375 74.928 153.04 85.7315 152.999C123.633 152.877 128.694 131.225 127.931 122.563V11.4733C127.68 5.38283 116.179 5.11342 108.377 4.24801C85.8531 1.72528 63.1594 0.672106 40.4982 1.08848C32.1279 1.2436 14.6251 1.06399 14.6251 4.10922C14.6251 5.51346 20.116 5.7094 21.0568 5.67674C22.9953 5.61143 24.9419 5.54612 26.8803 5.47264C29.1513 5.391 31.4304 5.30119 33.6771 5.61143C33.8798 5.63592 34.0826 5.66858 34.2529 5.77471C34.4233 5.88085 34.5693 6.06046 34.5611 6.2564C34.553 6.55031 34.261 6.74625 33.9853 6.86871C33.3689 7.13813 32.6957 7.30958 32.0225 7.30958C32.0225 7.30958 21.8436 7.65247 21.8436 7.83209C21.5516 7.97904 21.2515 8.126 21.0244 8.35459C20.7973 8.58319 20.6432 8.92609 20.7243 9.24449C20.8216 9.67719 21.2758 9.91395 21.6895 10.0527C22.5249 10.3303 23.4252 10.4283 24.3011 10.314H34.7477C34.7558 10.4201 36.6375 10.1834 36.6618 10.91C36.6943 11.906 36.0616 12.1509 35.7453 12.2244C35.0559 12.3877 34.3422 12.2571 33.6284 12.2571C33.6284 12.2571 23.9605 11.9877 23.9929 13.2531C24.0091 13.694 23.9199 14.1675 24.2525 14.4532C24.512 14.6737 24.8608 14.7471 25.2014 14.8043C25.907 14.9104 26.6208 14.9676 27.3345 14.9349C27.3345 14.9349 34.3584 14.7145 39.1275 14.9349C40.7253 15.0084 40.7901 15.6942 40.7901 15.7105C40.8145 17.0086 38.9652 17.0331 38.6489 17.0249C37.6838 16.9923 36.7186 16.9106 35.7453 16.9106C35.7453 16.9106 25.9881 17.376 25.8908 17.9965C25.4934 20.5519 36.1589 20.658 36.1589 20.658C42.2257 20.209 48.3006 21.4663 54.3674 21.0172C54.3674 21.0172 99.2439 21.0172 106.835 26.1117C113.494 30.5775 109.828 98.4054 107.703 114.081C106.308 124.384 102.237 135.528 92.9338 140.059C87.6699 142.623 81.5707 142.631 75.731 142.329C66.9309 141.872 58.1632 140.835 49.501 139.218C47.4004 138.826 44.8942 138.002 44.4805 135.895C44.1966 134.418 45.1943 132.924 46.492 132.172C47.7897 131.421 49.3307 131.242 50.815 131.078C60.4748 130.017 70.1265 128.956 79.7863 127.894C81.5464 127.698 83.3632 127.486 84.8799 126.58C86.3966 125.674 87.5321 123.861 87.0941 122.139C86.4371 119.559 83.1198 118.947 80.4757 118.857C73.7682 118.612 67.0607 118.367 60.3531 118.122C57.9199 118.032 54.5864 116.873 55.1217 114.481C55.4218 113.142 56.9061 112.44 58.2606 112.252C59.6151 112.064 61.0425 112.187 62.2754 111.615C65.1222 110.309 65.3818 106.21 64.1733 103.296C62.9648 100.381 60.7668 97.8993 60.053 94.8295C59.0311 90.4617 61.4967 85.6857 65.3818 83.4977C69.2668 81.3097 74.2467 81.5546 78.221 83.5875C82.1952 85.6203 85.2124 89.2534 87.0941 93.311C87.6699 94.5519 88.1566 95.9562 87.7997 97.2788C87.4428 98.6014 85.8775 99.6464 84.6771 98.9933C83.6065 98.4054 83.3875 96.8706 82.3655 96.2011C81.2138 95.4418 78.7725 99.2545 77.3856 99.3933C73.8818 99.7362 73.9953 95.4092 72.6165 96.0786C70.6618 97.042 71.481 98.879 67.8474 98.879C65.471 98.879 64.4166 93.4661 65.909 91.5965C67.012 90.2086 68.7964 89.6208 70.2887 88.6656C75.439 85.3836 76.5258 78.3869 76.7611 72.2637C77.1341 62.3116 76.5745 52.3268 75.074 42.489C74.5468 39.0029 73.6547 35.1576 70.7348 33.2145C68.8531 31.9654 66.4929 31.7776 64.2463 31.6225C59.1609 31.2796 54.0755 30.9367 48.9982 30.5938C44.1642 30.2672 38.8841 30.055 34.9423 32.8961C29.6055 36.7333 28.9729 44.3259 28.835 50.9226C28.6971 57.2988 28.908 64.5159 33.596 68.8021C38.2191 73.0312 45.2754 72.623 51.4881 71.9617C54.773 71.6106 58.1146 71.2432 61.1236 69.8716C64.1327 68.5001 66.7849 65.9202 67.3851 62.6545C68.2124 58.1397 65.0006 53.878 61.4805 50.9634C58.6012 48.5795 55.1217 46.5466 51.3908 46.6854C47.6599 46.8242 43.8722 49.8776 44.0912 53.6249C44.3426 57.9683 49.1279 60.3277 53.2319 61.6911C55.657 62.4994 58.6661 63.1607 60.4991 61.3646C62.7944 59.1194 60.8965 54.8087 57.8956 53.7066C54.8946 52.6044 51.5611 53.6168 48.5277 54.6373C45.4943 55.6578 42.169 56.6865 39.1599 55.5762C35.1694 54.1148 33.2553 49.0448 34.4557 44.9464C35.6561 40.848 39.3221 37.8354 43.345 36.4638C47.3679 35.0923 51.7152 35.1412 55.949 35.476C61.0182 35.8842 70.7186 38.5049 71.0349 53.8862" stroke="#010F22" stroke-width="2" stroke-linecap="round" stroke-linejoin="round"/>
</svg>
