<svg width="106" height="60" viewBox="0 0 106 60" fill="none" xmlns="http://www.w3.org/2000/svg">
    <g clip-path="url(#clip0_346_2209)">
        <path d="M49.3207 54.0056C49.1889 52.6984 49.6048 51.433 50.0586 50.7111C50.3346 50.2709 50.5667 50.1287 50.6355 50.1287H50.6392C50.9562 50.1524 51.3134 50.574 51.3383 51.2132C51.3566 51.685 51.1985 52.6216 49.9291 53.5926C49.7416 53.7363 49.5389 53.8742 49.3207 54.0056ZM32.7824 42.0832C32.8703 41.3363 32.6272 40.5857 32.1177 40.0248C31.6075 39.4632 30.8754 39.1414 30.1089 39.1414H24.4727C21.1417 39.1414 18.7435 37.9226 17.3452 35.518C16.2925 33.7074 16.2251 31.8637 16.2244 31.845C16.2193 31.6734 15.7112 14.648 16.1805 7.8458C16.3694 5.11227 17.723 3.22552 20.204 2.23797C21.7772 1.61168 23.3343 1.55925 23.8138 1.55925C23.9082 1.55925 23.961 1.56141 23.9639 1.56141H68.3414C71.2873 1.56141 73.493 2.29399 74.8979 3.7376C76.5897 5.47713 76.5055 7.68277 76.504 7.70432V7.72155C76.5062 7.91763 76.7207 27.3971 76.504 33.8402C76.4169 36.4179 75.2171 38.212 72.9374 39.173C71.2053 39.9034 69.4659 39.8596 69.4491 39.8589H46.9898C46.3133 39.8589 45.6669 40.106 45.1691 40.5541C43.0725 42.4437 37.7437 47.1438 31.6536 51.7339L32.7824 42.0832ZM165.029 45.996C151.788 51.0889 141.873 53.37 136.356 52.5907C130.069 51.703 126.323 49.8988 122.7 48.1543C118.567 46.1641 114.663 44.2845 107.548 44.1682C100.492 44.0518 90.6257 47.8591 81.0824 51.54C72.4835 54.856 64.3619 57.9881 58.3289 58.3896C54.0389 58.6754 51.1319 57.787 49.9225 55.822C49.6831 55.4334 49.522 55.0255 49.4232 54.6139C49.7395 54.4358 50.0279 54.2462 50.2893 54.0458C51.7644 52.9175 51.9467 51.7727 51.9232 51.1909C51.8895 50.3097 51.3566 49.6065 50.6838 49.5555C50.2219 49.5218 49.8163 50.0008 49.5601 50.4095C49.0293 51.2541 48.5469 52.7696 48.7724 54.3087C47.5169 54.9429 45.8543 55.4198 43.8089 55.7293C39.0322 56.4533 35.9289 55.5921 34.1668 54.7425C32.5636 53.969 31.7495 53.064 31.5291 52.7933L31.5606 52.5275C37.8557 47.8182 43.4114 42.9185 45.5652 40.9771C45.9546 40.6267 46.4605 40.4335 46.9898 40.4335H69.4352C69.5684 40.4378 71.3327 40.4694 73.1504 39.7088C74.8818 38.9834 76.9711 37.3803 77.089 33.8589C77.3049 27.4553 77.0948 8.22 77.0897 7.72371C77.0978 7.5341 77.1534 5.23077 75.3283 3.34833C73.8093 1.7819 71.4586 0.986832 68.3414 0.986832H23.9829C23.8285 0.981087 21.958 0.925072 20.0019 1.69859C18.1329 2.43692 15.8518 4.09671 15.5963 7.80702C15.1248 14.6365 15.6336 31.6906 15.6387 31.8615C15.6409 31.9413 15.7076 33.8488 16.8247 35.783C17.8621 37.5771 20.0305 39.716 24.4727 39.716H30.1089C30.7085 39.716 31.281 39.9681 31.6799 40.4069C32.0797 40.8464 32.2693 41.4332 32.2004 42.0178L31.0072 52.2187C30.8161 52.3609 30.6243 52.5031 30.4318 52.6453C26.2816 55.7092 21.6557 55.9462 18.5063 55.6058C15.0743 55.2352 12.5955 54.1176 12.5714 54.1062L12.5494 54.0961L12.526 54.0904C12.2734 54.0214 -12.8513 47.1718 -22.1992 45.466C-27.8764 44.4296 -34.0976 45.9522 -41.3019 47.7162C-46.2141 48.9185 -51.7823 50.2809 -58.0883 51.0652C-66.0247 52.0521 -71.1881 49.4133 -74.1222 47.026C-75.3155 46.0557 -76.2474 45.0466 -76.9473 44.1624V45.0839C-76.2986 45.8388 -75.4948 46.6532 -74.5182 47.4504C-72.5914 49.0226 -70.3908 50.1926 -67.9764 50.928C-64.9647 51.8445 -61.6133 52.0829 -58.0144 51.6355C-51.6739 50.8469 -46.0882 49.4794 -41.1599 48.2735C-34.0222 46.5261 -27.8581 45.0171 -22.3068 46.0305C-13.1054 47.7104 11.4637 54.397 12.3466 54.6376C12.6204 54.7604 15.0363 55.8062 18.4228 56.1746C20.4946 56.4009 22.4961 56.3219 24.3724 55.9412C26.7231 55.4643 28.8798 54.5098 30.7839 53.1042C30.8381 53.0647 30.8922 53.0245 30.9464 52.9843L30.983 53.0367C31.0174 53.0863 31.8461 54.2527 33.8674 55.2381C35.7093 56.1358 38.9436 57.048 43.8982 56.2974C45.9254 55.99 47.5967 55.5189 48.8924 54.8919C49.0059 55.3092 49.1772 55.7229 49.421 56.1193C50.0389 57.1234 51.0367 57.8797 52.3859 58.3659C53.5858 58.799 55.0682 59.0166 56.8069 59.0166C57.3062 59.0166 57.8274 58.9986 58.3684 58.9627C64.4915 58.5555 72.6541 55.4076 81.2962 52.0743C90.7868 48.4143 100.6 44.63 107.539 44.7428C114.522 44.857 118.369 46.7092 122.442 48.6707C126.106 50.4346 129.894 52.2582 136.273 53.1595C139.417 53.6034 143.882 53.1028 149.544 51.6728C154.055 50.533 159.338 48.8021 165.247 46.5297C166.126 46.1915 166.126 45.5739 165.029 45.996Z" fill="white" stroke="white" stroke-width="0.5"/>
    </g>
    <defs>
        <clipPath id="clip0_346_2209">
            <rect width="180" height="60" fill="white" transform="translate(-74)"/>
        </clipPath>
    </defs>
</svg>