<svg width="1440" height="1142" viewBox="0 0 1440 1142" fill="none" xmlns="http://www.w3.org/2000/svg">
<g clip-path="url(#clip0_118_3822)">
<path d="M647.269 328.987C642.242 245.907 624.213 157.516 576.959 87.5115C555.092 55.1015 525.764 27.6364 489.695 11.8425C477.505 6.5094 464.709 2.59234 451.604 0H373.229C368.11 0.98212 363.026 2.15838 358.022 3.52878C285.759 23.2511 236.746 83.4802 214.273 152.274C211.919 153.176 209.748 154.912 207.829 157.836C204.927 162.278 204.618 168.616 204.15 173.721C203.544 180.345 203.659 187.071 203.613 193.729C203.613 194.7 203.613 195.659 203.624 196.63C202.311 204.966 201.374 213.326 200.825 221.662C198.894 250.817 203.282 279.002 207.006 307.758C211.405 341.675 215.072 375.707 216.832 409.875C218.648 445.117 219.071 481.307 212.25 516.07C207.84 538.521 198.849 568.111 174.125 575.431C168.527 577.087 162.643 577.212 156.862 576.596C145.551 575.385 139.473 568.647 132.515 560.334C126.152 552.728 117.4 546.207 107.049 550.124C100.639 552.545 96.6179 555.115 89.5458 552.625C83.422 550.478 78.395 547.132 71.7799 546.573C56.1049 545.248 30.4557 555.834 28.3878 573.569C27.2567 583.242 37.8363 589.089 45.2168 592.195C58.9154 597.963 73.5623 599.082 88.2548 598.065C114.007 596.307 139.119 587.662 165.008 588.016C157.89 608.515 136.72 622.116 117.24 629.253C97.0521 636.654 71.9399 638.938 54.3911 624.423C45.1597 616.783 37.505 607.087 31.3126 596.901C25.543 587.411 20.0018 575.408 21.8413 564.022C25.5772 540.806 54.4139 546.812 71.1859 545.282C79.012 544.574 86.8838 542.302 91.6366 535.632C95.6239 530.025 91.0653 518.799 89.4887 513.135C88.2891 508.829 87.0323 504.547 86.1754 500.162C85.2272 495.331 85.1472 493.812 90.1971 495.125C95.5668 496.519 100.548 499.362 105.769 501.212C111.493 503.234 115.88 502.434 121.65 501.372C132.492 499.374 145.665 500.698 152.44 490.215C159.764 478.875 160.861 463.298 160.255 450.222C159.684 437.729 157.193 425.315 156.416 412.787C155.365 395.783 154.783 378.779 154.303 361.763C153.297 325.698 148.682 289.817 143.883 254.095C140.204 226.733 138.902 199.222 129.876 172.865C121.981 149.808 107.277 128.795 84.8044 118.094C62.4343 107.451 35.3456 105.555 10.9647 106.571C-5.37308 107.257 -23.0247 109.506 -37.9229 116.644C-41.6246 118.414 -45.2806 120.344 -48.9023 122.365C-55.6545 121.2 -62.8979 121.68 -69.3759 122.183C-79.4071 122.959 -92.443 125.334 -100.966 118.403C-108.175 112.544 -103.114 100.587 -99.9378 93.9638C-89.0269 71.1923 -69.593 54.2678 -48.1483 41.683C-34.2326 33.5177 -18.6832 27.7392 -2.55109 26.2774C13.9123 24.7928 30.4443 27.5108 46.4964 30.9482C60.1493 33.8603 73.4594 37.9144 86.9866 41.2605C96.675 43.6587 106.638 44.1269 114.715 37.4919C124.609 29.3608 125.729 12.8361 122.667 1.4846C122.541 1.00496 122.381 0.52532 122.233 0.0571H111.642C113.824 5.43592 114.669 11.2487 113.607 17.5069C112.727 22.6687 110.545 28.4586 105.884 31.2908C101.965 33.6662 96.4808 32.7526 92.2535 31.9303C79.0805 29.3608 66.1703 24.907 53.0658 21.9036C37.2993 18.2948 21.1443 15.5198 4.92085 15.634C-10.5829 15.7368 -25.4925 19.7223 -39.6366 25.8435C-63.6863 36.2471 -85.3595 53.3999 -100.463 74.801C-110.506 89.0303 -124.09 114.588 -105.502 127.79C-102.634 129.823 -99.4694 131.159 -96.1561 132.004C-106.096 133.66 -115.978 135.555 -125.564 138.936C-133.139 141.608 -140.782 145.297 -145.478 152.057C-147.637 155.164 -148.928 159.515 -146.038 162.529C-144.141 164.505 -141.559 165.91 -139.148 167.109C-123.108 175.08 -104.028 178.186 -86.4449 180.47C-76.8479 181.715 -65.9713 183.108 -55.506 182.56C-49.3479 183.931 -43.0641 182.743 -37.6601 179.694C-32.416 179.203 -27.172 178.7 -21.9279 178.175C-4.20772 176.416 13.7181 174.909 31.2326 171.597C35.7341 170.74 41.2409 169.872 42.829 164.859C44.7941 158.635 39.4358 153.964 34.6715 151.098C19.6134 142.042 0.373703 138.627 -16.4782 134.482C-22.1107 133.1 -27.6747 131.65 -33.2158 130.017C-34.2783 129.035 -35.4094 128.11 -36.5976 127.242C-38.0828 126.168 -39.6709 125.312 -41.3161 124.592C-33.7071 120.881 -25.8238 117.9 -17.8835 116.027C8.16554 109.895 37.0251 110.671 63.0056 116.747C88.7461 122.765 107.872 138.445 119.399 162.221C131.304 186.774 134.138 215.198 136.777 241.99C140.284 277.643 146.111 312.919 148.053 348.744C149.698 379.178 148.362 410.298 153.492 440.458C155.948 454.87 155.24 470.904 149.093 484.322C146.054 490.969 140.993 492.944 134.138 494.098C130.79 494.657 127.385 494.909 124.026 495.331C120.69 495.754 117.366 496.85 114.041 497.09C103.679 497.843 94.7785 486.743 84.2675 489.29C77.5496 490.923 80.4858 501.406 81.5369 505.758C83.4334 513.615 88.449 523.596 87.0323 531.795C85.6727 539.675 69.872 539.846 64.2737 540.018C46.9648 540.543 24.4919 538.202 17.534 558.289C10.3477 579.005 26.1942 602.199 38.9788 617.182C47.319 626.947 56.996 635.317 69.5635 638.766C82.8965 642.421 97.4177 640.856 110.591 637.384C135.931 630.704 164.608 613.014 171.566 586.074C172.046 584.213 170.675 582.557 168.812 582.466C168.561 582.454 168.31 582.454 168.058 582.443C188.909 580.045 202.768 562.983 210.434 543.558C222.316 513.42 223.481 478.875 223.515 446.899C223.55 410.538 220.476 374.199 216.386 338.1C213.656 313.981 209.84 289.999 207.246 265.869C206.069 254.86 205.612 243.68 205.864 232.454C208.332 253.593 212.547 274.594 217.197 295.218C221.036 312.223 225.48 328.827 231.307 345.272C237.1 361.626 244.812 377.899 248.97 394.755C251.952 406.815 253.323 419.183 257.562 430.934C261.012 440.469 266.393 447.07 274.974 452.301C283.668 457.599 301.114 463.721 299.457 475.54C292.511 471.36 287.278 463.892 279.235 462.224C267.776 459.861 262.44 475.141 260.795 483.74C258.19 497.341 260.601 511.605 262.2 525.183C263.811 538.876 264.165 552.808 264.211 566.592C264.257 577.886 263.434 589.146 262.349 600.384C260.966 614.693 260.075 629.253 256.614 643.243C251.438 664.199 239.373 682.311 221.265 694.21C202.973 706.224 180.752 711.249 159.25 713.442C134.046 716.023 108.5 714.721 83.342 712.288C41.6637 708.257 -5.22455 701.645 -37.763 672.809C-52.2727 659.95 -62.7494 643.46 -71.3067 626.227C-83.1887 602.291 -89.6439 576.219 -101.275 552.226C-111.466 531.19 -127.061 512.667 -134.658 490.432C-141.753 469.647 -139.297 447.23 -138.257 425.68C-137.412 408.242 -137.092 386.35 -126.855 371.401C-123.096 365.908 -117.704 365.623 -112.117 368.272C-102.737 372.715 -94.111 378.584 -84.6283 382.878C-77.4077 386.144 -67.2166 390.016 -59.9731 384.74C-53.7351 380.195 -52.1013 372.646 -57.0255 366.502C-61.9839 360.312 -70.4613 357.138 -77.6248 354.397C-85.5423 351.382 -93.7797 349.132 -102.051 347.305C-124.719 342.292 -147.957 334.823 -168.648 324.225C-178.222 319.326 -186.745 313.331 -194.068 306.307V319.931C-187.031 325.539 -179.284 330.403 -171.001 334.537C-150.413 344.827 -127.244 352.364 -104.782 357.218C-96.4989 359.011 -88.3071 361.363 -80.3553 364.309C-76.5508 365.725 -72.8491 367.416 -69.3531 369.494C-67.6736 370.488 -64.3261 373.103 -64.2233 373.982C-64.1319 374.862 -65.7771 376.814 -67.7193 376.986C-72.0608 377.385 -76.745 375.227 -80.5838 373.48C-89.9638 369.231 -98.5097 363.373 -107.81 358.976C-147.18 340.327 -148.243 415.22 -148.974 436.324C-149.351 447.161 -150.219 457.965 -149.397 468.802C-148.494 480.736 -145.444 492.111 -140.702 503.062C-136.292 513.238 -130.214 522.613 -124.422 532.035C-117.475 543.318 -111.031 554.829 -105.765 566.992C-100.086 580.102 -96.1218 593.931 -90.8549 607.213C-86.6505 617.799 -82.0005 628.226 -76.6536 638.298C-67.765 655.028 -56.3971 670.639 -41.8074 682.859C-8.24074 710.986 38.0648 717.873 80.1888 722.246C126.014 727.009 178.272 729.407 220.145 706.841C238.573 696.906 252.992 681.032 261.172 661.8C265.982 650.495 268.541 638.606 269.912 626.433C271.466 612.626 272.997 598.785 273.911 584.921C274.688 573.147 274.539 561.362 274.094 549.576C273.545 535.164 271.66 521.026 270.472 506.683C269.912 500.002 269.65 493.116 270.701 486.469C271.123 483.774 273.545 472.457 277.076 472.251C280.001 472.08 284.479 477.265 286.501 478.932C290.946 482.586 295.573 485.727 301.103 487.497C303.17 488.159 305.924 487.12 306.906 485.133C311.328 476.203 311.031 467.626 304.621 459.838C298.886 452.86 289.666 448.897 282 444.512C278.71 442.628 275.476 440.664 272.849 437.9C268.964 433.812 267.136 427.679 265.548 422.414C261.915 410.343 260.967 397.622 256.899 385.688C251.015 368.443 244.206 351.542 238.322 334.298C232.758 318.001 228.954 301.225 225.286 284.415C218.066 251.309 213.667 218.236 213.93 184.33C213.964 179.865 213.758 174.578 214.57 169.735C215.015 168.022 215.472 166.309 215.952 164.608C216.158 164.083 216.386 163.569 216.638 163.078C218.625 159.252 228.257 163.843 233.135 165.841C225.549 180.082 227.72 198.731 241.293 209.1C249.016 215.004 258.522 217.551 268.347 218.419C258.716 222.404 246.914 228.994 246.365 240.037C245.828 250.783 262.189 252.508 269.558 253.227C285.884 254.837 302.611 253.341 318.88 251.765C331.596 250.543 344.232 248.773 356.914 247.22C369.55 245.667 388.447 245.37 397.175 234.521C397.689 233.893 398.078 233.242 398.409 232.603C398.501 232.58 398.592 232.545 398.695 232.523C402.385 235.503 405.79 238.929 408.966 242.766C427.417 265.081 434.272 296.178 441.676 323.483C453.352 366.525 460.173 410.846 466.845 454.893C468.936 468.7 470.512 483.557 467.485 497.341C466.308 502.72 464.057 508.43 459.35 511.662C453.398 515.761 445.48 513.911 439.185 511.742C437.871 511.296 436.706 512.073 435.963 513.055C426.983 524.795 407.801 515.019 402.054 505.061C401.083 503.382 398.935 503.291 397.564 504.478C389.144 511.844 398.535 524.258 403.608 530.539C410.474 539.047 421.705 551.392 433.747 550.707C439.574 550.375 443.984 545.568 448.496 542.473C455.306 537.802 464.708 535.301 472.797 537.437C476.019 538.293 478.933 539.972 481.595 542.039C480.475 541.765 479.355 541.525 478.236 541.365C471.701 540.429 465.097 542.656 459.693 546.241C454.472 549.713 451.01 555.229 445.697 558.552C438.591 562.995 430.274 559.888 423.11 557.433C415.855 554.943 409.126 554.624 402.397 558.678C396.364 562.309 393.348 569.127 390.755 575.34C387.658 582.763 385.271 590.62 381.135 597.551C379.969 599.504 381.5 601.708 383.602 601.845C406.133 603.307 428.971 609.04 451.581 605.591C470.65 602.679 486.45 592.549 502.879 583.242C507.427 589.032 511.025 596.033 508.558 603.456C506.284 610.285 498.972 614.716 492.974 617.811C477.482 625.805 458.768 628.911 441.516 629.881C436.112 630.19 430.491 629.219 425.155 629.961C422.025 630.395 419.797 632.919 419.82 636.06C419.877 644.819 430.913 653.886 436.534 659.288C448.554 670.822 461.921 681.043 475.608 690.51C489.752 700.297 504.65 709.376 520.52 716.102C530.219 720.214 543.507 725.535 554.052 721.356C562.312 718.09 569.282 709.947 574.48 703.072C582.146 692.943 588.019 681.671 593.137 670.08C603.442 646.783 610.869 622.047 616.775 597.312C625.31 561.613 632.645 525.617 638.254 489.336C646.469 436.187 650.468 382.73 647.211 329.01L647.269 328.987ZM79.2062 592.732C65.519 592.926 47.4561 590.597 37.0365 580.741C28.8791 573.021 39.47 563.566 45.9366 559.477C54.6653 553.95 67.0386 550.044 77.1954 553.425C83.1478 555.4 88.1748 559.112 94.5957 559.569C100.982 560.025 105.255 556.485 111.105 554.806C122.176 551.643 130.744 567.974 137.177 574.118C142.958 579.645 150.121 581.666 157.776 582.397C131.418 583.551 105.712 592.367 79.2176 592.744L79.2062 592.732ZM-106.816 166.492C-113.796 164.973 -120.731 163.135 -127.483 160.782C-130.317 159.8 -133.744 158.475 -136.349 156.911C-133.265 152.4 -126.375 150.047 -121.737 148.414C-112.231 145.068 -102.2 143.218 -92.2945 141.505C-86.045 140.42 -79.7498 139.564 -73.5003 138.445C-74.3572 139.096 -75.2255 139.735 -76.071 140.386C-84.6968 147.067 -94.9908 158.761 -85.8393 169.564C-85.6108 169.838 -85.3366 170.089 -85.0967 170.352C-92.4087 169.381 -99.675 168.034 -106.827 166.492H-106.816ZM-73.1919 171.574C-75.534 170.592 -77.7276 169.336 -79.6356 167.771C-86.5477 162.107 -83.2344 155.403 -78.4474 150.196C-79.8869 157.128 -76.2309 165.521 -71.421 171.688C-72.0151 171.654 -72.6092 171.62 -73.2033 171.574H-73.1919ZM-24.3386 143.321C-11.6797 146.736 1.23058 149.282 13.7181 153.348C19.362 155.186 26.5255 157.231 31.324 161.033C30.3986 161.25 29.4732 161.445 28.5477 161.616C10.4505 165.156 -7.9437 166.686 -26.338 168.194C-24.43 164.733 -23.1389 160.805 -22.7276 156.557C-22.2706 151.955 -22.8762 147.478 -24.3271 143.321H-24.3386ZM-36.7804 165.693C-36.9061 165.887 -37.0203 166.092 -37.1574 166.287C-37.4888 166.766 -37.8201 167.2 -38.1743 167.611C-38.8369 168.262 -39.591 168.799 -40.4821 169.164C-40.722 169.267 -40.9734 169.347 -41.2133 169.439C-46.2632 169.895 -51.3016 170.386 -56.3286 170.957C-58.705 169.793 -60.9443 168.114 -62.8865 166.07C-65.4571 163.363 -67.5593 159.789 -68.5305 156.168C-69.0789 154.136 -68.5533 152.251 -67.9249 151.486C-65.0916 148.003 -59.2305 147.478 -54.5349 147.661C-46.9144 147.946 -35.6493 151.817 -35.7293 160.896C-35.7522 162.781 -36.1292 164.368 -36.7918 165.681L-36.7804 165.693ZM-38.4256 139.016C-37.226 140.318 -36.1977 141.734 -35.4094 143.23C-43.544 137.714 -54.5806 136.069 -64.1661 138.353C-62.7837 137.36 -61.3784 136.378 -59.9617 135.418C-58.5679 135.156 -57.1397 134.984 -55.6202 135.007C-49.9191 135.121 -44.0238 137.097 -38.437 139.016H-38.4256ZM301.388 247.414C287.347 248.294 271.283 249.733 257.71 245.13C245.44 240.973 257.676 230.296 264.017 226.79C270.209 223.364 277.11 220.589 284.273 218.533C288.318 218.328 292.282 217.985 296.064 217.62C299.275 217.311 302.485 216.911 305.684 216.466C302.599 218.27 299.891 220.589 298.109 223.546C292.145 233.425 303.113 242.606 311.431 246.661C308.095 246.935 304.747 247.197 301.4 247.403L301.388 247.414ZM336.28 242.31C335.149 243.326 333.869 244.045 332.476 244.536C330.293 244.788 328.1 245.039 325.918 245.267C318 244.673 309.123 239.672 304.987 235.183C301.354 231.232 301.651 226.984 305.604 223.478C311.088 218.613 319.074 216.786 326.729 216.055C331.23 217.391 335.343 219.755 337.834 223.821C341.067 229.085 341.079 237.97 336.28 242.298V242.31ZM384.802 235.949C373.16 240.597 360.17 241.031 347.842 242.641C346.208 242.858 344.563 243.063 342.929 243.269C343.238 242.789 343.524 242.298 343.786 241.773C346.837 235.686 346.048 227.646 343.158 221.674C341.981 219.241 340.245 217.231 338.188 215.587C351.213 215.552 364.363 217.528 376.85 221.103C382.186 222.621 387.064 224.757 391.554 227.452C392 228.389 392.468 229.314 392.994 230.227C393.051 230.33 393.12 230.421 393.177 230.513C391.543 233.242 387.373 234.921 384.802 235.949ZM356.434 211.144C367.025 211.042 379.707 211.35 387.327 218.396C387.51 218.567 387.704 218.739 387.898 218.921C377.97 214.673 367.128 212.526 356.434 211.144ZM635.021 472.491C630.017 508.909 622.956 545.031 614.787 580.855C608.732 607.418 601.66 633.673 591.629 659.048C586.773 671.302 581.026 683.281 573.76 694.302C568.676 702.01 561.078 712.448 552.11 716C541.53 720.191 526.815 712.848 517.469 708.485C501.52 701.04 486.553 691.401 472.283 681.146C459.282 671.816 446.6 661.675 435.495 650.118C432.296 646.795 429.154 643.277 426.835 639.269C426.252 638.264 425.601 636.642 425.566 636.025C425.521 635.363 425.361 635.797 425.772 635.649C429.565 634.335 435.655 635.786 439.779 635.649C447.731 635.363 455.66 634.324 463.475 632.908C478.796 630.144 496.127 625.531 507.735 614.556C519.617 603.319 514.99 588.632 505.61 577.521C504.776 576.539 503.199 576.482 502.148 577.075C485.936 586.143 470.57 596.478 451.947 599.767C430.948 603.478 409.24 598.339 388.172 596.455C393.017 586.211 395.096 573.844 402.785 565.576C408.954 558.94 417.078 561.316 424.424 563.862C430.753 566.067 436.82 567.163 443.447 565.61C448.142 564.502 451.97 561.293 455.294 557.958C460.127 553.116 464.411 549.119 471.232 547.281C478.11 545.419 485.685 548.069 492.323 552.591C497.635 558.507 502.685 564.628 508.443 570.143C510.82 572.416 514.453 569.55 512.933 566.683C509.403 560.048 503.725 553.824 497.053 549.154C492.768 544.38 488.29 539.812 483.068 536.089C472.043 528.221 457.979 530.253 446.806 536.774C442.258 539.424 438.282 544.7 432.719 545.019C426.595 545.373 420.734 539.686 416.564 535.849C412.793 532.389 399.038 519.507 399.929 511.799C409.354 523.036 428.446 529.054 439.356 517.726C452.278 521.643 465.177 519.233 470.878 505.609C476.602 491.928 475.185 475.529 473.471 461.174C471.986 448.646 469.221 435.913 467.576 424.299C462.789 390.507 456.46 356.864 447.742 323.848C440.59 296.76 433.45 267.822 417.386 244.434C413.262 238.427 408.28 232.705 402.568 227.966C402.636 227.052 402.442 226.059 401.871 225.054C396.501 215.655 397.198 207.97 404.887 200.969C414.541 192.187 429.005 188.43 441.333 185.381C468.536 178.654 496.904 176.199 525.021 175.137C518.589 177.49 512.294 180.31 506.353 183.656C500.343 187.06 493.579 191.628 490.495 198.046C487.421 204.452 489.889 211.464 494.493 216.455C499.589 221.982 507.838 223.409 514.99 223.626C534.104 224.197 553.892 216.649 571.224 209.363C578.513 206.302 585.722 203.013 592.634 199.165C599.889 195.122 609.132 188.179 610.252 179.363C612.297 163.192 584.5 164.368 573.932 164.197C542.444 163.671 510.763 164.836 479.47 168.479C462.286 170.489 445.046 173.219 428.468 178.232C416.427 181.875 403.059 187.002 394.593 196.778C390.537 201.46 388.584 206.702 388.264 212.092C380.438 207.056 370.738 206.074 361.415 205.651C347.042 204.989 333.218 206.862 319.234 208.895C307.546 207.604 295.036 209.717 283.542 213.086C270.541 213.714 257.276 212.503 246.64 205.857C238.116 200.524 234.026 190.349 234.346 180.573C234.518 175.525 236.334 170.9 239.076 166.778C259.298 180.482 285.108 184.342 309.134 184.947C328.74 185.438 349.716 183.485 367.893 175.799C381.043 170.249 393.999 155.129 382.723 141.517C373.114 129.925 352.127 129.434 338.508 129.046C305.547 128.098 263.297 131.638 239.396 157.311C238.962 157.025 238.471 156.797 237.888 156.625C232.05 154.947 225.766 151.875 220.008 151.509C238.539 96.3505 274.882 47.53 327.38 21.2983C369.984 0 421.568 -3.56304 467.108 9.67274C505.713 20.8986 538.046 45.9427 562.575 77.3134C588.521 110.523 605.624 150.184 617.746 190.28C630.268 231.7 637.409 274.731 640.791 317.819C644.846 369.574 642.116 421.078 635.044 472.491H635.021ZM538.331 200.558C553.264 210.356 586.67 192.987 576.594 174.509C577.919 174.543 579.244 174.555 580.569 174.589C583.369 174.669 600.78 175.457 599.946 178.757C598.964 182.663 593.217 186.763 590.041 188.738C587.436 190.36 584.705 191.765 581.975 193.158C565.203 201.677 547.026 208.632 528.494 212.115C521.422 213.44 512.499 214.662 505.644 211.738C503.074 210.642 501.291 209.009 500.012 206.542C498.801 204.201 499.098 203.493 500.286 201.54C502.56 197.806 507.027 195.202 510.66 193.021C516.361 189.606 522.508 186.968 528.746 184.684C529.728 184.319 530.722 183.965 531.728 183.622C529.957 189.937 532.265 196.572 538.343 200.558H538.331ZM543.027 183.714C544.135 181.909 545.62 180.367 547.323 179.123C552.692 178.004 558.131 177.387 563.455 177.684C566.802 177.866 568.825 178.552 567.534 182.811C565.66 189.047 555.857 193.135 550.042 193.466C543.301 193.854 539.531 189.424 543.027 183.714ZM242.549 162.29C245.634 158.807 249.267 155.769 252.866 153.234C267.467 142.956 284.833 138.662 302.291 136.56C320.434 134.391 339.456 133.374 357.542 136.423C364.546 137.611 372.406 139.507 377.73 144.509C383.1 149.556 381.786 157.47 377.342 162.655C370.726 170.375 359.21 173.378 349.727 175.537C339.708 177.809 329.379 178.803 319.12 179.168C293.699 180.071 264.245 176.999 242.549 162.278V162.29Z" fill="#3F55E9"/>
<path d="M1098.53 610.867C1092.8 603.89 1083.58 599.927 1075.91 595.542C1072.62 593.657 1069.39 591.693 1066.76 588.929C1062.88 584.841 1061.05 578.708 1059.46 573.444C1055.83 561.373 1054.88 548.651 1050.81 536.717C1044.93 519.473 1038.12 502.571 1032.23 485.327C1026.67 469.031 1022.87 452.255 1019.2 435.445C1011.98 402.338 1007.58 369.266 1007.84 335.36C1007.88 330.894 1007.67 325.607 1008.48 320.765C1008.63 320.205 1008.78 319.657 1008.93 319.098C1008.81 317.739 1008.63 316.38 1008.29 315.021C1007.21 313.433 1006.05 311.914 1004.8 310.51C1003.37 310.133 1001.75 310.578 1000.34 311.538C998.656 315.649 998.359 320.628 997.982 324.808C997.376 331.431 997.491 338.158 997.445 344.815C997.445 345.786 997.445 346.745 997.456 347.716C996.142 356.053 995.206 364.412 994.657 372.749C992.726 401.904 997.114 430.089 1000.84 458.844C1005.24 492.762 1008.9 526.793 1010.68 560.962C1012.49 596.204 1012.91 632.394 1006.09 667.156C1001.68 689.608 992.692 719.197 967.968 726.518C962.37 728.173 956.486 728.299 950.705 727.682C939.394 726.472 933.316 719.734 926.359 711.42C919.995 703.815 911.243 697.294 900.892 701.211C894.483 703.632 890.461 706.201 883.389 703.712C877.265 701.565 872.238 698.219 865.623 697.659C849.948 696.334 824.299 706.921 822.231 724.656C821.1 734.329 831.68 740.176 839.06 743.282C852.759 749.049 867.406 750.168 882.098 749.152C907.85 747.393 932.962 738.748 958.851 739.102C951.733 759.601 930.563 773.203 911.083 780.34C890.895 787.74 865.783 790.024 848.234 775.509C839.003 767.869 831.348 758.174 825.156 747.987C819.386 738.497 813.845 726.495 815.685 715.109C819.421 691.892 848.257 697.899 865.029 696.369C872.855 695.661 880.727 693.388 885.48 686.719C889.467 681.112 884.909 669.886 883.332 664.221C882.132 659.916 880.876 655.634 880.019 651.248C879.07 646.418 878.991 644.899 884.04 646.212C889.41 647.605 894.391 650.449 899.613 652.299C905.337 654.32 909.724 653.521 915.493 652.459C926.336 650.46 939.509 651.785 946.284 641.302C953.607 629.961 954.704 614.385 954.098 601.309C953.527 588.815 951.037 576.402 950.26 563.874C949.209 546.87 948.626 529.877 948.146 512.849C947.141 476.785 942.525 440.903 937.726 405.182C934.048 377.819 932.745 350.309 923.719 323.951C915.825 300.894 901.121 279.881 878.648 269.181C856.278 258.537 829.189 256.642 804.808 257.658C788.47 258.343 770.819 260.593 755.92 267.73C752.219 269.501 748.563 271.431 744.941 273.452C738.189 272.287 730.945 272.767 724.467 273.269C714.436 274.046 701.4 276.421 692.877 269.489C685.668 263.631 690.729 251.674 693.905 245.05C704.816 222.279 724.25 205.354 745.695 192.77C759.611 184.604 775.16 178.826 791.292 177.364C807.756 175.879 824.288 178.597 840.34 182.035C853.993 184.947 867.303 189.001 880.83 192.347C890.518 194.745 900.481 195.213 908.558 188.578C918.452 180.447 919.572 163.923 916.51 152.571C912.774 138.742 901.921 127.459 890.621 119.316C869.382 104.002 844.064 94.6718 818.381 90.2637C766.237 81.3104 710.3 92.2507 665 119.419C614.982 149.419 585.779 200.969 571.921 256.39C564.94 284.312 561.901 313.753 559.673 342.406C557.4 371.607 557.594 402.646 568.767 430.191C579.027 455.498 598.758 473.553 622.865 485.59C643.453 495.879 666.623 503.416 689.084 508.27C697.367 510.063 705.559 512.415 713.511 515.362C717.315 516.778 721.017 518.468 724.513 520.546C726.193 521.54 729.54 524.155 729.643 525.034C729.734 525.914 728.089 527.867 726.147 528.038C721.805 528.438 717.121 526.279 713.282 524.532C703.902 520.284 695.356 514.425 686.056 510.029C646.686 491.38 645.623 566.272 644.892 587.376C644.515 598.214 643.647 609.017 644.47 619.855C645.372 631.789 648.423 643.163 653.164 654.115C657.574 664.29 663.652 673.666 669.445 683.087C676.391 694.37 682.835 705.882 688.102 718.055C693.78 731.165 697.744 744.995 703.011 758.277C707.216 768.863 711.866 779.289 717.213 789.362C726.101 806.092 737.469 821.703 752.059 833.923C785.625 862.05 831.931 868.936 874.055 873.31C919.881 878.072 972.138 880.471 1014.01 857.905C1032.44 847.969 1046.86 832.095 1055.04 812.864C1059.85 801.558 1062.41 789.67 1063.78 777.496C1065.33 763.69 1066.86 749.849 1067.78 735.985C1068.55 724.211 1068.41 712.425 1067.96 700.64C1067.41 686.228 1065.53 672.09 1064.34 657.746C1063.78 651.066 1063.52 644.179 1064.57 637.533C1064.99 634.838 1067.41 623.521 1070.94 623.315C1073.87 623.144 1078.35 628.328 1080.38 629.996C1084.82 633.65 1089.45 636.791 1094.98 638.561C1097.05 639.223 1099.8 638.184 1100.78 636.197C1105.21 627.266 1104.91 618.69 1098.5 610.901L1098.53 610.867ZM873.05 743.83C859.362 744.024 841.299 741.695 830.88 731.839C822.722 724.119 833.313 714.664 839.78 710.575C848.509 705.048 860.882 701.142 871.039 704.523C876.991 706.498 882.018 710.21 888.439 710.667C894.826 711.123 899.099 707.583 904.948 705.904C916.019 702.741 924.588 719.072 931.02 725.216C936.801 730.743 943.964 732.764 951.619 733.495C925.262 734.649 899.555 743.465 873.061 743.842L873.05 743.83ZM733.904 286.516C735.298 286.254 736.726 286.082 738.246 286.105C743.947 286.219 749.842 288.195 755.429 290.114C756.629 291.416 757.657 292.832 758.445 294.328C750.311 288.812 739.274 287.167 729.689 289.451C731.071 288.458 732.476 287.476 733.893 286.516H733.904ZM725.941 302.607C728.775 299.124 734.636 298.599 739.331 298.781C746.952 299.067 758.217 302.938 758.137 312.017C758.114 313.902 757.737 315.489 757.074 316.802C756.949 316.996 756.834 317.202 756.697 317.407C756.366 317.887 756.035 318.321 755.68 318.732C755.018 319.383 754.264 319.92 753.373 320.285C753.133 320.388 752.881 320.468 752.641 320.559C747.592 321.016 742.553 321.507 737.526 322.078C735.15 320.913 732.91 319.235 730.968 317.19C728.398 314.484 726.295 310.909 725.324 307.289C724.776 305.257 725.301 303.372 725.93 302.607H725.941ZM722.445 322.798C721.851 322.763 721.257 322.729 720.663 322.684C718.321 321.701 716.127 320.445 714.219 318.881C707.307 313.216 710.62 306.513 715.407 301.305C713.968 308.237 717.624 316.631 722.434 322.798H722.445ZM720.366 289.543C719.509 290.194 718.641 290.833 717.795 291.484C709.169 298.165 698.875 309.859 708.027 320.662C708.255 320.936 708.529 321.188 708.769 321.45C701.457 320.479 694.191 319.132 687.039 317.59C680.058 316.071 673.123 314.233 666.371 311.88C663.538 310.898 660.11 309.573 657.505 308.009C660.59 303.498 667.479 301.145 672.118 299.512C681.624 296.166 691.655 294.316 701.56 292.603C707.81 291.518 714.105 290.662 720.354 289.543H720.366ZM1093.36 626.558C1086.41 622.379 1081.18 614.91 1073.14 613.243C1061.68 610.879 1056.34 626.159 1054.7 634.758C1052.09 648.359 1054.5 662.623 1056.1 676.201C1057.71 689.894 1058.07 703.826 1058.11 717.61C1058.16 728.904 1057.33 740.164 1056.25 751.402C1054.87 765.711 1053.98 780.271 1050.51 794.261C1045.34 815.217 1033.27 833.329 1015.17 845.228C996.874 857.242 974.652 862.267 953.15 864.46C927.947 867.041 902.4 865.739 877.242 863.306C835.564 859.275 788.676 852.663 756.137 823.827C741.628 810.968 731.151 794.478 722.594 777.245C710.712 753.309 704.257 727.237 692.626 703.244C682.435 682.208 666.84 663.685 659.242 641.45C652.147 620.666 654.603 598.248 655.643 576.699C656.489 559.26 656.809 537.368 667.045 522.419C670.804 516.926 676.197 516.641 681.784 519.29C691.163 523.733 699.789 529.602 709.272 533.896C716.493 537.163 726.684 541.034 733.939 535.758C740.177 531.213 741.811 523.664 736.886 517.52C731.928 511.331 723.451 508.156 716.287 505.415C708.37 502.4 700.132 500.15 691.86 498.323C669.193 493.31 645.955 485.841 625.264 475.243C600.061 462.339 582.135 441.988 574.343 414.615C566.048 385.505 568.505 353.837 571.704 324.145C574.834 295.184 578.753 266.44 587.722 238.621C596.85 210.265 610.811 182.914 630.748 160.599C648.468 140.774 671.113 125.905 695.368 115.331C744.107 94.0779 802.386 90.8918 852.222 110.123C875.037 118.928 912.512 138.879 907.473 168.548C906.593 173.71 904.411 179.5 899.75 182.332C895.831 184.707 890.347 183.793 886.12 182.971C872.947 180.402 860.036 175.948 846.932 172.944C831.165 169.336 815.011 166.561 798.787 166.675C783.283 166.778 768.374 170.763 754.23 176.884C730.18 187.288 708.507 204.441 693.403 225.842C683.36 240.071 669.776 265.629 688.364 278.831C691.232 280.863 694.397 282.2 697.71 283.045C687.77 284.701 677.888 286.596 668.302 289.977C660.727 292.649 653.084 296.338 648.388 303.098C646.229 306.204 644.938 310.555 647.828 313.57C649.725 315.546 652.307 316.951 654.718 318.15C670.758 326.121 689.838 329.227 707.421 331.511C717.018 332.756 727.895 334.149 738.36 333.601C744.518 334.971 750.802 333.784 756.206 330.735C761.45 330.244 766.694 329.741 771.938 329.216C789.658 327.457 807.584 325.95 825.099 322.638C829.6 321.781 835.107 320.913 836.695 315.9C838.66 309.676 833.302 305.005 828.538 302.139C813.48 293.083 794.24 289.668 777.388 285.523C771.755 284.141 766.191 282.691 760.65 281.058C759.588 280.075 758.457 279.15 757.269 278.283C755.783 277.209 754.195 276.353 752.55 275.633C760.159 271.922 768.042 268.941 775.983 267.068C802.032 260.936 830.891 261.712 856.872 267.788C882.612 273.806 901.738 289.486 913.265 313.262C925.17 337.815 928.004 366.239 930.643 393.031C934.15 428.684 939.977 463.96 941.919 499.785C943.565 530.219 942.228 561.339 947.358 591.499C949.814 605.911 949.106 621.945 942.959 635.363C939.92 642.01 934.859 643.985 928.004 645.139C924.656 645.698 921.252 645.949 917.893 646.372C914.557 646.794 911.232 647.891 907.907 648.131C897.545 648.884 888.645 637.784 878.134 640.331C871.416 641.964 874.352 652.447 875.403 656.798C877.3 664.655 882.315 674.636 880.898 682.836C879.539 690.716 863.738 690.887 858.14 691.058C840.831 691.584 818.358 689.243 811.4 709.33C804.214 730.046 820.06 753.24 832.845 768.223C841.185 777.987 850.862 786.358 863.43 789.807C876.763 793.462 891.284 791.897 904.457 788.425C929.798 781.745 958.474 764.055 965.432 737.115C965.912 735.254 964.541 733.598 962.679 733.507C962.427 733.495 962.176 733.495 961.925 733.484C982.775 731.086 996.634 714.024 1004.3 694.599C1016.18 664.461 1017.35 629.916 1017.38 597.94C1017.42 561.578 1014.34 525.24 1010.25 489.141C1007.52 465.022 1003.71 441.04 1001.11 416.91C999.936 405.901 999.479 394.721 999.73 383.495C1002.2 404.633 1006.41 425.635 1011.06 446.259C1014.9 463.264 1019.35 479.868 1025.17 496.313C1030.97 512.667 1038.68 528.94 1042.84 545.796C1045.82 557.856 1047.19 570.223 1051.43 581.975C1054.88 591.51 1060.26 598.111 1068.84 603.341C1077.53 608.64 1094.98 614.761 1093.32 626.581L1093.36 626.558ZM769.528 294.419C782.186 297.834 795.097 300.38 807.584 304.446C813.228 306.284 820.392 308.329 825.19 312.131C824.265 312.348 823.339 312.543 822.414 312.714C804.317 316.254 785.922 317.784 767.528 319.292C769.436 315.831 770.727 311.903 771.139 307.655C771.596 303.053 770.99 298.576 769.539 294.419H769.528Z" fill="#3F55E9"/>
<path d="M798.741 759.042C781.923 723.754 757.005 692.235 723.679 671.268C685.862 647.48 638.86 638.298 594.691 643.517C520.291 652.299 462.892 704.591 430.445 769.297C427.988 769.845 425.578 771.227 423.247 773.842C419.717 777.805 418.471 784.029 417.249 789.008C415.672 795.472 414.781 802.141 413.753 808.707C413.604 809.667 413.479 810.626 413.342 811.574C410.805 819.625 408.634 827.756 406.852 835.921C400.614 864.46 400.763 892.987 400.18 921.982C399.494 956.174 398.066 990.377 394.742 1024.43C391.314 1059.55 386.356 1095.41 374.439 1128.78C372.92 1133.02 371.195 1137.51 369.195 1142.01H375.513C386.744 1116.97 391.874 1088.63 395.896 1061.97C401.322 1026.02 403.676 989.623 404.99 953.319C405.87 929.063 405.652 904.772 406.669 880.528C407.138 869.473 408.349 858.35 410.257 847.284C409.56 868.56 410.611 889.949 412.153 911.031C413.421 928.412 415.352 945.508 418.677 962.626C421.979 979.653 427.189 996.898 428.8 1014.19C429.953 1026.56 429.474 1038.99 431.93 1051.23C433.918 1061.18 438.259 1068.5 445.983 1074.95C453.797 1081.49 470.135 1090.13 466.742 1101.56C460.493 1096.4 456.425 1088.23 448.713 1085.4C437.734 1081.36 430.193 1095.69 427.28 1103.95C423.03 1116.02 422.939 1129.29 422.607 1142.02H432.684C432.913 1137.39 433.152 1132.74 433.461 1128.09C433.907 1121.4 434.661 1114.55 436.683 1108.13C437.505 1105.52 441.573 1094.7 445.103 1095.02C448.016 1095.28 451.684 1101.08 453.443 1103.02C457.305 1107.29 461.406 1111.09 466.616 1113.66C468.57 1114.61 471.438 1114 472.706 1112.18C478.407 1104.01 479.389 1095.49 474.202 1086.83C469.564 1079.09 461.029 1073.79 454.106 1068.32C451.135 1065.98 448.222 1063.54 446.04 1060.43C442.807 1055.8 441.904 1049.48 441.116 1044.03C439.322 1031.56 440.27 1018.84 438.02 1006.43C434.763 988.515 430.536 970.78 427.28 952.862C424.195 935.915 422.927 918.762 421.796 901.598C419.568 867.783 420.128 834.425 425.418 800.93C426.115 796.522 426.697 791.258 428.217 786.598C428.914 784.965 429.622 783.344 430.342 781.733C430.627 781.242 430.925 780.774 431.256 780.317C433.781 776.834 442.635 782.795 447.16 785.502C437.551 798.452 436.923 817.227 448.805 829.492C455.568 836.469 464.583 840.409 474.18 842.716C464.057 845.229 451.421 849.991 449.227 860.828C447.102 871.369 463.029 875.503 470.204 877.319C486.107 881.327 502.879 882.332 519.194 883.189C531.956 883.862 544.718 883.988 557.479 884.331C570.207 884.673 588.932 887.174 599.181 877.741C599.775 877.193 600.255 876.611 600.689 876.028C600.791 876.028 600.883 876.005 600.986 875.983C604.185 879.477 607.052 883.371 609.623 887.642C624.555 912.447 626.715 944.217 629.982 972.31C635.135 1016.61 635.306 1061.45 635.364 1106C635.386 1117.87 634.907 1130.43 631.673 1142.02H637.728C640.105 1132.62 640.642 1122.52 640.927 1113.23C641.316 1100.63 640.482 1087.62 640.573 1075.89C640.859 1041.77 639.591 1007.55 635.878 973.612C632.827 945.77 630.062 916.078 617.643 890.566C614.456 884.011 610.377 877.616 605.441 872.077C605.647 871.186 605.601 870.181 605.179 869.096C601.271 859.001 603.088 851.498 611.737 845.72C622.59 838.468 637.454 836.892 650.09 835.704C677.99 833.089 706.404 834.871 734.373 837.988C727.655 839.359 721.017 841.209 714.642 843.653C708.186 846.119 700.829 849.637 696.819 855.529C692.82 861.411 694.225 868.708 698.041 874.327C702.268 880.551 710.209 883.189 717.247 884.456C736.064 887.859 756.754 883.326 774.977 878.689C782.632 876.736 790.252 874.555 797.656 871.78C805.436 868.868 815.604 863.363 818.015 854.81C822.436 839.13 794.777 836.161 784.357 834.425C753.292 829.24 721.794 825.689 690.306 824.65C673.02 824.079 655.563 824.227 638.425 826.728C625.972 828.544 611.999 831.639 602.174 840.044C597.467 844.075 594.759 848.963 593.639 854.25C586.647 848.106 577.199 845.708 568.047 843.904C553.938 841.117 539.976 840.923 525.855 840.855C514.487 837.84 501.805 838.08 489.935 839.713C476.979 838.399 464.046 835.247 454.517 827.094C446.874 820.561 444.349 809.884 446.12 800.268C447.034 795.3 449.524 790.995 452.838 787.318C470.798 803.877 495.75 811.517 519.423 815.674C538.731 819.065 559.764 820.242 578.89 815.354C592.714 811.814 607.772 798.783 598.644 783.652C590.863 770.759 570.172 767.173 556.771 764.763C524.313 758.939 482.006 756.164 454.563 778.01C454.174 777.668 453.717 777.359 453.181 777.108C447.662 774.584 441.893 770.61 436.26 769.4C462.778 717.599 505.964 674.716 561.775 656.559C607.03 641.827 658.568 645.95 701.651 665.797C738.166 682.619 766.42 712.186 786.014 746.857C806.75 783.538 817.764 825.312 823.807 866.755C830.046 909.58 830.708 953.182 827.658 996.304C824.15 1045.88 814.496 1094.3 800.855 1142.02H806.75C819.203 1098.24 828.378 1053.76 832.411 1008.31C839.768 925.397 835.061 835.316 798.73 759.065L798.741 759.042ZM750.905 849.157C752.276 847.535 753.955 846.233 755.829 845.251C761.301 844.943 766.774 845.137 771.995 846.222C775.274 846.907 777.171 847.867 775.274 851.898C772.498 857.779 762.192 860.371 756.389 859.846C749.671 859.229 746.586 854.296 750.905 849.157ZM739.742 847.375C737.057 853.36 738.348 860.269 743.764 865.111C757.074 877.022 792.686 864.791 785.465 845.023C786.768 845.251 788.081 845.457 789.384 845.697C792.137 846.188 809.252 849.557 807.927 852.697C806.373 856.409 800.078 859.618 796.65 861.091C793.84 862.301 790.926 863.295 788.013 864.266C770.156 870.204 751.156 874.384 732.316 875.08C725.13 875.343 716.127 875.229 709.775 871.312C707.398 869.85 705.867 867.966 704.976 865.339C704.119 862.85 704.53 862.187 705.993 860.44C708.803 857.094 713.602 855.175 717.521 853.554C723.667 851.018 730.134 849.317 736.635 847.992C737.663 847.787 738.703 847.581 739.742 847.375ZM591.789 860.36C591.949 860.554 592.109 860.76 592.28 860.965C583.083 855.289 572.686 851.555 562.324 848.609C572.812 850.071 585.299 852.263 591.8 860.371L591.789 860.36ZM581.026 861.479C586.076 863.775 590.578 866.607 594.622 869.93C594.919 870.924 595.25 871.906 595.627 872.888C595.673 873.002 595.719 873.093 595.764 873.208C593.742 875.663 589.366 876.702 586.67 877.342C574.468 880.208 561.547 878.712 549.128 878.472C547.482 878.438 545.826 878.404 544.181 878.369C544.546 877.947 544.912 877.501 545.255 877.022C549.173 871.449 549.585 863.386 547.62 857.06C546.82 854.479 545.403 852.229 543.609 850.299C556.497 852.195 569.201 856.1 581.026 861.479ZM532.196 849.077C536.446 851.064 540.17 854.01 542.033 858.407C544.443 864.094 543.141 872.888 537.748 876.451C536.48 877.284 535.098 877.81 533.647 878.084C531.453 878.015 529.248 877.935 527.055 877.844C519.32 876.085 511.277 869.816 507.861 864.768C504.856 860.326 505.781 856.157 510.203 853.28C516.349 849.283 524.518 848.666 532.196 849.077ZM501.645 846.062C504.867 846.233 508.1 846.313 511.322 846.348C508.009 847.684 504.981 849.568 502.776 852.229C495.407 861.114 504.89 871.826 512.511 877.067C509.163 876.85 505.815 876.599 502.479 876.314C488.472 875.103 472.363 874.133 459.624 867.577C448.108 861.65 461.795 852.903 468.581 850.379C475.219 847.912 482.451 846.188 489.843 845.217C493.876 845.617 497.841 845.868 501.634 846.062H501.645ZM468.479 775.978C484.439 767.972 502.251 766.305 519.822 766.83C538.091 767.367 557.045 769.183 574.491 774.893C581.243 777.097 588.738 780.146 593.262 785.89C597.821 791.68 595.353 799.309 590.189 803.774C582.5 810.42 570.664 811.688 560.964 812.407C550.716 813.173 540.353 812.613 530.162 811.46C504.879 808.582 476.225 801.182 456.939 783.401C460.504 780.42 464.548 777.953 468.479 775.978Z" fill="#3F55E9"/>
<path d="M22.4697 892.325C41.3095 905.549 63.097 916.444 84.5874 924.575C92.5163 927.578 100.262 931.118 107.689 935.207C111.242 937.171 114.647 939.398 117.8 941.967C119.308 943.201 122.244 946.284 122.21 947.163C122.176 948.054 120.245 949.733 118.314 949.619C113.961 949.379 109.654 946.535 106.112 944.251C97.4634 938.656 89.8772 931.598 81.3427 925.865C45.1711 901.575 33.0035 975.496 29.1533 996.247C27.1768 1006.9 24.709 1017.46 23.9207 1028.3C23.0523 1040.24 24.3662 1051.94 27.4281 1063.48C30.2729 1074.19 34.8886 1084.36 39.2187 1094.54C44.4057 1106.72 49.0785 1119.07 52.4831 1131.88C53.3743 1135.23 54.1512 1138.61 54.8824 1142H65.2791C63.5311 1133.91 61.5774 1125.86 59.1096 1117.95C52.1518 1095.63 39.4815 1075.01 35.2657 1051.88C31.3355 1030.28 37.0937 1008.48 41.3209 987.328C44.737 970.209 48.313 948.602 60.6634 935.344C65.1992 930.467 70.5689 930.981 75.7102 934.43C84.3246 940.22 91.9908 947.3 100.719 952.953C107.38 957.259 116.874 962.603 124.826 958.446C131.67 954.883 134.412 947.654 130.447 940.848C126.46 933.996 118.554 929.588 111.87 925.819C104.49 921.663 96.675 918.225 88.7689 915.187C67.1071 906.862 45.2283 896.036 26.3313 882.48C3.32137 865.99 -11.3826 843.207 -15.0272 814.965C-18.9003 784.942 -11.7825 753.994 -4.19628 725.101C3.1957 696.917 11.3417 669.086 24.332 642.9C37.5735 616.212 55.4422 591.236 78.4636 572.131C98.9258 555.149 123.535 543.809 149.093 536.946C200.448 523.15 258.556 528.655 304.987 555.069C326.249 567.163 360.341 592.447 350.95 621.042C349.316 626.022 346.3 631.423 341.273 633.525C337.046 635.295 331.756 633.57 327.7 632.131C315.053 627.632 302.953 621.317 290.443 616.406C275.385 610.502 259.824 605.363 243.76 603.067C228.405 600.875 213.084 602.599 198.186 606.55C172.857 613.277 148.876 627.015 130.767 645.949C118.725 658.534 101.496 681.797 117.914 697.602C120.45 700.046 123.375 701.827 126.529 703.164C116.452 703.324 106.398 703.735 96.4123 705.653C88.5176 707.172 80.4173 709.684 74.7733 715.669C72.1798 718.421 70.2604 722.532 72.6597 725.935C74.2363 728.162 76.5785 729.944 78.7949 731.485C93.4761 741.74 111.882 747.656 128.928 752.509C138.239 755.159 148.784 758.162 159.215 759.167C165.099 761.429 171.497 761.2 177.29 758.985C182.545 759.27 187.812 759.556 193.068 759.818C210.857 760.709 228.805 761.874 246.617 761.189C251.198 761.017 256.774 760.972 259.081 756.244C261.949 750.374 257.345 744.972 253.06 741.432C239.51 730.24 221.002 724.017 204.938 717.416C199.58 715.212 194.29 712.951 189.046 710.518C188.144 709.388 187.161 708.303 186.11 707.275C184.796 705.996 183.357 704.911 181.837 703.952C189.914 701.405 198.152 699.635 206.286 698.961C232.964 696.757 261.389 701.816 286.17 711.672C310.734 721.436 327.323 739.788 335.183 765.003C343.307 791.052 341.901 819.579 340.53 846.462C338.714 882.241 339.239 917.985 335.835 953.707C332.944 984.05 327.003 1014.62 327.597 1045.22C327.883 1059.83 324.798 1075.58 316.743 1087.94C312.745 1094.06 307.443 1095.27 300.497 1095.38C297.104 1095.44 293.699 1095.18 290.317 1095.1C286.958 1095.02 283.508 1095.61 280.183 1095.36C269.832 1094.57 262.68 1082.27 251.895 1083.23C245.006 1083.85 246.354 1094.65 246.742 1099.11C247.451 1107.16 250.935 1117.77 248.308 1125.67C245.794 1133.26 230.142 1131.08 224.578 1130.42C207.383 1128.38 185.504 1122.72 175.645 1141.55C175.576 1141.69 175.508 1141.84 175.439 1141.98H181.871C191.765 1127.53 215.529 1135.82 230.61 1136.7C238.459 1137.16 246.571 1136.08 252.272 1130.19C257.048 1125.25 254.214 1113.46 253.495 1107.63C252.946 1103.19 252.341 1098.76 252.146 1094.3C251.929 1089.38 252.078 1087.87 256.865 1089.91C261.961 1092.09 266.473 1095.65 271.363 1098.24C276.733 1101.08 281.177 1100.95 287.05 1100.75C298.064 1100.37 310.894 1103.65 319.154 1094.29C328.077 1084.16 331.482 1068.92 332.83 1055.89C334.121 1043.45 333.492 1030.8 334.589 1018.3C336.074 1001.33 338.017 984.427 340.073 967.525C344.426 931.712 345.192 895.534 345.751 859.503C346.174 831.901 348.973 804.493 343.958 777.097C339.571 753.126 328.146 730.161 307.512 716.251C286.97 702.41 260.464 696.506 236.197 693.902C219.939 692.155 202.151 691.755 186.361 696.62C182.443 697.831 178.535 699.178 174.662 700.651C168.15 698.493 160.929 697.888 154.44 697.431C144.397 696.711 131.156 697.134 123.752 689.014C117.491 682.151 124.266 671.073 128.391 664.998C142.558 644.099 164.288 630.236 187.367 620.974C202.345 614.967 218.568 611.552 234.746 612.5C251.255 613.471 267.193 618.621 282.56 624.389C295.63 629.299 308.186 635.272 321.073 640.593C330.293 644.396 340.073 646.349 349.053 640.982C360.044 634.404 363.609 618.233 362.261 606.55C360.615 592.321 351.567 579.554 341.593 569.824C322.856 551.529 299.206 538.544 274.471 530.379C224.235 513.786 167.282 516.321 118.451 536.466C64.5365 558.712 27.9994 605.363 6.07479 658.123C-4.97319 684.709 -12.3423 713.373 -18.8089 741.375C-25.3897 769.925 -29.7997 800.645 -22.8419 829.537C-16.4439 856.077 0.385145 876.862 22.4354 892.347L22.4697 892.325ZM195.444 738.383C196.575 733.895 196.644 729.384 195.821 725.056C207.829 730.309 220.225 734.74 231.97 740.61C237.283 743.271 244.058 746.343 248.239 750.819C247.291 750.888 246.354 750.945 245.406 750.991C226.977 751.813 208.56 750.591 190.154 749.346C192.565 746.206 194.405 742.517 195.456 738.372L195.444 738.383ZM143.312 745.76C141.141 744.436 139.165 742.871 137.508 741.044C131.51 734.42 135.783 728.288 141.29 723.845C138.833 730.492 141.21 739.319 145.049 746.149C144.466 746.023 143.883 745.897 143.312 745.772V745.76ZM161.775 711.957C163.191 711.9 164.631 711.946 166.128 712.197C171.749 713.156 177.29 715.988 182.534 718.706C183.528 720.179 184.328 721.721 184.899 723.32C177.667 716.651 166.996 713.396 157.182 714.23C158.69 713.453 160.232 712.688 161.775 711.946V711.957ZM151.504 726.689C154.828 723.674 160.701 724.017 165.316 724.896C172.811 726.312 183.379 731.816 181.94 740.77C181.643 742.62 181.037 744.139 180.18 745.338C180.02 745.52 179.883 745.703 179.723 745.874C179.335 746.297 178.924 746.674 178.524 747.039C177.781 747.587 176.947 747.999 176.01 748.238C175.759 748.307 175.496 748.341 175.245 748.398C170.184 748.101 165.134 747.839 160.072 747.667C157.902 746.16 155.925 744.173 154.314 741.866C152.178 738.805 150.624 734.957 150.201 731.234C149.961 729.144 150.761 727.363 151.504 726.689ZM147.928 712.951C146.979 713.464 146.031 713.967 145.094 714.492C135.577 719.825 123.649 729.852 131.11 741.9C131.304 742.209 131.521 742.494 131.727 742.791C124.632 740.747 117.651 738.337 110.808 735.745C104.124 733.21 97.5433 730.366 91.2139 727.031C88.5633 725.638 85.3643 723.822 83.0222 721.892C86.7467 717.884 93.8988 716.582 98.7315 715.657C108.626 713.761 118.828 713.419 128.882 713.19C135.223 713.042 141.575 713.133 147.928 712.962V712.951Z" fill="#3F55E9"/>
<path d="M199.729 1142H239.876C237.157 1140.36 234.346 1138.88 231.022 1138.09C222.281 1136.02 209.748 1137.31 199.729 1142Z" fill="#3F55E9"/>
<path d="M799.015 6.38379C788.664 41.6602 776.325 76.3313 762.924 110.546C752.996 135.921 742.107 160.839 728.409 184.433C721.794 195.842 714.322 206.828 705.502 216.649C699.332 223.524 690.261 232.705 680.869 234.887C669.787 237.456 656.317 228.012 647.737 222.313C633.067 212.583 619.7 200.832 607.11 188.578C595.639 177.421 584.602 165.51 575.325 152.434C572.652 148.666 570.07 144.737 568.368 140.42C567.945 139.335 567.545 137.634 567.591 137.029C567.648 136.366 567.419 136.766 567.842 136.686C571.795 135.944 577.599 138.296 581.701 138.753C589.607 139.644 597.604 139.804 605.544 139.564C621.105 139.096 638.928 137.109 652.044 127.973C665.457 118.631 663.069 103.408 655.437 91.0288C654.763 89.9325 653.21 89.647 652.078 90.0695C634.701 96.636 617.963 104.573 599.067 105.064C577.747 105.624 557.045 97.3212 536.492 92.3307C542.798 82.9206 546.694 70.9982 555.526 63.952C562.609 58.2991 570.298 61.8622 577.176 65.4709C583.106 68.5885 588.955 70.5756 595.719 70.0275C600.529 69.6278 604.79 67.024 608.572 64.2261C614.079 60.1492 618.9 56.8374 625.915 56.0265C632.987 55.2157 640.082 58.9501 645.978 64.3974C650.353 71.0324 654.443 77.8387 659.322 84.1426C661.333 86.7463 665.354 84.4395 664.269 81.3903C661.767 74.2985 657.071 67.3095 651.164 61.7023C647.634 56.3463 643.887 51.173 639.271 46.7078C629.537 37.2977 615.336 37.2178 603.305 42.0028C598.415 43.9556 593.697 48.5693 588.156 48.0668C582.043 47.5072 577.096 41.0207 573.543 36.6011C570.333 32.6155 558.633 17.8381 560.656 10.358C568.31 22.8629 586.293 31.6448 598.769 22.0635C610.96 27.8534 624.076 27.3852 631.742 14.7547C634.495 10.2209 636.381 5.20753 637.706 -0.0228271H631.651C631.079 2.02135 630.428 4.05411 629.674 6.02977C627.709 11.1688 624.636 16.4905 619.506 18.9915C613.005 22.1548 605.453 19.1514 599.546 16.0794C598.312 15.4399 597.056 16.0337 596.165 16.9016C585.539 27.1796 568.025 14.6747 563.809 3.96275C563.101 2.15839 560.987 1.74727 559.456 2.72939C550.042 8.77057 557.48 22.4289 561.558 29.3951C567.088 38.828 576.365 52.7033 588.373 53.8111C594.177 54.3478 599.261 50.248 604.185 47.8498C611.623 44.2411 621.288 43.1562 628.966 46.468C632.028 47.7927 634.655 49.8826 636.986 52.3265C635.924 51.8925 634.85 51.4928 633.764 51.1616C627.446 49.2659 620.58 50.4878 614.707 53.2401C609.029 55.9009 604.79 60.8344 599.032 63.3353C591.343 66.6814 583.574 62.3646 576.856 58.8815C570.058 55.3413 563.443 54.028 556.188 57.0429C549.688 59.738 545.689 66.0304 542.193 71.7975C538.034 78.6724 534.504 86.0954 529.385 92.3421C527.934 94.1008 529.134 96.5104 531.191 96.9558C553.252 101.741 574.994 110.808 597.867 110.751C617.152 110.705 634.278 103.031 651.919 96.2592C655.563 102.666 658.077 110.123 654.535 117.101C651.279 123.507 643.384 126.808 636.986 128.989C620.477 134.596 601.511 134.882 584.305 133.294C578.913 132.792 573.509 131.01 568.116 130.942C564.951 130.907 562.381 133.066 561.924 136.184C560.679 144.851 570.241 155.46 575.005 161.639C585.185 174.829 596.884 186.911 609.006 198.308C621.539 210.082 634.93 221.274 649.622 230.284C658.602 235.789 670.953 243.018 682.001 240.448C690.649 238.438 698.75 231.426 704.919 225.397C714.002 216.512 721.485 206.234 728.272 195.545C741.913 174.041 752.938 150.675 762.455 127.093C776.188 93.0502 788.79 58.5504 799.724 23.5024C802.157 15.6911 804.488 7.85697 806.727 1.28504e-05H800.832C800.226 2.12413 799.621 4.25967 798.993 6.38379H799.015Z" fill="#3F55E9"/>
<path d="M368.613 13.6012C371.161 9.20452 373.434 4.64794 375.514 0H369.196C361.038 18.3748 348.448 36.9437 327.929 39.8101C322.147 40.6209 316.309 39.8672 310.688 38.4055C299.675 35.5276 294.67 27.9676 289.026 18.7174C283.862 10.2552 276.185 2.5124 265.365 4.84208C258.67 6.29242 254.306 8.23382 247.679 4.71646C244.903 3.24328 242.424 1.5417 239.876 0H199.729C192.211 3.52878 186.099 8.9647 184.099 16.3534C181.54 25.7521 191.137 33.0952 197.981 37.2635C210.674 44.9948 224.989 48.2723 239.67 49.46C265.4 51.5385 291.506 46.7192 317.063 50.8989C306.975 70.1074 284.022 80.4196 263.709 84.5994C242.641 88.9275 217.472 87.4544 202.276 70.5071C194.279 61.5881 188.155 50.8647 183.539 39.8672C179.244 29.6349 175.553 16.9359 179.049 5.9384C179.792 3.62014 180.752 1.66732 181.894 0.01142H175.462C165.671 19.3797 177.781 44.4238 188.132 61.0056C194.93 71.8889 203.259 81.6073 215.175 86.8834C227.811 92.4792 242.412 93.0844 255.962 91.5998C282.011 88.7448 312.996 75.509 323.873 49.9054C324.627 48.1353 323.518 46.2853 321.69 45.9198C321.439 45.8741 321.199 45.8285 320.948 45.7828C341.924 46.5022 358.159 31.6905 368.624 13.6126L368.613 13.6012ZM231.49 42.8364C217.929 40.9978 200.414 36.0187 191.571 24.7243C184.648 15.8738 196.53 8.1082 203.533 5.01338C212.982 0.83366 225.8 -1.18768 235.34 3.66582C240.927 6.5094 245.36 10.9175 251.632 12.3222C257.882 13.7154 262.635 10.849 268.656 10.061C280.081 8.565 286.124 25.9919 291.563 33.0266C296.453 39.3533 303.251 42.4139 310.7 44.2639C284.468 41.5003 257.722 46.3995 231.479 42.8478L231.49 42.8364Z" fill="#3F55E9"/>
<path d="M422.63 1.28504e-05C422.608 1.03923 422.573 2.07845 422.539 3.11767C422.094 16.9016 420.38 30.7312 418.38 44.3667C416.747 55.5469 414.267 66.5558 411.525 77.5076C408.041 91.4514 404.99 105.726 399.495 119.042C391.269 138.993 376.645 155.118 356.971 164.197C337.092 173.367 314.379 175.034 292.785 174.018C267.479 172.83 242.413 167.748 217.883 161.616C177.267 151.452 131.876 137.954 103.976 104.607C91.534 89.7384 83.6279 71.8775 77.7212 53.5598C72.0772 36.0415 69.1182 17.8952 65.2337 -0.0114071H54.8369C57.0991 10.5749 58.7671 21.3212 61.2121 31.8618C63.7941 42.9621 66.8446 53.9595 70.6377 64.7057C76.9443 82.578 85.8786 99.6966 98.4804 113.937C127.5 146.724 172.263 160.417 213.279 170.992C257.882 182.492 309.215 192.621 353.978 176.508C373.674 169.416 390.286 155.86 401.243 138.056C407.675 127.596 411.971 116.21 415.136 104.379C418.723 90.9603 422.288 77.4961 425.258 63.9178C427.772 52.395 429.383 40.7123 430.685 28.9954C431.759 19.3112 432.228 9.64991 432.696 -0.0228271H422.619L422.63 1.28504e-05Z" fill="#3F55E9"/>
<path d="M1067.63 192.747C1072.72 194.928 1077.24 198.48 1082.13 201.072C1087.5 203.916 1091.94 203.779 1097.81 203.584C1108.83 203.208 1121.66 206.485 1129.92 197.121C1138.84 186.991 1142.25 171.757 1143.59 158.727C1144.88 146.279 1144.26 133.637 1145.35 121.132C1146.84 104.162 1148.78 87.2602 1150.84 70.3586C1153.68 47.0161 1154.98 23.5252 1155.72 0.01142H1149.63C1149.1 18.8658 1148.39 37.6974 1146.6 56.5404C1143.71 86.8834 1137.77 117.455 1138.36 148.049C1138.65 162.666 1135.56 178.415 1127.51 190.771C1123.51 196.892 1118.21 198.103 1111.26 198.217C1107.87 198.274 1104.46 198.011 1101.08 197.931C1097.72 197.852 1094.27 198.445 1090.95 198.194C1080.6 197.406 1073.44 185.107 1062.66 186.066C1055.77 186.683 1057.12 197.486 1057.51 201.94C1058.21 209.991 1061.7 220.6 1059.07 228.503C1056.56 236.097 1040.91 233.916 1035.34 233.254C1018.15 231.209 996.268 225.556 986.408 244.388C976.229 263.813 988.453 289.097 998.873 305.805C1005.67 316.688 1014 326.406 1025.92 331.682C1038.55 337.278 1053.15 337.884 1066.7 336.399C1092.75 333.544 1123.74 320.308 1134.61 294.705C1135.37 292.934 1134.26 291.084 1132.43 290.719C1132.18 290.673 1131.94 290.628 1131.69 290.582C1152.66 291.301 1168.9 276.49 1179.36 258.412C1195.59 230.364 1201.87 196.39 1206.66 164.756C1212.09 128.806 1214.44 92.4107 1215.75 56.1065C1216.43 37.4119 1216.46 18.6945 1216.91 0H1211.44C1211.22 8.23382 1211.12 16.4791 1210.94 24.7814C1210.26 58.9729 1208.83 93.1758 1205.51 127.23C1202.08 162.347 1197.12 198.206 1185.2 231.575C1177.51 253.124 1164.23 281.058 1138.69 284.621C1132.91 285.431 1127.07 284.678 1121.45 283.216C1110.44 280.338 1105.43 272.778 1099.79 263.528C1094.63 255.066 1086.95 247.323 1076.13 249.653C1069.43 251.103 1065.07 253.044 1058.44 249.527C1052.71 246.489 1048.23 242.435 1041.77 240.905C1026.46 237.273 999.536 243.931 994.851 261.164C992.292 270.563 1001.89 277.906 1008.73 282.074C1021.43 289.805 1035.74 293.083 1050.42 294.271C1076.15 296.349 1102.26 291.53 1127.82 295.71C1117.73 314.918 1094.77 325.23 1074.46 329.41C1053.39 333.738 1028.22 332.265 1013.03 315.318C1005.03 306.399 998.907 295.675 994.291 284.678C989.996 274.445 986.305 261.746 989.801 250.749C996.942 228.343 1024.57 238.552 1041.39 239.546C1049.23 240.003 1057.35 238.929 1063.05 233.037C1067.82 228.092 1064.98 216.306 1064.27 210.471C1063.72 206.04 1063.12 201.609 1062.92 197.143C1062.7 192.221 1062.85 190.714 1067.64 192.758L1067.63 192.747ZM1042.24 287.647C1028.68 285.808 1011.17 280.829 1002.32 269.535C995.4 260.684 1007.28 252.919 1014.29 249.824C1023.73 245.644 1036.55 243.623 1046.09 248.476C1051.68 251.32 1056.11 255.728 1062.38 257.133C1068.63 258.526 1073.39 255.66 1079.41 254.872C1090.83 253.376 1096.88 270.802 1102.31 277.837C1107.2 284.164 1114 287.224 1121.45 289.074C1095.22 286.311 1068.47 291.21 1042.23 287.658L1042.24 287.647Z" fill="#3F55E9"/>
<path d="M1607.35 259.234C1597.51 291.735 1586.05 323.734 1573.68 355.356C1563.75 380.731 1552.86 405.65 1539.16 429.244C1532.55 440.652 1525.07 451.638 1516.25 461.459C1510.08 468.334 1501.01 477.516 1491.62 479.697C1480.54 482.267 1467.07 472.822 1458.49 467.124C1443.82 457.394 1430.45 445.643 1417.86 433.389C1406.39 422.232 1395.35 410.321 1386.08 397.245C1383.4 393.476 1380.82 389.548 1379.12 385.231C1378.7 384.146 1378.3 382.444 1378.34 381.839C1378.4 381.177 1378.17 381.577 1378.59 381.497C1382.55 380.754 1388.35 383.107 1392.45 383.564C1400.36 384.454 1408.36 384.614 1416.3 384.374C1431.86 383.906 1449.68 381.919 1462.8 372.783C1476.21 363.442 1473.82 348.219 1466.19 335.839C1465.52 334.743 1463.96 334.458 1462.83 334.88C1445.45 341.447 1428.72 349.384 1409.82 349.875C1388.5 350.434 1367.8 342.132 1347.24 337.141C1353.55 327.731 1357.45 315.809 1366.28 308.763C1373.36 303.11 1381.05 306.673 1387.93 310.281C1393.86 313.399 1399.71 315.386 1406.47 314.838C1411.28 314.438 1415.54 311.835 1419.32 309.037C1424.83 304.96 1429.65 301.648 1436.67 300.837C1443.74 300.026 1450.83 303.761 1456.73 309.208C1461.11 315.843 1465.2 322.649 1470.07 328.953C1472.08 331.557 1476.11 329.25 1475.02 326.201C1472.52 319.109 1467.82 312.12 1461.92 306.513C1458.39 301.157 1454.64 295.984 1450.02 291.518C1440.29 282.108 1426.09 282.028 1414.06 286.813C1409.17 288.766 1404.45 293.38 1398.91 292.877C1392.8 292.318 1387.85 285.831 1384.3 281.412C1381.08 277.426 1369.39 262.649 1371.41 255.169C1379.06 267.673 1397.05 276.455 1409.52 266.874C1421.71 272.664 1434.83 272.196 1442.49 259.565C1450.19 246.889 1451.21 230.456 1451.66 216.009C1452.05 203.402 1451.21 190.394 1451.3 178.666C1451.59 144.543 1450.32 110.329 1446.61 76.3884C1443.82 50.9332 1441.25 23.9363 1431.33 -0.0114136H1425.36C1435.83 23.0798 1437.84 50.4878 1440.7 75.0751C1445.85 119.373 1446.02 164.22 1446.08 208.769C1446.1 222.736 1445.45 237.662 1440.41 250.84C1438.45 255.979 1435.38 261.301 1430.25 263.802C1423.75 266.965 1416.19 263.962 1410.29 260.89C1409.05 260.25 1407.8 260.844 1406.91 261.712C1396.28 271.99 1378.77 259.485 1374.55 248.773C1373.84 246.969 1371.73 246.558 1370.2 247.54C1360.78 253.581 1368.22 267.239 1372.3 274.206C1377.83 283.639 1387.11 297.514 1399.11 298.622C1404.92 299.158 1410 295.059 1414.93 292.66C1422.36 289.052 1432.03 287.967 1439.71 291.279C1442.77 292.603 1445.4 294.693 1447.73 297.137C1446.66 296.703 1445.59 296.303 1444.5 295.972C1438.19 294.076 1431.32 295.298 1425.45 298.051C1419.76 300.711 1415.53 305.645 1409.77 308.146C1402.08 311.492 1394.31 307.175 1387.6 303.692C1380.8 300.152 1374.18 298.839 1366.93 301.853C1360.43 304.549 1356.43 310.841 1352.93 316.608C1348.77 323.483 1345.24 330.906 1340.13 337.153C1338.68 338.911 1339.87 341.321 1341.93 341.766C1363.99 346.551 1385.73 355.619 1408.61 355.562C1427.89 355.516 1445.02 347.842 1462.66 341.07C1466.3 347.476 1468.82 354.934 1465.28 361.911C1462.02 368.318 1454.12 371.618 1447.73 373.799C1431.22 379.407 1412.25 379.692 1395.05 378.105C1389.65 377.602 1384.25 375.821 1378.86 375.752C1375.69 375.718 1373.12 377.876 1372.66 380.994C1371.42 389.662 1380.98 400.271 1385.75 406.449C1395.93 419.639 1407.62 431.722 1419.75 443.119C1432.28 454.893 1445.67 466.085 1460.36 475.095C1469.34 480.599 1481.69 487.828 1492.74 485.259C1501.39 483.249 1509.49 476.237 1515.66 470.207C1524.74 461.322 1532.23 451.044 1539.01 440.355C1552.65 418.851 1563.68 395.486 1573.2 371.904C1586.93 337.861 1599.53 303.361 1610.46 268.313C1610.48 268.267 1610.49 268.233 1610.5 268.187C1609.33 265.275 1608.36 262.237 1607.3 259.245L1607.35 259.234Z" fill="#3F55E9"/>
<path d="M1264.87 171.083C1261.9 168.742 1258.99 166.309 1256.8 163.192C1253.57 158.567 1252.67 152.24 1251.88 146.793C1250.09 134.322 1251.03 121.6 1248.78 109.198C1245.53 91.2801 1241.3 73.5448 1238.04 55.6268C1234.96 38.6795 1233.69 21.5267 1232.56 4.36244C1232.47 2.90068 1232.38 1.45034 1232.3 0H1222C1222.28 4.61368 1222.59 9.22736 1222.92 13.8182C1224.19 31.1994 1226.12 48.2952 1229.44 65.4138C1232.74 82.441 1237.95 99.6852 1239.56 116.975C1240.72 129.343 1240.24 141.779 1242.69 154.022C1244.68 163.968 1249.02 171.289 1256.75 177.741C1264.56 184.273 1280.9 192.918 1277.51 204.349C1271.26 199.188 1267.19 191.022 1259.48 188.19C1248.5 184.147 1240.96 198.48 1238.04 206.736C1233.45 219.801 1233.71 234.27 1233.28 247.928C1232.83 261.712 1231.12 275.542 1229.12 289.177C1227.49 300.357 1225.01 311.366 1222.27 322.318C1218.78 336.262 1215.73 350.537 1210.24 363.853C1202.01 383.803 1187.39 399.928 1167.71 409.007C1147.83 418.178 1125.12 419.845 1103.53 418.828C1078.22 417.641 1053.15 412.559 1028.62 406.426C988.008 396.263 942.616 382.764 914.716 349.418C902.275 334.549 894.369 316.688 888.462 298.382C880.259 272.949 877.745 246.215 869.816 220.749C862.858 198.434 850.188 177.809 845.972 154.684C842.042 133.077 847.8 111.276 852.027 90.1266C855.444 73.0081 859.02 51.4014 871.37 38.1428C875.906 33.2665 881.275 33.7804 886.417 37.2292C895.031 43.0191 902.697 50.0995 911.426 55.7524C918.087 60.0578 927.581 65.4023 935.533 61.2455C942.376 57.6824 945.118 50.4536 941.154 43.6472C937.167 36.7952 929.26 32.3871 922.577 28.6185C915.196 24.4616 907.382 21.0242 899.476 17.9865C886.325 12.9389 873.095 6.95478 860.505 0H840.42C857.489 11.0431 876.511 20.2705 895.305 27.3852C903.234 30.3886 910.98 33.9288 918.407 38.0172C921.96 39.9814 925.365 42.2083 928.518 44.7778C930.026 46.0112 932.962 49.0946 932.928 49.9739C932.894 50.8647 930.963 52.5434 929.032 52.4292C924.679 52.1894 920.372 49.3458 916.83 47.0618C908.181 41.466 900.595 34.4085 892.061 28.6756C855.889 4.38528 843.721 78.3069 839.871 99.0571C837.895 109.712 835.427 120.275 834.639 131.113C833.77 143.047 835.084 154.752 838.146 166.287C840.991 176.999 845.607 187.174 849.937 197.349C855.124 209.534 859.796 221.879 863.201 234.692C866.869 248.499 868.731 262.774 871.976 276.684C874.558 287.784 877.608 298.781 881.401 309.528C887.708 327.4 896.642 344.519 909.244 358.759C938.263 391.546 983.027 405.239 1024.04 415.814C1068.65 427.314 1119.98 437.443 1164.74 421.329C1184.44 414.238 1201.05 400.682 1212.01 382.878C1218.44 372.418 1222.73 361.032 1225.9 349.201C1229.49 335.782 1233.05 322.318 1236.02 308.74C1238.54 297.217 1240.15 285.534 1241.45 273.817C1243.04 259.485 1243.29 245.222 1244.24 230.867C1244.68 224.175 1245.44 217.323 1247.46 210.905C1248.28 208.312 1252.35 197.475 1255.88 197.794C1258.79 198.057 1262.46 203.858 1264.22 205.8C1268.08 210.071 1272.18 213.862 1277.39 216.432C1279.35 217.391 1282.21 216.774 1283.48 214.959C1289.18 206.782 1290.16 198.263 1284.98 189.606C1280.34 181.863 1271.8 176.565 1264.88 171.094L1264.87 171.083Z" fill="#3F55E9"/>
<path d="M451.616 1142C425.852 1136.92 398.935 1137.06 373.24 1142H451.616Z" fill="#3F55E9"/>
<path d="M-153.83 1142C-137.777 1126.85 -118.686 1115.05 -98.4754 1106.23C-49.7364 1084.98 8.54253 1081.79 58.3784 1101.03C76.3842 1107.98 103.507 1121.87 111.665 1142H122.256C118.177 1128.82 107.712 1118.04 96.8007 1110.17C75.5616 1094.86 50.2438 1085.53 24.5604 1081.12C-27.5833 1072.17 -83.5201 1083.11 -128.82 1110.28C-143.57 1119.13 -156.503 1129.86 -167.768 1142H-153.841H-153.83Z" fill="#3F55E9"/>
<path d="M1216.91 1142C1217.05 1136.44 1217.21 1130.88 1217.43 1125.32C1217.9 1114.26 1219.11 1103.14 1221.02 1092.07C1220.47 1108.71 1221.01 1125.42 1222 1142H1232.3C1230.4 1109.68 1231.12 1077.75 1236.18 1045.7C1236.88 1041.29 1237.46 1036.02 1238.98 1031.36C1239.68 1029.73 1240.39 1028.11 1241.11 1026.5C1241.39 1026.01 1241.69 1025.54 1242.02 1025.08C1244.55 1021.6 1253.4 1027.56 1257.92 1030.27C1248.32 1043.22 1247.69 1061.99 1259.57 1074.26C1266.33 1081.23 1275.35 1085.17 1284.94 1087.48C1274.82 1089.99 1262.19 1094.76 1259.99 1105.59C1257.87 1116.13 1273.79 1120.27 1280.97 1122.08C1296.87 1126.09 1313.64 1127.1 1329.96 1127.95C1342.72 1128.63 1355.48 1128.75 1368.24 1129.1C1380.97 1129.44 1399.7 1131.94 1409.94 1122.51C1410.54 1121.96 1411.02 1121.38 1411.45 1120.79C1411.56 1120.79 1411.65 1120.77 1411.75 1120.75C1414.95 1124.24 1417.82 1128.14 1420.39 1132.41C1422.25 1135.5 1423.91 1138.7 1425.4 1141.99H1431.38C1430.45 1139.75 1429.48 1137.52 1428.42 1135.34C1425.23 1128.79 1421.15 1122.39 1416.22 1116.85C1416.42 1115.96 1416.38 1114.96 1415.95 1113.87C1412.05 1103.78 1413.86 1096.27 1422.51 1090.5C1433.37 1083.24 1448.23 1081.67 1460.87 1080.48C1488.77 1077.87 1517.18 1079.65 1545.15 1082.76C1538.43 1084.13 1531.79 1085.98 1525.42 1088.43C1518.96 1090.9 1511.6 1094.41 1507.59 1100.31C1503.6 1106.19 1505 1113.48 1508.82 1119.1C1513.04 1125.33 1520.98 1127.96 1528.02 1129.23C1546.84 1132.64 1567.53 1128.1 1585.75 1123.47C1593.41 1121.51 1601.03 1119.33 1608.43 1116.56C1616.21 1113.64 1626.38 1108.14 1628.79 1099.59C1633.21 1083.91 1605.55 1080.94 1595.13 1079.2C1564.07 1074.02 1532.57 1070.47 1501.08 1069.43C1483.8 1068.85 1466.34 1069 1449.2 1071.5C1436.75 1073.32 1422.78 1076.41 1412.95 1084.82C1408.25 1088.85 1405.53 1093.74 1404.42 1099.03C1397.42 1092.88 1387.97 1090.48 1378.82 1088.68C1364.71 1085.89 1350.75 1085.7 1336.63 1085.63C1325.26 1082.62 1312.58 1082.86 1300.71 1084.49C1287.75 1083.18 1274.82 1080.02 1265.29 1071.87C1257.65 1065.34 1255.12 1054.66 1256.9 1045.04C1257.81 1040.08 1260.3 1035.77 1263.61 1032.09C1281.57 1048.65 1306.53 1056.29 1330.2 1060.45C1349.51 1063.84 1370.54 1065.02 1389.67 1060.13C1403.49 1056.59 1418.55 1043.56 1409.42 1028.43C1401.64 1015.53 1380.95 1011.95 1367.55 1009.54C1335.09 1003.72 1292.78 1000.94 1265.34 1022.79C1264.95 1022.44 1264.49 1022.14 1263.96 1021.88C1258.44 1019.36 1252.67 1015.39 1247.04 1014.18C1273.55 962.375 1316.74 919.493 1372.55 901.335C1417.81 886.603 1469.34 890.726 1512.43 910.574C1548.94 927.395 1577.2 956.962 1596.79 991.633C1616.91 1027.23 1627.87 1067.61 1634.01 1107.83V1074.92C1628.29 1050.38 1620.3 1026.5 1609.51 1003.84C1592.69 968.553 1567.77 937.034 1534.44 916.067C1496.63 892.279 1449.62 883.097 1405.45 888.316C1331.06 897.098 1273.66 949.39 1241.21 1014.1C1238.75 1014.64 1236.34 1016.03 1234.01 1018.64C1230.48 1022.6 1229.24 1028.83 1228.01 1033.81C1226.44 1040.27 1225.55 1046.94 1224.52 1053.51C1224.37 1054.47 1224.24 1055.43 1224.11 1056.37C1221.57 1064.42 1219.4 1072.56 1217.62 1080.72C1213.16 1101.09 1211.97 1121.47 1211.44 1142H1216.91ZM1561.67 1093.96C1563.03 1092.33 1564.72 1091.03 1566.59 1090.05C1572.07 1089.74 1577.54 1089.94 1582.76 1091.02C1586.04 1091.71 1587.94 1092.67 1586.04 1096.7C1583.26 1102.58 1572.96 1105.17 1567.15 1104.65C1560.43 1104.03 1557.35 1099.1 1561.67 1093.96ZM1550.51 1092.17C1547.82 1098.16 1549.11 1105.07 1554.53 1109.91C1567.84 1121.82 1603.45 1109.59 1596.23 1089.82C1597.53 1090.05 1598.85 1090.26 1600.15 1090.5C1602.9 1090.99 1620.02 1094.36 1618.69 1097.5C1617.14 1101.21 1610.84 1104.41 1607.41 1105.89C1604.6 1107.1 1601.69 1108.09 1598.78 1109.06C1580.92 1115 1561.92 1119.18 1543.08 1119.88C1535.89 1120.14 1526.89 1120.03 1520.54 1116.11C1518.16 1114.65 1516.63 1112.76 1515.74 1110.14C1514.88 1107.65 1515.29 1106.99 1516.76 1105.24C1519.57 1101.89 1524.37 1099.97 1528.29 1098.35C1534.43 1095.82 1540.9 1094.12 1547.4 1092.79C1548.43 1092.59 1549.47 1092.38 1550.51 1092.17ZM1402.55 1105.16C1402.71 1105.35 1402.87 1105.56 1403.04 1105.76C1393.85 1100.09 1383.45 1096.35 1373.09 1093.41C1383.58 1094.87 1396.06 1097.06 1402.56 1105.17L1402.55 1105.16ZM1391.79 1106.28C1396.84 1108.57 1401.34 1111.41 1405.39 1114.73C1405.68 1115.72 1406.01 1116.7 1406.39 1117.69C1406.44 1117.8 1406.48 1117.89 1406.53 1118.01C1404.51 1120.46 1400.13 1121.5 1397.43 1122.14C1385.23 1125.01 1372.31 1123.51 1359.89 1123.27C1358.25 1123.24 1356.59 1123.2 1354.94 1123.17C1355.32 1122.75 1355.68 1122.3 1356.02 1121.82C1359.94 1116.25 1360.35 1108.19 1358.38 1101.86C1357.58 1099.28 1356.17 1097.03 1354.37 1095.1C1367.26 1096.99 1379.97 1100.9 1391.79 1106.28ZM1342.96 1093.88C1347.21 1095.86 1350.93 1098.81 1352.8 1103.21C1355.21 1108.89 1353.91 1117.69 1348.51 1121.25C1347.24 1122.08 1345.86 1122.61 1344.41 1122.88C1342.22 1122.81 1340.01 1122.73 1337.82 1122.64C1330.08 1120.88 1322.04 1114.61 1318.62 1109.57C1315.62 1105.12 1316.55 1100.96 1320.97 1098.08C1327.11 1094.08 1335.28 1093.47 1342.96 1093.88ZM1312.41 1090.86C1315.63 1091.03 1318.86 1091.11 1322.09 1091.15C1318.77 1092.48 1315.75 1094.37 1313.54 1097.03C1306.17 1105.91 1315.65 1116.62 1323.27 1121.87C1319.93 1121.65 1316.58 1121.4 1313.24 1121.11C1299.24 1119.9 1283.13 1118.93 1270.39 1112.38C1258.87 1106.45 1272.56 1097.7 1279.35 1095.18C1285.98 1092.71 1293.22 1090.99 1300.61 1090.02C1304.64 1090.42 1308.61 1090.67 1312.4 1090.86H1312.41ZM1279.24 1020.78C1295.2 1012.77 1313.02 1011.1 1330.59 1011.63C1348.86 1012.17 1367.81 1013.98 1385.26 1019.69C1392.01 1021.9 1399.5 1024.95 1404.03 1030.69C1408.59 1036.48 1406.12 1044.11 1400.95 1048.57C1393.26 1055.22 1381.43 1056.49 1371.73 1057.21C1361.48 1057.97 1351.12 1057.41 1340.93 1056.26C1315.64 1053.38 1286.99 1045.98 1267.7 1028.2C1271.27 1025.22 1275.31 1022.75 1279.24 1020.78Z" fill="#3F55E9"/>
<path d="M833.222 1137.12C835.587 1138.78 837.997 1140.41 840.454 1142H860.539C852.393 1137.5 844.498 1132.6 837.072 1127.28C814.062 1110.79 799.358 1088.01 795.714 1059.76C791.84 1029.74 798.958 998.793 806.544 969.901C813.936 941.716 822.082 913.874 835.073 887.7C848.314 861.011 866.183 836.035 889.204 816.93C909.666 799.948 934.276 788.608 959.834 781.745C1011.19 767.949 1069.3 773.454 1115.73 799.868C1136.99 811.962 1171.08 837.246 1161.69 865.842C1160.06 870.821 1157.04 876.222 1152.01 878.324C1147.79 880.094 1142.5 878.369 1138.44 876.93C1125.79 872.431 1113.69 866.116 1101.18 861.205C1086.13 855.301 1070.56 850.162 1054.5 847.867C1039.16 845.674 1023.83 847.398 1008.93 851.35C983.598 858.076 959.617 871.814 941.508 890.749C929.466 903.333 912.237 926.596 928.655 942.401C931.191 944.845 934.116 946.627 937.269 947.963C927.192 948.123 917.138 948.534 907.153 950.452C899.258 951.971 891.158 954.484 885.514 960.468C882.921 963.22 881.001 967.331 883.4 970.734C884.977 972.961 887.319 974.743 889.536 976.284C904.217 986.54 922.622 992.455 939.669 997.309C948.98 999.958 959.525 1002.96 969.956 1003.97C975.852 1006.23 982.238 1005.99 988.031 1003.78C993.286 1004.07 998.553 1004.35 1003.81 1004.62C1021.6 1005.51 1039.55 1006.67 1057.36 1005.99C1061.94 1005.82 1067.51 1005.77 1069.82 1001.04C1072.69 995.173 1068.09 989.771 1063.8 986.231C1050.25 975.04 1031.74 968.816 1015.68 962.215C1010.32 960.011 1005.03 957.75 999.787 955.317C998.884 954.187 997.902 953.102 996.851 952.074C995.537 950.795 994.097 949.71 992.578 948.751C1000.66 946.204 1008.89 944.434 1017.03 943.76C1043.7 941.556 1072.13 946.615 1096.91 956.471C1121.47 966.235 1138.06 984.587 1145.92 1009.8C1154.05 1035.85 1152.64 1064.38 1151.27 1091.27C1150.41 1108.19 1150.07 1125.1 1149.6 1142H1155.69C1156.08 1129.44 1156.3 1116.88 1156.49 1104.33C1156.91 1076.72 1159.71 1049.32 1154.7 1021.92C1150.31 997.948 1138.89 974.983 1118.25 961.073C1097.71 947.232 1071.2 941.328 1046.94 938.724C1030.68 936.977 1012.89 936.577 997.102 941.442C993.183 942.653 989.276 944 985.403 945.473C978.891 943.315 971.67 942.71 965.181 942.253C955.138 941.533 941.896 941.956 934.493 933.836C928.232 926.973 935.007 915.895 939.132 909.82C953.299 888.921 975.029 875.058 998.107 865.796C1013.09 859.789 1029.31 856.374 1045.49 857.322C1062 858.293 1077.93 863.443 1093.3 869.211C1106.37 874.121 1118.93 880.094 1131.81 885.416C1141.03 889.218 1150.81 891.171 1159.79 885.804C1170.78 879.226 1174.35 863.055 1173 851.373C1171.36 837.143 1162.31 824.376 1152.33 814.646C1133.6 796.351 1109.95 783.366 1085.21 775.201C1034.98 758.608 978.022 761.143 929.192 781.288C875.277 803.534 838.74 850.185 816.816 902.945C805.768 929.531 798.398 958.195 791.932 986.197C785.351 1014.75 780.941 1045.47 787.899 1074.36C794.297 1100.9 811.126 1121.68 833.176 1137.17L833.222 1137.12ZM1006.2 983.182C1007.33 978.694 1007.4 974.183 1006.57 969.855C1018.58 975.108 1030.98 979.539 1042.72 985.409C1048.03 988.07 1054.81 991.142 1058.99 995.619C1058.04 995.687 1057.11 995.744 1056.16 995.79C1037.73 996.612 1019.31 995.39 1000.91 994.145C1003.32 991.005 1005.16 987.316 1006.21 983.171L1006.2 983.182ZM954.064 990.559C951.893 989.235 949.917 987.67 948.26 985.843C942.262 979.219 946.535 973.087 952.042 968.645C949.585 975.291 951.962 984.119 955.801 990.948C955.218 990.822 954.635 990.697 954.064 990.571V990.559ZM972.527 956.756C973.944 956.699 975.383 956.745 976.88 956.996C982.501 957.955 988.042 960.788 993.286 963.505C994.28 964.979 995.08 966.52 995.651 968.119C988.419 961.45 977.748 958.195 967.934 959.029C969.442 958.252 970.985 957.487 972.527 956.745V956.756ZM962.256 971.488C965.58 968.473 971.453 968.816 976.069 969.695C983.563 971.111 994.132 976.616 992.692 985.569C992.395 987.419 991.789 988.938 990.933 990.137C990.773 990.32 990.635 990.502 990.476 990.674C990.087 991.096 989.676 991.473 989.276 991.839C988.533 992.387 987.699 992.798 986.762 993.038C986.511 993.106 986.248 993.14 985.997 993.197C980.936 992.901 975.886 992.638 970.824 992.467C968.654 990.959 966.677 988.972 965.066 986.665C962.93 983.605 961.376 979.756 960.953 976.033C960.713 973.943 961.513 972.162 962.256 971.488ZM958.68 957.75C957.731 958.264 956.783 958.766 955.846 959.292C946.329 964.625 934.402 974.651 941.862 986.7C942.056 987.008 942.273 987.293 942.479 987.59C935.384 985.546 928.403 983.136 921.56 980.544C914.876 978.009 908.296 975.165 901.966 971.831C899.315 970.437 896.116 968.622 893.774 966.692C897.499 962.683 904.651 961.381 909.484 960.456C919.378 958.561 929.58 958.218 939.634 957.99C945.975 957.841 952.327 957.932 958.68 957.761V957.75Z" fill="#3F55E9"/>
<path d="M51.4433 518.057C34.6257 482.769 9.70776 451.25 -23.619 430.283C-61.4357 406.495 -108.438 397.313 -152.607 402.532C-167.071 404.245 -180.884 407.614 -194 412.376V418.554C-191.201 417.492 -188.379 416.476 -185.511 415.551C-140.257 400.819 -88.7186 404.942 -45.6349 424.79C-9.12064 441.611 19.1334 471.178 38.7272 505.849C59.4636 542.53 70.4773 584.304 76.5211 625.747C82.7592 668.572 83.4218 712.174 80.3714 755.296C76.7039 807.086 66.3415 857.608 51.7289 907.399C41.3779 942.675 29.0389 977.346 15.6373 1011.56C5.70901 1036.94 -5.17902 1061.85 -18.8776 1085.45C-25.4927 1096.86 -32.9646 1107.84 -41.7847 1117.66C-47.9542 1124.54 -57.0257 1133.72 -66.417 1135.9C-77.4993 1138.47 -90.9693 1129.03 -99.5495 1123.33C-114.219 1113.6 -127.586 1101.85 -140.177 1089.59C-151.648 1078.44 -162.684 1066.53 -171.961 1053.45C-174.635 1049.68 -177.217 1045.75 -178.919 1041.44C-179.342 1040.35 -179.742 1038.65 -179.696 1038.04C-179.639 1037.38 -179.867 1037.78 -179.445 1037.7C-175.491 1036.96 -169.688 1039.31 -165.586 1039.77C-157.68 1040.66 -149.682 1040.82 -141.742 1040.58C-126.181 1040.11 -108.358 1038.12 -95.2423 1028.99C-81.8293 1019.65 -84.2172 1004.42 -91.8491 992.044C-92.5231 990.948 -94.0769 990.662 -95.208 991.085C-112.585 997.651 -129.323 1005.59 -148.22 1006.08C-163.747 1006.49 -178.942 1002.2 -194 997.902V1003.7C-179.353 1007.79 -164.638 1011.8 -149.42 1011.75C-130.134 1011.71 -113.008 1004.04 -95.368 997.263C-91.7234 1003.67 -89.2099 1011.13 -92.7516 1018.1C-96.0078 1024.51 -103.902 1027.81 -110.3 1029.99C-126.81 1035.6 -145.775 1035.89 -162.981 1034.3C-168.374 1033.8 -173.778 1032.01 -179.17 1031.95C-182.335 1031.91 -184.906 1034.07 -185.363 1037.19C-186.608 1045.86 -177.045 1056.46 -172.281 1062.64C-162.101 1075.83 -150.402 1087.91 -138.28 1099.31C-125.747 1111.09 -112.357 1122.28 -97.6644 1131.29C-88.6843 1136.79 -76.3339 1144.02 -65.2859 1141.45C-56.6372 1139.44 -48.5369 1132.43 -42.3674 1126.4C-33.2845 1117.52 -25.8011 1107.24 -19.0147 1096.55C-5.37325 1075.04 5.65189 1051.68 15.1689 1028.1C28.9018 994.054 41.5035 959.554 52.4373 924.506C68.4551 873.162 80.3371 820.892 85.1013 767.287C92.459 684.378 87.7519 594.297 51.4204 518.045L51.4433 518.057Z" fill="#3F55E9"/>
<path d="M-50.4673 614.522C-54.4661 620.403 -53.0608 627.7 -49.2449 633.319C-45.0176 639.543 -37.0772 642.181 -30.0394 643.448C-11.2225 646.852 9.46822 642.318 27.6911 637.681C35.3458 635.729 42.9663 633.547 50.3697 630.772C58.1501 627.86 68.3184 622.356 70.7291 613.802C75.1506 598.122 47.4906 595.153 37.071 593.417C6.00645 588.233 -25.4923 584.681 -56.9796 583.642C-74.2656 583.071 -91.723 583.219 -108.861 585.72C-121.314 587.536 -135.287 590.631 -145.112 599.036C-149.819 603.067 -152.527 607.955 -153.647 613.243C-160.639 607.099 -170.087 604.7 -179.239 602.896C-184.174 601.925 -189.098 601.274 -194.011 600.829V611.107C-184.471 613.254 -175.137 616.463 -166.283 620.483C-161.233 622.778 -156.731 625.61 -152.687 628.934C-152.39 629.927 -152.058 630.909 -151.681 631.891C-151.636 632.006 -151.59 632.097 -151.544 632.211C-153.567 634.666 -157.942 635.706 -160.639 636.345C-171.492 638.892 -182.895 637.99 -194.022 637.601V643.209C-192.629 643.243 -191.223 643.266 -189.829 643.311C-177.102 643.654 -158.376 646.155 -148.128 636.722C-147.534 636.174 -147.054 635.591 -146.62 635.009C-146.517 635.009 -146.426 634.986 -146.323 634.963C-143.124 638.458 -140.256 642.352 -137.686 646.623C-122.753 671.439 -120.594 703.198 -117.326 731.291C-112.174 775.589 -112.002 820.436 -111.945 864.985C-111.922 878.952 -112.574 893.878 -117.612 907.056C-119.577 912.207 -122.65 917.517 -127.78 920.018C-134.281 923.181 -141.833 920.178 -147.74 917.106C-148.974 916.466 -150.23 917.06 -151.122 917.928C-161.747 928.206 -179.261 915.701 -183.477 904.989C-184.186 903.185 -186.299 902.774 -187.83 903.756C-197.244 909.797 -189.807 923.455 -185.728 930.422C-180.198 939.855 -170.921 953.73 -158.913 954.838C-153.11 955.374 -148.025 951.275 -143.101 948.876C-135.664 945.268 -125.998 944.183 -118.32 947.495C-115.259 948.819 -112.631 950.909 -110.3 953.353C-111.363 952.919 -112.437 952.519 -113.522 952.188C-119.84 950.292 -126.706 951.514 -132.579 954.267C-138.257 956.927 -142.496 961.861 -148.254 964.362C-155.943 967.708 -163.712 963.391 -170.43 959.908C-177.228 956.368 -183.843 955.055 -191.098 958.069C-192.137 958.503 -193.097 959.029 -194.011 959.623V966.989C-193.291 966.292 -192.56 965.607 -191.772 964.979C-184.688 959.326 -176.999 962.889 -170.121 966.497C-164.192 969.615 -158.342 971.602 -151.579 971.054C-146.769 970.666 -142.507 968.051 -138.725 965.253C-133.219 961.176 -128.397 957.864 -121.382 957.053C-114.31 956.242 -107.215 959.977 -101.32 965.424C-96.9442 972.059 -92.8541 978.865 -87.9756 985.169C-85.9648 987.773 -81.9432 985.466 -83.0286 982.417C-85.5307 975.325 -90.2263 968.336 -96.1331 962.729C-99.6634 957.373 -103.411 952.2 -108.026 947.734C-117.761 938.324 -131.962 938.244 -143.992 943.029C-148.882 944.982 -153.601 949.596 -159.142 949.093C-165.254 948.534 -170.201 942.047 -173.755 937.628C-176.965 933.642 -188.664 918.865 -186.642 911.385C-178.987 923.889 -161.004 932.671 -148.528 923.09C-136.326 928.88 -123.222 928.412 -115.556 915.781C-107.855 903.105 -106.838 886.672 -106.393 872.225C-106.004 859.618 -106.838 846.61 -106.747 834.882C-106.461 800.759 -107.729 766.545 -111.443 732.604C-114.493 704.762 -117.258 675.07 -129.677 649.558C-132.864 643.003 -136.943 636.608 -141.879 631.069C-141.673 630.178 -141.719 629.173 -142.142 628.089C-146.049 617.993 -144.232 610.49 -135.584 604.712C-124.73 597.46 -109.866 595.884 -97.2299 594.696C-69.33 592.081 -40.916 593.863 -12.9476 596.98C-19.6655 598.351 -26.3035 600.201 -32.6786 602.645C-39.1337 605.112 -46.4914 608.629 -50.5016 614.522H-50.4673ZM-184.985 607.612C-174.497 609.074 -162.01 611.267 -155.509 619.375C-155.349 619.569 -155.189 619.775 -155.018 619.98C-164.215 614.305 -174.611 610.57 -184.974 607.624L-184.985 607.612ZM3.60721 608.161C4.96678 606.539 6.65768 605.237 8.53139 604.255C14.004 603.947 19.4765 604.141 24.6978 605.226C27.9767 605.911 29.8733 606.882 27.9767 610.901C25.2004 616.783 14.8951 619.375 9.0912 618.85C2.37329 618.233 -0.711441 613.3 3.60721 608.161ZM-10.674 606.996C-9.6458 606.79 -8.60612 606.585 -7.56645 606.379C-10.2513 612.363 -8.9603 619.272 -3.54485 624.114C9.76527 636.025 45.377 623.795 38.1564 604.027C39.4588 604.255 40.7727 604.461 42.0752 604.7C44.8286 605.191 61.9433 608.56 60.618 611.701C59.0641 615.412 52.769 618.61 49.3415 620.095C46.5309 621.305 43.6175 622.299 40.7042 623.269C22.8469 629.208 3.84712 633.387 -14.9927 634.084C-22.179 634.347 -31.1819 634.233 -37.5342 630.315C-39.9106 628.854 -41.4416 626.969 -42.3327 624.343C-43.1896 621.853 -42.7783 621.191 -41.3159 619.444C-38.5054 616.098 -33.7068 614.179 -29.7881 612.557C-23.6414 610.022 -17.1749 608.321 -10.674 606.996Z" fill="#3F55E9"/>
<path d="M1529.94 619.809C1527.82 630.35 1543.74 634.484 1550.92 636.3C1566.82 640.308 1583.59 641.313 1599.91 642.169C1611.26 642.775 1622.63 642.946 1634 643.209V637.601C1632.61 637.556 1631.22 637.51 1629.84 637.487C1628.2 637.453 1626.54 637.419 1624.89 637.384C1625.27 636.962 1625.63 636.517 1625.97 636.037C1629.89 630.464 1630.3 622.401 1628.33 616.075C1627.53 613.494 1626.12 611.244 1624.32 609.314C1627.57 609.794 1630.8 610.399 1634.01 611.118V600.84C1624.88 600.007 1615.77 599.893 1606.58 599.847C1595.21 596.832 1582.53 597.072 1570.66 598.705C1557.7 597.392 1544.77 594.24 1535.24 586.086C1527.6 579.554 1525.07 568.876 1526.85 559.26C1527.76 554.293 1530.25 549.987 1533.56 546.31C1551.52 562.869 1576.48 570.509 1600.15 574.666C1611.1 576.596 1622.61 577.795 1634.01 577.589V571.742C1626.29 571.857 1618.53 571.331 1610.88 570.452C1585.59 567.574 1556.94 560.174 1537.65 542.393C1541.22 539.412 1545.26 536.946 1549.19 534.97C1565.15 526.965 1582.96 525.297 1600.54 525.823C1611.61 526.154 1622.92 526.953 1634 528.803V523.15C1602.06 517.76 1561.75 515.933 1535.28 537.003C1534.89 536.66 1534.43 536.352 1533.89 536.1C1528.38 533.577 1522.61 529.603 1516.97 528.392C1542.13 479.252 1582.3 438.151 1634 418.554V412.376C1579.63 432.133 1537.29 476.18 1511.16 528.301C1508.7 528.849 1506.29 530.231 1503.96 532.846C1500.43 536.809 1499.19 543.032 1497.96 548.012C1496.39 554.475 1495.49 561.145 1494.47 567.711C1494.32 568.67 1494.19 569.63 1494.06 570.577C1491.52 578.629 1489.35 586.76 1487.57 594.925C1481.33 623.464 1481.48 651.991 1480.89 680.986C1480.21 715.178 1478.78 749.38 1475.46 783.435C1472.03 818.551 1467.07 854.41 1455.15 887.779C1447.46 909.329 1434.18 937.262 1408.64 940.825C1402.86 941.636 1397.02 940.882 1391.4 939.421C1380.39 936.543 1375.38 928.983 1369.74 919.732C1364.58 911.27 1356.9 903.528 1346.08 905.857C1339.38 907.307 1335.02 909.249 1328.39 905.732C1322.66 902.694 1318.18 898.64 1311.72 897.109C1296.41 893.478 1269.49 900.136 1264.8 917.369C1262.24 926.767 1271.84 934.11 1278.68 938.279C1291.38 946.01 1305.69 949.287 1320.37 950.475C1346.1 952.554 1372.21 947.734 1397.77 951.914C1387.68 971.122 1364.72 981.435 1344.41 985.615C1323.34 989.943 1298.17 988.469 1282.98 971.522C1274.98 962.603 1268.86 951.88 1264.24 940.882C1259.95 930.65 1256.26 917.951 1259.75 906.954C1266.89 884.547 1294.52 894.757 1311.34 895.75C1319.18 896.207 1327.3 895.134 1333 889.241C1337.77 884.296 1334.94 872.511 1334.22 866.675C1333.67 862.244 1333.07 857.813 1332.87 853.348C1332.65 848.426 1332.8 846.919 1337.59 848.963C1342.69 851.144 1347.2 854.696 1352.09 857.288C1357.46 860.132 1361.9 859.995 1367.77 859.8C1378.79 859.424 1391.62 862.701 1399.88 853.337C1408.8 843.207 1412.21 827.973 1413.55 814.943C1414.85 802.495 1414.22 789.853 1415.31 777.348C1416.8 760.378 1418.74 743.476 1420.8 726.575C1425.15 690.762 1425.92 654.583 1426.48 618.553C1426.9 590.951 1429.7 563.543 1424.68 536.146C1420.3 512.176 1408.87 489.21 1388.24 475.3C1367.69 461.459 1341.19 455.555 1316.92 452.951C1300.66 451.204 1282.88 450.805 1267.09 455.669C1263.17 456.88 1259.26 458.228 1255.39 459.701C1248.87 457.542 1241.65 456.937 1235.16 456.48C1225.12 455.761 1211.88 456.183 1204.48 448.064C1198.22 441.2 1204.99 430.123 1209.12 424.047C1223.28 403.149 1245.01 389.285 1268.09 380.023C1283.07 374.016 1299.29 370.602 1315.47 371.55C1331.98 372.52 1347.92 377.671 1363.28 383.438C1376.36 388.349 1388.91 394.321 1401.8 399.643C1411.02 403.446 1420.8 405.399 1429.78 400.031C1440.77 393.453 1444.33 377.283 1442.99 365.6C1441.34 351.371 1432.29 338.603 1422.32 328.873C1403.58 310.578 1379.93 297.594 1355.2 289.429C1304.96 272.835 1248.01 275.37 1199.18 295.515C1145.26 317.762 1108.72 364.412 1086.8 417.173C1075.75 443.758 1068.38 472.423 1061.92 500.424C1055.34 528.974 1050.93 559.694 1057.88 588.587C1064.28 615.127 1081.11 635.911 1103.16 651.397C1122 664.621 1143.79 675.516 1165.28 683.647C1173.21 686.65 1180.95 690.191 1188.38 694.279C1191.93 696.243 1195.34 698.459 1198.49 701.04C1200 702.273 1202.94 705.356 1202.9 706.236C1202.87 707.126 1200.94 708.805 1199 708.691C1194.65 708.451 1190.34 705.608 1186.8 703.324C1178.15 697.728 1170.57 690.67 1162.03 684.937C1125.86 660.647 1113.69 734.569 1109.84 755.319C1107.87 765.974 1105.4 776.537 1104.61 787.375C1103.74 799.309 1105.06 811.014 1108.12 822.548C1110.96 833.26 1115.58 843.435 1119.91 853.611C1125.1 865.796 1129.77 878.141 1133.17 890.954C1136.84 904.761 1138.7 919.036 1141.95 932.945C1144.53 944.046 1147.58 955.043 1151.37 965.789C1157.68 983.662 1166.61 1000.78 1179.22 1015.02C1208.24 1047.81 1253 1061.5 1294.02 1072.08C1338.62 1083.58 1389.95 1093.7 1434.71 1077.59C1454.41 1070.5 1471.02 1056.94 1481.98 1039.14C1488.41 1028.68 1492.71 1017.29 1495.87 1005.46C1499.46 992.044 1503.02 978.58 1505.99 965.001C1508.51 953.479 1510.12 941.796 1511.42 930.079C1513.01 915.747 1513.26 901.483 1514.21 887.128C1514.65 880.436 1515.41 873.584 1517.43 867.166C1518.25 864.562 1522.32 853.736 1525.85 854.056C1528.76 854.319 1532.43 860.12 1534.19 862.062C1538.05 866.333 1542.15 870.124 1547.36 872.694C1549.32 873.653 1552.19 873.036 1553.45 871.22C1559.16 863.044 1560.14 854.524 1554.95 845.868C1550.31 838.125 1541.78 832.826 1534.85 827.356C1531.88 825.015 1528.97 822.583 1526.79 819.465C1523.55 814.84 1522.65 808.513 1521.86 803.066C1520.07 790.595 1521.02 777.873 1518.77 765.471C1515.51 747.553 1511.28 729.818 1508.03 711.9C1504.94 694.953 1503.68 677.8 1502.54 660.636C1500.32 626.821 1500.88 593.463 1506.17 559.968C1506.86 555.56 1507.45 550.296 1508.97 545.636C1509.66 544.003 1510.37 542.382 1511.1 540.771C1511.39 540.28 1511.68 539.812 1512.02 539.355C1514.54 535.872 1523.39 541.833 1527.92 544.54C1518.31 557.49 1517.68 576.265 1529.56 588.53C1536.33 595.507 1545.34 599.447 1554.94 601.754C1544.82 604.266 1532.18 609.029 1529.99 619.866L1529.94 619.809ZM1312.19 943.852C1298.63 942.013 1281.12 937.034 1272.27 925.739C1265.35 916.889 1277.23 909.123 1284.24 906.029C1293.68 901.849 1306.5 899.827 1316.04 904.681C1321.63 907.525 1326.06 911.933 1332.33 913.337C1338.58 914.731 1343.34 911.864 1349.36 911.076C1360.78 909.58 1366.83 927.007 1372.26 934.042C1377.15 940.368 1383.95 943.429 1391.4 945.279C1365.17 942.515 1338.42 947.415 1312.18 943.863L1312.19 943.852ZM1242.48 470.961C1243.89 470.904 1245.33 470.949 1246.83 471.201C1252.45 472.16 1257.99 474.992 1263.24 477.71C1264.23 479.183 1265.03 480.725 1265.6 482.324C1258.37 475.654 1247.7 472.4 1237.88 473.233C1239.39 472.457 1240.93 471.692 1242.48 470.949V470.961ZM1232.21 485.693C1235.53 482.678 1241.4 483.02 1246.02 483.9C1253.51 485.316 1264.08 490.82 1262.64 499.773C1262.34 501.624 1261.74 503.142 1260.88 504.341C1260.72 504.524 1260.59 504.707 1260.43 504.878C1260.04 505.301 1259.63 505.678 1259.23 506.043C1258.48 506.591 1257.65 507.002 1256.71 507.242C1256.46 507.311 1256.2 507.345 1255.95 507.402C1250.89 507.105 1245.84 506.842 1240.77 506.671C1238.6 505.164 1236.63 503.177 1235.02 500.87C1232.88 497.809 1231.33 493.961 1230.9 490.249C1230.66 488.159 1231.46 486.378 1232.19 485.704L1232.21 485.693ZM1228.63 471.954C1227.68 472.468 1226.73 472.971 1225.8 473.496C1216.28 478.829 1204.35 488.856 1211.81 500.904C1212.01 501.212 1212.22 501.498 1212.43 501.795C1205.33 499.751 1198.35 497.341 1191.51 494.749C1184.83 492.213 1178.25 489.37 1171.92 486.035C1169.27 484.642 1166.07 482.826 1163.72 480.896C1167.45 476.888 1174.6 475.586 1179.43 474.661C1189.33 472.765 1199.53 472.423 1209.58 472.194C1215.93 472.046 1222.28 472.137 1228.63 471.966V471.954ZM1225.75 505.141C1225.17 505.015 1224.59 504.89 1224.01 504.764C1221.84 503.439 1219.87 501.875 1218.21 500.048C1212.21 493.424 1216.49 487.291 1221.99 482.849C1219.54 489.495 1221.91 498.323 1225.75 505.152V505.141ZM1509.51 773.18C1510.67 785.548 1510.19 797.984 1512.64 810.226C1514.64 820.173 1518.97 827.493 1526.7 833.945C1534.51 840.478 1550.85 849.123 1547.46 860.554C1541.21 855.392 1537.14 847.227 1529.43 844.395C1518.45 840.352 1510.91 854.684 1507.99 862.941C1503.4 876.005 1503.66 890.474 1503.23 904.133C1502.78 917.917 1501.07 931.746 1499.07 945.382C1497.44 956.562 1494.96 967.571 1492.22 978.523C1488.73 992.466 1485.68 1006.74 1480.19 1020.06C1471.96 1040.01 1457.34 1056.13 1437.66 1065.21C1417.78 1074.38 1395.07 1076.05 1373.48 1075.03C1348.17 1073.85 1323.1 1068.76 1298.57 1062.63C1257.96 1052.47 1212.57 1038.97 1184.67 1005.62C1172.22 990.754 1164.32 972.893 1158.41 954.575C1150.21 929.143 1147.7 902.408 1139.77 876.942C1132.81 854.627 1120.14 834.003 1115.92 810.877C1111.99 789.27 1117.75 767.47 1121.98 746.32C1125.39 729.201 1128.97 707.595 1141.32 694.336C1145.86 689.46 1151.23 689.974 1156.37 693.422C1164.98 699.212 1172.65 706.293 1181.38 711.946C1188.04 716.251 1197.53 721.596 1205.48 717.439C1212.33 713.876 1215.07 706.647 1211.1 699.84C1207.12 692.988 1199.21 688.58 1192.53 684.812C1185.15 680.655 1177.33 677.217 1169.43 674.18C1147.76 665.855 1125.88 655.028 1106.99 641.473C1083.98 624.982 1069.27 602.199 1065.63 573.958C1061.76 543.935 1068.87 512.986 1076.46 484.094C1083.85 455.909 1092 428.067 1104.99 401.893C1118.23 375.204 1136.1 350.229 1159.12 331.123C1179.58 314.141 1204.19 302.801 1229.75 295.938C1281.1 282.143 1339.21 287.647 1385.64 314.061C1406.91 326.155 1441 351.439 1431.61 380.035C1429.97 385.014 1426.96 390.416 1421.93 392.517C1417.7 394.287 1412.41 392.563 1408.36 391.124C1395.71 386.624 1383.61 380.309 1371.1 375.398C1356.04 369.494 1340.48 364.355 1324.42 362.06C1309.06 359.867 1293.74 361.591 1278.84 365.543C1253.51 372.269 1229.53 386.007 1211.42 404.942C1199.38 417.527 1182.15 440.789 1198.57 456.594C1201.11 459.038 1204.03 460.82 1207.19 462.156C1197.11 462.316 1187.05 462.727 1177.07 464.646C1169.17 466.164 1161.07 468.677 1155.43 474.661C1152.84 477.413 1150.92 481.524 1153.32 484.927C1154.89 487.154 1157.24 488.936 1159.45 490.478C1174.13 500.733 1192.54 506.648 1209.58 511.502C1218.9 514.151 1229.44 517.155 1239.87 518.16C1245.77 520.421 1252.15 520.192 1257.95 517.977C1263.2 518.262 1268.47 518.548 1273.72 518.811C1291.51 519.701 1309.46 520.866 1327.27 520.192C1331.85 520.021 1337.43 519.975 1339.74 515.248C1342.61 509.378 1338 503.976 1333.72 500.436C1320.17 489.244 1301.66 483.02 1285.59 476.42C1280.24 474.216 1274.95 471.954 1269.7 469.522C1268.8 468.391 1267.82 467.306 1266.77 466.279C1265.45 465 1264.01 463.915 1262.49 462.955C1270.57 460.409 1278.81 458.639 1286.94 457.965C1313.62 455.761 1342.05 460.82 1366.83 470.675C1391.39 480.439 1407.98 498.791 1415.84 524.007C1423.96 550.056 1422.56 578.583 1421.19 605.477C1419.37 641.256 1419.9 677 1416.49 712.722C1413.6 743.065 1407.66 773.636 1408.25 804.231C1408.54 818.848 1405.45 834.596 1397.4 846.953C1393.4 853.074 1388.1 854.284 1381.15 854.399C1377.76 854.456 1374.36 854.193 1370.97 854.113C1367.62 854.033 1364.16 854.627 1360.84 854.376C1350.49 853.588 1343.34 841.289 1332.55 842.248C1325.66 842.865 1327.01 853.668 1327.4 858.122C1328.11 866.173 1331.59 876.782 1328.96 884.685C1326.45 892.279 1310.8 890.098 1305.23 889.435C1288.04 887.391 1266.16 881.738 1256.3 900.57C1246.12 919.995 1258.35 945.279 1268.77 961.987C1275.56 972.87 1283.89 982.588 1295.81 987.864C1308.44 993.46 1323.05 994.065 1336.6 992.581C1362.65 989.726 1393.63 976.49 1404.51 950.886C1405.26 949.116 1404.15 947.266 1402.32 946.901C1402.07 946.855 1401.83 946.809 1401.58 946.764C1422.56 947.483 1438.79 932.671 1449.26 914.594C1465.48 886.546 1471.77 852.572 1476.55 820.938C1481.98 784.988 1484.33 748.592 1485.65 712.288C1486.53 688.032 1486.31 663.742 1487.33 639.497C1487.79 628.443 1489.01 617.32 1490.91 606.254C1490.22 627.529 1491.27 648.919 1492.81 670C1494.08 687.381 1496.01 704.477 1499.33 721.596C1502.64 738.623 1507.85 755.867 1509.46 773.157L1509.51 773.18ZM1276.51 484.071C1288.52 489.324 1300.92 493.755 1312.66 499.625C1317.97 502.286 1324.75 505.358 1328.93 509.835C1327.98 509.903 1327.04 509.96 1326.1 510.006C1307.67 510.828 1289.25 509.606 1270.85 508.361C1273.26 505.221 1275.1 501.532 1276.15 497.387C1277.28 492.899 1277.35 488.388 1276.52 484.06L1276.51 484.071ZM1612.9 608.092C1617.15 610.079 1620.87 613.026 1622.74 617.422C1625.15 623.109 1623.84 631.903 1618.45 635.466C1617.18 636.3 1615.8 636.825 1614.35 637.099C1612.16 637.03 1609.95 636.951 1607.76 636.859C1600.02 635.1 1591.98 628.831 1588.56 623.783C1585.56 619.341 1586.48 615.173 1590.91 612.295C1597.05 608.298 1605.22 607.681 1612.9 608.092ZM1549.3 609.383C1555.93 606.916 1563.17 605.192 1570.56 604.221C1574.59 604.621 1578.55 604.872 1582.35 605.066C1585.57 605.237 1588.8 605.317 1592.02 605.351C1588.71 606.688 1585.68 608.572 1583.48 611.233C1576.11 620.117 1585.59 630.829 1593.21 636.071C1589.87 635.854 1586.52 635.603 1583.18 635.317C1569.17 634.107 1553.07 633.136 1540.33 626.581C1528.81 620.654 1542.5 611.906 1549.28 609.383H1549.3Z" fill="#3F55E9"/>
</g>
<defs>
<clipPath id="clip0_118_3822">
<rect width="1440" height="1142" fill="white"/>
</clipPath>
</defs>
</svg>
