<svg width="223" height="153" viewBox="0 0 223 153" fill="none" xmlns="http://www.w3.org/2000/svg">
    <path d="M-61 150.155C-39.0062 150.343 14.9208 154.617 31.6262 149.478C51.6965 143.304 39.5321 131.859 32.2474 134.05C27.493 135.48 25.1753 141.27 33.9712 145.958C45.7623 152.242 67.8452 134.222 60.6241 125.755C57.8087 122.453 52.9307 124.256 50.3251 126.881C47.4289 129.799 46.3572 136.347 57.7805 133.334C59.7677 132.809 65.6437 131.41 70.9866 129.699C86.1454 124.842 99.0445 109.036 107.442 96.1559C123.977 70.7926 124.996 67.5909 123.05 68.4339C121.103 69.2769 127.026 73.1231 130.052 72.5605C133.078 71.997 136.991 68.006 136.991 68.006C136.991 68.006 133.924 67.9805 129.976 65.4161C126.027 62.8516 124.286 60.6677 123.472 60.8407C122.659 61.0154 119.768 67.0046 121.262 66.4293C122.755 65.854 122.129 54.1387 123.48 48.9051C124.83 43.6715 125.203 42.2276 125.203 42.2276C125.203 42.2276 115.308 38.8912 107.304 46.8276C99.3006 54.7641 95.5961 60.9281 99.5231 60.5985C103.45 60.269 113.083 57.1838 118.444 57.9967C123.805 58.8097 128.206 61.1065 133.368 64.178C138.53 67.2495 143.623 78.7755 143.759 84.203C143.895 89.6296 154.943 78.8246 154.358 67.6974C153.773 56.5702 153.832 54.8524 152.705 54.7531C151.578 54.6539 141.029 65.011 144.056 64.4475C147.083 63.8849 159.756 47.5313 160.921 43.0205C162.085 38.5089 137.29 25.916 135.03 26.4849C132.77 27.0548 157.233 41.6787 159.619 42.1056C162.007 42.5326 165.984 36.0536 168.314 27.0311C170.643 18.0078 170.182 2.67654 167.488 1.20814C164.794 -0.260253 151.749 6.36892 145.037 10.7896C138.325 15.2102 130.464 27.8049 128.672 31.7695C123.795 42.5635 126.687 43.3974 131.847 33.2661C139.615 18.0141 119.809 36.1337 125.708 41.7342L130.535 45.3283C137.165 49.7235 147.147 55.2302 149.311 55.3048C151.476 55.3795 161.146 43.2955 155.782 44.3369C150.419 45.3774 147.315 55.5169 141.979 60.2125C136.642 64.909 129.462 72.0453 126.921 76.2502C124.38 80.4551 108.403 111.332 108.146 121.724C107.89 132.115 115.792 135.482 117.592 131.327C119.392 127.173 108.719 121.385 105.142 126.782C101.566 132.178 107.204 139.476 119.483 142.661C131.763 145.846 130.432 127.504 123.924 129.221C117.415 130.938 118.92 142.029 130.794 145.838C142.671 149.648 222 147.57 222 147.57" stroke="#FFFFFF" stroke-width="2" stroke-linecap="round" stroke-linejoin="round"/>
</svg>