<svg width="920" height="269" viewBox="0 0 920 269" fill="none" xmlns="http://www.w3.org/2000/svg">
<g clip-path="url(#clip0_332_9602)">
<path d="M576.784 245.772C576.183 239.713 578.081 233.847 580.153 230.502C581.412 228.461 582.472 227.802 582.786 227.802H582.803C584.25 227.912 585.88 229.866 585.994 232.829C586.077 235.016 585.356 239.357 579.561 243.858C578.706 244.524 577.78 245.163 576.784 245.772ZM501.292 190.508C501.693 187.046 500.584 183.567 498.258 180.967C495.929 178.364 492.587 176.872 489.088 176.872H463.361C448.156 176.872 437.209 171.223 430.826 160.077C426.021 151.684 425.713 143.138 425.71 143.051C425.687 142.256 423.367 63.3379 425.509 31.8075C426.372 19.1367 432.55 10.391 443.875 5.81339C451.057 2.91037 458.164 2.66736 460.353 2.66736C460.784 2.66736 461.025 2.67734 461.038 2.67734H663.608C677.055 2.67734 687.123 6.07306 693.536 12.7647C701.259 20.8279 700.874 31.0517 700.868 31.1516V31.2315C700.878 32.1404 701.857 122.434 700.868 152.3C700.47 164.248 694.993 172.564 684.587 177.019C676.681 180.404 668.741 180.201 668.664 180.198H566.144C563.057 180.198 560.106 181.343 557.834 183.421C548.263 192.18 523.939 213.966 496.139 235.242L501.292 190.508ZM1104.95 208.646C1044.51 232.253 999.257 242.826 974.074 239.214C945.376 235.099 928.276 226.736 911.738 218.65C892.871 209.425 875.05 200.712 842.575 200.173C810.365 199.634 765.329 217.282 721.767 234.343C682.515 249.714 645.443 264.233 617.904 266.094C598.321 267.419 585.052 263.3 579.531 254.192C578.438 252.391 577.703 250.5 577.252 248.592C578.696 247.767 580.012 246.888 581.205 245.959C587.939 240.729 588.771 235.422 588.664 232.725C588.51 228.641 586.077 225.381 583.006 225.145C580.898 224.989 579.047 227.209 577.877 229.103C575.454 233.018 573.252 240.043 574.281 247.177C568.55 250.117 560.961 252.328 551.625 253.762C529.82 257.118 515.655 253.127 507.611 249.188C500.293 245.603 496.577 241.408 495.571 240.153L495.715 238.921C524.45 217.092 549.81 194.38 559.641 185.382C561.419 183.757 563.728 182.861 566.144 182.861H668.6C669.209 182.881 677.262 183.028 685.559 179.502C693.463 176.14 703 168.709 703.538 152.386C704.523 122.703 703.564 33.5419 703.541 31.2415C703.578 30.3626 703.832 19.686 695.501 10.9603C688.567 3.69937 677.837 0.0140076 663.608 0.0140076H461.125C460.42 -0.0126343 451.882 -0.272278 442.953 3.3132C434.422 6.7356 424.009 14.4293 422.843 31.6277C420.691 63.2847 423.013 142.336 423.037 143.128C423.047 143.497 423.351 152.34 428.45 161.305C433.185 169.621 443.083 179.536 463.361 179.536H489.088C491.825 179.536 494.438 180.704 496.26 182.738C498.084 184.776 498.95 187.496 498.636 190.205L493.189 237.49C492.316 238.149 491.441 238.808 490.562 239.467C471.618 253.669 450.502 254.768 436.126 253.19C420.46 251.472 409.145 246.292 409.035 246.239L408.935 246.192L408.828 246.165C407.675 245.846 292.988 214.096 250.318 206.189C224.403 201.385 196.006 208.443 163.12 216.619C140.697 222.192 115.281 228.507 86.4953 232.143C50.2681 236.717 26.6992 224.486 13.3057 213.42C7.85871 208.922 3.60486 204.245 0.410156 200.146V204.418C3.37094 207.917 7.04 211.692 11.4979 215.387C20.2932 222.675 30.3384 228.098 41.3592 231.507C55.1069 235.755 70.4051 236.86 86.8328 234.786C115.775 231.131 141.272 224.792 163.768 219.202C196.35 211.103 224.487 204.108 249.827 208.805C291.829 216.592 403.979 247.587 408.009 248.702C409.259 249.271 420.286 254.119 435.745 255.827C445.202 256.875 454.338 256.509 462.903 254.745C473.633 252.534 483.478 248.11 492.169 241.594C492.417 241.411 492.664 241.225 492.911 241.038L493.078 241.281C493.235 241.511 497.018 246.918 506.245 251.485C514.652 255.647 529.416 259.875 552.032 256.396C561.286 254.971 568.915 252.787 574.829 249.881C575.347 251.815 576.129 253.732 577.242 255.57C580.062 260.224 584.617 263.73 590.776 265.984C596.253 267.991 603.02 269 610.956 269C613.235 269 615.615 268.917 618.084 268.75C646.034 266.863 683.294 252.271 722.742 236.82C766.064 219.855 810.856 202.314 842.532 202.836C874.408 203.366 891.969 211.952 910.562 221.043C927.284 229.22 944.577 237.673 973.693 241.851C988.046 243.908 1008.43 241.588 1034.27 234.959C1054.86 229.676 1078.98 221.653 1105.95 211.119C1131.18 201.262 1154.26 191.001 1170 183.727V180.791C1154.29 188.075 1130.75 198.572 1104.95 208.646Z" fill="#3F55E9"/>
</g>
<defs>
<clipPath id="clip0_332_9602">
<rect width="1170" height="269" fill="white"/>
</clipPath>
</defs>
</svg>
