<svg width="351" height="124" viewBox="0 0 351 124" fill="none" xmlns="http://www.w3.org/2000/svg">
    <path d="M111.213 112.466C110.942 109.718 111.796 107.057 112.728 105.54C113.294 104.614 113.771 104.315 113.912 104.315H113.919C114.57 104.365 115.304 105.251 115.355 106.595C115.392 107.587 115.068 109.556 112.462 111.597C112.077 111.899 111.661 112.189 111.213 112.466ZM77.2618 87.4016C77.4421 85.8313 76.9431 84.2535 75.8972 83.0743C74.8497 81.8936 73.3468 81.2171 71.7733 81.2171H60.2028C53.3648 81.2171 48.4415 78.6549 45.571 73.5998C43.4099 69.7934 43.2716 65.9175 43.2701 65.8783C43.2596 65.5174 42.2166 29.7257 43.18 15.4257C43.5677 9.67908 46.3465 5.71262 51.4397 3.63654C54.6693 2.31993 57.8659 2.20971 58.8503 2.20971C59.0441 2.20971 59.1523 2.21424 59.1583 2.21424H150.26C156.308 2.21424 160.836 3.75431 163.72 6.78917C167.193 10.4461 167.02 15.0829 167.017 15.1282V15.1645C167.021 15.5767 167.462 56.5276 167.017 70.0727C166.838 75.4917 164.375 79.2633 159.695 81.2836C156.139 82.8191 152.568 82.727 152.534 82.7255H106.428C105.039 82.7255 103.712 83.2449 102.69 84.1871C98.3859 88.1596 87.4466 98.0402 74.9444 107.69L77.2618 87.4016ZM348.747 95.6274C321.565 106.334 301.212 111.129 289.886 109.491C276.979 107.625 269.289 103.832 261.852 100.165C253.367 95.9807 245.352 92.0294 230.747 91.7848C216.261 91.5402 196.007 99.544 176.416 107.282C158.763 114.253 142.091 120.838 129.705 121.682C120.899 122.283 114.931 120.415 112.448 116.284C111.957 115.467 111.626 114.61 111.423 113.744C112.072 113.37 112.665 112.971 113.201 112.55C116.229 110.178 116.604 107.771 116.555 106.548C116.486 104.696 115.392 103.218 114.011 103.11C113.063 103.039 112.23 104.046 111.704 104.906C110.615 106.681 109.624 109.867 110.087 113.103C107.51 114.436 104.097 115.439 99.8978 116.089C90.0916 117.611 83.721 115.801 80.1037 114.015C76.8124 112.389 75.1412 110.486 74.6889 109.917L74.7535 109.358C87.6766 99.458 99.0817 89.1576 103.503 85.0764C104.303 84.3396 105.341 83.9334 106.428 83.9334H152.505C152.779 83.9425 156.401 84.0089 160.132 82.4099C163.687 80.885 167.976 77.5149 168.218 70.112C168.661 56.6499 168.23 16.2123 168.219 15.169C168.236 14.7704 168.35 9.9282 164.603 5.97081C161.485 2.67776 156.659 1.00633 150.26 1.00633H59.1974C58.8803 0.994255 55.0405 0.876495 51.0249 2.50263C47.1881 4.05479 42.5052 7.54411 41.9807 15.3441C41.0128 29.7016 42.0573 65.5536 42.0678 65.913C42.0723 66.0806 42.2091 70.0908 44.5025 74.1569C46.632 77.9286 51.0835 82.425 60.2028 82.425H71.7733C73.0042 82.425 74.1794 82.955 74.9985 83.8775C75.819 84.8016 76.2083 86.0352 76.067 87.2642L73.6173 108.709C73.2251 109.008 72.8313 109.307 72.4361 109.606C63.9164 116.047 54.4198 116.545 47.9545 115.83C40.9091 115.05 35.8205 112.701 35.7709 112.677L35.7258 112.656L35.6777 112.644C35.1592 112.499 -16.4188 98.0991 -35.6088 94.5131C-47.2635 92.3344 -60.0348 95.5353 -74.8244 99.2436C-84.9086 101.771 -96.3393 104.635 -109.285 106.284C-125.577 108.359 -136.177 102.811 -142.201 97.7926C-144.65 95.7527 -146.563 93.6314 -148 91.7727V93.7099C-146.668 95.2967 -145.018 97.0089 -143.014 98.6849C-139.058 101.99 -134.54 104.45 -129.584 105.996C-123.401 107.922 -116.521 108.424 -109.133 107.483C-96.1169 105.825 -84.6501 102.95 -74.5328 100.415C-59.88 96.7417 -47.2259 93.5694 -35.8298 95.6999C-16.9403 99.2315 33.4971 113.288 35.3095 113.794C35.8716 114.052 40.831 116.251 47.7832 117.025C52.0363 117.501 56.1451 117.335 59.9969 116.535C64.8226 115.532 69.25 113.526 73.159 110.571C73.2702 110.488 73.3814 110.403 73.4926 110.319L73.5677 110.429C73.6384 110.533 75.3396 112.985 79.489 115.057C83.2702 116.944 89.9098 118.861 100.081 117.284C104.243 116.637 107.674 115.647 110.334 114.329C110.567 115.206 110.918 116.076 111.419 116.909C112.687 119.02 114.735 120.61 117.505 121.632C119.968 122.543 123.012 123 126.581 123C127.606 123 128.676 122.962 129.787 122.887C142.357 122.031 159.113 115.413 176.855 108.406C196.338 100.711 216.482 92.7556 230.728 92.9927C245.063 93.2327 252.961 97.1267 261.323 101.25C268.843 104.958 276.62 108.792 289.715 110.687C296.169 111.62 305.335 110.568 316.958 107.561C326.219 105.165 337.065 101.527 349.195 96.7492C351 96.0383 351 94.74 348.747 95.6274Z" fill="white" stroke="white" stroke-width="0.5"/>
</svg>