<svg width="147" height="24" viewBox="0 0 147 24" fill="none" xmlns="http://www.w3.org/2000/svg">
    <g clip-path="url(#clip0_205_368)">
        <path d="M19.4395 11.0458C19.3778 10.1783 19.131 9.31084 18.6373 8.55904L14.4408 1.67711C14.1322 1.15663 13.8854 0.578313 13.762 0L13.5768 0.289157C12.5277 1.96627 12.5277 4.10602 13.5768 5.78313L16.971 11.2771C18.0202 12.9542 18.0202 15.094 16.971 16.7711L16.7859 17.0602C16.6625 16.4819 16.4156 15.9036 16.1071 15.3831L13.0214 10.3518L11.0466 7.11325C10.738 6.59277 10.4912 6.01446 10.3678 5.43614L10.1826 5.7253C9.1335 7.40241 9.1335 9.48434 10.1826 11.2193L13.5768 16.7133C14.6259 18.3904 14.6259 20.5301 13.5768 22.2072L13.3917 22.4964C13.2683 21.9181 13.0214 21.3398 12.7128 20.8193L8.45466 13.9373C7.89924 13.012 7.65239 11.9711 7.65239 10.9301C3.14735 12.0289 0 14.4 0 17.1181C0 20.9349 6.04786 24 13.5151 24C20.9824 24 27.0302 20.9349 27.0302 17.1181C27.0919 14.5157 24.0063 12.1446 19.4395 11.0458ZM32.2141 22.7855C32.2758 21.8024 32.3992 21.1663 32.7078 20.3566C34.1272 20.9928 35.9786 21.2819 37.3363 21.2819C39.6814 21.2819 41.039 20.5879 41.039 19.1422C41.039 17.7542 40.0516 17.1181 37.7066 16.1349L36.4106 15.6723C34.0038 14.6892 32.3992 13.4169 32.3992 10.9301C32.3992 8.21205 34.4358 6.47711 38.5088 6.47711C40.1751 6.47711 41.7179 6.70843 43.1373 7.17108C43.0756 8.09639 42.8904 8.84819 42.6436 9.54217C41.2859 9.07952 39.6196 8.84819 38.4471 8.84819C36.2254 8.84819 35.238 9.65783 35.238 10.9301C35.238 12.1446 36.2254 12.8964 38.0151 13.5904L39.3728 14.1108C42.5819 15.3831 43.9395 16.7711 43.9395 19.0843C43.9395 21.8024 41.7179 23.7108 37.398 23.7108C35.3615 23.7108 33.6335 23.4217 32.2141 22.7855ZM57.5781 11.3928V23.306H54.9861L54.8627 21.8602C54.1222 22.9012 53.073 23.5952 51.2834 23.5952C47.9509 23.5952 45.6675 21.2819 45.6675 17.2916C45.6675 13.1277 48.0743 10.6988 52.7645 10.6988C54.6159 10.7566 56.1587 10.9301 57.5781 11.3928ZM54.801 20.5879V13.1277C54.2456 13.012 53.5668 13.012 52.7645 13.012C49.864 13.012 48.5063 14.6892 48.5063 17.3494C48.5063 19.7783 49.5554 21.5133 52.0239 21.5133C53.1965 21.4554 54.0605 21.1084 54.801 20.5879ZM71.8955 15.3253V23.306H69.1184V15.788C69.1184 13.8795 68.4396 13.012 65.6625 13.012C64.9836 13.012 64.2431 13.0699 63.4408 13.1855V23.306H60.6637V11.3928C62.4534 10.988 64.4282 10.6988 65.7242 10.6988C70.4144 10.7566 71.8955 12.4337 71.8955 15.3253ZM79.6713 21.3976C80.4736 21.3976 81.2758 21.2819 81.8312 21.0506C81.7695 21.7446 81.6461 22.5542 81.5227 23.2482C80.7821 23.5373 79.9181 23.653 79.1776 23.653C76.4622 23.653 74.7343 22.4964 74.7343 19.6048V7.05542C75.5982 6.76627 76.6474 6.6506 77.5113 6.6506V11.1614H81.9547C81.893 11.9711 81.8312 12.7229 81.7078 13.4169H77.5113V19.2578C77.5113 20.7614 78.3136 21.3976 79.6713 21.3976ZM94.6675 11.3928V23.306H92.0756L91.9521 21.8602C91.2116 22.9012 90.1625 23.5952 88.3728 23.5952C85.0403 23.5952 82.7569 21.2819 82.7569 17.2916C82.7569 13.1277 85.1637 10.6988 89.8539 10.6988C91.7053 10.7566 93.1864 10.9301 94.6675 11.3928ZM91.8287 20.5879V13.1277C91.2733 13.012 90.5945 13.012 89.7922 13.012C86.8917 13.012 85.534 14.6892 85.534 17.3494C85.534 19.7783 86.5831 21.5133 89.0516 21.5133C90.2242 21.4554 91.1499 21.1084 91.8287 20.5879ZM108.985 15.3253V23.306H106.146V15.788C106.146 13.8795 105.467 13.012 102.69 13.012C102.011 13.012 101.271 13.0699 100.469 13.1855V23.306H97.6914V11.3928C99.4811 10.988 101.456 10.6988 102.752 10.6988C107.442 10.7566 108.985 12.4337 108.985 15.3253ZM123.117 6.6506V23.306H120.525L120.402 21.8024C119.661 22.9012 118.612 23.5952 116.761 23.5952C113.428 23.5952 111.145 21.2819 111.145 17.2916C111.145 13.1277 113.552 10.6988 118.242 10.6988C118.982 10.6988 119.661 10.7566 120.34 10.8723V6.93976C121.204 6.70843 122.191 6.6506 123.117 6.6506ZM120.34 20.5879V13.2434C119.6 13.1277 118.859 13.012 118.118 13.012C115.341 13.012 114.045 14.6313 114.045 17.3494C114.045 19.7783 115.094 21.5133 117.563 21.5133C118.674 21.4554 119.6 21.1084 120.34 20.5879ZM137.188 18.2169H128.239C128.61 20.3566 129.906 21.3398 132.436 21.3398C133.979 21.3398 135.521 21.0506 136.879 20.4145C136.756 21.1084 136.632 22.0337 136.447 22.7855C135.151 23.306 133.855 23.5373 132.312 23.5373C127.622 23.5373 125.401 21.1084 125.401 17.0602C125.401 13.5325 127.128 10.6988 131.572 10.6988C135.583 10.6988 137.311 13.1277 137.311 16.1349C137.311 16.9446 137.311 17.5229 137.188 18.2169ZM128.239 16.0193H134.534C134.534 14.053 133.423 12.8964 131.51 12.8964C129.474 12.9542 128.424 13.9952 128.239 16.0193ZM147 10.8723C147 11.6819 146.877 12.6072 146.753 13.1277C146.074 13.0699 145.457 13.012 144.655 13.012C143.976 13.012 143.297 13.0699 142.618 13.1277V23.306H139.841V11.3928C141.014 10.988 143.05 10.6988 144.593 10.6988C145.395 10.7566 146.383 10.7566 147 10.8723Z" fill="#EA1D25"/>
    </g>
    <defs>
        <clipPath id="clip0_205_368">
            <rect width="147" height="24" fill="white"/>
        </clipPath>
    </defs>
</svg>