<svg width="938" height="543" viewBox="0 0 938 543" fill="none" xmlns="http://www.w3.org/2000/svg">
<path d="M1.99997 534.415C80.727 535.084 273.759 550.341 333.556 531.997C405.398 509.959 361.855 469.106 335.78 476.927C318.761 482.032 310.465 502.699 341.95 519.431C384.156 541.863 463.202 477.541 437.354 447.318C427.276 435.532 409.816 441.966 400.489 451.337C390.122 461.752 386.286 485.126 427.175 474.37C434.288 472.498 455.322 467.504 474.447 461.395C528.708 444.058 574.88 387.637 604.938 341.662C664.127 251.127 667.775 239.699 660.808 242.708C653.838 245.717 675.04 259.446 685.872 257.438C696.704 255.426 710.709 241.18 710.709 241.18C710.709 241.18 699.731 241.089 685.599 231.936C671.464 222.782 665.232 214.986 662.32 215.603C659.41 216.227 649.059 237.606 654.407 235.552C659.751 233.499 657.511 191.68 662.346 172.999C667.18 154.317 668.516 149.164 668.516 149.164C668.516 149.164 633.094 137.254 604.444 165.583C575.797 193.913 562.536 215.915 576.593 214.739C590.65 213.563 625.129 202.55 644.319 205.452C663.509 208.354 679.263 216.552 697.741 227.516C716.22 238.48 734.447 279.622 734.935 298.996C735.423 318.367 774.97 279.798 772.876 240.079C770.779 200.36 770.991 194.228 766.96 193.874C762.925 193.52 725.163 230.489 735.998 228.478C746.833 226.47 792.196 168.095 796.367 151.994C800.535 135.889 711.779 90.9385 703.691 92.9694C695.599 95.0036 783.165 147.204 791.709 148.728C800.255 150.252 814.491 127.125 822.83 94.9191C831.168 62.7098 829.517 7.98446 819.874 2.74297C810.229 -2.49852 763.536 21.1646 739.509 36.9443C715.485 52.724 687.345 97.6812 680.931 111.833C663.474 150.363 673.828 153.339 692.296 117.175C720.101 62.7325 649.205 127.411 670.323 147.402L687.602 160.231C711.333 175.92 747.064 195.577 754.811 195.843C762.558 196.109 797.173 152.975 777.974 156.693C758.774 160.407 747.665 196.6 728.563 213.361C709.461 230.126 683.759 255.599 674.663 270.608C665.567 285.618 608.377 395.835 607.461 432.929C606.544 470.019 634.827 482.039 641.27 467.208C647.713 452.38 609.509 431.72 596.707 450.983C583.905 470.243 604.086 496.295 648.042 507.665C691.997 519.031 687.231 453.56 663.935 459.689C640.636 465.817 646.023 505.409 688.528 519.005C731.04 532.605 1015 525.186 1015 525.186" stroke="#3F55E9" stroke-width="3" stroke-linecap="round" stroke-linejoin="round"/>
</svg>
